<svg width="227" height="227" viewBox="0 0 227 227" fill="none" xmlns="http://www.w3.org/2000/svg">
<path d="M116.473 10.568L120.462 13.896C121.981 15.1614 124.119 15.372 125.855 14.4267L130.417 11.9414C132.461 10.828 135.009 11.3347 136.472 13.1467L139.736 17.188C140.979 18.7254 143.035 19.3494 144.921 18.7614L149.881 17.2134C152.103 16.52 154.504 17.5147 155.585 19.576L157.997 24.1774C158.916 25.928 160.811 26.94 162.776 26.7307L167.943 26.1814C170.257 25.9347 172.417 27.3787 173.076 29.612L174.544 34.5947C175.104 36.4907 176.764 37.8534 178.733 38.032L183.907 38.5C186.225 38.7107 188.063 40.548 188.272 42.8667L188.741 48.04C188.92 50.0094 190.283 51.6694 192.179 52.228L197.161 53.6974C199.395 54.356 200.837 56.516 200.592 58.8307L200.041 63.9974C199.832 65.9627 200.845 67.8574 202.596 68.776L207.197 71.188C209.259 72.2694 210.252 74.6694 209.559 76.892L208.012 81.852C207.424 83.7387 208.047 85.7947 209.585 87.036L213.627 90.3C215.437 91.764 215.945 94.3114 214.831 96.3556L212.347 100.918C211.4 102.654 211.611 104.792 212.877 106.31L216.204 110.3C217.696 112.088 217.696 114.686 216.204 116.474L212.877 120.464C211.611 121.982 211.4 124.12 212.347 125.856L214.831 130.419C215.945 132.463 215.437 135.011 213.627 136.473L209.585 139.737C208.047 140.98 207.424 143.036 208.012 144.923L209.559 149.883C210.252 152.104 209.259 154.505 207.197 155.587L202.596 157.999C200.845 158.917 199.832 160.812 200.041 162.777L200.592 167.944C200.837 170.259 199.395 172.419 197.161 173.078L192.179 174.545C190.283 175.105 188.92 176.765 188.741 178.735L188.272 183.908C188.063 186.226 186.225 188.064 183.907 188.273L178.733 188.743C176.764 188.921 175.104 190.284 174.544 192.18L173.076 197.163C172.417 199.396 170.257 200.838 167.943 200.593L162.776 200.043C160.811 199.833 158.916 200.847 157.997 202.597L155.585 207.199C154.504 209.26 152.103 210.254 149.881 209.56L144.921 208.013C143.035 207.425 140.979 208.048 139.736 209.587L136.472 213.628C135.009 215.438 132.461 215.947 130.417 214.832L125.855 212.348C124.119 211.401 121.981 211.612 120.462 212.879L116.473 216.205C114.685 217.697 112.087 217.697 110.299 216.205L106.309 212.879C104.791 211.612 102.653 211.401 100.917 212.348L96.3546 214.832C94.3098 215.947 91.7619 215.438 90.2994 213.628L87.0354 209.587C85.7931 208.048 83.7374 207.425 81.8499 208.013L76.8906 209.56C74.6682 210.254 72.2682 209.26 71.1868 207.199L68.7739 202.597C67.8556 200.847 65.9614 199.833 63.9952 200.043L58.8296 200.593C56.5144 200.838 54.354 199.396 53.6963 197.163L52.227 192.18C51.6682 190.284 50.0078 188.921 48.0384 188.743L42.8644 188.273C40.5463 188.064 38.7092 186.226 38.4988 183.908L38.0306 178.735C37.852 176.765 36.4895 175.105 34.5931 174.545L29.6098 173.078C27.377 172.419 25.9338 170.259 26.1802 167.944L26.7302 162.777C26.939 160.812 25.9264 158.917 24.1754 157.999L19.575 155.587C17.5135 154.505 16.5192 152.104 17.2124 149.883L18.7592 144.923C19.3478 143.036 18.7244 140.98 17.1863 139.737L13.1447 136.473C11.3338 135.011 10.827 132.463 11.9405 130.419L14.4254 125.856C15.3707 124.12 15.1603 121.982 13.8942 120.464L10.5671 116.474C9.07594 114.686 9.07594 112.088 10.5671 110.3L13.8942 106.31C15.1603 104.792 15.3707 102.654 14.4254 100.918L11.9405 96.3556C10.827 94.3114 11.3338 91.764 13.1447 90.3L17.1863 87.036C18.7244 85.7947 19.3478 83.7387 18.7592 81.852L17.2124 76.892C16.5192 74.6694 17.5135 72.2694 19.575 71.188L24.1754 68.776C25.9264 67.8574 26.939 65.9627 26.7302 63.9974L26.1802 58.8307C25.9338 56.516 27.377 54.356 29.6098 53.6974L34.5931 52.228C36.4895 51.6694 37.852 50.0094 38.0306 48.04L38.4988 42.8667C38.7092 40.548 40.5463 38.7107 42.8644 38.5L48.0384 38.032C50.0078 37.8534 51.6682 36.4907 52.227 34.5947L53.6963 29.612C54.354 27.3787 56.5144 25.9347 58.8296 26.1814L63.9952 26.7307C65.9614 26.94 67.8556 25.928 68.7739 24.1774L71.1868 19.576C72.2682 17.5147 74.6682 16.52 76.8906 17.2134L81.8499 18.7614C83.7374 19.3494 85.7931 18.7254 87.0354 17.188L90.2994 13.1467C91.7619 11.3347 94.3098 10.828 96.3546 11.9414L100.917 14.4267C102.653 15.372 104.791 15.1614 106.309 13.896L110.299 10.568C112.087 9.07735 114.685 9.07735 116.473 10.568Z" fill="#66C64D"/>
<path d="M180.743 113.049C180.743 150.18 150.641 180.28 113.51 180.28C76.3798 180.28 46.2793 150.18 46.2793 113.049C46.2793 75.9187 76.3798 45.8174 113.51 45.8174C150.641 45.8174 180.743 75.9187 180.743 113.049Z" fill="white"/>
<path d="M119.191 59.3467L77.7882 91.5334L69.4346 80.1667L59.7158 87.7947L75.3836 109.262L126.783 69.1467L119.191 59.3467Z" fill="#66C64D"/>
<path d="M83.0612 110.005L78.6675 113.628L78.7643 153.249L92.5888 153.216L92.4653 102.62L83.0612 110.005Z" fill="#66C64D"/>
<path d="M140.201 86.4254C140.201 86.4254 140.285 125.907 140.285 125.912C140.286 126.456 139.846 126.898 139.302 126.899C138.966 126.9 138.674 126.731 138.494 126.474L113.055 86.732L96.3091 100.08L96.4388 153.205L109.914 153.173L109.909 151.489L109.809 109.949H109.812C109.812 109.947 109.811 109.945 109.811 109.942C109.81 109.4 110.25 108.96 110.796 108.958C111.154 108.958 111.466 109.149 111.639 109.433L139.256 152.324C139.257 152.328 139.26 152.33 139.26 152.332L139.262 152.331C139.405 152.55 139.765 153.101 139.765 153.101L140.468 153.1L153.662 153.068L153.501 86.3934L140.201 86.4254Z" fill="#66C64D"/>
<path d="M49.5787 158.98L46.5172 154.15L44.2828 155.567L47.15 160.087L45.5625 161.093L42.6953 156.573L40.1396 158.195L43.2959 163.172L41.7088 164.179L37.3584 157.319L46.9099 151.26L51.1672 157.973L49.5787 158.98Z" fill="white"/>
<path d="M52.1072 168.269L47.7889 171.792L46.479 170.189L50.316 167.057C51.1425 166.381 51.2801 165.592 50.6545 164.826C50.0504 164.087 49.0738 163.999 48.2858 164.645L44.4848 167.747L43.1753 166.143L49.4801 160.996L50.6988 162.488L49.9832 163.073C50.8728 163.004 51.7529 163.354 52.4597 164.219C53.6582 165.685 53.3894 167.22 52.1072 168.269Z" fill="white"/>
<path d="M55.9104 179.637C55.2235 179.325 54.7489 178.972 54.3636 178.613C53.1484 177.488 53.2005 176.472 54.2287 175.363L57.262 172.092L56.1984 171.107L57.2697 169.949L58.3328 170.936L60.0432 169.092L61.562 170.499L59.8516 172.344L61.2765 173.665L60.2041 174.82L58.7792 173.5L55.9197 176.583C55.5307 177.003 55.6109 177.316 56.0068 177.684C56.1817 177.847 56.3803 178.008 56.8521 178.272L55.9104 179.637Z" fill="white"/>
<path d="M66.2277 177.832L64.8194 179.012C64.5522 178.655 64.3189 178.409 64.1074 178.242C63.2474 177.557 62.1646 177.815 61.2531 178.961L58.7517 182.102L57.1323 180.812L62.2037 174.444L63.7121 175.644L62.9678 176.579C63.7522 176.207 64.5807 176.216 65.3667 176.842C65.7151 177.119 65.9293 177.412 66.2277 177.832Z" fill="white"/>
<path d="M73.4298 182.464L65.8465 188.317C64.5304 189.342 63.5225 189.424 62.2829 188.613C61.7632 188.273 61.335 187.879 61.0913 187.584L62.2298 186.484C62.4162 186.663 62.6965 186.904 62.9766 187.087C63.4162 187.375 63.935 187.484 64.6157 186.94L66.7501 178.092L68.5632 179.279L67.9954 181.459C67.6813 182.663 67.3012 184.088 66.9861 185.121C67.8277 184.416 68.9261 183.496 69.922 182.701L71.6689 181.311L73.4298 182.464Z" fill="white"/>
<path d="M77.2404 188.754C77.88 187.504 77.5711 186.291 76.5492 185.768C75.5003 185.228 74.3774 185.709 73.7367 186.957C73.0987 188.205 73.3571 189.413 74.406 189.951C75.4263 190.475 76.6003 190 77.2404 188.754ZM80.7352 186.23L77.2044 193.121C76.1424 195.192 74.0508 195.463 72.0508 194.437C70.9019 193.849 69.9347 192.977 69.1514 191.608L70.7284 190.733C71.4362 191.867 71.9722 192.463 72.8082 192.892C73.8019 193.401 74.8274 193.317 75.4836 192.043L75.7804 191.46C75.0362 191.796 74.1727 191.801 73.1946 191.3C71.3648 190.361 70.7596 188.189 71.88 186.005C72.991 183.836 75.1164 183.043 76.9462 183.981C78.0082 184.526 78.5154 185.288 78.62 186.164L79.0342 185.356L80.7352 186.23Z" fill="white"/>
<path d="M86.2373 192.473C86.7279 191.159 86.2779 189.988 85.2025 189.591C84.0967 189.18 83.0383 189.788 82.5509 191.103C82.0618 192.416 82.4602 193.584 83.5659 193.996C84.641 194.395 85.7498 193.787 86.2373 192.473ZM89.4118 189.557L86.7159 196.813C85.9055 198.995 83.8634 199.511 81.7571 198.728C80.5462 198.279 79.4842 197.526 78.5425 196.26L80.0056 195.205C80.843 196.247 81.4446 196.777 82.3263 197.104C83.3727 197.493 84.3815 197.289 84.881 195.944L85.1082 195.332C84.4077 195.752 83.5529 195.86 82.5222 195.476C80.5968 194.761 79.7394 192.676 80.5925 190.375C81.4419 188.091 83.4586 187.056 85.3858 187.771C86.5061 188.188 87.0962 188.883 87.3045 189.742L87.6211 188.891L89.4118 189.557Z" fill="white"/>
<path d="M94.8065 195.942L94.919 195.476L93.5199 195.425C92.2658 195.377 91.4085 195.461 91.2257 196.204C91.1027 196.697 91.4789 197.104 92.2361 197.291C93.259 197.545 94.4637 197.316 94.8065 195.942ZM97.2481 194.296L95.9267 199.635L94.1147 199.185L94.3185 198.365C93.6751 198.913 92.7199 199.119 91.4981 198.816C89.9966 198.444 88.8283 197.465 89.2251 195.856C89.6778 194.031 91.459 193.799 93.3346 193.917L95.2742 194.037L95.3226 193.852C95.5133 193.079 95.0486 192.503 94.1346 192.277C93.0527 192.009 92.3721 192.365 91.357 192.952L90.3762 191.477C91.6575 190.547 92.9518 190.226 94.5142 190.613C96.7903 191.177 97.6617 192.625 97.2481 194.296Z" fill="white"/>
<path d="M104.767 192.905L104.139 194.632C103.73 194.46 103.407 194.363 103.138 194.323C102.049 194.161 101.242 194.928 101.027 196.379L100.44 200.354L98.3896 200.05L99.5839 191.991L101.493 192.275L101.316 193.456C101.809 192.74 102.531 192.332 103.525 192.479C103.967 192.544 104.298 192.69 104.767 192.905Z" fill="white"/>
<path d="M107.024 196.079L110.828 196.287C110.808 195.2 110.21 194.481 109.079 194.42C107.98 194.359 107.305 195.042 107.024 196.079ZM111.555 198.736L112.647 200.075C111.388 201.219 110.253 201.538 108.932 201.467C106.307 201.323 104.76 199.545 104.9 196.951C105.041 194.437 106.67 192.659 109.232 192.799C111.713 192.936 112.949 194.568 112.813 197.067C112.797 197.32 112.761 197.701 112.736 197.876L106.897 197.555C107.006 198.743 107.66 199.64 109.076 199.719C110.03 199.769 110.558 199.481 111.555 198.736Z" fill="white"/>
<path d="M120.522 201.065L118.455 201.204L117.91 193.079L119.977 192.94L120.522 201.065ZM119.895 191.716L117.827 191.855L117.698 189.915L119.765 189.776L119.895 191.716Z" fill="white"/>
<path d="M129.308 194.319L130.13 199.832L128.081 200.138L127.351 195.237C127.193 194.183 126.583 193.661 125.607 193.807C124.661 193.948 124.087 194.742 124.237 195.75L124.961 200.604L122.912 200.909L121.711 192.857L123.618 192.573L123.755 193.487C124.15 192.687 124.903 192.108 126.005 191.943C127.88 191.663 129.062 192.68 129.308 194.319Z" fill="white"/>
<path d="M137.236 190.732L136.496 192.323C135.347 191.831 134.697 191.801 133.896 192.011C133.093 192.217 132.653 192.679 132.773 193.142C132.905 193.649 133.437 193.611 134.841 193.559C137.124 193.477 138.167 193.815 138.547 195.28C138.94 196.792 137.98 198.176 135.839 198.732C134.388 199.108 133.216 199.035 131.641 198.224L132.461 196.63C133.861 197.269 134.539 197.342 135.464 197.101C136.251 196.896 136.76 196.452 136.62 195.912C136.453 195.265 135.603 195.354 134.413 195.399C132.064 195.481 131.241 195.101 130.876 193.699C130.529 192.357 131.408 190.926 133.521 190.379C134.848 190.033 135.884 190.093 137.236 190.732Z" fill="white"/>
<path d="M145.729 195.184C145.134 195.649 144.601 195.907 144.105 196.084C142.544 196.64 141.664 196.123 141.157 194.697L139.661 190.492L138.293 190.979L137.765 189.492L139.132 189.005L138.286 186.632L140.24 185.937L141.084 188.311L142.914 187.659L143.445 189.144L141.61 189.797L143.024 193.761C143.217 194.301 143.532 194.376 144.041 194.193C144.265 194.113 144.501 194.013 144.954 193.717L145.729 195.184Z" fill="white"/>
<path d="M150.735 189.454L150.533 189.02L149.412 189.859C148.408 190.607 147.792 191.211 148.115 191.904C148.329 192.366 148.876 192.445 149.584 192.116C150.539 191.673 151.333 190.74 150.735 189.454ZM151.607 186.642L153.925 191.626L152.235 192.412L151.879 191.647C151.72 192.476 151.107 193.236 149.965 193.767C148.563 194.419 147.04 194.39 146.339 192.887C145.545 191.181 146.788 189.884 148.323 188.802L149.909 187.678L149.828 187.504C149.493 186.781 148.769 186.626 147.916 187.021C146.904 187.492 146.6 188.196 146.177 189.29L144.491 188.757C144.903 187.228 145.709 186.168 147.168 185.49C149.293 184.503 150.88 185.08 151.607 186.642Z" fill="white"/>
<path d="M157.81 189.417L156.009 190.436L150.437 180.596L152.238 179.578L157.81 189.417Z" fill="white"/>
<path d="M161.445 187.173L159.695 188.283L153.639 178.731L155.388 177.621L161.445 187.173Z" fill="white"/>
<path d="M165.556 180.184L165.268 179.801L164.343 180.855C163.517 181.796 163.039 182.513 163.497 183.125C163.805 183.532 164.356 183.497 164.98 183.028C165.821 182.396 166.407 181.317 165.556 180.184ZM165.823 177.25L169.127 181.647L167.636 182.767L167.128 182.092C167.144 182.936 166.704 183.807 165.696 184.564C164.459 185.493 162.963 185.781 161.967 184.456C160.837 182.952 161.783 181.425 163.059 180.047L164.376 178.616L164.261 178.463C163.783 177.826 163.044 177.824 162.292 178.389C161.4 179.06 161.247 179.812 161.06 180.968L159.296 180.799C159.385 179.217 159.955 178.012 161.24 177.044C163.113 175.637 164.788 175.875 165.823 177.25Z" fill="white"/>
<path d="M174.48 176.705C174.108 177.363 173.715 177.805 173.324 178.159C172.097 179.272 171.088 179.132 170.072 178.011L167.076 174.704L166.001 175.678L164.943 174.509L166.016 173.535L164.325 171.669L165.86 170.279L167.552 172.144L168.992 170.84L170.052 172.008L168.611 173.314L171.435 176.43C171.82 176.855 172.139 176.803 172.541 176.438C172.719 176.28 172.895 176.095 173.2 175.648L174.48 176.705Z" fill="white"/>
<path d="M177.113 174.15L175.668 175.632L169.841 169.948L171.288 168.465L177.113 174.15ZM170.409 167.608L168.964 169.089L167.572 167.732L169.018 166.25L170.409 167.608Z" fill="white"/>
<path d="M176.776 168.528C178.003 169.52 179.315 169.493 180.125 168.489C180.928 167.499 180.679 166.213 179.452 165.221C178.237 164.238 176.913 164.255 176.112 165.245C175.303 166.249 175.564 167.545 176.776 168.528ZM180.775 163.587C182.78 165.209 183.04 167.673 181.487 169.592C179.925 171.524 177.461 171.784 175.455 170.161C173.448 168.538 173.188 166.075 174.751 164.143C176.304 162.224 178.767 161.963 180.775 163.587Z" fill="white"/>
<path d="M184.535 155.263L189.211 158.307L188.081 160.044L183.924 157.338C183.031 156.757 182.236 156.867 181.696 157.696C181.176 158.497 181.389 159.455 182.245 160.011L186.359 162.688L185.229 164.424L178.401 159.981L179.455 158.367L180.228 158.871C179.892 158.042 179.957 157.096 180.565 156.16C181.6 154.571 183.147 154.359 184.535 155.263Z" fill="white"/>
<path d="M66.8187 54.8787L64.2567 57.0307L53.3379 44.04L55.9004 41.888L66.8187 54.8787Z" fill="white"/>
<path d="M72.7698 30.736L81.4724 45.3094L78.4146 47.1347L71.1891 43.432C69.2151 42.4094 67.2208 41.4027 65.4599 40.3654C66.5594 42.02 67.7282 43.8827 68.9662 45.956L71.9698 50.9854L69.1776 52.652L60.4751 38.0787L63.5954 36.216L71.2656 40.1547C73.0068 41.0654 74.7547 41.9414 76.3812 42.892C75.3803 41.4027 74.3298 39.6907 73.1407 37.6987L69.9776 32.404L72.7698 30.736Z" fill="white"/>
<path d="M93.5178 31.4507L101.187 29.6054L103.39 38.7614L100.903 39.3614L100.366 37.8427C99.6553 39.488 98.1105 40.4254 96.1126 40.9067C91.046 42.1254 87.2637 39.176 86.06 34.18C84.8752 29.2534 87.0819 24.8374 92.3116 23.5787C95.1465 22.896 97.3288 23.2814 100.074 24.98L98.5376 27.588C96.2127 26.3027 94.7886 26.0067 92.9756 26.4427C90.0474 27.1467 88.4892 29.6614 89.384 33.38C90.2903 37.1454 92.7111 38.7254 95.6861 38.0094C98.2881 37.384 99.5048 35.592 98.9564 33.3147L98.8955 33.0574L94.1777 34.1934L93.5178 31.4507Z" fill="white"/>
<path d="M113.188 33.4707L113.165 32.7547L111.125 33.252C109.298 33.6947 108.094 34.1654 108.132 35.312C108.157 36.076 108.865 36.5067 110.036 36.468C111.613 36.416 113.259 35.5974 113.188 33.4707ZM116.042 30.1L116.315 38.34L113.52 38.4334L113.479 37.1667C112.772 38.2187 111.479 38.9067 109.592 38.9694C107.275 39.0467 105.187 38.1107 105.105 35.6267C105.012 32.8094 107.488 31.7454 110.242 31.152L113.091 30.532L113.082 30.2454C113.043 29.0507 112.137 28.412 110.727 28.4587C109.055 28.5134 108.22 29.3067 106.995 30.5667L104.976 28.84C106.445 26.9734 108.181 25.984 110.594 25.904C114.106 25.7867 115.957 27.5187 116.042 30.1Z" fill="white"/>
<path d="M127.926 27.5533L127.073 30.1747C126.451 29.9347 125.961 29.8067 125.558 29.76C123.919 29.5734 122.747 30.7627 122.498 32.9467L121.814 38.932L118.728 38.5787L120.114 26.444L122.987 26.772L122.784 28.5533C123.486 27.4547 124.547 26.8067 126.044 26.9774C126.709 27.0534 127.214 27.256 127.926 27.5533Z" fill="white"/>
<path d="M135.829 36.64L136.008 35.9467L133.909 35.8467C132.034 35.7561 130.745 35.8667 130.457 36.9774C130.265 37.7187 130.823 38.332 131.956 38.624C133.483 39.0214 135.295 38.7 135.829 36.64ZM139.52 34.2147L137.451 42.1974L134.743 41.4961L135.061 40.2707C134.087 41.0787 132.651 41.3734 130.824 40.8987C128.579 40.3187 126.84 38.8307 127.464 36.424C128.172 33.6934 130.847 33.3734 133.657 33.584L136.565 33.7947L136.639 33.516C136.937 32.36 136.249 31.4907 134.885 31.1374C133.266 30.7174 132.24 31.2414 130.709 32.1027L129.26 29.8761C131.197 28.5014 133.144 28.0427 135.48 28.6494C138.881 29.5307 140.167 31.7161 139.52 34.2147Z" fill="white"/>
<path d="M153.025 39.9107L149.537 47.512L146.713 46.2173L149.813 39.4614C150.481 38.0067 150.143 36.852 148.796 36.2333C147.493 35.636 146.12 36.164 145.483 37.5533L142.413 44.2427L139.588 42.9467L144.683 31.848L147.311 33.0533L146.732 34.3134C147.887 33.6334 149.305 33.5213 150.825 34.22C153.411 35.4067 154.063 37.652 153.025 39.9107Z" fill="white"/>
<path d="M157.721 52.6307C156.624 52.3453 155.831 51.944 155.169 51.5133C153.085 50.1573 152.903 48.6427 154.139 46.7387L157.788 41.128L155.964 39.9427L157.253 37.9587L159.077 39.1453L161.136 35.9787L163.74 37.6707L161.683 40.8373L164.127 42.4267L162.837 44.4107L160.392 42.8213L156.953 48.112C156.484 48.8333 156.683 49.2747 157.363 49.7187C157.664 49.9133 157.997 50.1013 158.763 50.372L157.721 52.6307Z" fill="white"/>
<path d="M170.108 44.8187L167.683 42.8734L169.507 40.5974L171.933 42.5414L170.108 44.8187ZM161.316 55.7894L158.891 53.8454L166.531 44.3107L168.959 46.2547L161.316 55.7894Z" fill="white"/>
</svg>
