<svg width="411" height="411" viewBox="0 0 411 411" fill="none" xmlns="http://www.w3.org/2000/svg">
<path d="M182.504 11.9107C196.925 4.44147 214.075 4.44146 228.496 11.9107L255.317 25.8027C260.175 28.3186 265.412 30.0203 270.821 30.84L300.685 35.3663C316.742 37.7999 330.617 47.8805 337.893 62.3996L351.426 89.4036C353.877 94.2941 357.114 98.7493 361.008 102.592L382.508 123.807C394.068 135.214 399.368 151.525 396.721 167.548L391.797 197.349C390.905 202.747 390.905 208.253 391.797 213.651L396.721 243.452C399.368 259.475 394.068 275.786 382.508 287.193L361.008 308.408C357.114 312.251 353.877 316.706 351.426 321.596L337.893 348.6C330.617 363.119 316.742 373.2 300.685 375.634L270.821 380.16C265.412 380.98 260.175 382.681 255.317 385.197L228.496 399.089C214.075 406.559 196.925 406.559 182.504 399.089L155.683 385.197C150.825 382.681 145.588 380.98 140.179 380.16L110.315 375.634C94.2579 373.2 80.3832 363.12 73.1068 348.6L59.5734 321.596C57.1225 316.706 53.8856 312.251 49.9918 308.408L28.4915 287.193C16.9316 275.786 11.6319 259.475 14.2793 243.452L19.2031 213.651C20.0949 208.253 20.0949 202.747 19.2031 197.349L14.2793 167.548C11.6319 151.525 16.9316 135.214 28.4915 123.807L49.9918 102.592C53.8856 98.7493 57.1225 94.2941 59.5734 89.4036L73.1068 62.3996C80.3832 47.8805 94.2579 37.7999 110.315 35.3663L140.179 30.84C145.588 30.0203 150.825 28.3186 155.683 25.8027L182.504 11.9107Z" fill="white"/>
<path d="M65.7923 256.273C65.3803 256.423 65.0335 256.621 64.7521 256.867C64.4562 257.106 64.2305 257.439 64.0749 257.867C63.9087 258.298 63.7959 258.86 63.7363 259.551C63.6768 260.243 63.6701 261.113 63.7163 262.161C63.7586 263.33 63.7394 264.461 63.6588 265.555C63.5743 266.639 63.3827 267.642 63.084 268.564C62.7709 269.479 62.3141 270.279 61.7138 270.964C61.1096 271.639 60.3109 272.156 59.3177 272.518C58.3561 272.867 57.4076 272.973 56.4719 272.835C55.5257 272.7 54.6343 272.355 53.7976 271.797C52.9503 271.244 52.1852 270.506 51.5022 269.582C50.8153 268.647 50.2451 267.556 49.7917 266.309C49.173 264.608 48.9395 263.012 49.0912 261.521C49.2429 260.031 49.7256 258.742 50.5392 257.657C51.3489 256.561 52.4406 255.763 53.8142 255.264L55.5319 259.987C54.8557 260.233 54.3158 260.59 53.9124 261.06C53.4946 261.523 53.2415 262.094 53.1531 262.772C53.061 263.44 53.1705 264.201 53.4818 265.057C53.7815 265.881 54.1581 266.522 54.6115 266.979C55.0543 267.44 55.5371 267.731 56.0596 267.852C56.5716 267.977 57.0865 267.945 57.6043 267.757C57.9952 267.615 58.3146 267.391 58.5624 267.086C58.8064 266.77 58.9947 266.366 59.1272 265.875C59.2597 265.384 59.3438 264.81 59.3793 264.151C59.4148 263.492 59.4124 262.745 59.372 261.91C59.2951 260.514 59.3214 259.255 59.4511 258.131C59.5769 256.996 59.8184 255.999 60.1757 255.139C60.533 254.28 61.0272 253.55 61.6583 252.949C62.2894 252.349 63.0804 251.876 64.0314 251.53C65.0352 251.165 66.0044 251.034 66.9391 251.136C67.8737 251.239 68.7503 251.56 69.5687 252.1C70.3872 252.64 71.1254 253.37 71.7835 254.292C72.4415 255.213 73.0011 256.307 73.4623 257.575C73.8773 258.716 74.1386 259.896 74.2462 261.113C74.3433 262.333 74.2507 263.51 73.9683 264.641C73.6821 265.762 73.1615 266.765 72.4065 267.65C71.6515 268.535 70.6242 269.213 69.3245 269.686L67.5895 264.915C68.308 264.654 68.8752 264.322 69.2911 263.92C69.7071 263.517 69.9952 263.059 70.1556 262.546C70.3122 262.023 70.3573 261.456 70.291 260.846C70.2208 260.226 70.0628 259.577 69.8169 258.901C69.5171 258.077 69.155 257.443 68.7303 256.999C68.3019 256.545 67.8355 256.266 67.3312 256.162C66.8231 256.048 66.3101 256.085 65.7923 256.273Z" fill="black"/>
<path d="M61.9162 235.706L41.7633 233.516L40.7485 227.975L66.4428 231.962L67.1113 235.611L61.9162 235.706ZM43.7655 244.448L61.8372 235.274L66.7223 233.488L67.3969 237.171L44.7743 249.955L43.7655 244.448Z" fill="black"/>
<path d="M60.6033 204.562L64.5487 204.47L64.8528 217.537L60.9074 217.629L60.6033 204.562ZM40.2653 216.456L64.8143 215.884L64.9321 220.943L40.383 221.514L40.2653 216.456ZM50.0376 206.512L53.8818 206.422L54.1463 217.786L50.3021 217.875L50.0376 206.512ZM40 205.058L43.9622 204.966L44.266 218.016L40.3037 218.108L40 205.058Z" fill="black"/>
<path d="M40.5352 195.391L41.7663 186.317C42.0187 184.456 42.5141 182.895 43.2525 181.634C43.9925 180.361 44.9575 179.437 46.1476 178.861C47.3377 178.285 48.7294 178.105 50.3226 178.321C51.6262 178.498 52.7156 178.873 53.5911 179.445C54.4568 180.005 55.1473 180.729 55.6624 181.615C56.1678 182.49 56.5319 183.486 56.7544 184.606L57.3746 186.307L56.3045 194.195L52.3894 193.698L53.1851 187.832C53.3046 186.952 53.2476 186.201 53.0142 185.579C52.7808 184.957 52.4053 184.464 51.8875 184.099C51.3712 183.722 50.7455 183.484 50.0101 183.385C49.2302 183.279 48.5365 183.332 47.929 183.545C47.3215 183.757 46.8273 184.138 46.4464 184.688C46.0654 185.238 45.8145 185.958 45.6936 186.85L45.1427 190.911L65.5481 193.679L64.868 198.692L40.5352 195.391ZM66.7135 185.089L55.1146 189.166L55.7999 183.864L67.2073 179.693L67.4412 179.724L66.7135 185.089Z" fill="black"/>
<path d="M46.3805 164.379L70.0813 170.802L68.7624 175.669L45.0615 169.246L46.3805 164.379Z" fill="black"/>
<path d="M67.5262 141.252L76.4887 145.043C76.7644 145.575 76.9952 146.313 77.1813 147.259C77.357 148.2 77.3757 149.324 77.2372 150.633C77.0987 151.942 76.6813 153.419 75.9849 155.066C75.3673 156.526 74.5663 157.756 73.5819 158.756C72.5871 159.751 71.4398 160.486 70.1399 160.962C68.8444 161.427 67.425 161.608 65.8817 161.505C64.3281 161.397 62.6815 160.975 60.9418 160.239L59.5283 159.642C57.7886 158.906 56.3346 158.028 55.1664 157.009C54.0026 155.98 53.1321 154.849 52.5549 153.616C51.9777 152.383 51.691 151.084 51.6949 149.718C51.6987 148.352 52.0007 146.96 52.6007 145.542C53.4329 143.574 54.4372 142.094 55.6136 141.103C56.7796 140.107 58.0671 139.516 59.4762 139.331C60.8792 139.13 62.3385 139.259 63.8539 139.717L61.9421 144.237C61.1276 144.027 60.3677 143.962 59.6624 144.042C58.9571 144.122 58.3169 144.395 57.7418 144.859C57.1712 145.314 56.6866 146.012 56.288 146.955C55.9595 147.731 55.8265 148.493 55.8891 149.24C55.9458 149.972 56.192 150.674 56.6277 151.347C57.0635 152.019 57.6858 152.655 58.4948 153.253C59.3037 153.852 60.3036 154.403 61.4944 154.907L62.939 155.518C64.1195 156.017 65.2136 156.345 66.2212 156.503C67.2185 156.656 68.1219 156.642 68.9316 156.459C69.7352 156.262 70.4326 155.898 71.0235 155.366C71.6145 154.835 72.0961 154.129 72.4684 153.249C72.7794 152.514 72.9757 151.877 73.0573 151.337C73.1433 150.788 73.1617 150.325 73.1127 149.951C73.0577 149.561 72.9824 149.249 72.8868 149.013L68.8793 147.318L67.0792 151.574L63.7551 150.168L67.5262 141.252Z" fill="black"/>
<path d="M87.3832 125.44L90.7206 127.546L83.7446 138.599L80.4073 136.493L87.3832 125.44ZM63.8609 124.096L84.6268 137.202L81.9264 141.48L61.1606 128.375L63.8609 124.096ZM77.5032 121.219L80.7549 123.271L74.6881 132.884L71.4363 130.832L77.5032 121.219ZM69.9458 114.455L73.2974 116.57L66.3304 127.609L62.9788 125.494L69.9458 114.455Z" fill="black"/>
<path d="M97.2497 109.669C96.9201 109.38 96.5797 109.171 96.2287 109.043C95.8767 108.899 95.4758 108.861 95.0262 108.93C94.5682 108.992 94.0217 109.164 93.3868 109.444C92.7518 109.725 91.9861 110.137 91.0896 110.682C90.0852 111.282 89.084 111.81 88.086 112.265C87.0955 112.713 86.1242 113.027 85.1721 113.209C84.2189 113.375 83.2977 113.36 82.4084 113.163C81.5265 112.958 80.6882 112.507 79.8937 111.81C79.1244 111.135 78.5753 110.355 78.2463 109.468C77.9089 108.574 77.7831 107.626 77.8688 106.625C77.9462 105.616 78.2255 104.589 78.7069 103.546C79.1957 102.494 79.8775 101.47 80.7523 100.472C81.9459 99.1113 83.2327 98.1386 84.6126 97.5543C85.9925 96.9699 87.354 96.7731 88.697 96.964C90.0475 97.1464 91.2722 97.7195 92.371 98.6833L89.0572 102.462C88.5162 101.987 87.9427 101.686 87.3368 101.559C86.7299 101.415 86.1079 101.468 85.4709 101.717C84.8413 101.957 84.2262 102.42 83.6257 103.104C83.0474 103.764 82.667 104.402 82.4844 105.02C82.2933 105.63 82.2704 106.193 82.4158 106.709C82.5527 107.218 82.8283 107.654 83.2425 108.017C83.5552 108.292 83.9051 108.464 84.2922 108.534C84.6866 108.596 85.1309 108.567 85.6249 108.447C86.119 108.327 86.6634 108.124 87.2582 107.838C87.853 107.552 88.5065 107.19 89.2188 106.753C90.4054 106.014 91.5224 105.431 92.57 105.004C93.6251 104.569 94.6154 104.301 95.541 104.2C96.4666 104.1 97.3444 104.182 98.1743 104.446C99.0043 104.71 99.7997 105.176 100.561 105.843C101.364 106.547 101.945 107.334 102.305 108.203C102.664 109.071 102.804 109.994 102.725 110.972C102.646 111.949 102.361 112.948 101.87 113.968C101.379 114.988 100.689 116.005 99.7988 117.019C98.9981 117.932 98.0902 118.729 97.0751 119.409C96.0516 120.081 94.9758 120.566 93.848 120.863C92.7276 121.151 91.5979 121.178 90.4591 120.942C89.3202 120.705 88.2309 120.131 87.1912 119.22L90.5384 115.403C91.1132 115.907 91.6771 116.245 92.2301 116.416C92.7831 116.587 93.323 116.619 93.8498 116.513C94.3841 116.398 94.9026 116.165 95.4054 115.813C95.9157 115.453 96.408 115.003 96.8825 114.462C97.4607 113.802 97.8422 113.18 98.0269 112.594C98.2191 112 98.2393 111.457 98.0875 110.965C97.9432 110.464 97.6639 110.032 97.2497 109.669Z" fill="black"/>
<path d="M131.271 77.3185L125.793 80.4462L124.041 77.446L128.64 74.82C129.45 74.3573 130.056 73.8756 130.456 73.3751C130.851 72.8648 131.061 72.337 131.086 71.7918C131.116 71.2312 130.963 70.658 130.629 70.0721C130.249 69.4082 129.816 68.9437 129.328 68.6786C128.85 68.4079 128.294 68.3304 127.661 68.4459C127.037 68.5559 126.315 68.8451 125.495 69.3134L122.449 71.0529L132.66 88.9348L128.267 91.4437L116.09 70.1201L123.53 65.8717C124.77 65.1637 125.945 64.648 127.055 64.3248C128.175 63.996 129.213 63.8757 130.17 63.9639C131.127 64.052 131.995 64.3591 132.774 64.885C133.548 65.4012 134.219 66.1573 134.788 67.1532C135.29 68.0319 135.552 68.9566 135.576 69.9272C135.609 70.8922 135.335 71.8516 134.753 72.8053C134.181 73.7534 133.23 74.6394 131.901 75.4632L131.271 77.3185ZM136.424 86.7855L129.936 90.4903L129.693 86.0849L134.467 83.3585C135.239 82.9181 135.799 82.4364 136.148 81.9136C136.491 81.3809 136.657 80.8329 136.646 80.2695C136.635 79.7061 136.471 79.1462 136.153 78.5896C135.796 77.9648 135.379 77.4842 134.902 77.148C134.435 76.8062 133.902 76.6443 133.304 76.6622C132.7 76.6704 132.022 76.8892 131.271 77.3185L127.038 79.7354L125.345 76.7017L130.617 73.691L132.305 74.3002C133.592 73.5392 134.768 73.1721 135.832 73.1989C136.9 73.2104 137.83 73.4888 138.62 74.0344C139.421 74.5743 140.066 75.2738 140.557 76.133C141.337 77.4999 141.697 78.8221 141.637 80.0995C141.571 81.3671 141.096 82.5642 140.212 83.6907C139.337 84.8117 138.074 85.8433 136.424 86.7855Z" fill="black"/>
<path d="M150.935 57.8206L151.512 79.2364L146.447 81.0505L146.756 54.8567L149.979 53.7023L150.935 57.8206ZM163.023 75.1134L149.855 58.2073L147.931 54.4359L151.186 53.2701L168.104 73.2936L163.023 75.1134ZM159.655 66.6103L160.991 70.3415L148.781 74.7147L147.445 70.9835L159.655 66.6103ZM141.673 52.7184C141.476 52.168 141.515 51.6283 141.792 51.0994C142.075 50.5561 142.523 50.1745 143.137 49.9547C143.772 49.7272 144.367 49.7353 144.92 49.9791C145.469 50.2123 145.842 50.6041 146.039 51.1545C146.236 51.7049 146.197 52.2446 145.921 52.7735C145.644 53.3024 145.188 53.6806 144.553 53.9081C143.939 54.128 143.353 54.1232 142.793 53.8938C142.243 53.6606 141.87 53.2688 141.673 52.7184ZM149.475 49.942C149.274 49.381 149.311 48.8361 149.588 48.3072C149.864 47.7783 150.314 47.402 150.939 47.1783C151.563 46.9546 152.15 46.9593 152.7 47.1925C153.259 47.4219 153.64 47.8171 153.841 48.3781C154.038 48.9285 153.993 49.4701 153.706 50.0028C153.426 50.5211 152.974 50.8921 152.349 51.1158C151.725 51.3395 151.14 51.34 150.594 51.1174C150.045 50.8842 149.672 50.4924 149.475 49.942Z" fill="black"/>
<path d="M183.423 63.8692C183.347 63.4373 183.213 63.0612 183.02 62.7412C182.836 62.4081 182.547 62.1276 182.154 61.8997C181.758 61.6607 181.225 61.4515 180.554 61.272C179.884 61.0926 179.028 60.934 177.988 60.7963C176.83 60.6337 175.719 60.4171 174.656 60.1465C173.604 59.874 172.65 59.5101 171.794 59.0549C170.947 58.5866 170.239 57.9971 169.67 57.2863C169.111 56.5736 168.741 55.6967 168.559 54.6557C168.383 53.6478 168.444 52.6954 168.744 51.7983C169.042 50.8902 169.538 50.0729 170.233 49.3465C170.926 48.6089 171.787 47.9846 172.816 47.4736C173.856 46.9606 175.03 46.5898 176.337 46.3612C178.12 46.0493 179.732 46.0983 181.173 46.5082C182.615 46.9181 183.799 47.6184 184.725 48.6091C185.663 49.5979 186.258 50.8121 186.51 52.2519L181.559 53.1179C181.435 52.4091 181.177 51.815 180.785 51.3357C180.402 50.8434 179.885 50.4945 179.232 50.289C178.591 50.0816 177.822 50.0564 176.925 50.2133C176.061 50.3644 175.364 50.6232 174.835 50.9898C174.303 51.3452 173.933 51.7697 173.722 52.263C173.51 52.7453 173.451 53.2578 173.546 53.8005C173.618 54.2103 173.782 54.5639 174.04 54.8612C174.308 55.1567 174.673 55.4125 175.133 55.6288C175.593 55.8451 176.144 56.0283 176.787 56.1784C177.429 56.3285 178.165 56.4566 178.994 56.5627C180.382 56.7309 181.618 56.977 182.702 57.301C183.797 57.6231 184.736 58.0351 185.52 58.5372C186.304 59.0392 186.937 59.6533 187.418 60.3796C187.899 61.1059 188.226 61.9674 188.401 62.9642C188.585 64.0163 188.545 64.9935 188.28 65.8958C188.016 66.7982 187.546 67.6051 186.872 68.3166C186.197 69.0281 185.349 69.6273 184.327 70.1143C183.305 70.6012 182.129 70.9609 180.8 71.1934C179.604 71.4027 178.397 71.4539 177.18 71.3472C175.961 71.2295 174.819 70.9327 173.754 70.457C172.701 69.9793 171.804 69.2915 171.065 68.3935C170.326 67.4956 169.837 66.3655 169.599 65.0032L174.599 64.1285C174.731 64.8816 174.959 65.4981 175.282 65.978C175.606 66.4578 176.006 66.8215 176.483 67.0691C176.971 67.3147 177.522 67.4582 178.134 67.4995C178.757 67.5388 179.423 67.4965 180.132 67.3725C180.996 67.2214 181.683 66.9756 182.194 66.6351C182.717 66.2926 183.073 65.8822 183.263 65.4037C183.464 64.9234 183.518 64.4119 183.423 63.8692Z" fill="black"/>
<path d="M205.034 44.1167L205.413 68.669L200.371 68.7469L199.992 44.1945L205.034 44.1167ZM212.589 44L212.65 47.9628L192.617 48.2721L192.555 44.3093L212.589 44Z" fill="black"/>
<path d="M230.287 50.2134L220.564 69.3038L215.248 68.4785L228.031 45.6136L231.414 46.1388L230.287 50.2134ZM232.647 71.1796L229.153 50.0375L229.264 45.8051L232.681 46.3354L237.98 72.0076L232.647 71.1796ZM233.749 62.1005L233.141 66.0168L220.325 64.0272L220.933 60.1109L233.749 62.1005Z" fill="black"/>
<path d="M276.526 59.8236L284.578 64.1875C286.228 65.0823 287.513 66.0982 288.431 67.2354C289.359 68.3779 289.882 69.6076 290 70.9246C290.117 72.2415 289.793 73.6068 289.026 75.0203C288.4 76.1767 287.663 77.063 286.818 77.679C285.988 78.2905 285.067 78.6801 284.055 78.8478C283.058 79.0111 281.997 78.9986 280.872 78.8105L279.061 78.7883L272.063 74.995L273.914 71.5094L279.118 74.3303C279.899 74.7536 280.621 74.9661 281.285 74.968C281.949 74.9698 282.544 74.7933 283.069 74.4384C283.604 74.0888 284.048 73.5878 284.401 72.9354C284.776 72.2435 284.972 71.5758 284.988 70.9324C285.005 70.289 284.823 69.6919 284.444 69.141C284.065 68.5902 283.48 68.1004 282.689 67.6718L279.086 65.7189L269.273 83.8225L264.825 81.4115L276.526 59.8236ZM276.894 87.9534L277.187 75.6625L281.904 78.1805L281.766 90.3256L281.654 90.5332L276.894 87.9534Z" fill="black"/>
<path d="M309.384 95.7214L308.659 96.6316C307.496 98.0915 306.254 99.2442 304.934 100.09C303.613 100.935 302.267 101.48 300.894 101.723C299.528 101.958 298.173 101.891 296.827 101.524C295.49 101.163 294.214 100.499 293.001 99.5324C291.796 98.5727 290.864 97.4781 290.205 96.2485C289.554 95.026 289.186 93.7195 289.101 92.329C289.022 90.9297 289.243 89.4885 289.764 88.0055C290.292 86.5294 291.138 85.0615 292.301 83.6017L293.026 82.6915C294.196 81.2229 295.438 80.0702 296.751 79.2334C298.072 78.3878 299.418 77.8433 300.791 77.5999C302.173 77.3635 303.532 77.4256 304.869 77.7863C306.215 78.154 307.49 78.8177 308.695 79.7775C309.908 80.7442 310.84 81.8389 311.491 83.0614C312.15 84.2909 312.515 85.6018 312.584 86.9941C312.663 88.3934 312.437 89.8311 311.908 91.3071C311.395 92.7814 310.554 94.2528 309.384 95.7214ZM304.662 93.4477L305.408 92.5111C306.22 91.491 306.843 90.5205 307.274 89.5995C307.706 88.6785 307.952 87.8105 308.012 86.9957C308.071 86.1808 307.947 85.4348 307.638 84.7577C307.337 84.0717 306.852 83.4626 306.183 82.9302C305.515 82.3978 304.813 82.0612 304.077 81.9205C303.356 81.778 302.606 81.827 301.825 82.0674C301.053 82.3148 300.266 82.7519 299.465 83.3787C298.664 84.0055 297.857 84.8289 297.044 85.849L296.298 86.7856C295.493 87.7969 294.87 88.7675 294.432 89.6973C294 90.6182 293.751 91.4906 293.684 92.3142C293.624 93.1291 293.745 93.8795 294.047 94.5654C294.348 95.2514 294.833 95.8605 295.502 96.3929C296.17 96.9254 296.872 97.2619 297.608 97.4026C298.344 97.5433 299.098 97.4899 299.871 97.2425C300.65 96.9863 301.44 96.5448 302.241 95.918C303.049 95.2825 303.856 94.459 304.662 93.4477ZM305.752 73.0778C306.116 72.6205 306.596 72.3702 307.191 72.3268C307.802 72.2816 308.363 72.4622 308.873 72.8685C309.4 73.2888 309.706 73.7983 309.79 74.3969C309.881 74.9867 309.744 75.5102 309.38 75.9675C309.015 76.4248 308.536 76.6751 307.94 76.7185C307.345 76.7619 306.784 76.5734 306.256 76.1531C305.746 75.7468 305.441 75.2452 305.342 74.6484C305.251 74.0586 305.388 73.5351 305.752 73.0778ZM312.218 78.2504C312.59 77.7843 313.073 77.5296 313.668 77.4862C314.263 77.4429 314.82 77.6278 315.339 78.0411C315.858 78.4545 316.163 78.956 316.254 79.5458C316.353 80.1426 316.217 80.6741 315.846 81.1401C315.482 81.5974 314.998 81.8443 314.394 81.8806C313.805 81.9152 313.252 81.7259 312.733 81.3125C312.214 80.8992 311.906 80.4021 311.808 79.8211C311.717 79.2313 311.854 78.7077 312.218 78.2504Z" fill="black"/>
<path d="M323.502 93.2476L329.59 100.088C330.838 101.491 331.701 102.883 332.178 104.265C332.662 105.655 332.736 106.989 332.399 108.267C332.062 109.546 331.292 110.719 330.091 111.788C329.109 112.663 328.115 113.246 327.111 113.538C326.122 113.831 325.123 113.884 324.115 113.698C323.122 113.513 322.129 113.141 321.134 112.581L319.439 111.945L314.147 105.998L317.072 103.35L321.008 107.771C321.598 108.435 322.205 108.88 322.829 109.108C323.453 109.335 324.072 109.371 324.686 109.216C325.308 109.069 325.896 108.749 326.451 108.256C327.039 107.732 327.449 107.171 327.683 106.571C327.917 105.972 327.95 105.348 327.78 104.702C327.611 104.055 327.227 103.395 326.629 102.723L323.905 99.6619L308.522 113.352L305.158 109.572L323.502 93.2476ZM314.285 119.827L318.739 108.368L322.319 112.339L318.061 123.714L317.884 123.871L314.285 119.827Z" fill="black"/>
<path d="M342.595 116.244L344.774 119.932L332.459 134.532L351.19 130.793L353.369 134.481L327.715 139.333L325.965 136.371L342.595 116.244ZM341.42 114.254L343.59 117.928L328.854 127.534L322.842 131.085L320.278 126.744L341.42 114.254ZM352.374 132.797L354.553 136.485L333.411 148.975L330.837 144.618L336.849 141.067L352.374 132.797Z" fill="black"/>
<path d="M354.086 168.484L352.988 168.868C351.226 169.484 349.561 169.798 347.993 169.81C346.425 169.823 344.995 169.566 343.704 169.041C342.423 168.512 341.311 167.734 340.368 166.706C339.429 165.689 338.703 164.448 338.191 162.983C337.682 161.529 337.476 160.106 337.573 158.714C337.674 157.333 338.058 156.032 338.727 154.809C339.406 153.583 340.36 152.481 341.59 151.503C342.824 150.535 344.322 149.744 346.084 149.127L347.182 148.743C348.955 148.124 350.62 147.809 352.177 147.801C353.745 147.788 355.175 148.045 356.466 148.57C357.761 149.106 358.878 149.882 359.818 150.899C360.761 151.927 361.487 153.168 361.995 154.622C362.508 156.087 362.713 157.51 362.613 158.891C362.516 160.283 362.126 161.586 361.443 162.802C360.764 164.028 359.808 165.125 358.574 166.092C357.354 167.067 355.858 167.864 354.086 168.484ZM351.301 164.044L352.431 163.649C353.662 163.218 354.706 162.728 355.562 162.179C356.418 161.629 357.088 161.026 357.573 160.368C358.057 159.71 358.349 159.012 358.449 158.275C358.559 157.534 358.473 156.76 358.191 155.953C357.909 155.146 357.493 154.488 356.945 153.977C356.412 153.472 355.75 153.114 354.962 152.902C354.176 152.7 353.278 152.651 352.266 152.754C351.254 152.858 350.132 153.125 348.901 153.556L347.771 153.951C346.55 154.378 345.507 154.868 344.64 155.421C343.784 155.971 343.109 156.576 342.613 157.238C342.129 157.895 341.831 158.595 341.721 159.336C341.611 160.077 341.697 160.851 341.979 161.658C342.262 162.465 342.677 163.123 343.225 163.635C343.773 164.146 344.439 164.502 345.224 164.704C346.02 164.902 346.924 164.949 347.936 164.845C348.959 164.738 350.08 164.471 351.301 164.044Z" fill="black"/>
<path d="M368.286 179.504L344.051 183.457L343.236 178.463L367.472 174.51L368.286 179.504ZM370.654 194.018L357.119 186.366L350.256 181.795L354.837 180.125L360.574 183.034L369.655 187.893L370.654 194.018ZM345.492 192.295L355.53 183.327L359.229 186.517L346.456 198.204L345.492 192.295Z" fill="black"/>
<path d="M366.752 212.305L346.51 205.29L346.599 199.91L371 209.441L370.943 212.864L366.752 212.305ZM346.307 217.515L366.771 211.159L370.979 210.689L370.922 214.146L346.217 222.911L346.307 217.515ZM355.451 217.363L351.489 217.297L351.704 204.33L355.667 204.396L355.451 217.363Z" fill="black"/>
<path d="M369.592 232.592L367.873 241.587C367.521 243.431 366.942 244.963 366.136 246.183C365.329 247.413 364.315 248.284 363.096 248.795C361.876 249.306 360.477 249.411 358.898 249.109C357.606 248.862 356.538 248.429 355.695 247.81C354.861 247.204 354.21 246.445 353.744 245.531C353.286 244.631 352.976 243.616 352.815 242.486L352.287 240.754L353.781 232.936L357.664 233.643L356.553 239.458C356.386 240.33 356.402 241.083 356.602 241.716C356.801 242.35 357.15 242.863 357.647 243.255C358.142 243.659 358.754 243.931 359.483 244.07C360.256 244.218 360.952 244.202 361.57 244.022C362.188 243.843 362.702 243.489 363.112 242.96C363.522 242.432 363.812 241.726 363.98 240.843L364.75 236.817L344.523 232.952L345.473 227.983L369.592 232.592ZM342.896 241.467L354.698 238.022L353.728 243.279L342.112 246.828L341.88 246.784L342.896 241.467Z" fill="black"/>
<path d="M338.8 266.976L335.091 265.627L339.558 253.344L343.267 254.693L338.8 266.976ZM362.071 263.29L338.994 254.897L340.723 250.142L363.8 258.535L362.071 263.29ZM349.352 269.001L345.738 267.687L349.623 257.004L353.237 258.318L349.352 269.001ZM358.174 274.004L354.449 272.649L358.911 260.382L362.635 261.737L358.174 274.004Z" fill="black"/>
<path d="M324.938 205.47C324.938 139.488 271.45 86 205.469 86" stroke="#3096D0" stroke-width="6"/>
<path d="M205.47 323.5C271.451 323.5 324.939 270.012 324.939 204.03" stroke="#C3DA4A" stroke-width="6"/>
<path d="M85.999 204.03C85.999 270.012 139.487 323.5 205.469 323.5" stroke="#ED2281" stroke-width="6"/>
<path d="M205.47 86C139.488 86 86 139.488 86 205.47" stroke="#F9C63C" stroke-width="6"/>
<path d="M185.375 287.484V291H169.812V288L177.172 280.109C177.911 279.286 178.495 278.562 178.922 277.938C179.349 277.302 179.656 276.734 179.844 276.234C180.042 275.724 180.141 275.24 180.141 274.781C180.141 274.094 180.026 273.505 179.797 273.016C179.568 272.516 179.229 272.13 178.781 271.859C178.344 271.589 177.802 271.453 177.156 271.453C176.469 271.453 175.875 271.62 175.375 271.953C174.885 272.286 174.51 272.75 174.25 273.344C174 273.938 173.875 274.609 173.875 275.359H169.359C169.359 274.005 169.682 272.766 170.328 271.641C170.974 270.505 171.885 269.604 173.062 268.938C174.24 268.26 175.635 267.922 177.25 267.922C178.844 267.922 180.188 268.182 181.281 268.703C182.385 269.214 183.219 269.953 183.781 270.922C184.354 271.88 184.641 273.026 184.641 274.359C184.641 275.109 184.521 275.844 184.281 276.562C184.042 277.271 183.698 277.979 183.25 278.688C182.812 279.385 182.281 280.094 181.656 280.812C181.031 281.531 180.339 282.276 179.578 283.047L175.625 287.484H185.375ZM203.5 277.625V281.562C203.5 283.271 203.318 284.745 202.953 285.984C202.589 287.214 202.062 288.224 201.375 289.016C200.698 289.797 199.891 290.375 198.953 290.75C198.016 291.125 196.974 291.312 195.828 291.312C194.911 291.312 194.057 291.198 193.266 290.969C192.474 290.729 191.76 290.359 191.125 289.859C190.5 289.359 189.958 288.729 189.5 287.969C189.052 287.198 188.708 286.281 188.469 285.219C188.229 284.156 188.109 282.938 188.109 281.562V277.625C188.109 275.917 188.292 274.453 188.656 273.234C189.031 272.005 189.557 271 190.234 270.219C190.922 269.438 191.734 268.865 192.672 268.5C193.609 268.125 194.651 267.938 195.797 267.938C196.714 267.938 197.562 268.057 198.344 268.297C199.135 268.526 199.849 268.885 200.484 269.375C201.12 269.865 201.661 270.495 202.109 271.266C202.557 272.026 202.901 272.938 203.141 274C203.38 275.052 203.5 276.26 203.5 277.625ZM198.984 282.156V277.016C198.984 276.193 198.938 275.474 198.844 274.859C198.76 274.245 198.63 273.724 198.453 273.297C198.276 272.859 198.057 272.505 197.797 272.234C197.536 271.964 197.24 271.766 196.906 271.641C196.573 271.516 196.203 271.453 195.797 271.453C195.286 271.453 194.833 271.552 194.438 271.75C194.052 271.948 193.724 272.266 193.453 272.703C193.182 273.13 192.974 273.703 192.828 274.422C192.693 275.13 192.625 275.995 192.625 277.016V282.156C192.625 282.979 192.667 283.703 192.75 284.328C192.844 284.953 192.979 285.49 193.156 285.938C193.344 286.375 193.562 286.734 193.812 287.016C194.073 287.286 194.37 287.484 194.703 287.609C195.047 287.734 195.422 287.797 195.828 287.797C196.328 287.797 196.771 287.698 197.156 287.5C197.552 287.292 197.885 286.969 198.156 286.531C198.438 286.083 198.646 285.5 198.781 284.781C198.917 284.062 198.984 283.188 198.984 282.156ZM222.125 287.484V291H206.562V288L213.922 280.109C214.661 279.286 215.245 278.562 215.672 277.938C216.099 277.302 216.406 276.734 216.594 276.234C216.792 275.724 216.891 275.24 216.891 274.781C216.891 274.094 216.776 273.505 216.547 273.016C216.318 272.516 215.979 272.13 215.531 271.859C215.094 271.589 214.552 271.453 213.906 271.453C213.219 271.453 212.625 271.62 212.125 271.953C211.635 272.286 211.26 272.75 211 273.344C210.75 273.938 210.625 274.609 210.625 275.359H206.109C206.109 274.005 206.432 272.766 207.078 271.641C207.724 270.505 208.635 269.604 209.812 268.938C210.99 268.26 212.385 267.922 214 267.922C215.594 267.922 216.938 268.182 218.031 268.703C219.135 269.214 219.969 269.953 220.531 270.922C221.104 271.88 221.391 273.026 221.391 274.359C221.391 275.109 221.271 275.844 221.031 276.562C220.792 277.271 220.448 277.979 220 278.688C219.562 279.385 219.031 280.094 218.406 280.812C217.781 281.531 217.089 282.276 216.328 283.047L212.375 287.484H222.125ZM229.172 280.641L225.578 279.781L226.875 268.25H239.656V271.891H230.578L230.016 276.938C230.318 276.76 230.776 276.573 231.391 276.375C232.005 276.167 232.693 276.062 233.453 276.062C234.557 276.062 235.536 276.234 236.391 276.578C237.245 276.922 237.969 277.422 238.562 278.078C239.167 278.734 239.625 279.536 239.938 280.484C240.25 281.432 240.406 282.505 240.406 283.703C240.406 284.714 240.25 285.677 239.938 286.594C239.625 287.5 239.151 288.312 238.516 289.031C237.88 289.74 237.083 290.297 236.125 290.703C235.167 291.109 234.031 291.312 232.719 291.312C231.74 291.312 230.792 291.167 229.875 290.875C228.969 290.583 228.151 290.151 227.422 289.578C226.703 289.005 226.125 288.312 225.688 287.5C225.26 286.677 225.036 285.74 225.016 284.688H229.484C229.547 285.333 229.714 285.891 229.984 286.359C230.266 286.818 230.635 287.172 231.094 287.422C231.552 287.672 232.089 287.797 232.703 287.797C233.276 287.797 233.766 287.688 234.172 287.469C234.578 287.25 234.906 286.948 235.156 286.562C235.406 286.167 235.589 285.708 235.703 285.188C235.828 284.656 235.891 284.083 235.891 283.469C235.891 282.854 235.818 282.297 235.672 281.797C235.526 281.297 235.302 280.865 235 280.5C234.698 280.135 234.312 279.854 233.844 279.656C233.385 279.458 232.849 279.359 232.234 279.359C231.401 279.359 230.755 279.49 230.297 279.75C229.849 280.01 229.474 280.307 229.172 280.641Z" fill="black"/>
<path d="M179.121 344.702C179.121 340.141 174.313 339.031 166.177 344.085C168.027 340.88 168.273 339.771 167.903 338.908C167.41 337.305 161 336.073 157.672 336.073C156.809 336.073 155.946 336.196 156.069 337.552C156.316 338.661 156.316 339.894 156.069 341.004C154.344 345.565 151.015 349.139 148.303 352.098C146.454 354.07 144.605 356.166 145.098 357.029C145.591 357.891 146.578 357.891 153.851 360.357C154.467 360.603 154.837 360.603 155.453 359.864C159.644 352.468 165.808 344.948 168.396 345.934C169.136 346.304 169.136 347.29 169.383 347.537C169.506 352.098 179.614 349.386 179.121 344.702ZM241.865 341.743C238.783 344.948 236.934 350.742 238.044 355.056V355.18L237.92 355.056C238.907 358.508 236.318 362.946 232.497 364.795C226.58 367.63 220.17 364.671 219.183 357.522C218.814 354.81 219.43 352.098 220.786 349.879C222.758 346.427 228.552 344.702 227.566 348.276C227.442 349.509 226.456 350.249 226.949 352.098C227.442 354.44 232.003 354.193 233.606 351.975C236.688 346.551 230.524 342.853 221.772 344.085C213.76 345.318 207.226 351.481 207.966 359.74V359.864C208.705 365.041 196.379 369.849 189.722 364.301C188.366 363.192 186.887 360.603 187.996 358.754C188.366 358.261 188.859 358.015 189.475 358.385C195.023 358.878 197.611 358.754 200.816 357.398C205.994 355.056 207.966 350.125 203.528 346.551C201.802 345.195 194.036 342.113 186.024 344.455C185.654 344.578 178.135 346.92 176.286 354.686C175.176 359.617 176.532 363.685 180.723 366.767C183.805 368.739 187.133 369.972 190.831 370.465C204.391 371.081 207.966 363.439 210.308 365.904V366.027C216.225 374.286 230.524 371.205 235.455 366.151C236.934 364.671 239.769 360.727 241.742 361.713V361.59C244.454 363.808 248.152 364.671 253.576 363.685C261.958 362.329 267.382 354.07 265.656 345.318C263.067 333.977 250.494 333.238 241.865 341.743ZM199.09 346.92C200.693 347.783 201.309 349.509 199.707 351.605C197.735 354.317 189.722 356.905 188.613 355.18C186.764 352.468 195.392 345.071 199.09 346.92ZM261.835 348.646C261.835 358.631 250.864 363.069 247.535 354.07C244.823 346.551 250.864 337.182 257.52 340.017C259.862 340.88 261.711 344.455 261.835 348.646Z" fill="black"/>
<path d="M332.741 299.192L327.76 297.945L323.48 300.779L323.126 295.658L319.108 292.462L323.87 290.543L325.667 285.734L328.963 289.67L334.093 289.893L331.368 294.245L332.741 299.192Z" fill="black"/>
<path d="M317.383 317.995L312.403 316.748L308.122 319.582L307.769 314.46L303.75 311.265L308.512 309.346L310.31 304.537L313.606 308.473L318.735 308.696L316.01 313.048L317.383 317.995Z" fill="black"/>
<path d="M299.329 333.463L294.348 332.217L290.067 335.051L289.714 329.929L285.696 326.734L290.458 324.815L292.255 320.006L295.551 323.942L300.681 324.165L297.956 328.516L299.329 333.463Z" fill="black"/>
<path d="M78.5794 299.192L83.5598 297.945L87.8405 300.779L88.1938 295.658L92.2123 292.462L87.4503 290.543L85.653 285.734L82.3566 289.67L77.2275 289.893L79.9522 294.245L78.5794 299.192Z" fill="black"/>
<path d="M93.935 317.995L98.9153 316.748L103.196 319.582L103.549 314.46L107.568 311.265L102.806 309.346L101.009 304.537L97.7122 308.473L92.583 308.696L95.3078 313.048L93.935 317.995Z" fill="black"/>
<path d="M111.99 333.463L116.97 332.217L121.251 335.051L121.604 329.929L125.623 326.734L120.861 324.815L119.063 320.006L115.767 323.942L110.638 324.165L113.363 328.516L111.99 333.463Z" fill="black"/>
<path d="M158.151 213.87C158.151 205.85 158.047 199.347 157.839 194.361C157.632 189.334 157.341 186.425 156.967 185.636C156.551 184.638 155.949 183.974 155.159 183.641C154.37 183.267 152.728 183.08 150.235 183.08H148.179C147.057 183.08 146.247 182.81 145.748 182.27C145.249 181.73 145 180.857 145 179.652C145 177.99 145.54 176.702 146.62 175.788C147.742 174.832 150.381 173.648 154.536 172.235C159.397 170.656 164.134 169.41 168.746 168.496C173.359 167.582 177.015 167.125 179.716 167.125C181.793 167.125 183.414 167.54 184.577 168.371C185.741 169.202 186.322 170.366 186.322 171.861C186.322 173.316 185.408 174.687 183.58 175.975C181.793 177.263 180.755 178.219 180.464 178.842C180.131 179.715 179.903 181.647 179.778 184.638C179.654 187.589 179.591 194.424 179.591 205.144C179.591 211.834 179.654 217.858 179.778 223.218C179.903 228.579 180.048 232.339 180.214 234.5C180.381 235.871 180.651 236.868 181.025 237.491C181.44 238.073 182.105 238.572 183.019 238.987C184.183 239.486 185.845 239.88 188.005 240.171C191.163 240.587 192.742 241.771 192.742 243.724C192.742 246.259 191.288 247.983 188.379 248.897C185.512 249.77 179.259 250.206 169.619 250.206C159.148 250.206 152.417 249.749 149.425 248.835C146.475 247.921 145 246.175 145 243.599C145 242.56 145.332 241.75 145.997 241.169C146.704 240.587 147.638 240.296 148.802 240.296C150.755 240.296 152.583 239.964 154.287 239.299C155.99 238.592 156.967 237.803 157.216 236.93C157.548 236.016 157.777 233.939 157.902 230.698C158.068 227.457 158.151 221.847 158.151 213.87Z" fill="black"/>
<path d="M246.445 221.66C246.445 210.192 244.679 200.282 241.147 191.931C237.616 183.579 233.73 179.403 229.492 179.403C226.958 179.403 224.984 180.899 223.571 183.89C222.159 186.882 221.452 191.079 221.452 196.48C221.452 207.949 223.197 217.879 226.688 226.272C230.219 234.666 234.084 238.862 238.28 238.862C240.856 238.862 242.851 237.367 244.264 234.375C245.718 231.342 246.445 227.104 246.445 221.66ZM199.95 207.699C199.95 201.55 200.76 196.044 202.38 191.183C204.042 186.28 206.556 181.917 209.922 178.094C212.997 174.604 216.632 171.882 220.829 169.929C225.067 167.976 229.43 167 233.917 167C243.848 167 251.992 170.989 258.349 178.967C264.707 186.944 267.885 197.291 267.885 210.005C267.885 222.097 264.79 232.007 258.599 239.735C252.449 247.422 244.617 251.265 235.102 251.265C230.365 251.265 225.919 250.268 221.764 248.274C217.65 246.279 213.911 243.35 210.545 239.486C207.096 235.455 204.458 230.76 202.63 225.4C200.843 219.998 199.95 214.098 199.95 207.699Z" fill="black"/>
<path d="M180.958 117.479C181.826 117.479 182.708 117.358 183.601 117.115C183.869 117.038 184.035 117 184.099 117C184.712 117 185.299 117.772 185.861 119.317C186.436 120.862 186.723 122.593 186.723 124.508C186.723 125.184 186.602 125.702 186.359 126.059C186.117 126.404 185.766 126.576 185.306 126.576C184.489 126.576 183.716 125.861 182.988 124.431C182.873 124.214 182.784 124.042 182.72 123.914L182.682 123.837C181.763 122.088 180.467 121.214 178.794 121.214C177.951 121.214 177.383 121.309 177.089 121.501C176.796 121.68 176.604 122.107 176.515 122.784C176.477 123.09 176.432 123.908 176.381 125.236C176.343 126.551 176.323 128.006 176.323 129.602C176.323 132.922 176.362 135.635 176.438 137.742C176.528 139.836 176.649 141.126 176.802 141.611C176.879 141.892 177.249 142.185 177.913 142.492L177.932 142.511C178.481 142.754 178.845 142.996 179.024 143.239C179.215 143.481 179.311 143.801 179.311 144.196C179.311 144.95 178.871 145.48 177.99 145.786C177.121 146.08 175.455 146.227 172.991 146.227C170.527 146.227 168.854 146.08 167.973 145.786C167.105 145.48 166.671 144.95 166.671 144.196C166.671 143.52 167.054 142.99 167.82 142.607C168.599 142.211 169.026 141.956 169.103 141.841C169.307 141.534 169.454 140.366 169.543 138.336C169.646 136.293 169.697 133.382 169.697 129.602C169.697 128.006 169.671 126.551 169.62 125.236C169.582 123.908 169.543 123.09 169.505 122.784C169.416 122.107 169.224 121.68 168.931 121.501C168.65 121.309 168.081 121.214 167.226 121.214C165.528 121.214 164.206 122.114 163.261 123.914C163.198 124.042 163.095 124.24 162.955 124.508C162.253 125.887 161.506 126.576 160.714 126.576C160.254 126.576 159.903 126.404 159.661 126.059C159.418 125.702 159.297 125.184 159.297 124.508C159.297 122.593 159.578 120.862 160.14 119.317C160.714 117.772 161.308 117 161.921 117C162.01 117.013 162.176 117.051 162.419 117.115C163.312 117.358 164.194 117.479 165.062 117.479H180.958Z" fill="black"/>
<path d="M183.027 136.344C183.027 134.748 183.314 133.28 183.889 131.939C184.463 130.598 185.299 129.424 186.398 128.415C187.457 127.457 188.645 126.729 189.96 126.231C191.275 125.733 192.667 125.485 194.135 125.485C197.123 125.485 199.581 126.436 201.509 128.338C203.437 130.228 204.401 132.648 204.401 135.597C204.401 137.155 204.139 138.591 203.616 139.906C203.092 141.221 202.326 142.39 201.317 143.411C200.258 144.458 199.07 145.25 197.755 145.786C196.453 146.322 195.035 146.59 193.503 146.59C190.413 146.59 187.891 145.639 185.938 143.737C183.997 141.834 183.027 139.37 183.027 136.344ZM194.48 142.971C195.412 142.971 196.133 142.575 196.644 141.783C197.168 140.992 197.429 139.887 197.429 138.47C197.429 135.865 196.963 133.643 196.031 131.805C195.112 129.966 194.046 129.047 192.833 129.047C191.939 129.047 191.243 129.468 190.745 130.311C190.26 131.141 190.017 132.316 190.017 133.835C190.017 136.35 190.471 138.502 191.377 140.289C192.284 142.077 193.318 142.971 194.48 142.971Z" fill="black"/>
<path d="M215.03 138.432C215.03 140.028 215.267 141.151 215.739 141.802C216.224 142.454 217.035 142.779 218.171 142.779C219.423 142.779 220.438 142.249 221.217 141.189C222.008 140.13 222.404 138.738 222.404 137.014C222.404 135.099 221.989 133.567 221.159 132.418C220.329 131.269 219.238 130.694 217.884 130.694C216.926 130.694 216.211 130.981 215.739 131.556C215.267 132.13 215.03 132.992 215.03 134.141V138.432ZM215.03 127.17V127.879C215.03 128.057 215.05 128.185 215.088 128.262C215.126 128.338 215.184 128.377 215.26 128.377C215.375 128.377 215.624 128.204 216.007 127.859C217.552 126.455 219.174 125.753 220.872 125.753C223.285 125.753 225.322 126.717 226.982 128.645C228.654 130.56 229.49 132.941 229.49 135.789C229.49 137.295 229.229 138.7 228.705 140.002C228.182 141.304 227.416 142.466 226.407 143.488C225.462 144.433 224.402 145.16 223.228 145.671C222.053 146.169 220.846 146.418 219.608 146.418C218.178 146.418 216.843 146.01 215.605 145.192C215.388 145.052 215.26 144.982 215.222 144.982C215.145 144.982 215.088 145.084 215.05 145.288C215.011 145.48 214.992 145.78 214.992 146.188C214.992 147.44 215.018 148.308 215.069 148.793C215.12 149.291 215.209 149.629 215.337 149.808C215.426 149.923 215.86 150.153 216.639 150.498C217.418 150.842 217.807 151.289 217.807 151.838C217.807 152.489 217.316 152.955 216.333 153.236C215.35 153.53 213.722 153.677 211.449 153.677C209.444 153.677 208.04 153.536 207.235 153.256C206.444 152.975 206.048 152.502 206.048 151.838C206.048 151.238 206.463 150.734 207.293 150.325C207.586 150.172 207.797 150.051 207.925 149.961C208.155 149.77 208.314 149.042 208.404 147.778C208.506 146.527 208.557 143.826 208.557 139.676C208.557 136.306 208.499 134.046 208.385 132.897C208.27 131.735 208.059 131.039 207.752 130.809C207.701 130.771 207.325 130.643 206.622 130.426C205.92 130.209 205.569 129.787 205.569 129.162C205.569 128.855 205.697 128.568 205.952 128.3C206.22 128.019 206.616 127.757 207.14 127.515C208.314 126.966 209.483 126.538 210.644 126.231C211.819 125.912 212.821 125.753 213.651 125.753C214.175 125.753 214.532 125.855 214.724 126.059C214.928 126.263 215.03 126.634 215.03 127.17Z" fill="black"/>
<path d="M240.158 138.432C240.158 140.028 240.395 141.151 240.867 141.802C241.352 142.454 242.163 142.779 243.299 142.779C244.551 142.779 245.566 142.249 246.345 141.189C247.136 140.13 247.532 138.738 247.532 137.014C247.532 135.099 247.117 133.567 246.287 132.418C245.457 131.269 244.366 130.694 243.012 130.694C242.054 130.694 241.339 130.981 240.867 131.556C240.395 132.13 240.158 132.992 240.158 134.141V138.432ZM240.158 127.17V127.879C240.158 128.057 240.178 128.185 240.216 128.262C240.254 128.338 240.312 128.377 240.388 128.377C240.503 128.377 240.752 128.204 241.135 127.859C242.68 126.455 244.302 125.753 246 125.753C248.413 125.753 250.45 126.717 252.109 128.645C253.782 130.56 254.618 132.941 254.618 135.789C254.618 137.295 254.357 138.7 253.833 140.002C253.31 141.304 252.544 142.466 251.535 143.488C250.59 144.433 249.53 145.16 248.356 145.671C247.181 146.169 245.974 146.418 244.736 146.418C243.306 146.418 241.971 146.01 240.733 145.192C240.516 145.052 240.388 144.982 240.35 144.982C240.273 144.982 240.216 145.084 240.178 145.288C240.139 145.48 240.12 145.78 240.12 146.188C240.12 147.44 240.146 148.308 240.197 148.793C240.248 149.291 240.337 149.629 240.465 149.808C240.554 149.923 240.988 150.153 241.767 150.498C242.546 150.842 242.935 151.289 242.935 151.838C242.935 152.489 242.444 152.955 241.461 153.236C240.478 153.53 238.85 153.677 236.577 153.677C234.572 153.677 233.168 153.536 232.363 153.256C231.572 152.975 231.176 152.502 231.176 151.838C231.176 151.238 231.591 150.734 232.421 150.325C232.714 150.172 232.925 150.051 233.053 149.961C233.283 149.77 233.442 149.042 233.532 147.778C233.634 146.527 233.685 143.826 233.685 139.676C233.685 136.306 233.627 134.046 233.512 132.897C233.398 131.735 233.187 131.039 232.88 130.809C232.829 130.771 232.453 130.643 231.75 130.426C231.048 130.209 230.697 129.787 230.697 129.162C230.697 128.855 230.825 128.568 231.08 128.3C231.348 128.019 231.744 127.757 232.268 127.515C233.442 126.966 234.611 126.538 235.772 126.231C236.947 125.912 237.949 125.753 238.779 125.753C239.303 125.753 239.66 125.855 239.852 126.059C240.056 126.263 240.158 126.634 240.158 127.17Z" fill="black"/>
</svg>
