<svg id="Layer_1" data-name="Layer 1" xmlns="http://www.w3.org/2000/svg" viewBox="0 0 1920 373.46"><defs><style>.cls-1{fill:#fff;}.cls-2{fill:#ed1c24;}.cls-3{fill:#d1d3d4;}</style></defs><title>Logo-Whote-Red</title><path class="cls-1" d="M511.38,104.45q16.5,4.48,26.33,17t9.75,35.85a76.13,76.13,0,0,1-3.17,21.07,84.34,84.34,0,0,1-7.74,18.7q-4.6,7.94-8.14,10.29-4.14,2.93-18.3,4.5a295.49,295.49,0,0,1-33.32,1.5q-6.78,0-20.93-.66l-.2,56-53.07-.19.6-168.06q31-.76,67.82-.64Q494.89,100,511.38,104.45Zm-15.53,56q.06-15-6.26-21.25t-21.95-6.27a82.83,82.83,0,0,0-11.5.84L456,178.55c2,.2,5.8.31,11.5.33q22.69.09,25.37-3.15Q495.8,171.92,495.85,160.41Z"/><path class="cls-1" d="M635.1,149.37a20.36,20.36,0,0,1,5.52,1.82q0,5.66-1.35,18.63t-2.38,18.37q-2.57-.25-9.51-.29a205,205,0,0,0-28.79,1.7l-.29,79.68-43.95-.16.42-118.23,36.76.13,5.07,19h.26a72.06,72.06,0,0,1,16-15.62q8.5-5.88,15.19-5.86A35.25,35.25,0,0,1,635.1,149.37Z"/><path class="cls-1" d="M656.3,258.31q-15.24-14.58-15.13-45.94a126.66,126.66,0,0,1,3.32-30.19q3.27-13,7.91-18.09,5.93-6.66,21.76-11a112,112,0,0,1,29.7-4.26Q737,149,751.1,163.16t14,45.29q-.12,33.41-15.34,49T702.39,273Q671.54,272.89,656.3,258.31Zm60.1-22.41q3.11-7.05,3.17-25.05,0-12.58-1.21-19.41t-4.72-10q-3.46-3.22-10.66-3.25-10.28,0-11.83,1.76-2.05,1.78-3.38,11.29A147,147,0,0,0,686.42,211q-.07,17.49,3.38,24.69t13.47,7.24Q713.29,243,716.4,235.9Z"/><path class="cls-1" d="M829.81,149.56v2.31L857,152,857,177.16l-27.24-.1-.34,93.05-44-.16.33-93-19.27-.06.08-22.88,19.29-2.25v-3.85A74.89,74.89,0,0,1,789,126.28q3.12-10.26,5.7-12.32,8-6.64,33.95-6.56a272.79,272.79,0,0,1,31.61,2.17q0,3.09-.94,12.34t-1.73,15.67l-11.05-.3q-13.63,0-14.91,1.23Q829.84,140.31,829.81,149.56Z"/><path class="cls-1" d="M957,238.44c1.55,0,4.37-.16,8.49-.49l3.76,26.49q-19.83,9.18-51.44,9.07-29.56-.11-45.31-15.07t-15.65-45a111.41,111.41,0,0,1,4.09-29.8q4-14.39,9.2-20,5.42-5.62,20.08-9.69a107.13,107.13,0,0,1,29.06-4q23.13.09,34.67,8.35A38.15,38.15,0,0,1,969,181q3.56,14.53,3.46,39-17.48,1-34.19.9l-36.5-.13q0,8.24,3.43,12.35a16.11,16.11,0,0,0,9.88,5.3,107.2,107.2,0,0,0,18,1.23Q939.49,239.66,957,238.44Zm-54.82-51.35q-.79,5.91-1.07,13.36l13.36.05q12.07,0,17.48-.19,0-12.34-3.41-17.5t-11.93-5.18a24.65,24.65,0,0,0-12.09,2.78C903.46,180.93,902.68,183.15,902.15,187.09Z"/><path class="cls-1" d="M1062.39,263.75q-14.55,10-41.29,9.87-18.76-.06-43.16-5.55.54-5.13,2.5-14.77t3.26-14.77q9.25,1.58,20.56,2.52t19.27,1c4.63,0,7.46-.23,8.49-.74a4.47,4.47,0,0,0,.64-1.41,7.67,7.67,0,0,0,.4-2.45q0-5.13-6.4-7Q1024.61,230,1011,226A44.21,44.21,0,0,1,988.81,212q-8.58-10.19-8.52-25.35A51.89,51.89,0,0,1,984,168.88q3.63-9.76,7.76-12.31,3.09-2.06,14.92-4.19a121.06,121.06,0,0,1,21.86-2.11,302.75,302.75,0,0,1,42.91,3.24,153.57,153.57,0,0,1-1.34,15.55q-1.33,10.92-2.36,13.74-21.84-2.91-35.21-3-6.93,0-9,.74a2.88,2.88,0,0,0-1,1.41,7.15,7.15,0,0,0-.52,2.95c0,2.4.75,4.11,2.29,5.15,1.54,1.2,5.56,2.68,12.07,4.41a173.15,173.15,0,0,1,19.89,7,40.77,40.77,0,0,1,14.61,10.85q6.27,7.22,6.24,18.53Q1077,253.78,1062.39,263.75Z"/><path class="cls-1" d="M1166.23,264.12q-14.55,10-41.29,9.88-18.76-.08-43.16-5.56.53-5.13,2.5-14.77t3.26-14.76c6.17,1.05,13,1.89,20.56,2.51s14,1,19.27,1c4.63,0,7.45-.23,8.48-.74a4.4,4.4,0,0,0,.65-1.41,7.85,7.85,0,0,0,.4-2.44q0-5.15-6.4-7-2.07-.51-15.67-4.42a44.1,44.1,0,0,1-22.18-14.09q-8.58-10.19-8.52-25.35a51.89,51.89,0,0,1,3.66-17.72q3.63-9.75,7.76-12.31,3.09-2,14.92-4.19a120.91,120.91,0,0,1,21.86-2.1,304.21,304.21,0,0,1,42.91,3.23,153.57,153.57,0,0,1-1.34,15.55q-1.34,10.92-2.36,13.74-21.84-2.89-35.21-2.95c-4.62,0-7.63.23-9,.74a2.82,2.82,0,0,0-1,1.41,7.19,7.19,0,0,0-.52,2.95q0,3.6,2.29,5.15,2.31,1.82,12.06,4.41a170.69,170.69,0,0,1,19.9,7,40.75,40.75,0,0,1,14.61,10.84q6.27,7.23,6.23,18.53Q1180.8,254.16,1166.23,264.12Z"/><path class="cls-2" d="M1346.17,272l-55.72-.2-9.87-42.49c-.39-1.57-1-4.28-1.89-8.11a28.4,28.4,0,0,0-3.07-8.56,8.34,8.34,0,0,0-5-3.71q-8.27.27-24.18.21l-.23,62.5-53.07-.19.6-166.58q35.68-2.52,66.64-2.41,28,.1,45.39,4.73t26,15.72q8.65,11.08,8.59,30.25-.08,18-8.36,28.13t-26.58,12.14v1.77a30.32,30.32,0,0,1,17.22,6.7,27.81,27.81,0,0,1,9.23,14.62Zm-89.28-95.84q22.69.07,26.54-3.74,3.55-3.52,3.6-16.5,0-12.09-6.28-16.53t-20.77-4.5q-3.24,0-13.27.54l-.14,40.39C1248.34,176,1251.77,176.1,1256.89,176.12Z"/><path class="cls-1" d="M1363.54,260.85q-15.24-14.58-15.13-45.94a126.63,126.63,0,0,1,3.33-30.19q3.26-13,7.9-18.09,5.94-6.66,21.76-11a112,112,0,0,1,29.7-4.26q33.17.12,47.25,14.31t14,45.28q-.12,33.42-15.34,49t-47.35,15.51Q1378.79,275.42,1363.54,260.85Zm35.54-125.18q-4.9,5.12-13.39,5.09t-13.34-5.06q-4.87-5-4.84-13.77,0-9,4.94-14.12t13.38-5.09q8.73,0,13.48,5.06t4.7,13.77Q1404,130.55,1399.08,135.67Zm24.56,102.77q3.12-7,3.18-25.05A111.47,111.47,0,0,0,1425.6,194q-1.26-6.81-4.72-10c-2.3-2.15-5.86-3.23-10.65-3.25q-10.29,0-11.83,1.76-2.07,1.78-3.39,11.29a147,147,0,0,0-1.35,19.79q-.06,17.47,3.38,24.69t13.47,7.24Q1420.53,245.51,1423.64,238.44Zm25.69-102.72q-5,5.25-13.51,5.22t-13.22-5.06q-4.74-5-4.71-13.77,0-9,4.81-14.12T1436,102.9q8.49,0,13.48,5.06t5,13.77Q1454.36,130.48,1449.33,135.72Z"/><path class="cls-1" d="M1563.14,152.71a19.69,19.69,0,0,1,5.52,1.82q0,5.66-1.36,18.63t-2.38,18.37q-2.57-.27-9.51-.3a206.59,206.59,0,0,0-28.79,1.7l-.29,79.68-43.95-.16.43-118.23,36.75.13,5.07,19h.26a72.29,72.29,0,0,1,16-15.62q8.5-5.88,15.19-5.86A34.75,34.75,0,0,1,1563.14,152.71Z"/><path class="cls-1" d="M1724.88,241.19l-42.67-.15-7.83,32.1-47.29-.17,47.82-146.34,60.4.22L1780,273.52l-47.55-.17Zm-21.3-82.84-15.36,54.18,30.59.11-14.2-54.29Z"/><path class="cls-1" d="M1912.63,208.32Q1920,218,1920,231.61a49.75,49.75,0,0,1-2.63,16.06,52.67,52.67,0,0,1-6.21,12.83q-3.63,5.25-6.2,6.79-10.31,6.65-62.74,6.45l-49.86-.17.52-146.51,60.41.21q20.55.08,33.28,2.31t20.65,9.84q7.93,7.61,7.89,23,0,13.37-6.63,21.57t-20.74,11.23v1.29Q1905.2,198.65,1912.63,208.32Zm-38.28,30.2a32.64,32.64,0,0,0,1.19-8.61,35.64,35.64,0,0,0-1.38-10.16q-1.4-4.75-3.7-6.82a12,12,0,0,0-6.55-3.11,90.69,90.69,0,0,0-14.26-.82c-4.28,0-7.88.06-10.79.22l-.14,37.27q12.08.3,21.59-.31c6.34-.41,10-1,11.06-1.89C1872.57,243.27,1873.57,241.34,1874.35,238.52Zm-13.07-83.33a67.31,67.31,0,0,0-10.92-.68q-7.45,0-11.31.21l-.11,31.36h2.57l10.79,0q9.51,0,12.6-1.24,2.32-1,4.26-5.38a23.38,23.38,0,0,0,2-9.51q0-7.71-3.82-11.58A11.35,11.35,0,0,0,1861.28,155.19Z"/><path class="cls-3" d="M909.37,364.37H897.69l-2.11-8.9c-.08-.33-.21-.9-.4-1.7a5.87,5.87,0,0,0-.65-1.8,1.76,1.76,0,0,0-1-.77q-1.72.06-5.07.06v13.11H877.28V329.44q7.49-.56,14-.56a38.6,38.6,0,0,1,9.52,1,9.89,9.89,0,0,1,5.47,3.28,10,10,0,0,1,1.82,6.34,9.13,9.13,0,0,1-1.73,5.9c-1.15,1.42-3,2.28-5.56,2.57v.37a6.28,6.28,0,0,1,3.61,1.39,5.8,5.8,0,0,1,2,3.06Zm-18.79-20q4.75,0,5.56-.8c.49-.5.74-1.65.74-3.47s-.44-2.84-1.33-3.46a7.8,7.8,0,0,0-4.36-.93c-.45,0-1.38.05-2.78.13v8.47C888.78,344.32,889.5,344.34,890.58,344.34Z"/><path class="cls-3" d="M924.12,361.68q-3.69-3.49-3.68-11a30.19,30.19,0,0,1,.77-7.27A10.35,10.35,0,0,1,923.1,339c.94-1.07,2.68-1.95,5.22-2.66a26.83,26.83,0,0,1,7.14-1.05q8,0,11.38,3.4t3.4,10.88q0,8-3.65,11.81t-11.38,3.77Q927.8,365.17,924.12,361.68Zm8.43-30.14a4.19,4.19,0,0,1-3.21,1.24,4.28,4.28,0,0,1-3.22-1.21,4.53,4.53,0,0,1-1.17-3.31,4.76,4.76,0,0,1,1.17-3.4,4.91,4.91,0,0,1,6.47,0,4.64,4.64,0,0,1,1.14,3.31A4.71,4.71,0,0,1,932.55,331.54Zm6,24.7a16.71,16.71,0,0,0,.74-6,26.28,26.28,0,0,0-.31-4.66,4.23,4.23,0,0,0-1.14-2.42,3.71,3.71,0,0,0-2.57-.77c-1.64,0-2.59.15-2.84.43a5.27,5.27,0,0,0-.8,2.72,35,35,0,0,0-.31,4.76,15,15,0,0,0,.83,5.94,3.26,3.26,0,0,0,3.25,1.73C937,357.94,938.06,357.37,938.55,356.24Zm6.09-24.73a4.23,4.23,0,0,1-3.24,1.27,4.17,4.17,0,0,1-3.19-1.21,4.61,4.61,0,0,1-1.14-3.31,4.84,4.84,0,0,1,1.14-3.4,4.14,4.14,0,0,1,3.19-1.23,4.38,4.38,0,0,1,3.24,1.2,4.46,4.46,0,0,1,1.21,3.31A4.66,4.66,0,0,1,944.64,331.51Z"/><path class="cls-3" d="M982.48,335.5a4.8,4.8,0,0,1,1.33.43c0,.91-.11,2.4-.31,4.48s-.39,3.56-.56,4.42c-.41,0-1.17-.06-2.29-.06a49.11,49.11,0,0,0-6.92.44v19.16H963.16V335.93H972l1.24,4.58h.06a17.29,17.29,0,0,1,3.83-3.78,6.69,6.69,0,0,1,3.65-1.42A8,8,0,0,1,982.48,335.5Z"/><path class="cls-3" d="M1040.93,349.41v15h-10.57V347.12c0-1.52-.14-2.43-.43-2.72a3.11,3.11,0,0,0-2.1-.49l-.74.06a11,11,0,0,0-3.65.86c0,.87.06,2.4.06,4.58v15h-10.57V346.75a3.84,3.84,0,0,0-.44-2.35,3.11,3.11,0,0,0-2.1-.49l-.74.06a10.81,10.81,0,0,0-3.59.8v19.6H995.49V335.93h8.6l1.11,4.64a12.78,12.78,0,0,1,4.7-4,12.44,12.44,0,0,1,5.38-1.27,14.05,14.05,0,0,1,4.36.68,5.27,5.27,0,0,1,2.87,1.92,5.72,5.72,0,0,1,.62,2,12.1,12.1,0,0,1,4.51-3.52,12.4,12.4,0,0,1,5.07-1.12,14,14,0,0,1,4.36.68,5.3,5.3,0,0,1,2.88,1.92Q1040.92,339.4,1040.93,349.41Z"/><path class="cls-3" d="M1057.35,361.68q-3.67-3.49-3.68-11a30.7,30.7,0,0,1,.77-7.27,10.61,10.61,0,0,1,1.89-4.36c1-1.07,2.69-1.95,5.22-2.66a27,27,0,0,1,7.14-1.05q8,0,11.38,3.4t3.4,10.88q0,8-3.65,11.81t-11.37,3.77Q1061,365.17,1057.35,361.68Zm14.44-5.44a16.94,16.94,0,0,0,.74-6,27.28,27.28,0,0,0-.31-4.66,4.3,4.3,0,0,0-1.15-2.42,3.68,3.68,0,0,0-2.56-.77c-1.65,0-2.6.15-2.85.43a5.37,5.37,0,0,0-.8,2.72,35,35,0,0,0-.31,4.76,14.82,14.82,0,0,0,.84,5.94,3.24,3.24,0,0,0,3.24,1.73C1070.24,357.94,1071.29,357.37,1071.79,356.24Z"/><path class="cls-3" d="M1126.62,364.37h-11.5l-5.87-11.56a4.13,4.13,0,0,0-2.29-2.29v13.85h-10.57V327.28l10.57-.44v21.09a5.41,5.41,0,0,0,2.54-2.54l5.25-9.46,11.56-.06-6,9.64a14.46,14.46,0,0,1-3.09,3.65,26.78,26.78,0,0,1,3.21,4.7Z"/><path class="cls-3" d="M1154.69,364.37l-1-3.89a8.83,8.83,0,0,1-7.91,4.63,9.83,9.83,0,0,1-6.77-2.32,8.22,8.22,0,0,1-2.63-6.52,7.19,7.19,0,0,1,1.52-4.54,8,8,0,0,1,4.17-2.75,45.34,45.34,0,0,1,10.7-1.12c0-2.72-.13-4.16-.37-4.32a4.28,4.28,0,0,0-2-.25q-1,0-2.91.12c-2,.09-4.66.31-8,.68-.33-2.22-.57-4.61-.74-7.17,2.19-.45,4.47-.83,6.86-1.14a50.67,50.67,0,0,1,6.43-.47q5,0,7.42,1.64a7.49,7.49,0,0,1,3.22,4.3,24.45,24.45,0,0,1,.68,6.74l-.06,9.09.18,7.29Zm-1.91-6.8V353h-.5c-3,0-4.74.16-5.07.49a2,2,0,0,0-.46.93,4.5,4.5,0,0,0-.16,1.17,2.54,2.54,0,0,0,.68,2,3.32,3.32,0,0,0,2.11.56A10.53,10.53,0,0,0,1152.78,357.57Z"/><path class="cls-3" d="M1196.33,335.5a4.8,4.8,0,0,1,1.33.43c0,.91-.1,2.4-.31,4.48s-.39,3.56-.55,4.42c-.42,0-1.18-.06-2.29-.06a49.16,49.16,0,0,0-6.93.44v19.16H1177V335.93h8.84l1.24,4.58h.06a17.5,17.5,0,0,1,3.83-3.78,6.69,6.69,0,0,1,3.65-1.42A8,8,0,0,1,1196.33,335.5Z"/><path class="cls-3" d="M1237.69,341.12q.29,2.73.28,8.29v15H1227.4V347a5.78,5.78,0,0,0-.31-2.47c-.33-.42-1.09-.62-2.29-.62a10.31,10.31,0,0,0-1.3.06,10.7,10.7,0,0,0-3.58.8v19.6h-10.57V335.93h8.59l1.17,4.76q4.46-5.37,10.64-5.38a13.79,13.79,0,0,1,4.17.62,6.17,6.17,0,0,1,2.94,1.79A7.6,7.6,0,0,1,1237.69,341.12Z"/><path class="cls-3" d="M1268.7,364.37l-1-3.89a8.85,8.85,0,0,1-7.91,4.63,9.82,9.82,0,0,1-6.77-2.32,8.19,8.19,0,0,1-2.63-6.52,7.18,7.18,0,0,1,1.51-4.54,8,8,0,0,1,4.18-2.75,45.24,45.24,0,0,1,10.69-1.12c0-2.72-.12-4.16-.37-4.32a4.28,4.28,0,0,0-2-.25c-.7,0-1.67,0-2.9.12-2,.09-4.66.31-8,.68q-.49-3.33-.74-7.17,3.27-.68,6.86-1.14a50.54,50.54,0,0,1,6.43-.47q4.95,0,7.42,1.64a7.43,7.43,0,0,1,3.21,4.3,24.06,24.06,0,0,1,.68,6.74l-.06,9.09.19,7.29Zm-1.92-6.8V353h-.49c-3,0-4.74.16-5.07.49a2,2,0,0,0-.47.93,4.94,4.94,0,0,0-.15,1.17,2.5,2.5,0,0,0,.68,2,3.27,3.27,0,0,0,2.1.56A10.48,10.48,0,0,0,1266.78,357.57Z"/><path class="cls-3" d="M1328.7,362.64q-3.5,2.42-9.92,2.41a48.52,48.52,0,0,1-10.39-1.3c.08-.82.28-2,.59-3.55s.56-2.73.77-3.56c1.48.25,3.13.45,5,.59s3.35.22,4.63.22a6.31,6.31,0,0,0,2-.19,1,1,0,0,0,.16-.34,1.87,1.87,0,0,0,.09-.59c0-.82-.52-1.38-1.55-1.67-.33-.08-1.58-.43-3.77-1.05a10.62,10.62,0,0,1-5.35-3.37,9.06,9.06,0,0,1-2.07-6.09,12.39,12.39,0,0,1,.87-4.26,5.88,5.88,0,0,1,1.85-3,11.91,11.91,0,0,1,3.59-1,29.19,29.19,0,0,1,5.26-.53,72.07,72.07,0,0,1,10.32.75,35.77,35.77,0,0,1-.31,3.74,19.26,19.26,0,0,1-.56,3.3,69.69,69.69,0,0,0-8.47-.68,7.8,7.8,0,0,0-2.16.19.71.71,0,0,0-.25.34,1.81,1.81,0,0,0-.12.71,1.36,1.36,0,0,0,.56,1.24,9.92,9.92,0,0,0,2.9,1.05,39.12,39.12,0,0,1,4.79,1.67,9.88,9.88,0,0,1,3.53,2.59,6.53,6.53,0,0,1,1.51,4.46C1332.19,358.4,1331,361,1328.7,362.64Z"/><path class="cls-3" d="M1347.25,361.68q-3.69-3.49-3.68-11a30.19,30.19,0,0,1,.77-7.27,10.35,10.35,0,0,1,1.89-4.36c.94-1.07,2.68-1.95,5.22-2.66a26.83,26.83,0,0,1,7.14-1.05q8,0,11.38,3.4t3.4,10.88q0,8-3.65,11.81t-11.38,3.77Q1350.93,365.17,1347.25,361.68Zm14.43-5.44a16.71,16.71,0,0,0,.74-6,26.28,26.28,0,0,0-.31-4.66,4.23,4.23,0,0,0-1.14-2.42,3.7,3.7,0,0,0-2.56-.77c-1.65,0-2.6.15-2.85.43a5.27,5.27,0,0,0-.8,2.72,35,35,0,0,0-.31,4.76,15,15,0,0,0,.83,5.94,3.26,3.26,0,0,0,3.25,1.73C1360.14,357.94,1361.19,357.37,1361.68,356.24Z"/><path class="cls-3" d="M1431.73,349.41v15h-10.57V347.12c0-1.52-.15-2.43-.43-2.72a3.16,3.16,0,0,0-2.11-.49l-.74.06a11.07,11.07,0,0,0-3.65.86c0,.87.07,2.4.07,4.58v15h-10.58V346.75a3.86,3.86,0,0,0-.43-2.35,3.11,3.11,0,0,0-2.1-.49l-.74.06a10.76,10.76,0,0,0-3.59.8v19.6h-10.57V335.93h8.59l1.12,4.64a12.75,12.75,0,0,1,4.69-4,12.5,12.5,0,0,1,5.38-1.27,14,14,0,0,1,4.36.68,5.3,5.3,0,0,1,2.88,1.92,5.75,5.75,0,0,1,.61,2,12.13,12.13,0,0,1,4.52-3.52,12.4,12.4,0,0,1,5.07-1.12,14.05,14.05,0,0,1,4.36.68,5.27,5.27,0,0,1,2.87,1.92Q1431.73,339.4,1431.73,349.41Z"/><path class="cls-3" d="M1492,326.84v37.53h-8.72l-.86-4.76a9.28,9.28,0,0,1-3.65,3.83,10.5,10.5,0,0,1-5.44,1.43,9.5,9.5,0,0,1-7.7-3.47c-1.92-2.3-2.87-5.77-2.87-10.38a25.81,25.81,0,0,1,1.23-8.66,12,12,0,0,1,2.91-4.88,9.68,9.68,0,0,1,4.3-1.55,31.44,31.44,0,0,1,5.78-.62,25.13,25.13,0,0,1,4.57.44c-.12-2-.18-3.07-.18-3.28v-5.19ZM1481.44,356V342.61a28.38,28.38,0,0,0-4-.25,5.36,5.36,0,0,0-2.35.31c-.45.33-.81,1.27-1.08,2.81a28.29,28.29,0,0,0-.4,4.86q0,3.77,1.14,5a4.1,4.1,0,0,0,3.19,1.24A11.41,11.41,0,0,0,1481.44,356Z"/><path class="cls-3" d="M1534.42,335.93v28.44h-8.59l-1.18-4.76Q1520.21,365,1514,365a13.69,13.69,0,0,1-4.17-.62,6.17,6.17,0,0,1-2.94-1.79,7.66,7.66,0,0,1-.84-3.4q-.27-2.73-.27-8.29v-15h10.57v14.84q0,1.23.06,2.91a4.59,4.59,0,0,0,.37,2.1c.29.41,1.11.62,2.47.62l1-.07a10.76,10.76,0,0,0,3.59-.8v-19.6Z"/><path class="cls-3" d="M1596.8,364.37h-11.5l-5.87-11.56a4.13,4.13,0,0,0-2.29-2.29v13.85h-10.57V327.28l10.57-.44v21.09a5.41,5.41,0,0,0,2.54-2.54l5.25-9.46,11.56-.06-6,9.64a14.28,14.28,0,0,1-3.1,3.65,26.73,26.73,0,0,1,3.22,4.7Z"/><path class="cls-3" d="M1624.87,364.37l-1-3.89a8.83,8.83,0,0,1-7.91,4.63,9.83,9.83,0,0,1-6.77-2.32,8.22,8.22,0,0,1-2.63-6.52,7.13,7.13,0,0,1,1.52-4.54,8,8,0,0,1,4.17-2.75,45.31,45.31,0,0,1,10.69-1.12c0-2.72-.12-4.16-.37-4.32a4.22,4.22,0,0,0-2-.25c-.7,0-1.66,0-2.9.12-2,.09-4.66.31-8,.68q-.5-3.33-.74-7.17,3.27-.68,6.86-1.14a50.67,50.67,0,0,1,6.43-.47q4.95,0,7.42,1.64a7.49,7.49,0,0,1,3.22,4.3,24.45,24.45,0,0,1,.68,6.74l-.07,9.09.19,7.29Zm-1.92-6.8V353h-.49c-3,0-4.74.16-5.07.49a1.93,1.93,0,0,0-.46.93,4.5,4.5,0,0,0-.16,1.17,2.54,2.54,0,0,0,.68,2,3.29,3.29,0,0,0,2.1.56A10.43,10.43,0,0,0,1623,357.57Z"/><path class="cls-3" d="M1675.54,341.12q.27,2.73.27,8.29v15h-10.57V347a5.78,5.78,0,0,0-.31-2.47c-.33-.42-1.09-.62-2.28-.62a10.31,10.31,0,0,0-1.3.06,10.76,10.76,0,0,0-3.59.8v19.6h-10.57V335.93h8.59l1.18,4.76q4.45-5.37,10.63-5.38a13.81,13.81,0,0,1,4.18.62,6.19,6.19,0,0,1,2.93,1.79A7.71,7.71,0,0,1,1675.54,341.12Z"/><path class="cls-3" d="M1708,327.28l10.58-.44v37.53H1708Z"/><path class="cls-3" d="M1732.88,335.93h10.57v28.44h-10.57Zm1.7-4.94a4.57,4.57,0,0,1,0-6.81,5.12,5.12,0,0,1,3.61-1.42,5,5,0,0,1,3.59,1.42,4.66,4.66,0,0,1,0,6.81,5,5,0,0,1-3.59,1.42A5.12,5.12,0,0,1,1734.58,331Z"/><path class="cls-3" d="M1770.71,352.69c0,.74,0,1.51.07,2.31a2.54,2.54,0,0,0,.37,1.52c.28.29,1.3.43,3,.43l2.1-.06a37.67,37.67,0,0,1,.56,6.86,20,20,0,0,1-3.44.81,27.24,27.24,0,0,1-4.29.37,10.18,10.18,0,0,1-6.59-1.89c-1.54-1.26-2.32-3.2-2.32-5.84V342h-4.63v-5.63l4.63-.43,2.79-6.8,7.72-.43v7.23h6.56V342h-6.56Z"/><path class="cls-3" d="M1806.26,364.37l-1-3.89a8.83,8.83,0,0,1-7.91,4.63,9.83,9.83,0,0,1-6.77-2.32,8.22,8.22,0,0,1-2.63-6.52,7.19,7.19,0,0,1,1.52-4.54,8,8,0,0,1,4.17-2.75,45.34,45.34,0,0,1,10.7-1.12c0-2.72-.13-4.16-.37-4.32a4.28,4.28,0,0,0-2-.25q-1.05,0-2.91.12c-2,.09-4.66.31-8,.68-.33-2.22-.57-4.61-.74-7.17,2.19-.45,4.47-.83,6.86-1.14a50.67,50.67,0,0,1,6.43-.47q5,0,7.42,1.64a7.49,7.49,0,0,1,3.22,4.3,24.45,24.45,0,0,1,.68,6.74l-.06,9.09.18,7.29Zm-1.91-6.8V353h-.5c-3,0-4.74.16-5.07.49a2,2,0,0,0-.46.93,5,5,0,0,0-.16,1.17,2.54,2.54,0,0,0,.68,2,3.32,3.32,0,0,0,2.11.56A10.53,10.53,0,0,0,1804.35,357.57Z"/><path class="cls-3" d="M1873.37,338.25q2.64,2.94,2.63,10.23a31,31,0,0,1-1,8.87q-1,3.43-2.41,4.55a11.25,11.25,0,0,1-4.73,1.79,34.66,34.66,0,0,1-7,.68c-.7,0-1.87,0-3.52-.12V373l-10.57.43V335.93h8.65l1.06,4.39a11.66,11.66,0,0,1,9.83-5A9,9,0,0,1,1873.37,338.25ZM1864.81,354a32.93,32.93,0,0,0,.31-4.43,11.61,11.61,0,0,0-.87-5.13c-.57-1.11-1.73-1.67-3.46-1.67a15.82,15.82,0,0,0-3.46.37v13.73l1.73.19c.54,0,1.3.06,2.29.06a5.3,5.3,0,0,0,2.47-.31C1864.28,356.5,1864.6,355.56,1864.81,354Z"/><path class="cls-3" d="M1906,364.37l-1-3.89a8.85,8.85,0,0,1-7.92,4.63,9.85,9.85,0,0,1-6.77-2.32,8.22,8.22,0,0,1-2.62-6.52,7.18,7.18,0,0,1,1.51-4.54,8,8,0,0,1,4.17-2.75,45.4,45.4,0,0,1,10.7-1.12c0-2.72-.12-4.16-.37-4.32a4.28,4.28,0,0,0-2-.25q-1,0-2.91.12c-2,.09-4.65.31-8,.68q-.49-3.33-.74-7.17,3.27-.68,6.86-1.14a50.54,50.54,0,0,1,6.43-.47q5,0,7.42,1.64a7.43,7.43,0,0,1,3.21,4.3,24.06,24.06,0,0,1,.68,6.74l-.06,9.09.19,7.29Zm.34-33.35a5.71,5.71,0,0,1-4.18,1.7,5.61,5.61,0,0,1-5.81-5.82,5.56,5.56,0,0,1,1.7-4.17,5.9,5.9,0,0,1,4.24-1.64,5.61,5.61,0,0,1,4.14,1.61,6.06,6.06,0,0,1-.09,8.32Zm-2.26,26.55V353h-.49c-3.06,0-4.74.16-5.07.49a1.94,1.94,0,0,0-.47.93,4.94,4.94,0,0,0-.15,1.17,2.5,2.5,0,0,0,.68,2,3.27,3.27,0,0,0,2.1.56A10.53,10.53,0,0,0,1904.07,357.57Zm.09-32.83a2.78,2.78,0,0,0-2-.74,2.54,2.54,0,0,0-1.94.83,3.19,3.19,0,0,0,0,4.18,2.74,2.74,0,0,0,2.07.8,2.41,2.41,0,0,0,1.91-.86,3.12,3.12,0,0,0,.75-2.11A2.78,2.78,0,0,0,1904.16,324.74Z"/><path class="cls-2" d="M0,237.65A158.39,158.39,0,0,0,60.46,362.27a8.21,8.21,0,0,0,13.25-6.5V267c0-6-4.1-10.95-9.15-10.95H58.41c-3.11,0-4.37-4.79-1.83-6.93L88,217.91a8.23,8.23,0,0,0,2.43-5.83v-104A8.23,8.23,0,0,0,78,101,158.6,158.6,0,0,0,0,237.65Z"/><path class="cls-2" d="M260.77,249.15c2.55,2.14,1.29,6.93-1.83,6.93h-6.15c-5,0-9.14,4.9-9.14,10.95v88.74a8.21,8.21,0,0,0,13.25,6.5A158.69,158.69,0,0,0,239.37,101,8.23,8.23,0,0,0,227,108.07v104a8.22,8.22,0,0,0,2.42,5.83Z"/><path class="cls-2" d="M158.68,0a158.7,158.7,0,0,0-41.91,5.6,8.26,8.26,0,0,0-6.11,8v162a8.22,8.22,0,0,0,14,5.83l32.17-32a2.77,2.77,0,0,1,3.66,0l32.16,32a8.22,8.22,0,0,0,14-5.83v-162a8.25,8.25,0,0,0-6.1-8A158.7,158.7,0,0,0,158.68,0Z"/></svg>