<svg xmlns="http://www.w3.org/2000/svg" width="120" height="120" fill="none"><path fill="#FEFAF3" fill-rule="evenodd" d="M22.793 10.137q36.885-.204 73.828-.058 2.284.098 4.453.761-.01.096-.117.117a21.6 21.6 0 0 0-4.57-.82z" clip-rule="evenodd" opacity=".094"/><path fill="#F22218" fill-rule="evenodd" d="M22.792 10.137h73.594q-7.41.176-14.883.117h-56.25a16.2 16.2 0 0 0-5.508.703q-.14-.081-.117-.234a6 6 0 0 0 1.64-.352q.715-.273 1.524-.234" clip-rule="evenodd" opacity=".941"/><path fill="#EC4B3E" fill-rule="evenodd" d="M25.255 10.254a6.7 6.7 0 0 1-1.758.117.38.38 0 0 1-.234.41q.199.178-.118.234.252.331.586.586-.231.272.118.41.32-.4.703 0 .245-.201.468 0a.8.8 0 0 1-.351.176l6.21.117q-3.925.06-7.85.117 36.914.089 73.827.059v.117q-37.44-.03-74.882.059a2.15 2.15 0 0 0-.82.293q-.549.24-1.173.351a1.96 1.96 0 0 0-1.172.47.68.68 0 0 0-.468.234q-.435-.074-.469.351a11.2 11.2 0 0 0-2.578 2.11.75.75 0 0 0-.586.585l-.117.235a1.46 1.46 0 0 0-.703.937q.012.269-.235.352a1.4 1.4 0 0 0-.293.468.58.58 0 0 1-.058-.351h-.352q-.015.544.176.117.087.406.059.82-.44.555-.47 1.29a7.3 7.3 0 0 1-.35 1.523h-.118q-.03-.996-.117-.117a3.2 3.2 0 0 0-.586-.176q.203-.16-.059-.293a.77.77 0 0 0-.351.352q-.156-.245-.176.058.354.203.059.41a1.3 1.3 0 0 1-.293-.234.45.45 0 0 0 .058-.469q-.267.078-.41-.234-.276.728.469 1.055.196.215.058.468-1.116-.8-.644-2.11l-.059-.468a.65.65 0 0 1-.175.352q-.016-.466.234-.82.293-.342.234-.82a5.4 5.4 0 0 1 .938-1.993q.158-.194.293 0 .048-.512.293-.938.037-.249.175-.468.303-.49.762-.82a.88.88 0 0 0 .469-.587q.293-.41.703-.703.455-.161.703-.586a.88.88 0 0 0 .586-.468.56.56 0 0 1 .469-.352q.498-.102.82-.469a8 8 0 0 1 2.813-1.289h.117q-.023.154.117.235a16.2 16.2 0 0 1 5.508-.703" clip-rule="evenodd"/><path fill="#FFA195" fill-rule="evenodd" d="M21.27 10.371a6 6 0 0 1-1.641.352h-.117a4.6 4.6 0 0 1 1.758-.352" clip-rule="evenodd" opacity=".584"/><path fill="#ED4136" fill-rule="evenodd" d="M81.387 10.254h.117q.904.145 1.875.176-.317.056-.117.234-.267.313-.293-.176a.98.98 0 0 1-.645.293q.318.164.586.41.198.755.938.996 6.474.03 12.89.176-32.812.03-65.625-.058 17.696-.089 35.39-.059a.58.58 0 0 0-.058-.351q-.114.21-.175 0 .215-.196.468-.06-.21.116 0 .177a.35.35 0 0 0 .235-.235 2.3 2.3 0 0 1-.47-.41q.484.114.938.41.088-.194.118-.351.121.092.175.234a.45.45 0 0 1 .293-.234q.357.072.704.058-.245-.29-.528-.175a1.3 1.3 0 0 0-.293-.352q.176-.293.469-.469a16.5 16.5 0 0 1 3.398-.058l-.117.117q.267.237.469.527-.145.168-.059.352.36.162.762.117a.52.52 0 0 0 .176.469.87.87 0 0 0-.059-.703 4.4 4.4 0 0 1-1.055-.88q4.777-.029 9.493-.175" clip-rule="evenodd"/><path fill="#EC4035" fill-rule="evenodd" d="M96.387 10.137q2.325.162 4.57.82.106-.022.117-.117.117 0 .117.117.729.393 1.524.703.408.087.703.352.165.259.469.351.474.06.703.469l2.109 1.992a4.8 4.8 0 0 1 1.289 1.758q.166.627.586 1.055.62 1.721 1.289 3.398v.117q-.02 1.194.235 2.344-.118 0-.118.117l-.234 6.446q-.367-.228-.469.234.2.194.293-.117.212.382.176.82-.623.05-.996.352a.52.52 0 0 1-.176-.47.36.36 0 0 0 .352-.116 1.8 1.8 0 0 0-.352-.41.9.9 0 0 1 .352-.47q-.213-.277-.469-.058.198.357-.176.117a.6.6 0 0 1 .176-.527q-.314-.187-.176-.527.05.57.293.117.303.204.586-.059-.445-.364.059-.293.22-.124.41-.293a5 5 0 0 1-.762-.527 5.5 5.5 0 0 1-.527.645h.469q.02.224-.176.41-.23-.38-.586-.117a1.5 1.5 0 0 0-.176-.586q.059-2.434-.117-4.805h-.117a19 19 0 0 0-.821-3.516 3.4 3.4 0 0 0-.586-1.758.36.36 0 0 0-.351-.117 7.2 7.2 0 0 1-1.055-1.406 2.8 2.8 0 0 0-1.172-1.172q-.648-.474-1.289-.937-.083-.247-.351-.235a.8.8 0 0 0-.235-.293 1.76 1.76 0 0 0-.937-.293q-.457-.52-1.172-.468a.54.54 0 0 1-.469-.118 1.24 1.24 0 0 0-.703-.293 7 7 0 0 0-1.289-.058h-.351v-.235q0-.117-.118-.117a705 705 0 0 0-12.89-.175q-.74-.242-.938-.997a2.7 2.7 0 0 0-.586-.41.98.98 0 0 0 .645-.293q.026.49.293.176-.2-.178.117-.234a15 15 0 0 1-1.875-.176q7.47.059 14.883-.117" clip-rule="evenodd"/><path fill="#EFC7C0" fill-rule="evenodd" d="M101.191 10.957q.883.12 1.524.703a14 14 0 0 1-1.524-.703" clip-rule="evenodd" opacity=".09"/><path fill="#ED3D32" fill-rule="evenodd" d="M25.254 10.254h56.133q-4.716.146-9.493.176.456.52 1.055.879.18.339.059.703a.52.52 0 0 1-.176-.469 1.43 1.43 0 0 1-.762-.117q-.086-.184.059-.352a3 3 0 0 0-.469-.527l.117-.117a16.5 16.5 0 0 0-3.398.058 1.35 1.35 0 0 0-.469.469q.18.15.293.352.283-.115.528.175-.347.014-.704-.058a.45.45 0 0 0-.293.234.5.5 0 0 0-.175-.234q-.03.157-.118.351a3 3 0 0 0-.937-.41q.208.238.469.41a.35.35 0 0 1-.235.235q-.21-.061 0-.176-.253-.138-.469.059.062.21.176 0a.58.58 0 0 1 .059.351q-17.696-.03-35.39.059 32.812.087 65.624.058.118 0 .118.117-36.915.03-73.829-.058 3.926-.06 7.852-.117-3.105-.06-6.211-.117a.8.8 0 0 0 .352-.176q-.224-.202-.47 0-.381-.402-.702 0-.35-.14-.117-.41a3 3 0 0 1-.587-.586q.317-.057.118-.235a.38.38 0 0 0 .234-.41 6.7 6.7 0 0 0 1.758-.117" clip-rule="evenodd"/><path fill="#F2F4F4" fill-rule="evenodd" d="M103.418 12.012q.375.009.469.351a.82.82 0 0 1-.469-.351" clip-rule="evenodd" opacity=".078"/><path fill="#AF827E" fill-rule="evenodd" d="M16.7 12.012q-.324.366-.821.468.323-.366.82-.468" clip-rule="evenodd" opacity=".145"/><path fill="#5F5452" fill-rule="evenodd" d="M96.856 12.597v.117q-37.207-.03-74.415.059-.645.096-1.289.176.363-.225.82-.293 37.442-.088 74.884-.059" clip-rule="evenodd" opacity=".012"/><path fill="#6E5958" fill-rule="evenodd" d="M97.207 12.715q.647-.03 1.29.059.413.042.702.293a52 52 0 0 1-1.992-.352" clip-rule="evenodd" opacity=".024"/><path fill="#9B706C" fill-rule="evenodd" d="M15.41 12.832a.88.88 0 0 1-.586.469.88.88 0 0 1 .586-.469" clip-rule="evenodd" opacity=".149"/><path fill="#96635F" fill-rule="evenodd" d="M99.668 13.183q.715-.051 1.172.47-.614-.205-1.172-.47" clip-rule="evenodd" opacity=".416"/><path fill="#90706B" fill-rule="evenodd" d="M14.824 13.3q-.248.425-.703.587.248-.425.703-.586" clip-rule="evenodd" opacity=".149"/><path fill="#6F6A65" fill-rule="evenodd" d="M19.98 13.3a3.9 3.9 0 0 1-1.171.47 1.96 1.96 0 0 1 1.171-.47" clip-rule="evenodd" opacity=".024"/><path fill="#905D5A" fill-rule="evenodd" d="M100.84 13.652q.511.014.937.293a.8.8 0 0 1 .235.293 4.1 4.1 0 0 1-1.172-.586" clip-rule="evenodd" opacity=".439"/><path fill="#594545" fill-rule="evenodd" d="M18.809 13.77q-.139.282-.47.234a.68.68 0 0 1 .47-.234" clip-rule="evenodd" opacity=".012"/><path fill="#867572" fill-rule="evenodd" d="M104.59 12.832a6.4 6.4 0 0 1 2.109 1.992z" clip-rule="evenodd" opacity=".153"/><path fill="#766967" fill-rule="evenodd" d="M18.34 14.004q-.228.174-.469.351.034-.424.469-.351" clip-rule="evenodd" opacity=".02"/><path fill="#403635" fill-rule="evenodd" d="M102.012 14.238q.269-.013.351.234-.269.013-.351-.234" clip-rule="evenodd" opacity=".035"/><path fill="#9A6964" fill-rule="evenodd" d="M13.418 14.59a.88.88 0 0 1-.469.586.88.88 0 0 1 .469-.586" clip-rule="evenodd" opacity=".176"/><path fill="#865650" fill-rule="evenodd" d="M103.652 15.41q.762.41 1.172 1.172a8.3 8.3 0 0 1-1.172-1.172" clip-rule="evenodd" opacity=".388"/><path fill="#726766" fill-rule="evenodd" d="M15.293 16.465a2.1 2.1 0 0 1-.586.586.75.75 0 0 1 .586-.586" clip-rule="evenodd" opacity=".02"/><path fill="#BD7567" fill-rule="evenodd" d="M107.988 16.582q.427.44.586 1.055a2.3 2.3 0 0 1-.586-1.055" clip-rule="evenodd" opacity=".325"/><path fill="#A1473B" fill-rule="evenodd" d="M12.012 16.465q-.245.426-.293.937-.135-.192-.293 0a2 2 0 0 1 .586-.937" clip-rule="evenodd"/><path fill="#604D4C" fill-rule="evenodd" d="M14.59 17.285q-.29.523-.703.938.165-.632.703-.938" clip-rule="evenodd" opacity=".016"/><path fill="#77443A" fill-rule="evenodd" d="M108.574 17.637a9.9 9.9 0 0 1 1.289 3.398q-.67-1.676-1.289-3.398" clip-rule="evenodd" opacity=".01"/><path fill="#A0483D" fill-rule="evenodd" d="M13.654 18.574q-.095.6-.47 1.055.03-.415-.058-.82-.19.427-.176-.118h.352a.58.58 0 0 0 .059.352q.105-.275.292-.469" clip-rule="evenodd"/><path fill="#A43226" fill-rule="evenodd" d="M105.879 17.988a.36.36 0 0 1 .351.117 3.4 3.4 0 0 1 .586 1.758z" clip-rule="evenodd" opacity=".867"/><path fill="#784944" fill-rule="evenodd" d="M10.488 19.395q.058.48-.234.82.039-.452.234-.82" clip-rule="evenodd" opacity=".333"/><path fill="#3A3030" fill-rule="evenodd" d="M13.184 19.629a6.3 6.3 0 0 1-.47 1.289q.03-.734.47-1.29" clip-rule="evenodd" opacity=".059"/><path fill="#E97165" fill-rule="evenodd" d="M51.738 21.504a7.6 7.6 0 0 1 1.875.117 9.1 9.1 0 0 0-2.695.235q-.107-.022-.117-.118.438-.224.937-.234" clip-rule="evenodd" opacity=".298"/><path fill="#A3918E" fill-rule="evenodd" d="M65.45 21.504v.117q-1.002.153-1.993.352h-.352a7.8 7.8 0 0 1 2.344-.47" clip-rule="evenodd" opacity=".22"/><path fill="#745A56" fill-rule="evenodd" d="M67.324 21.387q1.335-.11 2.344.703a9.4 9.4 0 0 0-2.344-.703" clip-rule="evenodd" opacity=".02"/><path fill="#916F68" fill-rule="evenodd" d="M51.738 21.504a5.8 5.8 0 0 1 1.992-.059A74 74 0 0 1 58.3 22.5a20 20 0 0 0 3.165-.058q-.498.244-1.29.293a7.5 7.5 0 0 1-1.874 0 51 51 0 0 0-4.688-1.114 7.6 7.6 0 0 0-1.875-.117" clip-rule="evenodd" opacity=".267"/><path fill="#BAAFB0" fill-rule="evenodd" d="M69.903 22.207q.246.083.234.352-.326-.13-.234-.352" clip-rule="evenodd" opacity=".01"/><path fill="#7A3E39" fill-rule="evenodd" d="M109.865 21.152q.336 1.245.351 2.578h-.117v-.234a10 10 0 0 1-.234-2.344" clip-rule="evenodd" opacity=".933"/><path fill="#997876" fill-rule="evenodd" d="M50.215 22.207a2.1 2.1 0 0 1-.586.586.75.75 0 0 1 .586-.586" clip-rule="evenodd" opacity=".243"/><path fill="#EC3E34" fill-rule="evenodd" d="M53.613 21.62a51 51 0 0 1 4.688 1.114q.937.117 1.875 0 .79-.048 1.289-.293.06-.147.234-.117.286.238.469-.117h.117q.01.094.117.117a4.2 4.2 0 0 0 1.055-.352q.992-.198 1.992-.351.531-.03 1.055.059a7.2 7.2 0 0 0-1.7.292 1.8 1.8 0 0 0-.41.352.36.36 0 0 0 .352.117q-.302.648-.234 1.23-.382-.195-.645.176-.575-.656-1.347-.293.456.316-.118.47.302.61.762.175a1 1 0 0 1 .059.469 17 17 0 0 0 1.875-.41q.504-.141.937.058a4.16 4.16 0 0 0-1.992.469 2.5 2.5 0 0 0-1.523.352 2.14 2.14 0 0 0-1.055.234q-2.228.225-4.453 0a8.9 8.9 0 0 0-2.696-.703 3.2 3.2 0 0 0-1.23-.352.82.82 0 0 0-.645.235 1 1 0 0 0 .059.468q.33.545.645 1.055.366.323.468.82.087.408.352.703.099.405.176.82l.117-.116a.5.5 0 0 0 .293.351 1.77 1.77 0 0 1-.117 1.524q-.411-.193 0-.47a1.32 1.32 0 0 1-.41-.702l-.118.234a4 4 0 0 1-.703-.586l-.117.117a1.12 1.12 0 0 0-.996-.175q.425.209.469.703a2.1 2.1 0 0 0-.528.644.27.27 0 0 0-.175-.117 145 145 0 0 1-2.52-4.922 5.8 5.8 0 0 1 0-1.64.58.58 0 0 1 .293-.47q.352-.233.586-.585.254-.275.586-.469.01.096.117.117a9.1 9.1 0 0 1 2.695-.234" clip-rule="evenodd"/><path fill="#DECCCA" fill-rule="evenodd" d="M62.168 22.207q-.183.355-.469.117z" clip-rule="evenodd" opacity=".255"/><path fill="#B65C54" fill-rule="evenodd" d="M63.106 21.973h.351q-.486.24-1.055.351-.106-.021-.117-.117.387-.187.82-.234" clip-rule="evenodd" opacity=".306"/><path fill="#200000" fill-rule="evenodd" d="M12.245 22.441h.117q-.175 37.03-.117 74.063h-.117q-.058-37.034.117-74.063" clip-rule="evenodd" opacity=".063"/><path fill="#EA3F35" fill-rule="evenodd" d="M67.324 21.387a9.4 9.4 0 0 1 2.344.703q.174-.03.234.117-.09.222.235.352.335.26.41.703.135.719-.059 1.406-.335.533-.469 1.172-.145.524-.468.938a1.9 1.9 0 0 0-.469.644q-.672.07-.234.469a1.63 1.63 0 0 0-.47 1.23 1.36 1.36 0 0 0-.468.938 1.7 1.7 0 0 1-.234.468l-.703.938q-.636.09-.235.469l-.175.117a3.7 3.7 0 0 1-.645-.469.5.5 0 0 0-.176.235q-.246-.412.117-.82.075.206.235.35A2.9 2.9 0 0 0 65.8 30q.38-.014.703-.058-.069.213.234.293.255.137.469-.06a7 7 0 0 0-.644-.468q-.537.075-1.114 0 .052.498-.234.176.231-.244-.117-.352l.351-.585a.28.28 0 0 0-.234-.06q.625-1.543 1.523-2.929a.7.7 0 0 0 .235-.586q.22-.014.293-.234.21-.358.058-.703a1.7 1.7 0 0 0-1.289-.117 1.33 1.33 0 0 0-.937-.059 17 17 0 0 1-1.875.41 1 1 0 0 0-.059-.469q-.46.435-.762-.175.575-.153.117-.47.774-.362 1.348.294.263-.372.645-.176-.069-.582.234-1.23a.36.36 0 0 1-.352-.118q.18-.207.41-.351a7.2 7.2 0 0 1 1.7-.293 4.8 4.8 0 0 0-1.055-.059v-.117a4.8 4.8 0 0 1 1.875-.117" clip-rule="evenodd"/><path fill="#B68F8B" fill-rule="evenodd" d="M66.973 25.37a2.3 2.3 0 0 1 .351-.76 12 12 0 0 0-.761-.294q-1.225.123-2.52.469a4.16 4.16 0 0 1 1.992-.469 1.7 1.7 0 0 1 1.29.117q.152.345-.06.703-.072.222-.292.235" clip-rule="evenodd" opacity=".161"/><path fill="#DFCACA" fill-rule="evenodd" d="M54.316 24.668a9 9 0 0 1-1.23-.234q-.27.047-.527.117h-.118a.82.82 0 0 1 .645-.234 3.2 3.2 0 0 1 1.23.351" clip-rule="evenodd" opacity=".112"/><path fill="#E7A49A" fill-rule="evenodd" d="M64.043 24.785q-.735.204-1.524.352a2.5 2.5 0 0 1 1.524-.352" clip-rule="evenodd" opacity=".161"/><path fill="#956964" fill-rule="evenodd" d="M52.44 24.55h.117q.337.736.586 1.524-.315-.51-.644-1.055a1 1 0 0 1-.059-.468" clip-rule="evenodd" opacity=".443"/><path fill="#D7ADAA" fill-rule="evenodd" d="M54.316 24.668q1.42.143 2.696.703a27 27 0 0 1-2.696-.703" clip-rule="evenodd" opacity=".145"/><path fill="#E0DCDB" fill-rule="evenodd" d="M62.52 25.137q-.479.247-1.055.234.477-.249 1.054-.234" clip-rule="evenodd" opacity=".145"/><path fill="#E3958D" fill-rule="evenodd" d="M57.012 25.371q2.226.225 4.453 0a8.3 8.3 0 0 1-2.168.235 9 9 0 0 0-1.64 0 7 7 0 0 1-.645-.235" clip-rule="evenodd" opacity=".145"/><path fill="#443636" fill-rule="evenodd" d="M70.488 24.668q-.065.667-.469 1.172.135-.64.47-1.172" clip-rule="evenodd" opacity=".051"/><path fill="#513839" fill-rule="evenodd" d="M66.974 25.371a.7.7 0 0 1-.235.586.7.7 0 0 1 .235-.586" clip-rule="evenodd" opacity=".024"/><path fill="#644F47" fill-rule="evenodd" d="M53.613 26.895a.79.79 0 0 1 .352.703 1.5 1.5 0 0 1-.352-.703" clip-rule="evenodd" opacity=".039"/><path fill="#A8594C" fill-rule="evenodd" d="M69.552 26.777q-.496 1.228-1.172 2.344a1.63 1.63 0 0 1 .469-1.23q-.436-.398.234-.47a1.9 1.9 0 0 1 .47-.644" clip-rule="evenodd" opacity=".906"/><path fill="#9B3F34" fill-rule="evenodd" d="M53.965 27.598q.427.44.586 1.054a.5.5 0 0 1-.293-.351l-.117.117a15 15 0 0 0-.176-.82" clip-rule="evenodd"/><path fill="#413E3B" fill-rule="evenodd" d="M68.379 29.121q-.145.524-.469.938.052-.572.469-.938" clip-rule="evenodd" opacity=".027"/><path fill="#664E4B" fill-rule="evenodd" d="M67.677 30.527q-.22.646-.586 1.23.189.15.352.294-.727.038-.469-.586z" clip-rule="evenodd" opacity=".031"/><path fill="#1D0303" fill-rule="evenodd" d="M50.683 33.457a4.3 4.3 0 0 0-.586 1.992q-.171-.963.352-1.874.08-.14.234-.118" clip-rule="evenodd" opacity=".031"/><path fill="#EA3F34" fill-rule="evenodd" d="M54.55 28.652a30 30 0 0 1 1.583 3.164q.099.092.234.117a54 54 0 0 1 7.09 0q.276-.259.469-.585a.79.79 0 0 0 .351-.703q.336-.174.352-.587.315-.338.352-.82.246-.082.234-.351a.28.28 0 0 1 .234.058l-.351.586q.347.106.117.352.287.322.234-.176.577.075 1.114 0 .34.219.644.469-.215.195-.469.058-.303-.078-.234-.293-.324.045-.703.059.31.645.293 1.348a.85.85 0 0 1-.235-.352q-.362.41-.117.82a.5.5 0 0 1 .176-.234q.3.27.644.469l.176-.118q-.401-.379.235-.468-.259.624.468.586a3.33 3.33 0 0 1 1.641 1.289q.19.44.469.82.255.413.234.938 0 .328-.117.586-.174.452-.352.937a.39.39 0 0 0-.175.234.86.86 0 0 0-.235-.351q.122.52-.058 1.055a.39.39 0 0 1-.235.175q.155.125.235.293.139.159.351.235a33.3 33.3 0 0 1 8.086 8.789q-.11.074-.117.234.252.323.176.703l-.117-.117q-.127.38.234.586l.117-.117q.429.567.762 1.172-.048.33.234.468v.352q-.27.141-.586.117a.36.36 0 0 0-.117-.351q-.301.841-.762 0a.5.5 0 0 0-.175.234l.351.469a3 3 0 0 1-.586.351q.303 1.149-.293.235a1.5 1.5 0 0 0-.058.586 17 17 0 0 0-1.172-2.93q.047-.33-.235-.469a35 35 0 0 0-2.695-3.867.88.88 0 0 0-.586-.469 33 33 0 0 0-2.344-2.343 4.6 4.6 0 0 0-1.289-1.172h-.117a1.3 1.3 0 0 0-.703-.586 9 9 0 0 0-1.055-.938 1.1 1.1 0 0 1-.703-.469l-.117-.234q-5.42-.12-11.074-.234-.381.233.058.234v.117a2.9 2.9 0 0 1-.937.586q-.66.447-1.172 1.055a.8.8 0 0 1-.352.234q-.75.465-1.289 1.172a1.3 1.3 0 0 0-.703.586l-.586.469a.83.83 0 0 0-.234.351q-1.007 1.065-1.992 2.11a.8.8 0 0 0-.235.351q-.17.459-.586.703a.8.8 0 0 0-.234.352q-.244.246-.352.586a.8.8 0 0 0-.234.352v.117a.56.56 0 0 0-.351.468.68.68 0 0 0-.235.47.82.82 0 0 1-.234.468 2.84 2.84 0 0 0-.586 1.406q-.06.117-.117.235l-.235.351q.06-.527-.468-.469.028.605-.586.703a1.3 1.3 0 0 0-.352-.292q.234-.118 0-.235h.469q-.588-.32-1.23-.058l-.176-.118q.216-.32 0-.586v-.351a4.5 4.5 0 0 0 .703-1.524.7.7 0 0 0 .234-.585q.16-.614.586-1.055.568-.443.703-1.172a4.9 4.9 0 0 1 .82-.938.8.8 0 0 0 .235-.351q.352-.585.82-1.055a.77.77 0 0 0 .469-.703h.117a19 19 0 0 0 1.758-1.758 4.6 4.6 0 0 0 1.289-1.172 12 12 0 0 0 1.934-1.523q.12-.165-.059-.234a4.17 4.17 0 0 1-.82-2.11 4.3 4.3 0 0 1 .586-1.992q.73-1.203 2.109-1.406a9.3 9.3 0 0 0-.937-2.227q.108.02.175.117.202-.376.528-.644-.044-.495-.47-.703.544-.15.997.175l.117-.117q.32.335.703.586l.117-.234q.095.416.41.703-.41.276 0 .469.406-.735.118-1.524m11.72 6.211q.768.846-.235 1.407a346 346 0 0 1-12.539-.118 4.3 4.3 0 0 0-.234-.644 1.3 1.3 0 0 0 .117-.528q6.438-.173 12.89-.117" clip-rule="evenodd"/><path fill="#322626" fill-rule="evenodd" d="M64.277 30.645a.79.79 0 0 1-.351.703q.086-.408.351-.703" clip-rule="evenodd" opacity=".031"/><path fill="#7E3833" fill-rule="evenodd" d="M64.629 30.059q-.016.413-.352.585a.77.77 0 0 1 .352-.585" clip-rule="evenodd" opacity=".663"/><path fill="#240101" fill-rule="evenodd" d="M64.98 29.238a1.3 1.3 0 0 1-.351.82q.036-.48.352-.82" clip-rule="evenodd" opacity=".049"/><path fill="#412324" fill-rule="evenodd" d="M65.216 28.887q.012.268-.235.351-.012-.268.235-.351" clip-rule="evenodd" opacity=".031"/><path fill="#6E4845" fill-rule="evenodd" d="M69.082 33.34q.459.273.469.82a4.2 4.2 0 0 1-.469-.82" clip-rule="evenodd" opacity=".055"/><path fill="#FFEFEF" fill-rule="evenodd" d="M66.27 34.864q-6.454-.057-12.891.117a.26.26 0 0 1 .117-.176 233 233 0 0 1 12.773.059" clip-rule="evenodd" opacity=".071"/><path fill="#FFA4A1" fill-rule="evenodd" d="M53.496 36.152q6.264.173 12.54.117-6.182.206-12.423.06a.27.27 0 0 1-.117-.177" clip-rule="evenodd" opacity=".051"/><path fill="#DC3D33" fill-rule="evenodd" d="M12.128 22.324a987 987 0 0 0-.117 21.446q-.135.118-.234.292.199.776.059 1.583-.157-.245-.176.058.045.222.234.352a2.5 2.5 0 0 1-.351.937q.489.455.117.938.17.75 0 1.406a.5.5 0 0 1 .234.176q-.115 1.126-.176 2.343a1.4 1.4 0 0 0-.293-.82.59.59 0 0 0-.293.469 1.04 1.04 0 0 1-.351-.469q-.117.47-.235 0a.46.46 0 0 0-.175.352q.215.334.41.703.227-.897.586 0 .001.51-.469.234a.5.5 0 0 0-.176.235q.813.484 1.172 1.347a1.3 1.3 0 0 0-.176.41q-.274-.148-.351.235-.24-.133-.41.176a.52.52 0 0 1 .234.175q-.172.385.058.82.199-.194.293.118-.093.31-.293.117-.117.117 0 .234l.352.118.117-.352q.137.34-.175.527.185.302-.235.352.06.175.117.352l-.351.117q.607.128.586.761h-.586a1.3 1.3 0 0 0-.235-.703q.172-.285-.175-.468-.12.225.058.41a2.5 2.5 0 0 0-.586 0q.137.31-.058.644-.028-17.639-.176-33.398l-.235 48.281q-.03-24.843.06-49.687.046-1.095.292-2.11a.65.65 0 0 0 .176-.351l.058.468q-.472 1.308.645 2.11.137-.255-.059-.469-.745-.327-.468-1.055.143.313.41.235a.45.45 0 0 1-.059.468q.13.139.293.235.295-.208-.059-.41.02-.303.176-.059a.77.77 0 0 1 .352-.352q.261.133.059.293.307.063.585.176" clip-rule="evenodd"/><path fill="#403333" fill-rule="evenodd" d="M69.668 35.684q.084.6-.352.937.178-.485.352-.937" clip-rule="evenodd" opacity=".01"/><path fill="#9E4C41" fill-rule="evenodd" d="M69.316 36.621q-.051.572-.468.938.18-.534.058-1.055a.85.85 0 0 1 .235.352.39.39 0 0 1 .175-.235" clip-rule="evenodd"/><path fill="#1E0C0C" fill-rule="evenodd" d="M68.848 38.027q.295-.038.351.234a.8.8 0 0 1-.351-.234" clip-rule="evenodd" opacity=".047"/><path fill="#E60804" fill-rule="evenodd" d="M65.333 38.496H54.318q-.44-.002-.059-.234 5.654.116 11.074.234" clip-rule="evenodd" opacity=".937"/><path fill="#210505" fill-rule="evenodd" d="M54.316 38.613v-.117h11.016l.117.234a270 270 0 0 0-11.133-.117" clip-rule="evenodd" opacity=".063"/><path fill="#240403" fill-rule="evenodd" d="M50.918 37.559q.18.069.059.234a12 12 0 0 1-1.934 1.523z" clip-rule="evenodd" opacity=".086"/><path fill="#220A08" fill-rule="evenodd" d="M49.043 39.316a4.6 4.6 0 0 1-1.29 1.172.46.46 0 0 1 .235-.41q.51-.423 1.055-.762" clip-rule="evenodd" opacity=".09"/><path fill="#1D0A08" fill-rule="evenodd" d="M66.152 39.2q.568.428 1.055.937a1.88 1.88 0 0 1-1.055-.938" clip-rule="evenodd" opacity=".047"/><path fill="#1A0D0B" fill-rule="evenodd" d="M53.379 39.2a.8.8 0 0 1-.352.527q-.392.307-.82.527a5.7 5.7 0 0 1 1.172-1.055" clip-rule="evenodd" opacity=".01"/><path fill="#3C2524" fill-rule="evenodd" d="M67.207 40.137q.455.161.703.586a1.3 1.3 0 0 1-.703-.586" clip-rule="evenodd" opacity=".09"/><path fill="#DA3B32" fill-rule="evenodd" d="M107.637 23.379h.117q-.03 36.563.058 73.125l.118-23.438.117-.585q.2.492.644.761a.54.54 0 0 1-.234.352q.291.254.234.644-.488-.072-.234.293-.586.794-.176 1.7a.51.51 0 0 1 .41.175l-.058.176q-.288-.237-.528.059.014.405.059.878.522.349-.059.704a.43.43 0 0 0 .118.175.55.55 0 0 0-.235.352q.373.04.586.527l.235 1.29q.21-.062 0-.176.458-.255.761.058a.46.46 0 0 0 .235-.117q.088-15.117.058-30.234-.356.029-.703-.059.189-.226.469-.117a6 6 0 0 0-.234-.527q-.937-.13-.235-.645-.34-.138-.527.176-.274-.15-.352.234a.51.51 0 0 0-.41-.117v-20.86q.141.255.176.587.355-.262.586.117.197-.186.176-.41h-.469q.29-.305.527-.645.351.295.762.527-.19.168-.41.293-.504-.071-.059.293-.283.263-.586.059-.243.453-.293-.117-.138.34.176.527a.6.6 0 0 0-.176.527q.375.24.176-.117.256-.219.469.059a.9.9 0 0 0-.352.469q.209.179.352.41a.36.36 0 0 1-.352.117.52.52 0 0 0 .176.469q.373-.304.996-.352a1.4 1.4 0 0 0-.176-.82q-.093.31-.293.117.102-.462.469-.234l.234-6.446q.03 36.446-.058 72.89a14.8 14.8 0 0 1-.762 3.868 2.53 2.53 0 0 0-1.055-.703l-.117-.117a.8.8 0 0 1 .352-.176q-1.155-.288-.645-1.348l.117.47.176-.177a5.4 5.4 0 0 1-.293-1.699q-.032.445-.175.82.174-37.029.117-74.062" clip-rule="evenodd"/><path fill="#1C0504" fill-rule="evenodd" d="M68.027 40.723q.755.46 1.29 1.172a9 9 0 0 1-1.055-.762.46.46 0 0 1-.235-.41" clip-rule="evenodd" opacity=".047"/><path fill="#1D100F" fill-rule="evenodd" d="M51.856 40.488a.8.8 0 0 1-.352.528q-.45.365-.938.644a4.7 4.7 0 0 1 1.29-1.172" clip-rule="evenodd" opacity=".01"/><path fill="#2B1515" fill-rule="evenodd" d="M47.754 40.488a19 19 0 0 1-1.758 1.758 6.3 6.3 0 0 1 1.758-1.758" clip-rule="evenodd" opacity=".09"/><path fill="#20110F" fill-rule="evenodd" d="M50.566 41.66q-.248.424-.703.586.249-.424.703-.586" clip-rule="evenodd" opacity=".01"/><path fill="#BDB4B4" fill-rule="evenodd" d="M60.059 42.246q.298-.029.586.059.22.073.234.293a8 8 0 0 0-.82-.352" clip-rule="evenodd" opacity=".075"/><path fill="#837B7B" fill-rule="evenodd" d="M45.879 42.246a.77.77 0 0 1-.469.703q.167-.4.469-.703" clip-rule="evenodd" opacity=".094"/><path fill="#2B2120" fill-rule="evenodd" d="M49.277 42.715q.038.296-.234.351a.83.83 0 0 1 .234-.351" clip-rule="evenodd" opacity=".01"/><path fill="#6E5F50" fill-rule="evenodd" d="M44.59 44.004a.8.8 0 0 1-.234.352q-.038-.296.234-.352" clip-rule="evenodd" opacity=".051"/><path fill="#915E59" fill-rule="evenodd" d="M71.66 44.238a.88.88 0 0 1 .586.469.88.88 0 0 1-.586-.469" clip-rule="evenodd" opacity=".345"/><path fill="#BEAFAF" fill-rule="evenodd" d="M61.582 44.942q.526-.036.938.234a2.1 2.1 0 0 1-.938-.234" clip-rule="evenodd" opacity=".098"/><path fill="#191110" fill-rule="evenodd" d="M47.05 45.176q.039.295-.234.351a.8.8 0 0 1 .235-.351" clip-rule="evenodd" opacity=".01"/><path fill="#CBA5A1" fill-rule="evenodd" d="M62.52 45.176q.548.041.82.468a2.2 2.2 0 0 1-.82-.468" clip-rule="evenodd" opacity=".106"/><path fill="#984A3D" fill-rule="evenodd" d="M43.535 45.293q-.136.73-.703 1.172.3-.624.703-1.172" clip-rule="evenodd" opacity=".906"/><path fill="#2B201F" fill-rule="evenodd" d="M46.23 46.23q.039.295-.234.352a.8.8 0 0 1 .234-.352" clip-rule="evenodd" opacity=".01"/><path fill="#3C2F2E" fill-rule="evenodd" d="M45.996 46.582q.04.427-.352.586.109-.34.352-.586" clip-rule="evenodd" opacity=".01"/><path fill="#1D100E" fill-rule="evenodd" d="M45.645 47.168q.038.295-.235.352a.8.8 0 0 1 .235-.352" clip-rule="evenodd" opacity=".01"/><path fill="#A76761" fill-rule="evenodd" d="M64.863 47.05q.619.619.703 1.524-.35-.753-.703-1.523" clip-rule="evenodd" opacity=".91"/><path fill="#200202" fill-rule="evenodd" d="M61.113 47.402q.228-.042.352.117a31 31 0 0 0-.235 5.391h-.117z" clip-rule="evenodd" opacity=".063"/><path fill="#5B4948" fill-rule="evenodd" d="M42.247 47.52a.7.7 0 0 1-.234.585.7.7 0 0 1 .234-.585" clip-rule="evenodd" opacity=".043"/><path fill="#4E3533" fill-rule="evenodd" d="M54.785 47.285a4.2 4.2 0 0 1-.469.82q.01-.547.47-.82" clip-rule="evenodd" opacity=".051"/><path fill="#2C1B1A" fill-rule="evenodd" d="M45.41 47.637q-.009.375-.351.468a.56.56 0 0 1 .351-.468" clip-rule="evenodd" opacity=".01"/><path fill="#EA3F34" fill-rule="evenodd" d="M60.06 42.246q.407.148.82.352a.5.5 0 0 1 .294.351q.087.936.058 1.875.227-.041.352.117.423.223.937.235a2.2 2.2 0 0 0 .82.468 3.32 3.32 0 0 1 1.524 1.407l.703 1.523q.03.764-.058 1.524-.2.313-.41.586a3.75 3.75 0 0 1-1.524-.235.5.5 0 0 1-.293-.351q-.003-1.943-1.816-2.578-.125-.159-.352-.118a141 141 0 0 0-.176 5.977l-.117-.117a1.3 1.3 0 0 1-.176.41q.965.833-.351 1.055.256.297.586.527.205 2.224.058 4.453l-.117-1.64q-.296.24-.059.527-.316.056-.117.234-.203.285-.468 0 .166-.126.058-.293-.483.264-.82.703-.48-.15-.059-.293a3 3 0 0 0-.234-.41.77.77 0 0 0-.059.703q.499.431.059.88.29.41.82.82a1.2 1.2 0 0 0-.469.175q.177.157 0 .235l-.468-.47q-.117-3.133-.235-6.21a14.7 14.7 0 0 1-2.343-.82.9.9 0 0 1-.586-.47 1.3 1.3 0 0 0-.703-.585 3.84 3.84 0 0 1-.938-1.758q-.13-1.05-.117-2.11-.058-.478.234-.82.279-.38.469-.82 1.316-2.126 3.867-2.46a5.8 5.8 0 0 1 .234-2.169 2.6 2.6 0 0 1 1.055-.527q.107.021.117.117m-1.406 9.844a5.4 5.4 0 0 1-.82-.352q-.48-.38-.938-.82a4.5 4.5 0 0 1-.351-1.23q.093-.507.234-.997.41-.527.938-.937a6 6 0 0 1 .937-.234z" clip-rule="evenodd"/><path fill="#2B1211" fill-rule="evenodd" d="M58.77 52.207q-.118 0-.118-.117v-4.57a6 6 0 0 0-.937.234q.412-.454 1.054-.352z" clip-rule="evenodd" opacity=".063"/><path fill="#D45646" fill-rule="evenodd" d="M77.285 47.05q.673 1.171 1.055 2.462a10 10 0 0 0-.762-1.172l-.117.117q-.36-.206-.234-.586l.117.117a.83.83 0 0 0-.176-.703q.007-.16.117-.234" clip-rule="evenodd"/><path fill="#352C2C" fill-rule="evenodd" d="M45.059 48.106q.047.33-.235.468a.68.68 0 0 1 .235-.468" clip-rule="evenodd" opacity=".024"/><path fill="#342020" fill-rule="evenodd" d="M65.566 48.574q.202.788.059 1.64a.65.65 0 0 1-.527.47q.21-.273.41-.586a10 10 0 0 0 .058-1.524" clip-rule="evenodd" opacity=".063"/><path fill="#5E3C38" fill-rule="evenodd" d="M42.012 48.106a4.5 4.5 0 0 1-.703 1.523q.215-.84.703-1.523" clip-rule="evenodd" opacity=".039"/><path fill="#432727" fill-rule="evenodd" d="M74.941 48.574q.282.139.235.469a.68.68 0 0 1-.235-.469" clip-rule="evenodd" opacity=".01"/><path fill="#210807" fill-rule="evenodd" d="M54.08 48.926q-.014 1.06.117 2.11a2.94 2.94 0 0 1-.234-1.29q0-.444.117-.82" clip-rule="evenodd" opacity=".062"/><path fill="#5E4442" fill-rule="evenodd" d="M56.777 48.691q-.141.49-.234.996.087.645.351 1.231-.489-.498-.468-1.23a1.25 1.25 0 0 1 .351-.997" clip-rule="evenodd" opacity=".039"/><path fill="#2A1E1D" fill-rule="evenodd" d="M44.59 49.043q-.203.756-.586 1.406.105-.796.586-1.406" clip-rule="evenodd" opacity=".039"/><path fill="#371D1C" fill-rule="evenodd" d="M78.339 49.512a.68.68 0 0 1 .234.468q-.282-.138-.234-.468" clip-rule="evenodd" opacity=".059"/><path fill="#8F5752" fill-rule="evenodd" d="M63.574 50.45q.734.273 1.524.234-.856.52-1.524-.235" clip-rule="evenodd" opacity=".478"/><path fill="#4B2824" fill-rule="evenodd" d="M41.309 49.629v.352q-.135.752-.47 1.406.157-.918.47-1.758" clip-rule="evenodd" opacity=".059"/><path fill="#7D2921" fill-rule="evenodd" d="M43.887 50.684q-.034.59-.352 1.054a1 1 0 0 0-.058-.468q-.116.21-.176 0 .193-.12.351-.235z" clip-rule="evenodd"/><path fill="#593836" fill-rule="evenodd" d="M78.574 50.098q.394 1.068.586 2.226a9.8 9.8 0 0 1-.586-1.992z" clip-rule="evenodd" opacity=".063"/><path fill="#E63E33" fill-rule="evenodd" d="M41.307 49.98q.218.267 0 .586l.176.118q.643-.262 1.23.058h-.468q.234.117 0 .235.201.113.351.293.615-.098.586-.704.527-.058.47.47a5 5 0 0 1-.352.233q.06.21.175 0a1 1 0 0 1 .059.47q-.27.41-.234.937.013.576-.235 1.054a9.9 9.9 0 0 0-.351 3.282v.937q-.03.589.058 1.172a.65.65 0 0 0 .176.352v.117q-.016.466.234.82v.117q.042.554.293 1.055a.5.5 0 0 0 .293.352.68.68 0 0 1 .235.468q-.035.439.175.82l.88.821a21 21 0 0 0 2.109 1.64 3.5 3.5 0 0 1-.996-.351l-.352.352q-.117-.47-.234 0-.324-.235-.176.058-.372.255-.762-.058-.167.681-.41 0a4 4 0 0 0-.703-.176q1.136-.312 0-.235-.214.29-.293.645-.041-.285-.293-.352h-.234a3.4 3.4 0 0 1-.938-1.406 1.5 1.5 0 0 0-.352-.703 5.6 5.6 0 0 1-.996-2.578q-1.075-4.818.41-9.492a5 5 0 0 0 .47-1.407" clip-rule="evenodd"/><path fill="#DCA697" fill-rule="evenodd" d="M57.831 51.738q.397.21.82.352 0 .117.118.117-.01.096-.117.117a2.1 2.1 0 0 0-.703-.351q-.14-.08-.118-.235" clip-rule="evenodd" opacity=".122"/><path fill="#341B1C" fill-rule="evenodd" d="M43.536 51.738a2.1 2.1 0 0 1-.235.938 1.47 1.47 0 0 1 .234-.938" clip-rule="evenodd" opacity=".059"/><path fill="#92625F" fill-rule="evenodd" d="M55.137 52.793q.455.162.703.586a1.3 1.3 0 0 1-.703-.586" clip-rule="evenodd" opacity=".318"/><path fill="#E9E1E0" fill-rule="evenodd" d="M61.113 52.91h.117q.467-.015.82.235a2.1 2.1 0 0 1-.937-.235" clip-rule="evenodd" opacity=".078"/><path fill="#D9BCB9" fill-rule="evenodd" d="M62.05 53.145q.536.04.938.351a1.7 1.7 0 0 1-.937-.352" clip-rule="evenodd" opacity=".125"/><path fill="#9A544A" fill-rule="evenodd" d="M79.16 52.441q.373 1.13.469 2.344h-.117a7.8 7.8 0 0 1-.352-2.344" clip-rule="evenodd" opacity=".935"/><path fill="#9B6F6C" fill-rule="evenodd" d="M56.426 53.848q1.136.51 2.343.82v.117h-.117a5.7 5.7 0 0 1-2.226-.937" clip-rule="evenodd" opacity=".243"/><path fill="#977A79" fill-rule="evenodd" d="M62.988 53.496a3.6 3.6 0 0 1 2.227 1.758q-.55-.462-1.055-.996a9 9 0 0 1-1.172-.762" clip-rule="evenodd" opacity=".165"/><path fill="#E90804" fill-rule="evenodd" d="M12.245 22.441q-.176 37.03-.117 74.063-.108.413-.117-.117V43.769q-.06-10.735.117-21.445.088-.879.117.117" clip-rule="evenodd" opacity=".937"/><path fill="#200000" fill-rule="evenodd" d="M58.652 54.785h.117v5.508q-.174.03-.234-.117.175-2.664.117-5.39" clip-rule="evenodd" opacity=".063"/><path fill="#271615" fill-rule="evenodd" d="M43.068 53.73a101 101 0 0 0-.351 3.282 9.9 9.9 0 0 1 .351-3.282" clip-rule="evenodd" opacity=".063"/><path fill="#978685" fill-rule="evenodd" d="M65.216 55.254q.246.082.234.352-.248-.084-.234-.352" clip-rule="evenodd" opacity=".169"/><path fill="#E93E33" fill-rule="evenodd" d="M78.574 50.332q.192 1.043.586 1.992v.117q0 1.222.352 2.344.117 1.755.117 3.516a6.3 6.3 0 0 0-.235 1.875 5.8 5.8 0 0 0-.468 1.758q-.474.54-.469 1.289-.537.377-.469 1.054.03.175-.117.235-.634.236-.586.937a.35.35 0 0 1-.234.235q-.158.192-.293 0-.226.187-.117.468-.188.122-.41.176a.34.34 0 0 1 .117.293q0 .117-.117.117-.674.232-1.114.82-.555-.307.059-.585-.438-.183 0-.293-.42-.122 0-.352a4.3 4.3 0 0 1-.469-1.23.43.43 0 0 1-.176-.117.46.46 0 0 1-.41.234q.423-.422.703-.938.247-.083.235-.351a12.1 12.1 0 0 0 2.109-6.563.7.7 0 0 0 .117-.41 9 9 0 0 0-.234-1.348 74 74 0 0 0-.703-3.632q-.03-.3.058-.586.596.914.293-.235.315-.142.586-.351l-.351-.469a.5.5 0 0 1 .175-.234q.46.841.762 0a.36.36 0 0 1 .117.351q.316.024.586-.117" clip-rule="evenodd"/><path fill="#361E1F" fill-rule="evenodd" d="M77.05 55.606q.167.64.235 1.347a.7.7 0 0 1-.117.41 20 20 0 0 1-.117-1.758" clip-rule="evenodd" opacity=".063"/><path fill="#B5594E" fill-rule="evenodd" d="M65.45 55.606q.4.498.468 1.171v.117a2.5 2.5 0 0 1-.293-.703 1.1 1.1 0 0 0-.293-.175.51.51 0 0 0 .117-.41" clip-rule="evenodd" opacity=".937"/><path fill="#2B1212" fill-rule="evenodd" d="M79.512 54.785h.117q.186 1.786 0 3.516 0-1.761-.117-3.516" clip-rule="evenodd" opacity=".063"/><path fill="#796360" fill-rule="evenodd" d="M55.957 57.598a3.24 3.24 0 0 0-1.289-.587q-.277.168-.586.235 1.086-.776 1.875.351" clip-rule="evenodd" opacity=".01"/><path fill="#291515" fill-rule="evenodd" d="M65.918 56.777q.35.865.117 1.758a13 13 0 0 0-.117-1.64z" clip-rule="evenodd" opacity=".063"/><path fill="#422726" fill-rule="evenodd" d="M42.714 57.95q.167.73.235 1.523a.65.65 0 0 1-.176-.352 6 6 0 0 1-.059-1.172" clip-rule="evenodd" opacity=".063"/><path fill="#AC473A" fill-rule="evenodd" d="M66.035 58.535a3.16 3.16 0 0 1-.82 2.11q.233-.75.469-1.524a1.1 1.1 0 0 1-.352-.352q.275-.149.527.118a.65.65 0 0 1 .176-.352" clip-rule="evenodd"/><path fill="#FAB2AD" fill-rule="evenodd" d="M110.098 23.73h.117q.024 36.282 0 72.54h-.117z" clip-rule="evenodd" opacity=".098"/><path fill="#785A55" fill-rule="evenodd" d="M79.63 58.3a6.3 6.3 0 0 1-.234 1.876 6.3 6.3 0 0 1 .235-1.875" clip-rule="evenodd" opacity=".122"/><path fill="#532C29" fill-rule="evenodd" d="M42.95 59.59q.25.355.234.82a1.3 1.3 0 0 1-.234-.82" clip-rule="evenodd" opacity=".063"/><path fill="#2B1E1E" fill-rule="evenodd" d="M79.395 60.176a5.8 5.8 0 0 1-.47 1.758 5.8 5.8 0 0 1 .47-1.758" clip-rule="evenodd" opacity=".061"/><path fill="#EC3E33" fill-rule="evenodd" d="M61.114 47.402v5.508q.422.223.937.235.403.31.938.351.544.42 1.171.762.505.534 1.055.996-.012.268.234.352a.51.51 0 0 1-.117.41q.161.066.293.175.1.39.293.703.111.816.117 1.641a.65.65 0 0 0-.175.352q-.254-.267-.528-.117.135.214.352.351-.235.774-.469 1.523l-.117.235q-.453.216-.82.586-.267-.248-.47.058l.235.118q-.22.073-.234.293-1.33.54-2.695.937a7.8 7.8 0 0 1-.235 2.578 3.4 3.4 0 0 1-1.406.235q-.743-.252-.703-1.055.058-.945-.117-1.875a10.4 10.4 0 0 1-1.875-.586q-.107.021-.118.117-.117 0-.117-.117-.082-.248-.351-.234l-1.29-1.172a5.2 5.2 0 0 1-1.23-2.227q-.234-.806.41-1.289.31-.066.586-.234.72.155 1.29.586.31.133.35.468.126.78.704 1.29.508.854 1.523 1.054.162-.008.235-.117v-5.625l.234 6.21.469.47q.177-.078 0-.235.216-.137.469-.175a4 4 0 0 1-.82-.82q.44-.45-.06-.88a.77.77 0 0 1 .06-.703q.134.199.234.41-.422.142.058.293.337-.44.82-.703.109.167-.058.293.265.285.469 0-.2-.179.117-.234-.237-.288.059-.528l.117 1.641a28 28 0 0 0-.059-4.453 3 3 0 0 1-.586-.527q1.317-.222.352-1.055.121-.188.176-.41l.117.117q.027-3.119.175-5.977m.234 8.203h.234q.643.353 1.29.704.294.358.585.703.14.753.117 1.523a4.2 4.2 0 0 0-.468.82.35.35 0 0 0-.235.235q-.749.328-1.523.586a22.6 22.6 0 0 1 0-4.57" clip-rule="evenodd"/><path fill="#B19A98" fill-rule="evenodd" d="M62.871 59.59q-.725.828-1.758.586h.235a18 18 0 0 0 1.523-.586" clip-rule="evenodd" opacity=".22"/><path fill="#9B7672" fill-rule="evenodd" d="M57.012 59.356q.635.633 1.523.82.06.147.235.117-.075.11-.235.117-1.015-.2-1.523-1.054" clip-rule="evenodd" opacity=".263"/><path fill="#A86D65" fill-rule="evenodd" d="M63.574 58.535q.05.5-.468.82.19-.44.468-.82" clip-rule="evenodd" opacity=".235"/><path fill="#7F6462" fill-rule="evenodd" d="M56.309 58.066q.395.615.703 1.29-.578-.51-.703-1.29" clip-rule="evenodd" opacity=".01"/><path fill="#331B1C" fill-rule="evenodd" d="M63.457 57.012q.27.375.234.879 0 .357-.117.644a7.2 7.2 0 0 0-.117-1.523" clip-rule="evenodd" opacity=".063"/><path fill="#906F6B" fill-rule="evenodd" d="M61.582 55.606q.83.033 1.29.703z" clip-rule="evenodd" opacity=".361"/><path fill="#200000" fill-rule="evenodd" d="M61.347 55.606a22.6 22.6 0 0 0 0 4.57h-.235q-.059-2.347.117-4.688.107.023.118.117" clip-rule="evenodd" opacity=".063"/><path fill="#704D48" fill-rule="evenodd" d="M43.184 60.527q.358.662.586 1.407a.5.5 0 0 1-.293-.352 2.8 2.8 0 0 1-.293-1.055" clip-rule="evenodd" opacity=".012"/><path fill="#A96960" fill-rule="evenodd" d="m54.902 60.762 1.29 1.172a2.37 2.37 0 0 1-1.29-1.172" clip-rule="evenodd" opacity=".235"/><path fill="#C37166" fill-rule="evenodd" d="M65.098 60.879a2.83 2.83 0 0 1-1.29 1.055q.015-.22.235-.293l-.234-.118q.201-.306.468-.058a2.9 2.9 0 0 1 .82-.586" clip-rule="evenodd"/><path fill="#C4B5B3" fill-rule="evenodd" d="M56.191 61.933q.269-.012.352.235-.268.012-.352-.235" clip-rule="evenodd" opacity=".204"/><path fill="#AD7C73" fill-rule="evenodd" d="M63.809 61.934a4.95 4.95 0 0 1-2.227.937h-.469q1.365-.397 2.696-.937" clip-rule="evenodd" opacity=".2"/><path fill="#796463" fill-rule="evenodd" d="M56.66 62.285q.01-.094.117-.117.909.382 1.875.586a7.6 7.6 0 0 1 .117 1.875 6.7 6.7 0 0 1-.117-1.758 4.3 4.3 0 0 1-1.992-.586" clip-rule="evenodd" opacity=".196"/><path fill="#99554C" fill-rule="evenodd" d="M78.926 61.934a3.2 3.2 0 0 1-.469 1.289q-.004-.75.469-1.29" clip-rule="evenodd" opacity=".882"/><path fill="#261414" fill-rule="evenodd" d="M61.113 62.871h.469q-.124.159-.352.117.03 1.115-.058 2.227a.8.8 0 0 1-.293.234 7.8 7.8 0 0 0 .234-2.578" clip-rule="evenodd" opacity=".063"/><path fill="#C86757" fill-rule="evenodd" d="M44.005 62.402q.525.82 1.055 1.641-.44-.412-.88-.82-.21-.383-.175-.82" clip-rule="evenodd" opacity=".973"/><path fill="#AD7C76" fill-rule="evenodd" d="M89.473 63.457h.351q.402.017.703.234a2.14 2.14 0 0 1-1.054-.234" clip-rule="evenodd" opacity=".345"/><path fill="#8A483E" fill-rule="evenodd" d="M78.457 63.223a2.2 2.2 0 0 1-.469 1.054q-.07-.677.469-1.054" clip-rule="evenodd" opacity=".937"/><path fill="#946E69" fill-rule="evenodd" d="M89.824 63.457h-.351a4.85 4.85 0 0 0-3.047.352h-.235a.27.27 0 0 1 .118-.176q1.755-.68 3.515-.176" clip-rule="evenodd" opacity=".302"/><path fill="#9F8987" fill-rule="evenodd" d="M90.527 63.691q.704.176 1.172.703a4.4 4.4 0 0 1-1.172-.703" clip-rule="evenodd" opacity=".116"/><path fill="#583636" fill-rule="evenodd" d="M41.426 63.457q.265.295.352.703a.79.79 0 0 1-.352-.703" clip-rule="evenodd" opacity=".039"/><path fill="#9B8581" fill-rule="evenodd" d="M75.06 63.926q.012.268-.235.351-.013-.269.234-.351" clip-rule="evenodd" opacity=".18"/><path fill="#EC4639" fill-rule="evenodd" d="M86.191 63.809h.235q.3.126.351.468-.051.572-.468.938.083.251.234.469.167-.146.351-.059-.388.342 0 .586l-.117.117q.283-.003.586-.059a.8.8 0 0 1-.351.235q-.435-.072-.469.352a1048 1048 0 0 1-12.07 8.789v-.47q.916.042.468-.644.295-.264.352-.644a2.2 2.2 0 0 1-.996-.469q-.202.168-.352-.117-.273.354-.644.117.348-.126.586-.41a.28.28 0 0 0-.235-.059q.477-.475 1.055-.82a.8.8 0 0 0 .352-.235 21.3 21.3 0 0 1 3.047-2.226q.285-.11.468-.352a27 27 0 0 1 2.461-1.757.56.56 0 0 0 .469-.352q.77-.653 1.64-1.172a.88.88 0 0 0 .587-.469q.668-.639 1.406-1.23a3.3 3.3 0 0 1 1.054-.527" clip-rule="evenodd"/><path fill="#C8A799" fill-rule="evenodd" d="M91.934 64.629a.75.75 0 0 1 .585.586 2.1 2.1 0 0 1-.585-.586" clip-rule="evenodd" opacity=".01"/><path fill="#B06E68" fill-rule="evenodd" d="M74.824 64.277q-.279.516-.703.938l-.234.117q.339-.632.937-1.055" clip-rule="evenodd" opacity=".129"/><path fill="#87463D" fill-rule="evenodd" d="M77.87 64.512a2.9 2.9 0 0 1-.585.937q-.048-.701.586-.937" clip-rule="evenodd" opacity=".859"/><path fill="#916D67" fill-rule="evenodd" d="M92.52 65.215q.366.19.468.586a.88.88 0 0 1-.469-.586" clip-rule="evenodd" opacity=".427"/><path fill="#F5A89E" fill-rule="evenodd" d="M60.879 65.45q-.645.687-1.406.234a3.4 3.4 0 0 0 1.406-.235" clip-rule="evenodd" opacity=".149"/><path fill="#AF7774" fill-rule="evenodd" d="M73.652 65.566a.88.88 0 0 1-.586.47.88.88 0 0 1 .586-.47" clip-rule="evenodd" opacity=".114"/><path fill="#BB857E" fill-rule="evenodd" d="M83.73 65.566a.88.88 0 0 1-.586.47.88.88 0 0 1 .587-.47" clip-rule="evenodd" opacity=".302"/><path fill="#9A4B45" fill-rule="evenodd" d="M42.715 65.566h.234v.352h-1.406z" clip-rule="evenodd" opacity=".416"/><path fill="#EC3B30" fill-rule="evenodd" d="M107.753 23.379q.175 2.37.118 4.805v20.859q.232-.03.41.117.078-.383.351-.234.188-.315.528-.176-.702.514.234.645.13.261.234.527-.28-.108-.468.117.346.087.703.059.029 15.117-.059 30.234a.46.46 0 0 1-.234.117q-.304-.312-.762-.058.21.114 0 .175l-.234-1.289q-.214-.486-.586-.527a.54.54 0 0 1 .234-.352.4.4 0 0 1-.117-.175q.58-.355.059-.704-.045-.473-.059-.878.24-.297.527-.059l.059-.176a.51.51 0 0 0-.41-.175q-.41-.906.176-1.7-.254-.364.234-.293a.68.68 0 0 0-.234-.644.55.55 0 0 0 .234-.352 1.55 1.55 0 0 1-.645-.761l-.117.585-.117 23.438a22852 22852 0 0 1-.059-73.125" clip-rule="evenodd"/><path fill="#B15E55" fill-rule="evenodd" d="M47.168 65.684q1.151.156 2.227.468a18 18 0 0 1-1.758-.175q-.34-.022-.469-.293" clip-rule="evenodd" opacity=".42"/><path fill="#ED3F34" fill-rule="evenodd" d="M47.168 65.683q.129.272.469.293.875.131 1.758.176.56.417 1.289.352a.7.7 0 0 1 .586.234q.383.366.937.352.434.045.703.351.505.403 1.172.469a.68.68 0 0 1 .469.234q.715.678 1.758.703.02.109.117.176.465.087.937.059h.703q4.485.225 9.024 0-.662.233-1.406.293l-7.383.117.468.586a.46.46 0 0 0-.117.234q.294.323.293.645.096-.14.235-.352.208.412.644.293a.43.43 0 0 1-.234-.234q.135-.312.41-.528.164.36.527.528l-.117.117q.498.03.528.527.178-.2.234.117.189-.136.41.059l-2.227.059q-1.184-.004-2.285-.235-.4.108-.761.235l-.235-.118a3.2 3.2 0 0 0-1.289-.234q-.211-.287-.469-.117-.117 0-.117-.117-.338-.315-.82-.352a1.3 1.3 0 0 1-.82-.352 1.98 1.98 0 0 0-1.29-.585.7.7 0 0 0-.585-.235 2.18 2.18 0 0 0-1.407-.469 6.2 6.2 0 0 0-1.875-.527 73 73 0 0 1-3.398-.176.9.9 0 0 0-.469.118 4.8 4.8 0 0 0-2.226.351 1.3 1.3 0 0 1-.586.234.83.83 0 0 0-.586.118 1.3 1.3 0 0 0-.703.586.28.28 0 0 1-.235-.059q.233-.43.293-.879l-.117-.117q-.408.471-.762-.059.235-.175 0-.351.117-.06.235-.117a1.15 1.15 0 0 0-.82-.528 3.7 3.7 0 0 1-.294.82.58.58 0 0 1-.058-.351h-.352q.327-.253.586-.586a.35.35 0 0 1 .235-.234q.497-.102.82-.47a.68.68 0 0 1 .469-.233 16.5 16.5 0 0 0 2.109-.586h1.406v-.352q.252.067.293.352a1.7 1.7 0 0 1 .293-.645q1.135-.076 0 .234.362.056.703.176.245.683.41 0 .39.313.762.059-.148-.293.176-.059.117-.468.234 0l.352-.351q.473.25.996.351" clip-rule="evenodd"/><path fill="#654943" fill-rule="evenodd" d="M49.395 66.152q.708.004 1.289.352a1.8 1.8 0 0 1-1.29-.352" clip-rule="evenodd" opacity=".02"/><path fill="#934A3D" fill-rule="evenodd" d="M77.05 65.684q-.18.596-.702.937a.34.34 0 0 0-.117-.293q.222-.054.41-.176-.11-.28.117-.468.135.192.293 0" clip-rule="evenodd" opacity=".906"/><path fill="#C3ABA7" fill-rule="evenodd" d="M90.293 66.622a5 5 0 0 0-1.816-.586 7.5 7.5 0 0 0-.996.234q.05-.203.292-.234 1.422-.32 2.52.585" clip-rule="evenodd" opacity=".149"/><path fill="#834743" fill-rule="evenodd" d="M41.543 65.918q-1.021.36-2.11.586a5.5 5.5 0 0 1 2.11-.586" clip-rule="evenodd" opacity=".431"/><path fill="#615756" fill-rule="evenodd" d="M87.012 66.504q-.228.173-.469.351.034-.424.469-.351" clip-rule="evenodd" opacity=".01"/><path fill="#5D403F" fill-rule="evenodd" d="M51.27 66.738q.553-.015.937.352a1.25 1.25 0 0 1-.937-.352" clip-rule="evenodd" opacity=".01"/><path fill="#755452" fill-rule="evenodd" d="M92.988 65.8a3 3 0 0 1 .703 1.407 6 6 0 0 1-.703-1.406" clip-rule="evenodd" opacity=".043"/><path fill="#A66F69" fill-rule="evenodd" d="M38.965 66.738q-.323.367-.82.469.322-.367.82-.469" clip-rule="evenodd" opacity=".435"/><path fill="#B69191" fill-rule="evenodd" d="M81.504 67.207a.56.56 0 0 1-.469.352.56.56 0 0 1 .469-.352" clip-rule="evenodd" opacity=".373"/><path fill="#896865" fill-rule="evenodd" d="M52.91 67.441q.668.066 1.172.47a2.17 2.17 0 0 1-1.172-.47" clip-rule="evenodd" opacity=".051"/><path fill="#7D4F49" fill-rule="evenodd" d="M71.309 67.324a3 3 0 0 1-1.407.703q.647-.44 1.407-.703" clip-rule="evenodd" opacity=".024"/><path fill="#955D54" fill-rule="evenodd" d="M37.91 67.441a3.3 3.3 0 0 1-.586.586h-.234a1.63 1.63 0 0 1 .82-.586" clip-rule="evenodd" opacity=".29"/><path fill="#EB4236" fill-rule="evenodd" d="M39.434 69.668q-5.033 3.807-10.078 7.617.023-.153-.118-.234-.237.18-.351.468-.981.264-1.29 1.055-.542.479-1.171.88.692.601 1.172 1.347.139.158.351.234 5.039 5.01 10.137 9.961.188-.121.41-.176a38 38 0 0 1 2.227-1.464q-.255.232.117.292-.355.079-.645.293l-.117-.117q-.356.62-.996.938.46.083.703.469.52-.12.117-.293a.69.69 0 0 1 .586-.176q.02-.896.293 0l.117-.118q.386.675.88.06-.459-.081-.47-.528.535.006.82.468-.19.444.235.704a2.2 2.2 0 0 1-.351.586q-.405.436-.938.703-.268-.013-.351.234a1.64 1.64 0 0 0-.938.703q-.06.148-.234.117-.269-.012-.352.235l-1.172.351a3.3 3.3 0 0 1-1.172-.351 19 19 0 0 1-1.757-1.758 5.5 5.5 0 0 0-1.407-1.29l-8.203-8.32a27 27 0 0 0-2.11-2.109v-.117q-.702-.937 0-1.875a.46.46 0 0 1 .235-.41q5.36-3.926 10.664-7.91.558-.09.82-.586a3.8 3.8 0 0 1 1.29-.938.9.9 0 0 0 .586-.469q0-.117.117-.117h.586a.58.58 0 0 0 .058.352q.197-.399.293-.82.517.073.82.527l-.234.117q.235.175 0 .352.354.53.762.058l.117.118q-.06.45-.293.878.105.082.235.059" clip-rule="evenodd"/><path fill="#B38684" fill-rule="evenodd" d="M36.973 68.145a.9.9 0 0 1-.586.468.9.9 0 0 1 .586-.469" clip-rule="evenodd" opacity=".102"/><path fill="#90443B" fill-rule="evenodd" d="m54.55 68.145 1.759.703q-1.042-.025-1.758-.704" clip-rule="evenodd" opacity=".961"/><path fill="#ED4137" fill-rule="evenodd" d="M12.011 43.77v33.984q-.352.207-.117-.176a1.8 1.8 0 0 0-.351-.41l.117-.234a1.41 1.41 0 0 1-.938-.82q.277-.141.586-.177-.6-.422-.117-.644-.39-.3-.059-.703l.352.234a7 7 0 0 1-.059-.761.77.77 0 0 0 .352-.352.91.91 0 0 0-.703-.176q.115-.526.117-.996a.43.43 0 0 0-.235-.234q.226-.229-.058-.41l-.352.351a1.1 1.1 0 0 0-.293-.176q.252-.33-.117-.527-.14.277-.176.586-.088-23.79-.058-47.578.148 15.76.176 33.398.196-.333.058-.644.3-.035.586 0-.179-.185-.058-.41.347.183.175.468.22.32.235.703h.586q.021-.633-.586-.761l.351-.117-.117-.352q.42-.05.235-.352.313-.187.175-.527l-.117.352-.352-.118q-.117-.117 0-.234.199.194.293-.117-.093-.312-.293-.117-.23-.437-.058-.82a.52.52 0 0 0-.235-.176q.17-.31.41-.176.08-.384.352-.235a1.3 1.3 0 0 1 .176-.41 2.78 2.78 0 0 0-1.172-1.347.5.5 0 0 1 .176-.235q.47.276.469-.234-.36-.897-.586 0a9 9 0 0 0-.41-.703.46.46 0 0 1 .175-.352q.118.47.235 0 .108.285.351.469a.59.59 0 0 1 .293-.469q.289.4.293.82.061-1.217.176-2.343a.5.5 0 0 0-.234-.176 2.95 2.95 0 0 0 0-1.406q.373-.483-.117-.938a2.5 2.5 0 0 0 .351-.937.55.55 0 0 1-.234-.352q.02-.303.175-.059a3.7 3.7 0 0 0-.058-1.581q.099-.175.234-.294" clip-rule="evenodd"/><path fill="#F3D2CF" fill-rule="evenodd" d="M43.535 68.38q-1.092.163-2.226.351a4.8 4.8 0 0 1 2.226-.352" clip-rule="evenodd" opacity=".104"/><path fill="#FBD1CC" fill-rule="evenodd" d="M43.535 68.379a.9.9 0 0 1 .469-.117 73 73 0 0 0 3.398.175 6.2 6.2 0 0 1 1.875.528 28.7 28.7 0 0 0-5.742-.586" clip-rule="evenodd" opacity=".114"/><path fill="#9C3F36" fill-rule="evenodd" d="M69.434 68.262a1.83 1.83 0 0 1-1.407.469q.654-.335 1.407-.47" clip-rule="evenodd" opacity=".514"/><path fill="#FD9B87" fill-rule="evenodd" d="M40.723 68.965q-.615.395-1.29.703a1.3 1.3 0 0 1 .704-.586.83.83 0 0 1 .586-.117" clip-rule="evenodd" opacity=".941"/><path fill="#423534" fill-rule="evenodd" d="M56.309 68.848q.56.063 1.054.234-.472.03-.937-.059a.26.26 0 0 1-.117-.175" clip-rule="evenodd" opacity=".01"/><path fill="#6C4D40" fill-rule="evenodd" d="m67.559 68.848-.47.234q-4.538.225-9.023 0 4.755.093 9.493-.234" clip-rule="evenodd" opacity=".259"/><path fill="#DAAEA9" fill-rule="evenodd" d="M49.277 68.965a2.18 2.18 0 0 1 1.407.469 5 5 0 0 1-1.407-.47" clip-rule="evenodd" opacity=".078"/><path fill="#3D221E" fill-rule="evenodd" d="M78.574 69.317a1.05 1.05 0 0 1-.468.351q.096-.357.468-.352" clip-rule="evenodd" opacity=".027"/><path fill="#AB9A97" fill-rule="evenodd" d="M50.684 69.434a.7.7 0 0 1 .586.234.7.7 0 0 1-.586-.234" clip-rule="evenodd" opacity=".09"/><path fill="#ED4136" fill-rule="evenodd" d="M76.23 66.738a5 5 0 0 1-1.406 1.465l-3.281 2.11a6.8 6.8 0 0 1 1.523 1.816q.126.427.352.82.133.225.234 0a.28.28 0 0 1 .235.059q-.238.284-.586.41.37.237.644-.117.15.286.352.117.447.363.996.469a1.06 1.06 0 0 1-.352.644q.45.685-.468.645v.468a.82.82 0 0 1-.47.352q-.729.336-.702 1.172-.336.493-.586 1.055.03.174-.117.234a.56.56 0 0 0-.352.469.83.83 0 0 1-.352.234q-.344-.42-.644 0l-.117-.117q-.444.465-.762-.059a1 1 0 0 1 .469-.058v-.82q-.708.037-.234-.41a.58.58 0 0 1 .351-.06.83.83 0 0 0-.117-.585.8.8 0 0 0-.176.351q-.078-.303-.293-.234.35-.465.352-1.055 0-.117.117-.117.264-.502.234-1.113 0-.415-.117-.762a3.3 3.3 0 0 0-1.172-1.64 1.4 1.4 0 0 0-.586-.352l-.234-.235a.65.65 0 0 0-.352-.175 719 719 0 0 1-12.304-.176q.361-.126.761-.234a11.3 11.3 0 0 0 2.285.234l2.227-.059q-.221-.195-.41-.058-.056-.317-.234-.117-.03-.498-.528-.528l.117-.117a1.03 1.03 0 0 1-.527-.527 1.34 1.34 0 0 0-.41.527q.07.166.234.234-.435.12-.644-.292-.139.212-.235.351 0-.323-.293-.644a.46.46 0 0 1 .117-.235l-.468-.586 7.383-.117q.744-.06 1.406-.293l.469-.234a.54.54 0 0 1 .468-.117 1.83 1.83 0 0 0 1.407-.47.68.68 0 0 1 .468-.234 3 3 0 0 0 1.407-.703q.903-.6 1.757-1.289a.88.88 0 0 0 .586-.469.35.35 0 0 1 .235-.234l.234-.117a.46.46 0 0 0 .41-.234.43.43 0 0 0 .176.117q.142.66.469 1.23-.42.23 0 .352-.438.109 0 .293-.615.277-.059.586a2.3 2.3 0 0 1 1.114-.82" clip-rule="evenodd"/><path fill="#843F3B" fill-rule="evenodd" d="M35.098 69.55q-.263.498-.82.587.36-.36.82-.586" clip-rule="evenodd" opacity=".506"/><path fill="#CA9893" fill-rule="evenodd" d="M51.27 69.668q.761.06 1.289.586a10 10 0 0 1-1.29-.586" clip-rule="evenodd" opacity=".086"/><path fill="#BEABAA" fill-rule="evenodd" d="M53.379 70.606q.482.035.82.351a1.3 1.3 0 0 1-.82-.351" clip-rule="evenodd" opacity=".082"/><path fill="#E4D6D4" fill-rule="evenodd" d="M54.316 71.074q.257-.171.47.118a.8.8 0 0 1-.47-.118" clip-rule="evenodd" opacity=".086"/><path fill="#EE0E07" fill-rule="evenodd" d="M56.074 71.426q.117.06.235.117 6.148.141 12.304.176a.65.65 0 0 1 .352.176h-.469a584 584 0 0 0-11.719-.176 5 5 0 0 1-1.054-.234.58.58 0 0 1 .351-.059" clip-rule="evenodd" opacity=".961"/><path fill="#F08076" fill-rule="evenodd" d="M54.785 71.191a3.2 3.2 0 0 1 1.29.234.58.58 0 0 0-.352.059 5 5 0 0 0 1.054.234q5.89.03 11.72.176H57.128a4.6 4.6 0 0 1-2.344-.703" clip-rule="evenodd" opacity=".294"/><path fill="#FCF8F7" fill-rule="evenodd" d="M57.129 71.895h11.836l.234.234q-6.06-.112-12.07-.235" clip-rule="evenodd" opacity=".014"/><path fill="#1E1613" fill-rule="evenodd" d="M75.059 71.894a.83.83 0 0 1-.352.235q.057-.273.352-.235" clip-rule="evenodd" opacity=".035"/><path fill="#C99E98" fill-rule="evenodd" d="M69.2 72.129q.339.107.585.352-.445.041-.586-.352" clip-rule="evenodd" opacity=".11"/><path fill="#78524D" fill-rule="evenodd" d="M73.066 72.129q.337.38.586.82-.1.225-.234 0a3.8 3.8 0 0 1-.352-.82" clip-rule="evenodd" opacity=".055"/><path fill="#EA4034" fill-rule="evenodd" d="M89.474 63.457q.478.248 1.054.234.527.44 1.172.703a.35.35 0 0 1 .235.235q.234.352.586.586a.88.88 0 0 0 .468.586q.265.764.704 1.406.663 2.556-.586 4.922a72 72 0 0 1-4.922 4.804h-.352q.016.535-.527.586a.58.58 0 0 0-.059.352.76.76 0 0 1-.527-.117q-.043.226.176.351a61 61 0 0 1-3.164 3.164q-.178.241-.352.47-.45.182-.762.585-.127-.291-.41-.176.027.32 0 .645a6.7 6.7 0 0 1-1.055 1.054q-.476.042-.878 0l-.118.235a.51.51 0 0 0-.41-.117 6 6 0 0 0-.175-.82 2.4 2.4 0 0 1-.528-.294q.358-.11.586-.41a1.3 1.3 0 0 0-.293-.234l-1.055 1.055a.28.28 0 0 1-.058-.235q.703-.585 1.289-1.289l3.047-2.93a19 19 0 0 0 1.758-1.757 163 163 0 0 1 6.386-6.329q1.204-2.209-.41-4.101-1.098-.906-2.52-.586-.24.033-.292.234h-.118a3.5 3.5 0 0 1-.586.059l.118-.117q-.39-.244 0-.586-.184-.087-.352.058a1.8 1.8 0 0 1-.234-.468q.417-.367.468-.938a.56.56 0 0 0-.351-.469 4.85 4.85 0 0 1 3.047-.351" clip-rule="evenodd"/><path fill="#260C0C" fill-rule="evenodd" d="M70.957 74.121q.117.346.117.762.03.61-.234 1.113.136-.93.117-1.875" clip-rule="evenodd" opacity=".062"/><path fill="#643734" fill-rule="evenodd" d="M9.667 73.184q.145.728.176 1.523l.117-.586q.117.41 0 .82l-.117-.117q-.088 10.899-.059 21.797-.176-11.69-.117-23.437" clip-rule="evenodd"/><path fill="#EE0C0A" fill-rule="evenodd" d="M110.099 23.496V96.27a14.6 14.6 0 0 1-.82 4.336q-.148-.06-.118-.234.639-1.875.762-3.867.088-36.446.059-72.89 0-.118.117-.118" clip-rule="evenodd" opacity=".943"/><path fill="#716160" fill-rule="evenodd" d="M74.005 75.996a3.6 3.6 0 0 0-.703 1.172q-.027-.837.703-1.172" clip-rule="evenodd" opacity=".039"/><path fill="#C36351" fill-rule="evenodd" d="M29.356 77.285a7.5 7.5 0 0 1-1.758 1.29q.308-.792 1.289-1.056.114-.29.351-.468.141.08.117.234" clip-rule="evenodd" opacity=".945"/><path fill="#9F4941" fill-rule="evenodd" d="M84.316 77.05a19 19 0 0 1-1.757 1.759v-.118a8.7 8.7 0 0 1 1.757-1.64" clip-rule="evenodd" opacity=".776"/><path fill="#200807" fill-rule="evenodd" d="M69.2 77.637q-.355.25-.821.234.355-.25.82-.234" clip-rule="evenodd" opacity=".051"/><path fill="#B9594A" fill-rule="evenodd" d="M88.183 76.934a2.82 2.82 0 0 1-1.172 1.172h-.117q-.218-.126-.176-.352a.76.76 0 0 0 .527.117.58.58 0 0 1 .059-.352q.543-.051.527-.585z" clip-rule="evenodd"/><path fill="#3E3534" fill-rule="evenodd" d="M73.3 77.168q-.072.675-.585 1.055.25-.562.586-1.055" clip-rule="evenodd" opacity=".043"/><path fill="#190806" fill-rule="evenodd" d="M72.598 78.457a.56.56 0 0 1-.352.469.56.56 0 0 1 .352-.469" clip-rule="evenodd" opacity=".01"/><path fill="#E43C32" fill-rule="evenodd" d="M70.721 76.113q0 .589-.351 1.055.214-.069.293.234a.8.8 0 0 1 .176-.351q.166.27.117.586a.58.58 0 0 0-.352.058q-.474.45.235.41v.82a1 1 0 0 0-.47.06q.32.525.763.058l.117.117q.3-.42.644 0a.77.77 0 0 1-.351.352 4.6 4.6 0 0 0-1.055.586q-.45.171-.937.234l-1.055.176q-6.768.03-13.477.176h-.117q-1.139-.175-2.344-.118-1.044.095-1.523-.82-.06-.63.234-1.172.073-.512.586-.644 8.262-.089 16.524-.059.466.016.82-.234.34-.347.82-.528a8 8 0 0 0 .703-.996" clip-rule="evenodd"/><path fill="#1E0101" fill-rule="evenodd" d="M51.27 78.574a2 2 0 0 0-.235 1.172 1.33 1.33 0 0 1-.059-.937q.074-.222.293-.235" clip-rule="evenodd" opacity=".055"/><path fill="#1E0000" fill-rule="evenodd" d="M23.378 78.457q-.704.938 0 1.875a.34.34 0 0 1-.293-.117 2.43 2.43 0 0 1-.117-1.406q.075-.339.41-.352" clip-rule="evenodd" opacity=".061"/><path fill="#240A06" fill-rule="evenodd" d="M82.559 78.691v.118l-3.047 2.93h-.118a29 29 0 0 1 3.165-3.048" clip-rule="evenodd" opacity=".086"/><path fill="#190806" fill-rule="evenodd" d="M86.895 78.106h.117a36 36 0 0 1-2.93 3.105.58.58 0 0 1-.351.058 61 61 0 0 0 3.163-3.163" clip-rule="evenodd" opacity=".01"/><path fill="#3E2B2B" fill-rule="evenodd" d="M71.543 79.512a1.5 1.5 0 0 1-1.055.586 4.6 4.6 0 0 1 1.055-.586" clip-rule="evenodd" opacity=".061"/><path fill="#1F0100" fill-rule="evenodd" d="M23.379 80.45a27 27 0 0 1 2.11 2.109 9 9 0 0 1-2.11-2.11" clip-rule="evenodd" opacity=".01"/><path fill="#1F0505" fill-rule="evenodd" d="M51.035 79.746q.48.915 1.524.82v.118q-1.201.193-1.524-.938" clip-rule="evenodd" opacity=".059"/><path fill="#965752" fill-rule="evenodd" d="M52.559 80.684v-.117q1.204-.058 2.343.117-1.186.099-2.343 0" clip-rule="evenodd" opacity=".204"/><path fill="#220504" fill-rule="evenodd" d="M69.55 80.332q-.406.276-.937.293a788 788 0 0 1-13.593.059 771 771 0 0 1 13.476-.176z" clip-rule="evenodd" opacity=".059"/><path fill="#342221" fill-rule="evenodd" d="M27.598 80.8q.295-.038.351.235a.8.8 0 0 1-.351-.234" clip-rule="evenodd" opacity=".086"/><path fill="#B95345" fill-rule="evenodd" d="M83.379 81.738q-.48.657-1.172 1.055a4 4 0 0 0 0-.645q.283-.115.41.176.312-.402.762-.586" clip-rule="evenodd"/><path fill="#A59E9E" fill-rule="evenodd" d="M79.395 81.738h.117q-.585.704-1.29 1.29.458-.75 1.172-1.29" clip-rule="evenodd" opacity=".094"/><path fill="#4D4947" fill-rule="evenodd" d="M81.035 84.082q-.083.248-.351.234.082-.248.351-.234" clip-rule="evenodd" opacity=".01"/><path fill="#5D5A59" fill-rule="evenodd" d="M80.098 84.902q0 .352-.352.352a.77.77 0 0 1 .352-.352" clip-rule="evenodd" opacity=".01"/><path fill="#EC3B30" fill-rule="evenodd" d="M9.902 24.55q-.03 23.79.059 47.579.035-.309.176-.586.367.197.117.527.16.066.293.176l.351-.352q.285.183.059.41a.43.43 0 0 1 .234.235q0 .47-.117.996a.91.91 0 0 1 .703.176.77.77 0 0 1-.351.352q.008.374.058.761l-.351-.234q-.33.403.058.703-.483.222.118.644a1.7 1.7 0 0 0-.586.176q.285.633.937.82l-.117.235q.209.18.352.41-.235.383.117.176v18.633q-.795-.46-.235-1.23-.213-.37-.293.058-.01-.42-.293-.234-.57-.45-.175.234.24-.18.293.176l-.118.175q-.634-.236-.117.235-.5.62.235.996a.45.45 0 0 1-.47-.059.75.75 0 0 1-.175.469 6 6 0 0 0-.293-.586 2.2 2.2 0 0 0-.293.82l-.117-.937a1.03 1.03 0 0 1-.176.469v-.352q-.03-10.899.059-21.797l.117.117a1.46 1.46 0 0 0 0-.82q-.06.292-.117.586a10 10 0 0 0-.176-1.523v-.352z" clip-rule="evenodd"/><path fill="#EEC0BE" fill-rule="evenodd" d="M42.95 88.066a4.43 4.43 0 0 1 2.577.234 12.3 12.3 0 0 0-2.578-.234" clip-rule="evenodd" opacity=".082"/><path fill="#EBDDD9" fill-rule="evenodd" d="M45.645 88.3q.421-.01.82.118-.041.105-.176.117a2.5 2.5 0 0 1-.645-.235" clip-rule="evenodd" opacity=".063"/><path fill="#F5C1BE" fill-rule="evenodd" d="M46.582 88.535q1.098.129 2.11.469a7 7 0 0 1-2.11-.469" clip-rule="evenodd" opacity=".086"/><path fill="#ED3F34" fill-rule="evenodd" d="M42.95 88.067a12.3 12.3 0 0 1 2.577.234h.117q.288.154.645.234.135-.012.176-.117.117 0 .117.117 1 .395 2.11.47h.117q1.063.419 2.226.644.689.08 1.348.293.135-.013.176-.117.117 0 .117.117.765.337 1.64.351a.8.8 0 0 1 .586.117q.644.337 1.407.352 1.076.348 2.226.586.162-.007.235-.117.373.096.703.234a4.4 4.4 0 0 0 1.347.352.4.4 0 0 0 .293-.117q.432.099.82.234.894.266 1.876.234.675 0 1.289-.117.883 0 1.758-.117-.33.19-.938.293.24.211.351.527l.118-.234q.52.12.117.293.234.176 0 .351a.8.8 0 0 1 .41.293.52.52 0 0 1 .176-.234q-.037.18.176.352.16-.203.293.058-.186.301.234.352l-.352.117q.876-.11 1.758-.293-.414.285-.937.41l-3.164.527a63 63 0 0 1-5.391-.468h-.117q-1.339-.55-2.813-.704h-.117a9.7 9.7 0 0 0-2.695-.585 1.07 1.07 0 0 1-.586-.118 5.2 5.2 0 0 0-2.11-.468 1.47 1.47 0 0 1-.937-.235 6.6 6.6 0 0 0-2.227-.469 1.07 1.07 0 0 1-.585-.117 7.5 7.5 0 0 0-2.696-.586h-1.172a9 9 0 0 0-1.289.352q-.424-.26-.234-.703a.92.92 0 0 0-.82-.469q.01.449.468.527-.492.615-.879-.058l-.117.117q-.273-.895-.293 0a.69.69 0 0 0-.586.176q.404.173-.117.293a1 1 0 0 0-.703-.469q.64-.318.996-.937.06.058.117.117a1.7 1.7 0 0 1 .645-.293q-.373-.06-.117-.293.569-.58 1.289-.996.443-.236.937-.293" clip-rule="evenodd"/><path fill="#E4A79E" fill-rule="evenodd" d="M48.809 89.004q1.886.365 3.75.82-.042.106-.176.117a7 7 0 0 0-1.348-.293 12.6 12.6 0 0 1-2.226-.644" clip-rule="evenodd" opacity=".098"/><path fill="#F4C4C1" fill-rule="evenodd" d="M52.676 89.941a6.3 6.3 0 0 1 1.64.352 4.2 4.2 0 0 1-1.64-.352" clip-rule="evenodd" opacity=".098"/><path fill="#D7BFBF" fill-rule="evenodd" d="M54.902 90.41q.75.07 1.407.352a3.1 3.1 0 0 1-1.407-.352" clip-rule="evenodd" opacity=".122"/><path fill="#855C5A" fill-rule="evenodd" d="M33.691 90.879q.81.516 1.407 1.289a5.5 5.5 0 0 1-1.407-1.29" clip-rule="evenodd" opacity=".475"/><path fill="#F1B2A8" fill-rule="evenodd" d="M56.309 90.762q1.257.104 2.46.469-.073.11-.234.117a21 21 0 0 1-2.226-.586" clip-rule="evenodd" opacity=".106"/><path fill="#65514C" fill-rule="evenodd" d="M44.824 90.996q1.42.045 2.696.586a58 58 0 0 1-2.696-.586" clip-rule="evenodd" opacity=".016"/><path fill="#AF685B" fill-rule="evenodd" d="m43.652 90.996-1.64.938a2.2 2.2 0 0 0 .351-.586 9 9 0 0 1 1.29-.352" clip-rule="evenodd" opacity=".553"/><path fill="#ECC1BD" fill-rule="evenodd" d="m59.473 91.465 1.64.234a.4.4 0 0 1-.293.117 4.4 4.4 0 0 1-1.347-.351" clip-rule="evenodd" opacity=".11"/><path fill="#ED4236" fill-rule="evenodd" d="m81.152 83.848-.117.234q-.269-.012-.351.234-.235.352-.586.586a.77.77 0 0 0-.352.352l-6.445 6.328q-.546.338-1.055.762a.34.34 0 0 0-.117.293h-.117a.77.77 0 0 0-.586.351 2.1 2.1 0 0 0-1.172.586q-.33-.047-.469.235H69.2q-.882.182-1.758.293l.352-.118q-.42-.05-.234-.351-.133-.261-.293-.059-.213-.17-.176-.351a.5.5 0 0 0-.176.234.8.8 0 0 0-.41-.293q.234-.175 0-.352.404-.172-.117-.293l-.118.235a1.25 1.25 0 0 0-.351-.527q.608-.102.938-.293v-.118a15 15 0 0 0 3.984-1.699 630 630 0 0 1 7.383-7.09.28.28 0 0 0 .058.235l1.055-1.055q.162.096.293.234-.23.3-.586.41.245.18.527.293.117.408.176.82.233-.03.41.118l.117-.234q.403.04.88 0" clip-rule="evenodd"/><path fill="#705E5B" fill-rule="evenodd" d="M73.302 91.582a3.8 3.8 0 0 1-1.172 1.055.34.34 0 0 1 .118-.293q.509-.424 1.054-.762" clip-rule="evenodd" opacity=".031"/><path fill="#E4A9A0" fill-rule="evenodd" d="M66.856 91.816v.118q-.875.115-1.758.117a7.7 7.7 0 0 1 1.758-.235" clip-rule="evenodd" opacity=".157"/><path fill="#4C2D2D" fill-rule="evenodd" d="M48.106 91.7q1.171.044 2.226.468a5.2 5.2 0 0 1-1.582-.352l-.117.118a4 4 0 0 1-.528-.235" clip-rule="evenodd" opacity=".027"/><path fill="#F9D5D0" fill-rule="evenodd" d="M61.934 91.934a30 30 0 0 0 3.164.117 7 7 0 0 1-1.29.117 5.9 5.9 0 0 1-1.874-.234" clip-rule="evenodd" opacity=".114"/><path fill="#594544" fill-rule="evenodd" d="M51.27 92.402a5.2 5.2 0 0 1 2.109.47 15 15 0 0 1-2.11-.47" clip-rule="evenodd" opacity=".016"/><path fill="#756463" fill-rule="evenodd" d="M41.074 92.636q-.082.247-.351.235.082-.247.351-.235" clip-rule="evenodd" opacity=".02"/><path fill="#504846" fill-rule="evenodd" d="M72.012 92.637a.77.77 0 0 1-.586.351.77.77 0 0 1 .586-.351" clip-rule="evenodd" opacity=".02"/><path fill="#80625F" fill-rule="evenodd" d="M53.965 92.988q1.411.105 2.695.586a14 14 0 0 1-2.695-.586" clip-rule="evenodd" opacity=".02"/><path fill="#B8ABA9" fill-rule="evenodd" d="M71.426 92.988q-.53.382-1.172.586a2.1 2.1 0 0 1 1.172-.586" clip-rule="evenodd" opacity=".039"/><path fill="#A38F8E" fill-rule="evenodd" d="M40.723 92.871a3.2 3.2 0 0 1-.938.703q.33-.518.938-.703" clip-rule="evenodd" opacity=".01"/><path fill="#976968" fill-rule="evenodd" d="M56.777 93.574q1.474.154 2.813.703a30 30 0 0 1-2.813-.703" clip-rule="evenodd" opacity=".075"/><path fill="#2E2929" fill-rule="evenodd" d="M70.254 93.574a.68.68 0 0 1-.469.235q.138-.282.469-.235" clip-rule="evenodd" opacity=".01"/><path fill="#483C3B" fill-rule="evenodd" d="M39.55 93.691q-.083.248-.35.234.083-.246.35-.234" clip-rule="evenodd" opacity=".02"/><path fill="#905E55" fill-rule="evenodd" d="M36.856 93.926q.54.282 1.171.351l1.172-.351a2.7 2.7 0 0 1-1.465.586 1.54 1.54 0 0 1-.879-.586" clip-rule="evenodd" opacity=".431"/><path fill="#835857" fill-rule="evenodd" d="M59.707 94.277q2.685.35 5.39.47h.118a17.6 17.6 0 0 1-5.508-.47" clip-rule="evenodd" opacity=".408"/><path fill="#8C7C7A" fill-rule="evenodd" d="M69.2 93.809h.468a9.9 9.9 0 0 1-4.453.937h-.117l3.164-.527q.522-.125.937-.41" clip-rule="evenodd" opacity=".02"/><path fill="#EA3E33" fill-rule="evenodd" d="M12.012 96.387q.009.53.117.117h.117q.134.449.234.937a1.16 1.16 0 0 0-.117.528q.012.348.235.527.171.45.234.938.096.733.41 1.406.116.32.41.469.1.404.176.82l.117-.117q.184.372.528.586a.55.55 0 0 0 .351.468q.528.879 1.406 1.407.368.6 1.055.82.34.107.586.351.248.359.703.352.174-.03.235.117.566.436 1.289.645a9.7 9.7 0 0 0 2.695.527v.117a3 3 0 0 0-.82.059 1 1 0 0 0 .468.058v.352h-.351a1.7 1.7 0 0 0 0 .645q-.184.086-.352-.059-.31.094-.117.293-.615.115 0 .469l-.351.117q.393.014.468.176a15.7 15.7 0 0 1-3.047-.586 1.94 1.94 0 0 0-1.054-.469q-.194-.158 0-.293a21 21 0 0 0-.938-.176.5.5 0 0 0-.351-.293q.328-.25.175-.644-.165.275-.41.468a.8.8 0 0 1-.175-.351.4.4 0 0 1-.176.117 1.34 1.34 0 0 0-.586-.351.56.56 0 0 1-.469-.352 5.5 5.5 0 0 0-1.406-1.289l-.117-.234a1.3 1.3 0 0 0-.586-.704 6.8 6.8 0 0 1-1.172-1.757q.095-.689-.469-1.055a9.55 9.55 0 0 1-1.172-4.57q.139-.195.176-.47l.117.938q.066-.44.293-.82.163.283.293.586a.75.75 0 0 0 .176-.469.45.45 0 0 0 .469.059q-.735-.377-.235-.996-.518-.47.117-.235l.118-.175q-.053-.357-.293-.176-.395-.682.175-.235.282-.184.293.235.079-.427.293-.059-.56.771.235 1.23" clip-rule="evenodd"/><path fill="#813934" fill-rule="evenodd" d="M12.48 97.441q.082.524.118 1.055-.223-.178-.235-.527.001-.3.117-.528" clip-rule="evenodd" opacity=".933"/><path fill="#6A2920" fill-rule="evenodd" d="M107.402 98.027q.03.473-.058.938a.27.27 0 0 1-.176.117q.063-.56.234-1.055" clip-rule="evenodd" opacity=".89"/><path fill="#643F3C" fill-rule="evenodd" d="M110.098 96.27h.117a10.9 10.9 0 0 1-.938 4.57v-.235a14.6 14.6 0 0 0 .821-4.336" clip-rule="evenodd" opacity=".061"/><path fill="#8E473E" fill-rule="evenodd" d="M12.832 99.434q.409.93.82 1.875a.82.82 0 0 1-.41-.469 4.8 4.8 0 0 1-.41-1.406" clip-rule="evenodd" opacity=".922"/><path fill="#975045" fill-rule="evenodd" d="M13.652 101.309a7 7 0 0 1 .82 1.289 1.4 1.4 0 0 1-.527-.586l-.117.117q-.077-.416-.176-.82" clip-rule="evenodd"/><path fill="#8B2D22" fill-rule="evenodd" d="M10.957 101.543q.564.366.469 1.055a2.17 2.17 0 0 1-.469-1.055" clip-rule="evenodd" opacity=".914"/><path fill="#A1574D" fill-rule="evenodd" d="M109.16 101.191a4.8 4.8 0 0 1-.82 1.524.34.34 0 0 0-.117-.293q.534-.573.937-1.231" clip-rule="evenodd" opacity=".914"/><path fill="#A7908E" fill-rule="evenodd" d="M14.473 102.598a.55.55 0 0 1 .351.468.55.55 0 0 1-.351-.468" clip-rule="evenodd" opacity=".247"/><path fill="#333030" fill-rule="evenodd" d="M108.34 102.832q.013.268-.234.352-.012-.269.234-.352" clip-rule="evenodd" opacity=".01"/><path fill="#88534F" fill-rule="evenodd" d="M14.824 103.066q.762.645 1.406 1.407a4.05 4.05 0 0 1-1.406-1.407" clip-rule="evenodd" opacity=".353"/><path fill="#9F6761" fill-rule="evenodd" d="M105.059 103.066a.88.88 0 0 1-.469.586.89.89 0 0 1 .469-.586" clip-rule="evenodd" opacity=".298"/><path fill="#B06557" fill-rule="evenodd" d="M108.105 103.184a3.1 3.1 0 0 1-.82 1.171q.174-.76.82-1.171" clip-rule="evenodd" opacity=".855"/><path fill="#9B645F" fill-rule="evenodd" d="M12.598 104.355q.415.24.586.704a1.3 1.3 0 0 1-.586-.704" clip-rule="evenodd" opacity=".165"/><path fill="#906B67" fill-rule="evenodd" d="M16.23 104.473q.582.348 1.055.82a1.86 1.86 0 0 1-1.055-.82" clip-rule="evenodd" opacity=".392"/><path fill="#B07E7C" fill-rule="evenodd" d="M104.004 104.238a2.7 2.7 0 0 1-1.172.938 5.3 5.3 0 0 1 1.172-.938" clip-rule="evenodd" opacity=".325"/><path fill="#7B6361" fill-rule="evenodd" d="M13.3 105.293q.81.516 1.407 1.289a5.5 5.5 0 0 1-1.406-1.289" clip-rule="evenodd" opacity=".165"/><path fill="#4D3E36" fill-rule="evenodd" d="M17.871 105.645q.408.086.703.351a.79.79 0 0 1-.703-.351" clip-rule="evenodd" opacity=".027"/><path fill="#BA4C3B" fill-rule="evenodd" d="M106.934 104.824a8 8 0 0 1-1.993 1.992.8.8 0 0 0-.234-.468l.117-.118q.447.512.586-.175l.703-.703a.6.6 0 0 1 .352-.059.6.6 0 0 1 .058-.352 1.3 1.3 0 0 0 .411-.117" clip-rule="evenodd" opacity=".918"/><path fill="#9C615C" fill-rule="evenodd" d="M102.363 105.527a1.36 1.36 0 0 1-.937.469q.42-.327.937-.469" clip-rule="evenodd" opacity=".416"/><path fill="#583030" fill-rule="evenodd" d="M101.426 105.996a.79.79 0 0 1-.703.352q.295-.265.703-.352" clip-rule="evenodd" opacity=".024"/><path fill="#584C4B" fill-rule="evenodd" d="M18.809 106.113q1.69.715 3.515.996 37.325.089 74.649.059v.117h-74.18a9.7 9.7 0 0 1-2.695-.527 3.8 3.8 0 0 1-1.29-.645" clip-rule="evenodd" opacity=".027"/><path fill="#9D6D69" fill-rule="evenodd" d="M100.723 106.348a2.18 2.18 0 0 1-1.407.468 5 5 0 0 1 1.407-.468" clip-rule="evenodd" opacity=".439"/><path fill="#DB6A59" fill-rule="evenodd" d="M15.176 106.934q.333.096.586.351a.4.4 0 0 0 .175-.117.8.8 0 0 0 .176.352q.245-.195.41-.469.152.395-.175.644a.5.5 0 0 1 .351.293 25 25 0 0 1-1.172-.644 1.7 1.7 0 0 1-.351-.41" clip-rule="evenodd"/><path fill="#CCA29F" fill-rule="evenodd" d="M98.496 107.051q-.72.245-1.523.234v-.117q.704-.063 1.523-.117" clip-rule="evenodd" opacity=".078"/><path fill="#EC7660" fill-rule="evenodd" d="M104.121 107.402a5.5 5.5 0 0 1-1.875 1.055.9.9 0 0 1 .234-.352 7.5 7.5 0 0 1 1.641-.703" clip-rule="evenodd" opacity=".894"/><path fill="#ED3E34" fill-rule="evenodd" d="M22.793 107.402q37.09-.059 74.18.118l-26.133.234q.222.58.41 1.172a.76.76 0 0 1 .527-.117v.703a3 3 0 0 1 1.172.117H21.738v-.117q-.075-.162-.468-.176l.351-.117q-.615-.354 0-.469-.194-.199.117-.293.168.145.352.059a1.7 1.7 0 0 1 0-.645h.351v-.351a1 1 0 0 1-.468-.059q.406-.087.82-.059" clip-rule="evenodd"/><path fill="#E88877" fill-rule="evenodd" d="M16.7 107.988q.468.077.937.176-.194.135 0 .293a2.65 2.65 0 0 1-.938-.469" clip-rule="evenodd" opacity=".914"/><path fill="#ED493C" fill-rule="evenodd" d="M109.16 100.371q-.03.174.117.234v.235q.042.227-.117.351a7.7 7.7 0 0 1-.937 1.231.34.34 0 0 1 .117.293v.117q-.247.083-.235.352-.646.412-.82 1.171a.82.82 0 0 1-.351.469 1.3 1.3 0 0 1-.411.117.6.6 0 0 0-.058.352.6.6 0 0 0-.352.059l-.703.703q-.14.687-.586.175l-.117.118a.8.8 0 0 1 .234.468 3.1 3.1 0 0 1-.82.586 7.5 7.5 0 0 0-1.641.703.9.9 0 0 0-.234.352.68.68 0 0 0-.469.234 3.1 3.1 0 0 0-1.289.469q-.355.25-.82.235-.75-.028-1.406.234-.43.171-.938.117h-.117q-12.099-.176-24.258-.117a3 3 0 0 0-1.172-.117v-.703a.76.76 0 0 0-.527.117 21 21 0 0 0-.41-1.172l26.133-.234q-37.09-.177-74.18-.118v-.117h74.18a4.5 4.5 0 0 0 1.523-.234q.355-.25.82-.235a2.18 2.18 0 0 0 1.407-.468.79.79 0 0 0 .703-.352 1.36 1.36 0 0 0 .937-.469.56.56 0 0 1 .469-.351 2.7 2.7 0 0 0 1.172-.938q.234-.35.586-.586a.88.88 0 0 0 .469-.586q1.42-1.8 2.109-3.984a.27.27 0 0 0 .176-.117q.088-.465.058-.938a.8.8 0 0 1 .118-.586q.143-.375.175-.82a5.4 5.4 0 0 0 .293 1.7l-.176.175-.117-.469q-.51 1.06.645 1.348a.8.8 0 0 0-.352.176l.117.117a2.53 2.53 0 0 1 1.055.703" clip-rule="evenodd"/><path fill="#DECBC9" fill-rule="evenodd" d="M102.246 108.457q-.138.282-.469.234a.68.68 0 0 1 .469-.234" clip-rule="evenodd" opacity=".098"/><path fill="#C78881" fill-rule="evenodd" d="M17.637 108.457q.6.075 1.054.469-.6-.096-1.054-.469" clip-rule="evenodd" opacity=".125"/><path fill="#CFA5A3" fill-rule="evenodd" d="M101.777 108.691a3.2 3.2 0 0 1-1.289.469 3.1 3.1 0 0 1 1.289-.469" clip-rule="evenodd" opacity=".094"/><path fill="#E4B3B1" fill-rule="evenodd" d="M18.691 108.926q1.494.444 3.047.586v.117a10 10 0 0 1-2.11-.293 2.8 2.8 0 0 1-.937-.41" clip-rule="evenodd" opacity=".098"/><path fill="#E4B9AF" fill-rule="evenodd" d="M99.668 109.394q-.662.228-1.406.235a3.4 3.4 0 0 1 1.406-.235" clip-rule="evenodd" opacity=".094"/><path fill="#F01310" fill-rule="evenodd" d="M21.973 109.629h50.976q12.159-.059 24.258.117-37.62.057-75.234-.117" clip-rule="evenodd" opacity=".941"/><path fill="#FEF3F3" fill-rule="evenodd" d="M21.738 109.629h.235q37.614.176 75.234.117h.117q-37.412.205-74.883.059a2.2 2.2 0 0 1-.703-.176" clip-rule="evenodd" opacity=".094"/></svg>