<svg xmlns="http://www.w3.org/2000/svg" width="120" height="120" fill="none"><path fill="#EB231C" fill-rule="evenodd" d="M96.387 10.136q-35.683.352-71.485.235a.69.69 0 0 1-.586-.176q36.036-.088 72.07-.059" clip-rule="evenodd"/><path fill="#ED362D" fill-rule="evenodd" d="M96.387 10.02q1.38.138 2.695.468.422.223.938.235.227-.043.351.117.379.206.82.351.108-.021.118-.117.117 0 .117.117a8 8 0 0 0 1.64.82q.731.513 1.524.938a.55.55 0 0 0 .469.352l.234.117q.633.927 1.523 1.64a.89.89 0 0 0 .469.587q.643.58.938 1.406-.014.268.234.351.117 0 .117.117-.153.195 0 .47a.42.42 0 0 0 .352.35q.209 1.06.703 1.993.117 0 .117.117-.201.432.117.82a1.4 1.4 0 0 1 .117.704v.234a.33.33 0 0 1-.292-.117q.081 9.321.058 18.75a5 5 0 0 1-.117-1.524h-.469v.47h-.351q.028.938-.059 1.874a.52.52 0 0 1-.176.235q-.146-8.437-.176-16.876l-.117.118-.117-.352a2384 2384 0 0 0 0 33.399q.123.4.41.703a.35.35 0 0 1-.234.234 1.7 1.7 0 0 1-.176-.586q-.088 18.984-.059 37.969l-.234.117q.03-36.621-.059-73.242-.165-.484-.292-.938a1.4 1.4 0 0 1-.118-.703q.03-.588-.058-1.172l-.117.118a.4.4 0 0 0-.176-.235 13.5 13.5 0 0 0-2.461-4.101 1.06 1.06 0 0 0-.703-.703 5.2 5.2 0 0 1-.821-.704q-.082-.247-.351-.234-.084-.247-.352-.234a3.2 3.2 0 0 0-.82-.703 1.8 1.8 0 0 0-.82-.118.5.5 0 0 0-.352-.293 7.2 7.2 0 0 0-2.46-.527h-.235a.39.39 0 0 0-.235-.176q-36.972-.087-73.945-.058a4.8 4.8 0 0 1-1.055-.059q.465-.087.938-.059 36.563.03 73.125-.058-7.76-.204-15.527-.293-24.345.23-48.692 0h-.469v-.469h-.468v-.469h-.47v.938q-.413.029-.82-.059a.51.51 0 0 1-.117-.41h-1.875v-.469h-.82a.5.5 0 0 0-.234-.527q-1.079.045-2.11.059l-.351-.118q.194-.119.351-.234 35.802.117 71.485-.234z" clip-rule="evenodd"/><path fill="#CA9E9B" fill-rule="evenodd" d="M99.082 10.489q.527-.037.938.234a2.1 2.1 0 0 1-.938-.234" clip-rule="evenodd" opacity=".09"/><path fill="#CD9293" fill-rule="evenodd" d="M100.371 10.84q.499.01.938.234-.01.096-.118.117a5 5 0 0 1-.82-.351" clip-rule="evenodd" opacity=".11"/><path fill="#FE7E6E" fill-rule="evenodd" d="M101.426 11.191a6 6 0 0 1 1.758.82h-.118a8 8 0 0 1-1.64-.82" clip-rule="evenodd" opacity=".141"/><path fill="#C18983" fill-rule="evenodd" d="M17.52 11.543q-.324.367-.82.469.321-.367.82-.469" clip-rule="evenodd" opacity=".137"/><path fill="#C3978E" fill-rule="evenodd" d="M16.465 12.129q-.084.246-.352.234.084-.248.352-.234" clip-rule="evenodd" opacity=".137"/><path fill="#F53228" fill-rule="evenodd" d="M32.285 12.129q24.348.23 48.692 0 7.768.09 15.527.293-36.562.088-73.125.058a.27.27 0 0 0-.117-.175q4.541-.03 9.023-.176" clip-rule="evenodd"/><path fill="#C6928C" fill-rule="evenodd" d="M16.113 12.363q-.082.247-.351.234.083-.247.351-.234" clip-rule="evenodd" opacity=".141"/><path fill="#B7726E" fill-rule="evenodd" d="M103.066 12.012h.118q.825.295 1.406.937a15 15 0 0 1-1.524-.937" clip-rule="evenodd" opacity=".145"/><path fill="#91656A" fill-rule="evenodd" d="M15.762 12.597q-.084.247-.352.235.084-.247.352-.235" clip-rule="evenodd" opacity=".141"/><path fill="#5B3A39" fill-rule="evenodd" d="M23.496 12.714v-.117q36.973-.03 73.945.059a.39.39 0 0 1 .235.176q-37.088-.175-74.18-.118" clip-rule="evenodd" opacity=".024"/><path fill="#8D4C46" fill-rule="evenodd" d="M97.91 12.832a7.2 7.2 0 0 1 2.461.527.5.5 0 0 1 .352.293 19 19 0 0 0-2.813-.82" clip-rule="evenodd" opacity=".471"/><path fill="#F35846" fill-rule="evenodd" d="M96.387 10.019v.117q-36.036-.03-72.07.059a.69.69 0 0 0 .585.176 5 5 0 0 1-.351.234l.351.117q1.031-.015 2.11-.058a.5.5 0 0 1 .234.527h.82v.469h1.875q-.03.232.118.41.406.087.82.058v-.937h.469v.469h.468v.468h.47q-4.483.147-9.024.176a.27.27 0 0 1 .117.176q-.473-.03-.938.059a4.8 4.8 0 0 0 1.055.058v.117q-1.167.156-2.344.235a4.3 4.3 0 0 0-1.758.351.89.89 0 0 0-.585.469 2.65 2.65 0 0 1-.938.469q-.268-.013-.351.234l-.704.176q.195.135 0 .293 0 .117-.117.117-.268-.012-.351.235a5.3 5.3 0 0 1-.938.937q.011-.076-.058-.117a.4.4 0 0 0-.176.351q-.768 1.06-1.524 2.11a.85.85 0 0 1 .235-.762l-.117-.117a.8.8 0 0 0 .351-.176 6.4 6.4 0 0 1-.469-1.055q-1.207-.01-.586.88-.417.499.059.995l.117-.117a.29.29 0 0 1 0 .352 2 2 0 0 1-.527-.118 2.3 2.3 0 0 1-.117-.937 1.25 1.25 0 0 1-.938-.234q-.12.063-.234.117.39-.916 1.054-1.64.247-.084.235-.352a.35.35 0 0 1 .234-.235 19 19 0 0 0 1.758-1.758q.244-.42.703-.585.269.012.352-.235.269.013.351-.234.269.012.352-.235.06-.147.234-.117.498-.102.82-.468a13.9 13.9 0 0 1 5.508-1.465q36.68-.088 73.36-.059" clip-rule="evenodd"/><path fill="#A2817C" fill-rule="evenodd" d="M104.59 12.95a.56.56 0 0 1 .469.35.55.55 0 0 1-.469-.35" clip-rule="evenodd" opacity=".149"/><path fill="#A3594D" fill-rule="evenodd" d="M21.152 12.95q-1.18.335-2.343.82a.88.88 0 0 1 .585-.469 4.3 4.3 0 0 1 1.758-.351" clip-rule="evenodd" opacity=".463"/><path fill="#7B5C5B" fill-rule="evenodd" d="M105.293 13.418a7.6 7.6 0 0 1 1.523 1.64 7.6 7.6 0 0 1-1.523-1.64" clip-rule="evenodd" opacity=".133"/><path fill="#BA493D" fill-rule="evenodd" d="M100.723 13.653q.425-.038.82.117.479.29.82.703z" clip-rule="evenodd" opacity=".6"/><path fill="#985B55" fill-rule="evenodd" d="M14.707 13.418a19 19 0 0 1-1.758 1.758 6.3 6.3 0 0 1 1.758-1.758" clip-rule="evenodd" opacity=".176"/><path fill="#7D706D" fill-rule="evenodd" d="M17.871 14.238q-.083.247-.351.234.082-.247.351-.234" clip-rule="evenodd" opacity=".016"/><path fill="#93726C" fill-rule="evenodd" d="M102.363 14.472q.268-.012.352.235-.268.012-.352-.235" clip-rule="evenodd" opacity=".337"/><path fill="#B16151" fill-rule="evenodd" d="M17.52 14.473q-.29.321-.704.468.195-.157 0-.293z" clip-rule="evenodd" opacity=".886"/><path fill="#945F5D" fill-rule="evenodd" d="M102.715 14.707q.269-.013.351.234-.269.013-.351-.234" clip-rule="evenodd" opacity=".365"/><path fill="#876E71" fill-rule="evenodd" d="M16.7 15.058q-.084.247-.352.235.082-.247.351-.235" clip-rule="evenodd" opacity=".012"/><path fill="#9C5852" fill-rule="evenodd" d="M106.816 15.059a.88.88 0 0 1 .469.586.89.89 0 0 1-.469-.586" clip-rule="evenodd" opacity=".204"/><path fill="#91605D" fill-rule="evenodd" d="M12.716 15.41q.012.269-.235.352-.012-.269.235-.352" clip-rule="evenodd" opacity=".149"/><path fill="#89544F" fill-rule="evenodd" d="M103.887 15.645q.527.175.703.703a3 3 0 0 1-.703-.703" clip-rule="evenodd" opacity=".376"/><path fill="#81605C" fill-rule="evenodd" d="M15.41 16.23a.35.35 0 0 1-.234.235.4.4 0 0 1 .176-.352q.07.04.058.117" clip-rule="evenodd" opacity=".016"/><path fill="#53302C" fill-rule="evenodd" d="M108.223 17.05q.247.084.235.352-.247-.082-.235-.351" clip-rule="evenodd" opacity=".051"/><path fill="#874746" fill-rule="evenodd" d="M11.426 17.402q.047.33-.235.47a.68.68 0 0 1 .235-.47" clip-rule="evenodd" opacity=".239"/><path fill="#A04B42" fill-rule="evenodd" d="M108.575 17.52q.224.388.351.82a.42.42 0 0 1-.351-.352q-.153-.273 0-.468" clip-rule="evenodd" opacity=".929"/><path fill="#9B3D35" fill-rule="evenodd" d="M13.418 19.043a17 17 0 0 0-1.055 3.398 7.5 7.5 0 0 1 .703-3.164l-.117-.234q.24.021.469 0" clip-rule="evenodd"/><path fill="#8B3F36" fill-rule="evenodd" d="M108.926 18.34q.486.931.703 1.992a7.2 7.2 0 0 1-.703-1.992" clip-rule="evenodd" opacity=".918"/><path fill="#4E2E2C" fill-rule="evenodd" d="M109.746 20.45q.087.405.117.82-.318-.39-.117-.82" clip-rule="evenodd" opacity=".063"/><path fill="#83261E" fill-rule="evenodd" d="M107.051 20.45a.4.4 0 0 1 .176.234l.117-.118q.088.585.058 1.172a5.2 5.2 0 0 1-.351-1.289" clip-rule="evenodd" opacity=".776"/><path fill="#A26965" fill-rule="evenodd" d="M56.309 22.09a58 58 0 0 0-4.922.117v-.118a13.5 13.5 0 0 1 4.922 0" clip-rule="evenodd" opacity=".251"/><path fill="#ED3A2E" fill-rule="evenodd" d="M56.309 22.09h.117a.39.39 0 0 1-.235.176q1.152.051 2.227.469 1.215.52 2.344 1.113.743.334 1.289.938.082.246.351.234a8.3 8.3 0 0 1 1.172 1.172.88.88 0 0 0 .469.586.88.88 0 0 0 .469.586q-.013.268.234.351-.012.269.235.352.366.322.468.82.066.564.469.938a.7.7 0 0 1 .234.585 1.26 1.26 0 0 0 .352 1.055q-.036.527.234.938.365 1.73.352 3.515a.8.8 0 0 1 .586.117q.378.218.82.352a.35.35 0 0 1 .235.234q.127.471.292.938l.118-.117q.22 2.382-.293 4.687-.249.425-.704.586-1.46.14-2.93.117v5.625a9.6 9.6 0 0 1-.702 2.11.65.65 0 0 1 .117.351.7.7 0 0 0-.235.586h-.351l-.234.82h-.47q.03.357-.058.704-.117-.235-.234 0-.108.166.059.293-.447.162-.352.644-.585.703-1.29 1.29-.153-.024-.233.116a.36.36 0 0 0 .351.118q0 .117.117.117-.454.127-.937.293a.58.58 0 0 0 .351.058v.47a4.8 4.8 0 0 0-1.172-.235q-.029-.473.059-.938.212-.1.41-.234-.9-.405-1.172.527.29.456.235.996.686-.042 1.113.47.241.015.527-.06.037.507-.117.88a16 16 0 0 0-1.758-.587h-.117q-.39-.22-.82 0-2.615.893-5.39.704a1.86 1.86 0 0 0-1.056 0q-.174.03-.234-.118-.455-.207-1.172-.351a4.3 4.3 0 0 0 1.465-.586 1.05 1.05 0 0 1 .293-.586q-1.845-.408 0-.762l-.234-.117q.04-.07.117-.059 1.608.21 3.164 0a4.3 4.3 0 0 0 2.11-.586q.174-.014.292.118.442-.379.88-.703.267.012.35-.235.27.013.352-.234a.88.88 0 0 0 .586-.469 19 19 0 0 1 1.23-1.289q.24-.599.645-1.055a2.4 2.4 0 0 0 .645-.82q.087-.347.058-.703.313-.263.235-.703.074-.888.234-1.758.33-2.017 0-3.984-8.994-.06-17.93.117l-.234 4.687a10 10 0 0 1-.352-1.64q-.45.67-.41 1.406-.266.738-.703 1.406a5.2 5.2 0 0 1 .176-1.406h.352a1.74 1.74 0 0 0-.235-.762l.235-.117a2.2 2.2 0 0 0-.704-.059q-.029-1.642.059-3.28l.117.702.117-.468q.03.389.235.703a.59.59 0 0 1 .41-.293q-.937-.176 0-.352a1 1 0 0 0-.469-.059v-.468h.352a.54.54 0 0 1 .234-.528l-.117-.117q.308-.035.586-.175a.8.8 0 0 0-.352-.176q.235-.176 0-.352a2.6 2.6 0 0 1 .82-.41v-.586h-2.812q11.16-.123 24.61-.234a4.3 4.3 0 0 0 0-1.992H41.074a2853 2853 0 0 1 25.899-.176q-12.598-.088-25.196-.059a.27.27 0 0 1 .117-.176q4.224-.032 8.438-.175 7.467.195 15 .058.534-.062.938-.41l-.235-.117q-.523.112-1.054.176-5.157.087-10.313.058a.58.58 0 0 1 .059-.351q2.12.144 4.16.117a.35.35 0 0 0 .234-.235.84.84 0 0 1-.234-.703 28 28 0 0 1 1.875-.175L43.3 36.21l-.235-.117q.142-.834.176-1.7a.4.4 0 0 1 .176-.233v1.874q10.576.06 21.094-.117-.124-1.463-.235-2.93a2.5 2.5 0 0 0-.117-1.054 1 1 0 0 0-.351-.586 12.2 12.2 0 0 0-3.047-4.336.88.88 0 0 0-.586-.469.56.56 0 0 0-.469-.351q-.174.03-.234-.117-.084-.247-.352-.235a4.3 4.3 0 0 0-.937-.703.35.35 0 0 0-.235.235v7.851q-.272.057-.234.352-.948.465-1.875 0a.58.58 0 0 1-.293-.47q-.088-4.275-.059-8.554a12 12 0 0 0-3.281 0 174 174 0 0 0-.117 9.024.8.8 0 0 1-.352.234q-.72.046-1.406-.117a.39.39 0 0 1 .234-.176q-.527-1.29.82-.937l.352.175q.176-3.865.117-7.734-.576-.093-.468-.703h-.352a4.9 4.9 0 0 0-.234-1.172h.468v-.586h-.703q.365-.255.82-.352a58 58 0 0 1 4.923-.117" clip-rule="evenodd"/><path fill="#AD5651" fill-rule="evenodd" d="M51.387 22.09v.117a2.2 2.2 0 0 0-.82.352 2.5 2.5 0 0 0-1.055.175l-1.758.762a8.6 8.6 0 0 1 3.633-1.406" clip-rule="evenodd" opacity=".314"/><path fill="#965D58" fill-rule="evenodd" d="M56.426 22.09q2.4.352 4.336 1.758a33 33 0 0 0-2.344-1.114 7 7 0 0 0-2.227-.468.39.39 0 0 0 .235-.176" clip-rule="evenodd" opacity=".306"/><path fill="#A98480" fill-rule="evenodd" d="M47.52 23.613q-.084.247-.352.234.083-.247.352-.234" clip-rule="evenodd" opacity=".294"/><path fill="#A47772" fill-rule="evenodd" d="M47.168 23.847q-.084.247-.352.235.084-.247.352-.235" clip-rule="evenodd" opacity=".329"/><path fill="#FABBB7" fill-rule="evenodd" d="M55.488 24.551q-1.59-.043-3.164.117-.117 0-.117-.117a12 12 0 0 1 3.281 0" clip-rule="evenodd" opacity=".161"/><path fill="#8B724C" fill-rule="evenodd" d="M62.05 24.785q.27-.013.352.234-.269.013-.351-.234" clip-rule="evenodd" opacity=".012"/><path fill="#D76B5B" fill-rule="evenodd" d="m59.121 25.84-.937-.352q-.06-.147-.235-.117a.35.35 0 0 1 .235-.234q.525.293.937.703" clip-rule="evenodd" opacity=".933"/><path fill="#1F0000" fill-rule="evenodd" d="M57.95 25.371q.173-.03.234.117l-.235 7.852v-7.969" clip-rule="evenodd" opacity=".063"/><path fill="#8E7370" fill-rule="evenodd" d="M59.121 25.84q.268-.014.352.234-.27.012-.352-.235" clip-rule="evenodd" opacity=".137"/><path fill="#AF8886" fill-rule="evenodd" d="M59.707 26.191q.335.042.469.352a.56.56 0 0 1-.469-.352" clip-rule="evenodd" opacity=".161"/><path fill="#945A57" fill-rule="evenodd" d="M63.574 26.191q.367.192.469.586a.88.88 0 0 1-.469-.586" clip-rule="evenodd" opacity=".439"/><path fill="#9F7C76" fill-rule="evenodd" d="M60.176 26.543a.88.88 0 0 1 .586.469.88.88 0 0 1-.586-.469" clip-rule="evenodd" opacity=".153"/><path fill="#B77E72" fill-rule="evenodd" d="M64.043 26.777q.366.191.469.586a.88.88 0 0 1-.469-.586" clip-rule="evenodd" opacity=".439"/><path fill="#9B7370" fill-rule="evenodd" d="M64.512 27.363q.247.084.235.352-.247-.084-.235-.352" clip-rule="evenodd" opacity=".439"/><path fill="#9B6862" fill-rule="evenodd" d="M64.747 27.715q.248.083.234.351-.248-.083-.234-.351" clip-rule="evenodd" opacity=".455"/><path fill="#831F18" fill-rule="evenodd" d="M52.208 24.55q0 .118.117.118.03 4.336-.059 8.672a.39.39 0 0 1-.175.234q-.06-4.541.117-9.023" clip-rule="evenodd" opacity=".937"/><path fill="#8C4037" fill-rule="evenodd" d="M65.45 28.887q.398.371.468.937a1.46 1.46 0 0 1-.469-.937" clip-rule="evenodd" opacity=".957"/><path fill="#200503" fill-rule="evenodd" d="M42.246 29.238a1.3 1.3 0 0 1-.352.82q.037-.48.352-.82" clip-rule="evenodd" opacity=".027"/><path fill="#622721" fill-rule="evenodd" d="M41.895 30.059q-.02.551-.352.937.041-.535.352-.937" clip-rule="evenodd" opacity=".627"/><path fill="#75352E" fill-rule="evenodd" d="M66.153 30.41q.276.477.352 1.055a1.26 1.26 0 0 1-.352-1.055" clip-rule="evenodd" opacity=".937"/><path fill="#682226" fill-rule="evenodd" d="M41.544 30.996q.058.48-.234.82-.016-.465.234-.82" clip-rule="evenodd" opacity=".678"/><path fill="#4D2B25" fill-rule="evenodd" d="M66.504 31.465q.223.423.235.937a1.47 1.47 0 0 1-.235-.937" clip-rule="evenodd" opacity=".059"/><path fill="#943B2B" fill-rule="evenodd" d="M63.809 31.348q.263.207.351.586.172.514.117 1.054a21 21 0 0 1-.468-1.64" clip-rule="evenodd" opacity=".937"/><path fill="#EB3A2E" fill-rule="evenodd" d="M50.566 22.559h.703v.586h-.468q.189.569.234 1.172h.352q-.108.609.468.703.06 3.869-.117 7.734l-.351-.176q-1.348-.352-.82.938a.39.39 0 0 0-.235.175h-.117a.55.55 0 0 1-.352-.468q.06-3.928-.117-7.852-.106.022-.117.117l-.938.352a1.07 1.07 0 0 0-.586.117q-.22-.459-.351.059.025.135.117.234a.96.96 0 0 0-.469.293q-.357-.199-.117.176-.75.14-1.172.469a.49.49 0 0 1 .059.527.4.4 0 0 0-.176-.117q-.13.325-.352.234a.8.8 0 0 1 .118.469h-.352q.053-.498-.234-.176.219.246.351.527-.247.554-.586 1.055h-.351v.586q-.135.443-.352.82h-.351a10.3 10.3 0 0 0-.235 1.758 1.8 1.8 0 0 1-.117.82.54.54 0 0 0-.117.47.39.39 0 0 0-.176.234 13 13 0 0 1-.176 1.699l.235.117 17.46.117q-.942.057-1.874.176a.84.84 0 0 0 .234.703.35.35 0 0 1-.234.234 51 51 0 0 1-4.16-.117.58.58 0 0 0-.06.352q5.158.03 10.313-.059.532-.063 1.055-.175l.234.117a1.7 1.7 0 0 1-.937.41 340 340 0 0 1-15-.059q-4.215.144-8.437.176a.27.27 0 0 0-.118.176q-.46-.048-.879.117a7.5 7.5 0 0 0 0 1.875.27.27 0 0 0 .176.117q12.861.175 25.781.117-13.449.112-24.609.235-.56.215-1.172.41l1.524.117q.86.535.058 1.113a.58.58 0 0 0-.058.352q-1.35.03-2.696-.059.493-.467 1.114-.175.384-.074.761-.176a2.14 2.14 0 0 0-1.054-.293v-.352h-.47q.03-.414-.058-.82l-.117.703a4 4 0 0 0-.41-.703q-.152-.19-.352-.059.305.608-.234.996.26.35.586.645-.04.07-.117.059l-.586-.47a71 71 0 0 0-.352-.937 12.4 12.4 0 0 1 0-3.398l.469-.938q.248-.424.703-.586.585.051 1.055-.234-.03-2.106.469-4.101.292-.342.234-.82.334-.386.352-.938.315-.34.351-.82a12.16 12.16 0 0 1 4.57-5.157q.269.013.352-.234.268.012.352-.235.06-.147.234-.117l1.758-.761a2.5 2.5 0 0 1 1.054-.176" clip-rule="evenodd"/><path fill="#87332D" fill-rule="evenodd" d="M44.238 31.113q-.262.907-.586 1.758.042-.891.235-1.758z" clip-rule="evenodd" opacity=".945"/><path fill="#8C453A" fill-rule="evenodd" d="M44.941 29.707q-.133.328-.351.586v-.586z" clip-rule="evenodd" opacity=".906"/><path fill="#D85C48" fill-rule="evenodd" d="M48.691 25.84a16.4 16.4 0 0 0-3.164 2.812 2.2 2.2 0 0 0-.351-.527q.286-.323.234.175h.352a.8.8 0 0 0-.117-.468q.22.09.351-.235a.4.4 0 0 1 .176.118.49.49 0 0 0-.059-.528q.422-.328 1.172-.469-.24-.374.117-.175a.96.96 0 0 1 .47-.293.46.46 0 0 1-.118-.235q.13-.517.352-.058.276-.142.585-.117" clip-rule="evenodd"/><path fill="#100" fill-rule="evenodd" d="M49.629 25.488q.01-.095.117-.117a132 132 0 0 1 .117 7.852z" clip-rule="evenodd" opacity=".063"/><path fill="#FDA08C" fill-rule="evenodd" d="M50.215 33.691h.117q.686.164 1.406.118-.806.5-1.523-.118" clip-rule="evenodd" opacity=".906"/><path fill="#E1887E" fill-rule="evenodd" d="M57.95 33.223v.117a.46.46 0 0 1-.235.41q-.794.48-1.64.117-.222-.073-.235-.293.927.468 1.875 0-.038-.295.234-.351" clip-rule="evenodd" opacity=".408"/><path fill="#7E1A15" fill-rule="evenodd" d="M107.52 22.441q.127.455.292.938.089 36.621.059 73.242a12 12 0 0 1-.351.938q.234-37.56 0-75.118" clip-rule="evenodd" opacity=".937"/><path fill="#1B1B1A" fill-rule="evenodd" d="M43.536 33.691v2.227h20.976q-10.516.175-21.093.117V34.16a.54.54 0 0 1 .117-.469" clip-rule="evenodd" opacity=".036"/><path fill="#6B2D28" fill-rule="evenodd" d="M40.84 35.918q-.47.284-1.055.234.47-.285 1.055-.234" clip-rule="evenodd" opacity=".659"/><path fill="#220703" fill-rule="evenodd" d="M67.676 36.035q.525-.06.82.351a4 4 0 0 1-.82-.351" clip-rule="evenodd" opacity=".039"/><path fill="#1A0404" fill-rule="evenodd" d="m39.083 36.738-.47.938q-.036-.63.47-.938" clip-rule="evenodd" opacity=".043"/><path fill="#E11B16" fill-rule="evenodd" d="M41.777 38.262q12.598-.03 25.196.058-12.98.03-25.899.176v1.875a.27.27 0 0 1-.175-.117 7.5 7.5 0 0 1 0-1.875q.419-.165.878-.117" clip-rule="evenodd"/><path fill="#A4443D" fill-rule="evenodd" d="M12.364 22.441v74.766h-.117q-.175-37.146-.117-74.297z" clip-rule="evenodd" opacity=".935"/><path fill="#BE645F" fill-rule="evenodd" d="M66.856 38.496a4.3 4.3 0 0 1 0 1.992v-.351a2.1 2.1 0 0 1 0-1.29z" clip-rule="evenodd" opacity=".725"/><path fill="#892A21" fill-rule="evenodd" d="M68.73 36.621q.497.405.645 1.055.117 1.816 0 3.633-.096.547-.527.82.513-2.306.293-4.688l-.118.118a13 13 0 0 1-.292-.938" clip-rule="evenodd" opacity=".937"/><path fill="#170F0F" fill-rule="evenodd" d="M41.074 38.496h25.782v.352a706 706 0 0 0-25.665-.235v1.758q12.87.116 25.665-.234v.351q-12.921.06-25.782-.117z" clip-rule="evenodd" opacity=".063"/><path fill="#210302" fill-rule="evenodd" d="M38.613 41.074q.174.453.352.938-.436-.352-.352-.938" clip-rule="evenodd" opacity=".086"/><path fill="#1F0302" fill-rule="evenodd" d="m38.965 42.012.586.468v.118a.75.75 0 0 1-.586-.586" clip-rule="evenodd" opacity=".01"/><path fill="#231211" fill-rule="evenodd" d="M62.872 42.95v.116H45.059v4.22a38 38 0 0 1-.117-4.22 686 686 0 0 1 17.93-.117" clip-rule="evenodd" opacity=".051"/><path fill="#241111" fill-rule="evenodd" d="M67.442 42.95a8.5 8.5 0 0 1-1.992.116v.586a1.13 1.13 0 0 1-.118-.703z" clip-rule="evenodd" opacity=".051"/><path fill="#210505" fill-rule="evenodd" d="M40.488 42.95h2.11v4.804a47 47 0 0 1-.117-4.688 8.5 8.5 0 0 1-1.993-.117" clip-rule="evenodd" opacity=".063"/><path fill="#99372B" fill-rule="evenodd" d="M68.145 42.715a.83.83 0 0 1-.704.234h-2.109q-.051.394.117.703a49 49 0 0 1-.117 4.805h-.117v-5.625q1.47.021 2.93-.117" clip-rule="evenodd" opacity=".937"/><path fill="#995C5B" fill-rule="evenodd" d="M62.87 42.95q.33 1.966 0 3.984a97 97 0 0 1 0-3.868z" clip-rule="evenodd" opacity=".253"/><path fill="#FB362D" fill-rule="evenodd" d="M109.98 22.207v75.586a2.9 2.9 0 0 1-.175-.82q-.088-7.031-.059-14.063V40.84q.024-9.43-.058-18.75a.33.33 0 0 0 .292.117" clip-rule="evenodd"/><path fill="#7B1A10" fill-rule="evenodd" d="M109.98 21.973q.143.375.176.82.117 37.325 0 74.648a2.1 2.1 0 0 1-.176.703V21.974" clip-rule="evenodd" opacity=".937"/><path fill="#EE382D" fill-rule="evenodd" d="M109.746 40.84v42.07a1.13 1.13 0 0 0-.118.703q-.937.059 0 .118-.015 1.461 0 2.87-.207.296-.41-.058l-.176.117a24 24 0 0 1 .118 3.281h.351v1.875h-.351v1.875a.67.67 0 0 1-.586-.234l-.117.352q.013 1.347 0 2.695h-.352q-.03-18.985.059-37.969.035.309.175.586a.35.35 0 0 0 .235-.234 1.76 1.76 0 0 1-.41-.703 2353 2353 0 0 1 0-33.399l.117.352.117-.117q.03 8.438.176 16.875a.53.53 0 0 0 .176-.235q.088-.936.058-1.875h.352v-.469h.468a5 5 0 0 0 .118 1.524" clip-rule="evenodd"/><path fill="#813E3C" fill-rule="evenodd" d="M45.06 47.402q.237 1.301.703 2.578a4 4 0 0 1-.704-2.578" clip-rule="evenodd" opacity=".937"/><path fill="#6F2726" fill-rule="evenodd" d="M62.637 48.691q.078.441-.235.703.017-.401.235-.703" clip-rule="evenodd" opacity=".839"/><path fill="#8B3D35" fill-rule="evenodd" d="M65.215 48.457h.117a5.6 5.6 0 0 1-.703 2.461.65.65 0 0 0-.117-.352q.473-1.013.703-2.109" clip-rule="evenodd" opacity=".945"/><path fill="#7B1716" fill-rule="evenodd" d="M43.183 50.332q.309.185.234.586a.7.7 0 0 1-.234-.586" clip-rule="evenodd" opacity=".882"/><path fill="#8A3B2D" fill-rule="evenodd" d="M62.402 49.395q.03.355-.058.703a2.4 2.4 0 0 1-.645.82q.31-.795.703-1.523" clip-rule="evenodd" opacity=".773"/><path fill="#1C0E15" fill-rule="evenodd" d="M64.628 50.918a.7.7 0 0 1-.234.586.7.7 0 0 1 .234-.586" clip-rule="evenodd" opacity=".035"/><path fill="#811C1B" fill-rule="evenodd" d="M43.77 51.738q.396.149.351.586a.77.77 0 0 1-.352-.586" clip-rule="evenodd" opacity=".973"/><path fill="#B86F66" fill-rule="evenodd" d="M46.7 51.738q.366.191.468.586a.88.88 0 0 1-.469-.586" clip-rule="evenodd" opacity=".149"/><path fill="#C04336" fill-rule="evenodd" d="M64.395 51.504a8.3 8.3 0 0 1-1.64 2.46q-.094-.48.351-.644-.166-.125-.058-.293.117-.234.234 0 .087-.346.059-.703h.468l.235-.82z" clip-rule="evenodd"/><path fill="#A26B66" fill-rule="evenodd" d="M47.871 53.027q.455.162.703.586a1.3 1.3 0 0 1-.703-.586" clip-rule="evenodd" opacity=".765"/><path fill="#EE3E30" fill-rule="evenodd" d="M42.246 40.723h2.813v.586a2.6 2.6 0 0 0-.82.41q.234.175 0 .351.197.044.35.176-.277.14-.585.176l.117.117a.54.54 0 0 0-.234.527h-.352v.47a1 1 0 0 1 .469.058q-.937.175 0 .351a.59.59 0 0 0-.41.293 1.5 1.5 0 0 1-.235-.703l-.117.469-.117-.703a46 46 0 0 0-.059 3.281q.357-.029.703.059l-.234.117q.205.353.235.761h-.352a5.2 5.2 0 0 0-.176 1.407q.437-.668.703-1.407-.04-.735.41-1.406.108.84.352 1.64l.234-4.687q-.057 2.14.118 4.22v.116q-.087 1.425.703 2.578.461.876.937 1.758a.88.88 0 0 0 .469.586q.41.294.703.703.24.415.703.586v.352q.348.057.586 0 .117 0 .117.117a.77.77 0 0 0 .586.352.27.27 0 0 1-.117.175q.557.274 1.172.293.402.017.703.235a.54.54 0 0 0 .469.117v.117q-.077-.012-.117.059l.234.117q-1.845.354 0 .762a1.05 1.05 0 0 0-.293.586q-.69.433-1.465.585a9 9 0 0 0-1.289-.468 7.8 7.8 0 0 0-1.992.937q-.327.06-.293.352a64 64 0 0 1 2.285 2.343q.225.344.586.587.408.232.703.585-.09.222.235.352l.351.234q.41.762 1.172 1.172a4.04 4.04 0 0 0 1.406 1.407.51.51 0 0 0 .586.175 99 99 0 0 1 2.93-2.87q.426-.24.469-.587.175-.292.468-.468a31 31 0 0 0 3.282-3.165 5 5 0 0 1-.352-.234q.154-.372.117-.879-.285.075-.527.059-.428-.511-1.113-.469a1.52 1.52 0 0 0-.235-.996q.273-.932 1.172-.527-.198.134-.41.234-.087.466-.059.937.604.046 1.172.235v-.469a.58.58 0 0 1-.351-.059q.483-.165.937-.293a.8.8 0 0 0 .469.118.7.7 0 0 0 .586.234q.387-.066.586.234.94.51 1.992.82a.46.46 0 0 1-.234.41q.17.378-.059.763l-.117-.118q-.242.33-.41.703a.5.5 0 0 1-.293-.351q-.48.152-.059.293l-.41.293a.63.63 0 0 0-.527-.059 10 10 0 0 1-.352.762l-.234-.117a1.1 1.1 0 0 1-.352.41.46.46 0 0 1 .235.41 14.5 14.5 0 0 0-1.993 1.817q.04.07.117.058a14 14 0 0 1-1.523 1.524q.022-.154-.117-.235a.79.79 0 0 1-.703.352l-.235.82q-.698.107-1.406.176.456.364 0 .762a.8.8 0 0 1 .117.468q-.3-.489-.41.117l-.234-.234a2.4 2.4 0 0 0-.176.703h-.352v.352a1.4 1.4 0 0 1-.703-.117q-.312.52-.586 1.054.093.122.235.176-.537.144-1.055-.059a.4.4 0 0 1 .117-.175 1 1 0 0 0-.468-.059.7.7 0 0 1 .234-.586q-.281-.383-.527.117a1.1 1.1 0 0 0-.528-.234q-.174.03-.234-.117a1.82 1.82 0 0 0-.996-1.172q-.153-.71-.88-.703a80 80 0 0 1-3.632-3.633l-2.227-2.344q-.846-.285-1.289.469h-.117q-.01-.096-.117-.117a9 9 0 0 0-1.523.703q-.192.021-.235.234.222.627.293 1.29.15.188.293.351-.078.441.235.703-.08.441.234.703-.058.48.234.82-.078.442.235.704a2.32 2.32 0 0 0 .468 1.523q-.078.441.235.703.245.563.351 1.172.257 1.035.235 2.11-.26.751-.703 1.406-.19-.188-.352 0-.127.547-.527.937a1 1 0 0 0-.059.469.36.36 0 0 0-.352.117.8.8 0 0 1 .118.469q-.463.984-1.055 1.875h-.117v-.469a.94.94 0 0 0-.645.234 5 5 0 0 1-.703-.234q-.108.787-.82.469a1.5 1.5 0 0 0-.176-.586l.234-.469q-.03-.174.118-.234.276-.376.468-.82v-.118q.367-.322.47-.82l.116-.234a.77.77 0 0 0 .352-.586l.117-.235q.32-.285.469-.703-.03-.174.117-.234.524-.235.469-.82a269 269 0 0 0-2.578-8.555q-.022-.191-.235-.235-.413.12-.82.235-.8.317-.703-.586-.558.075-1.055.059.377.13.059.292-.825-.32-1.114.528a.58.58 0 0 1-.351.058q.06.525-.469.47a1.1 1.1 0 0 1-.703-.47q.23-.796.586-.117a.36.36 0 0 0 .352.117q-.354-.727.468-.879l-.234-.117q.222-.4.586-.644a4.4 4.4 0 0 1 1.172-.703q.01.094.117.117 1.14-.425 1.992-.938.06-.147.234-.117a2.34 2.34 0 0 0 1.055-.293q-.04-.07-.117-.058.06-.148.234-.118.01.096.117.118a8 8 0 0 0 1.641-.82q.06-.148.235-.118.01.096.117.117a41 41 0 0 0 3.75-1.64q.33-.22.703-.41a10.7 10.7 0 0 1-2.344-2.989q.045-.437-.352-.586-.315-.338-.351-.82.074-.401-.234-.586a6.4 6.4 0 0 1-.586-2.578v-4.805h-2.11a1.25 1.25 0 0 1-.937-.351v-.117q.077.011.117-.06a4.6 4.6 0 0 1-.586-.644q.54-.387.234-.996.2-.131.352.059.242.33.41.703.06-.352.117-.703.088.405.059.82h.469v.352q.57.01 1.054.293-.378.102-.761.175-.62-.29-1.114.176 1.347.088 2.696.059a.58.58 0 0 1 .058-.352q.803-.579-.058-1.113l-1.524-.117q.612-.195 1.172-.41" clip-rule="evenodd"/><path fill="#A67073" fill-rule="evenodd" d="M59.824 53.262a.88.88 0 0 1-.586.468.88.88 0 0 1 .586-.468" clip-rule="evenodd" opacity=".137"/><path fill="#CC7261" fill-rule="evenodd" d="M48.574 53.613q.34.108.586.352-.238.057-.586 0z" clip-rule="evenodd"/><path fill="#8E6F6E" fill-rule="evenodd" d="M59.238 53.73q-.083.247-.351.235.083-.247.351-.235" clip-rule="evenodd" opacity=".153"/><path fill="#C2959A" fill-rule="evenodd" d="M58.887 53.965q-.084.246-.352.234.084-.248.352-.234" clip-rule="evenodd" opacity=".149"/><path fill="#EBCDCD" fill-rule="evenodd" d="M49.277 54.082q.382.044.586.352a.77.77 0 0 1-.586-.352" clip-rule="evenodd" opacity=".09"/><path fill="#CE7E6F" fill-rule="evenodd" d="M58.535 54.2q-.436.324-.879.702a.34.34 0 0 0-.293-.117 4.1 4.1 0 0 1 1.172-.586" clip-rule="evenodd" opacity=".169"/><path fill="#D86A52" fill-rule="evenodd" d="M49.863 54.434q.57.169 1.055.468-.614-.019-1.172-.293a.27.27 0 0 0 .117-.175" clip-rule="evenodd" opacity=".953"/><path fill="#9E6B6A" fill-rule="evenodd" d="M57.363 54.785a4.3 4.3 0 0 1-2.11.586h-.702a12 12 0 0 0 2.812-.586" clip-rule="evenodd" opacity=".157"/><path fill="#CBB2BA" fill-rule="evenodd" d="M52.09 55.254a.54.54 0 0 1-.469-.117q.33-.277.469.117" clip-rule="evenodd" opacity=".141"/><path fill="#D31510" fill-rule="evenodd" d="M12.13 22.91q-.058 37.152.116 74.297a1 1 0 0 1-.058.469l-.117-.703q-.146-37.06.058-74.063" clip-rule="evenodd"/><path fill="#CCAAA4" fill-rule="evenodd" d="M54.55 55.37h.704q-1.556.211-3.164 0v-.116q.384-.16.762.117a7.3 7.3 0 0 1 1.699 0" clip-rule="evenodd" opacity=".145"/><path fill="#E3B4B1" fill-rule="evenodd" d="m61.465 55.254.117.235a.36.36 0 0 1-.352-.118q.08-.14.235-.117" clip-rule="evenodd" opacity=".149"/><path fill="#CF9F96" fill-rule="evenodd" d="M61.582 55.488a.7.7 0 0 1 .586.235.8.8 0 0 1-.469-.117q-.117 0-.117-.118" clip-rule="evenodd" opacity=".173"/><path fill="#BB8785" fill-rule="evenodd" d="M62.168 55.723a.7.7 0 0 1 .586.234.7.7 0 0 1-.586-.234" clip-rule="evenodd" opacity=".169"/><path fill="#866B67" fill-rule="evenodd" d="M63.34 56.191q1.299.33 2.46.938a.8.8 0 0 1-.468-.117 10.3 10.3 0 0 1-1.992-.82" clip-rule="evenodd" opacity=".18"/><path fill="#B48480" fill-rule="evenodd" d="M45.762 55.723a41 41 0 0 1-3.75 1.64q-.106-.021-.117-.117a82 82 0 0 1 3.867-1.523" clip-rule="evenodd" opacity=".173"/><path fill="#423532" fill-rule="evenodd" d="M59.121 57.246a2.5 2.5 0 0 0-.82.117v-.117q.43-.22.82 0" clip-rule="evenodd" opacity=".016"/><path fill="#8C6A64" fill-rule="evenodd" d="M50.45 57.48q.716.144 1.171.352a7.4 7.4 0 0 1-2.46-.703q-.987.445-1.993.82.9-.597 1.992-.937.668.188 1.29.468" clip-rule="evenodd" opacity=".02"/><path fill="#B19493" fill-rule="evenodd" d="m66.035 57.129 1.055.469q-.01.094-.117.117a2.8 2.8 0 0 0-.704-.293q-.22-.074-.234-.293" clip-rule="evenodd" opacity=".129"/><path fill="#A9675E" fill-rule="evenodd" d="M58.3 57.246v.117a10.7 10.7 0 0 1-5.39.703v-.117a13.6 13.6 0 0 0 5.39-.703" clip-rule="evenodd" opacity=".894"/><path fill="#AE7772" fill-rule="evenodd" d="M41.66 57.363q-.675.456-1.64.82-.107-.021-.118-.117a18 18 0 0 1 1.758-.703" clip-rule="evenodd" opacity=".204"/><path fill="#7C4D47" fill-rule="evenodd" d="M51.856 57.95a1.86 1.86 0 0 1 1.054 0v.116q-.535 0-1.054-.117" clip-rule="evenodd" opacity=".012"/><path fill="#836260" fill-rule="evenodd" d="M67.324 57.715a266 266 0 0 1 4.102 1.581q.597.24 1.055.645l-5.274-2.168q.04-.07.117-.059" clip-rule="evenodd" opacity=".227"/><path fill="#9D6B64" fill-rule="evenodd" d="M39.668 58.183q.077-.011.117.059-.494.272-1.054.293.427-.24.937-.352" clip-rule="evenodd" opacity=".224"/><path fill="#B46F63" fill-rule="evenodd" d="M38.496 58.652q-.852.513-1.992.938-.106-.023-.117-.117 1.015-.508 2.11-.82" clip-rule="evenodd" opacity=".243"/><path fill="#92594F" fill-rule="evenodd" d="M46.582 61.582a20 20 0 0 1-2.344-2.168 1.83 1.83 0 0 0-1.172.293q.442-.754 1.29-.469z" clip-rule="evenodd" opacity=".925"/><path fill="#C27874" fill-rule="evenodd" d="M59.238 57.246q.893.24 1.758.586.157.116.352.234a31 31 0 0 1-3.282 3.164q1.488-1.575 3.047-3.105-.974-.4-1.875-.879" clip-rule="evenodd" opacity=".2"/><path fill="#855E59" fill-rule="evenodd" d="M65.098 59.707q.96.222 1.875.586.04.226-.117.352.004-.176-.176-.235a9.7 9.7 0 0 1-1.582-.703" clip-rule="evenodd" opacity=".259"/><path fill="#C49484" fill-rule="evenodd" d="M42.95 59.707q-.742.341-1.524.586h-.117a9 9 0 0 1 1.523-.703q.107.021.117.117" clip-rule="evenodd" opacity=".22"/><path fill="#EF4133" fill-rule="evenodd" d="M65.332 57.012a.8.8 0 0 0 .469.117h.234q.014.22.234.293.372.098.704.293.106-.023.117-.117.174-.03.234.117-.076-.011-.117.058l5.274 2.168q.413.148.703.47.082.246.351.233.135.31.469.352l.352.234q.22.516.703.82a.35.35 0 0 1 .234.235q.042.335.351.469.55.51.938 1.172-.111.354-.351.117a31 31 0 0 0-2.696-.176 4.7 4.7 0 0 0-1.172-.996 3.9 3.9 0 0 0-.703-.644q-.165-.122-.234.058-.117 0-.117-.117a1.13 1.13 0 0 0-.938-.469q-.294-.41-.82-.351a.56.56 0 0 0-.352.468.5.5 0 0 0-.293.352q-.16-.203-.293.059.15.66 0 1.347-.36.441-.351 1.055-.324.313-.235.82a.26.26 0 0 1-.175-.117 3 3 0 0 0-.059.82 22 22 0 0 0-1.172 2.93.8.8 0 0 1 .117.469q.234 1.137-.937 1.465-.586.117-1.172 0a.85.85 0 0 1-.586-.528q.013-.476.117-.937.192-1.043.586-1.992.313-.263.235-.703.291-.342.234-.82a.27.27 0 0 0 .176-.118q.087-.347.058-.703.313-.263.235-.703.292-.34.234-.82.314-.263.234-.704.039-.45.235-.82.312-.262.234-.703v-.117q.313-.263.235-.703.157-.125.117-.352a13 13 0 0 0-1.875-.586 2.1 2.1 0 0 0-.938-.527q-.275-.135-.469.058-.527.645-1.172 1.172a.46.46 0 0 0-.234-.41q.223-.158.352-.41l.234.117q.193-.375.352-.762a.63.63 0 0 1 .527.059l.41-.293q-.422-.141.059-.293.064.247.293.352.168-.375.41-.704l.117.118q.23-.385.059-.762a.46.46 0 0 0 .234-.41" clip-rule="evenodd"/><path fill="#8B6460" fill-rule="evenodd" d="M63.691 59.238q.195-.193.47-.059.55.151.937.528-.692-.27-1.407-.47" clip-rule="evenodd" opacity=".275"/><path fill="#8D7B7A" fill-rule="evenodd" d="M73.184 60.41q.268-.013.351.234-.269.013-.351-.234" clip-rule="evenodd" opacity=".012"/><path fill="#AA6D62" fill-rule="evenodd" d="M49.16 60.645q.472.12.586.585a2.1 2.1 0 0 1-.586-.585" clip-rule="evenodd" opacity=".435"/><path fill="#68524E" fill-rule="evenodd" d="M73.535 60.645q.335.041.469.351a.56.56 0 0 1-.469-.352" clip-rule="evenodd" opacity=".016"/><path fill="#702C29" fill-rule="evenodd" d="M66.856 60.645q.078.44-.235.703.017-.402.235-.703" clip-rule="evenodd" opacity=".737"/><path fill="#AC9695" fill-rule="evenodd" d="M62.52 60.41a21 21 0 0 1-1.876 1.875q-.076.011-.117-.058a14.5 14.5 0 0 1 1.992-1.817" clip-rule="evenodd" opacity=".01"/><path fill="#826E65" fill-rule="evenodd" d="M69.55 61.347q.527-.059.821.352a4 4 0 0 1-.82-.352" clip-rule="evenodd" opacity=".22"/><path fill="#87403A" fill-rule="evenodd" d="M41.309 60.293h.117q-.105.114-.235.234.29.807.47 1.641a9 9 0 0 1-.294-.352 5.7 5.7 0 0 0-.293-1.289q.044-.213.235-.234" clip-rule="evenodd" opacity=".937"/><path fill="#B68A81" fill-rule="evenodd" d="M38.848 61.465a5 5 0 0 1-.235-.117l-1.64.703q.29-.307.82-.586l.82-.235q.213.045.235.235" clip-rule="evenodd" opacity=".039"/><path fill="#A38884" fill-rule="evenodd" d="M50.45 61.816q.246.084.234.352-.325-.13-.234-.352" clip-rule="evenodd" opacity=".01"/><path fill="#9C6F67" fill-rule="evenodd" d="M57.598 61.7q-.041.346-.47.585a.88.88 0 0 1 .47-.586" clip-rule="evenodd" opacity=".133"/><path fill="#866861" fill-rule="evenodd" d="M70.371 61.7q.589.004.938.468a2.65 2.65 0 0 1-.938-.469" clip-rule="evenodd" opacity=".012"/><path fill="#63241F" fill-rule="evenodd" d="M66.621 61.465q.078.44-.234.703.016-.402.234-.703" clip-rule="evenodd" opacity=".808"/><path fill="#B59A98" fill-rule="evenodd" d="M74.356 61.23q.48.306.703.82a1.8 1.8 0 0 1-.703-.82" clip-rule="evenodd" opacity=".047"/><path fill="#AE5849" fill-rule="evenodd" d="M69.2 61.816a10 10 0 0 1-.587 1.758q.15-.686 0-1.347.132-.262.293-.059a.5.5 0 0 1 .293-.352" clip-rule="evenodd" opacity=".996"/><path fill="#B7776A" fill-rule="evenodd" d="M72.363 62.871a2.9 2.9 0 0 1-.937-.586q.069-.18.234-.058.398.285.703.644" clip-rule="evenodd" opacity=".22"/><path fill="#A55A56" fill-rule="evenodd" d="M32.871 62.05a1.3 1.3 0 0 1-.586.704q.162-.455.586-.703" clip-rule="evenodd" opacity=".325"/><path fill="#995C56" fill-rule="evenodd" d="M75.293 62.285q.31.135.351.469a.56.56 0 0 1-.351-.469" clip-rule="evenodd" opacity=".325"/><path fill="#8D6863" fill-rule="evenodd" d="M51.035 62.402q.645.527 1.172 1.172a2.82 2.82 0 0 1-1.172-1.172" clip-rule="evenodd" opacity=".11"/><path fill="#77282F" fill-rule="evenodd" d="M41.66 62.168q.218.3.235.703-.313-.262-.235-.703" clip-rule="evenodd" opacity=".89"/><path fill="#947D81" fill-rule="evenodd" d="M35.917 62.754a.35.35 0 0 1-.234.235.28.28 0 0 1 .058-.235q.122-.218.176 0" clip-rule="evenodd" opacity=".01"/><path fill="#886966" fill-rule="evenodd" d="M72.363 62.871q.657.39 1.172.996 1.38.03 2.696.176-1.199-.015-2.462.059a4.25 4.25 0 0 1-1.406-1.23" clip-rule="evenodd" opacity=".2"/><path fill="#A24B47" fill-rule="evenodd" d="M32.168 62.871a.9.9 0 0 1-.469.586.9.9 0 0 1 .469-.586" clip-rule="evenodd" opacity=".302"/><path fill="#80312B" fill-rule="evenodd" d="M41.895 62.871q.218.301.234.703-.313-.261-.234-.703" clip-rule="evenodd" opacity=".855"/><path fill="#63251A" fill-rule="evenodd" d="M66.152 62.988q.08.441-.234.703.017-.402.234-.703" clip-rule="evenodd" opacity=".886"/><path fill="#9B6864" fill-rule="evenodd" d="M31.7 63.457q.012.268-.235.352-.012-.269.235-.352" clip-rule="evenodd" opacity=".302"/><path fill="#8E625D" fill-rule="evenodd" d="M52.207 63.574q.762.645 1.406 1.407a4.04 4.04 0 0 1-1.406-1.407" clip-rule="evenodd" opacity=".361"/><path fill="#8C5D60" fill-rule="evenodd" d="M68.614 63.574q-.076.578-.352 1.055-.01-.614.352-1.055" clip-rule="evenodd" opacity=".224"/><path fill="#B05143" fill-rule="evenodd" d="M34.863 63.691q-.293.41-.703.703.108-.487.059-.937.278.24.644.234" clip-rule="evenodd" opacity=".831"/><path fill="#794545" fill-rule="evenodd" d="M42.129 63.574q.195.37.234.82a1.02 1.02 0 0 1-.234-.82" clip-rule="evenodd" opacity=".525"/><path fill="#421E1C" fill-rule="evenodd" d="M65.919 63.691q.057.48-.234.82-.016-.465.234-.82" clip-rule="evenodd" opacity=".071"/><path fill="#9D4435" fill-rule="evenodd" d="M31.465 63.809a1 1 0 0 1-.059.468q-.382.417-.761.82.279-.736.82-1.288" clip-rule="evenodd" opacity=".478"/><path fill="#894745" fill-rule="evenodd" d="M68.262 64.629q.015.466-.235.82-.09-.507.235-.82" clip-rule="evenodd" opacity=".937"/><path fill="#793D2B" fill-rule="evenodd" d="M42.363 64.394q.218.302.235.704-.313-.263-.235-.704" clip-rule="evenodd" opacity=".878"/><path fill="#C84D39" fill-rule="evenodd" d="M59.121 63.809a33 33 0 0 1-2.344 2.343.8.8 0 0 0-.117-.468q.456-.398 0-.762.707-.07 1.406-.176l.235-.82a.79.79 0 0 0 .703-.352q.14.08.117.235" clip-rule="evenodd"/><path fill="#6D2724" fill-rule="evenodd" d="M65.684 64.512q.078.44-.235.703.017-.402.235-.703" clip-rule="evenodd" opacity=".663"/><path fill="#7C3325" fill-rule="evenodd" d="M68.027 65.45q-.017.4-.235.702-.029-.415.059-.82a.27.27 0 0 0 .176.117" clip-rule="evenodd" opacity=".941"/><path fill="#67211C" fill-rule="evenodd" d="M65.45 65.215q.028.356-.06.703a.27.27 0 0 1-.175.117q.039-.45.234-.82" clip-rule="evenodd" opacity=".906"/><path fill="#8B4540" fill-rule="evenodd" d="M42.597 65.098a7.3 7.3 0 0 1 .469 1.523 2.32 2.32 0 0 1-.469-1.523" clip-rule="evenodd" opacity=".937"/><path fill="#B6473A" fill-rule="evenodd" d="M50.215 65.215q.726-.006.879.703.756.365.996 1.172a21 21 0 0 1-1.875-1.875" clip-rule="evenodd"/><path fill="#923E39" fill-rule="evenodd" d="M76.23 66.035a3.2 3.2 0 0 1 1.524.469q-.645-.08-1.29-.176l.118-.117a.65.65 0 0 1-.351-.176" clip-rule="evenodd" opacity=".941"/><path fill="#874036" fill-rule="evenodd" d="M87.598 66.152h-.352q-.822-.03-1.64.059-1.014.207-1.993.41a6.75 6.75 0 0 1 3.985-.469" clip-rule="evenodd" opacity=".447"/><path fill="#AD5D42" fill-rule="evenodd" d="M87.246 66.152h.352q.577-.014 1.054.234a2.63 2.63 0 0 1-1.406-.234" clip-rule="evenodd" opacity=".471"/><path fill="#95453E" fill-rule="evenodd" d="m73.652 66.035-1.054.469a2.3 2.3 0 0 1-.704.117 3.4 3.4 0 0 1 1.758-.586" clip-rule="evenodd" opacity=".431"/><path fill="#752B2C" fill-rule="evenodd" d="M65.215 66.035q.057.48-.234.82.038-.45.234-.82" clip-rule="evenodd" opacity=".475"/><path fill="#994C42" fill-rule="evenodd" d="M88.652 66.387q.6.1 1.055.469a5.6 5.6 0 0 0-1.289-.293.39.39 0 0 0 .234-.176" clip-rule="evenodd" opacity=".725"/><path fill="#EF3F31" fill-rule="evenodd" d="M76.23 66.035a.65.65 0 0 0 .352.176l-.117.117q.645.096 1.289.176-.194.158 0 .293.4.173.82.293.312.675 1.055.703.218.307.527.586.07-.04.059-.117.23.171.469.351a8.6 8.6 0 0 1 2.93-1.992q.978-.203 1.992-.41a11.5 11.5 0 0 1 1.64-.059q.648.308 1.406.235a.39.39 0 0 1-.234.175 5.6 5.6 0 0 1 1.289.293q.174-.03.234.118.21.336.528.586a.26.26 0 0 1 .175-.118 5.9 5.9 0 0 1 2.344 2.813q-.059.525.352.82.117 0 .117.117-.11.074-.117.235.318 1.622.234 3.281.014.577-.234 1.055a.26.26 0 0 1-.176-.118 4.3 4.3 0 0 0-.293 1.407q.03.174-.117.234-.282.138-.235.469a.82.82 0 0 0-.351.469v.117q-.248.083-.234.351-.32.29-.47.703-.58.699-1.288 1.29a.7.7 0 0 0-.586.234l-.469-.82q-.226.416-.352.879.242.407.235.878h-.352q.134-.687-.468-.468a1.7 1.7 0 0 1-.176-.586q-.082.645-.645.468l-.234.47a6 6 0 0 0-.352-.821l.704-.82q.645-.528 1.171-1.172-.03-.175.117-.235a.77.77 0 0 0 .352-.351v-.117q.535-.426.82-1.055v-.117a.77.77 0 0 0 .352-.586q.434-.195.351-.703.348-.455.352-1.055.63-3.117-1.758-5.156-.082-.247-.351-.235-.39-.491-.938-.351-.117 0-.117-.117a.39.39 0 0 0-.234-.176 11.8 11.8 0 0 0-2.344 0 .65.65 0 0 0-.352.176 7.7 7.7 0 0 0-1.875 1.113 31 31 0 0 1-1.64 1.582q-.01-.096-.118-.117a.93.93 0 0 1-.468.234 2.7 2.7 0 0 1-1.172-.351 12.2 12.2 0 0 0-2.578-2.344q-.634-.573-1.524-.469h-1.171q-.947-.117-1.641.469a.67.67 0 0 0-.586.234l-.235-.234a6 6 0 0 0-.234.703q0 .117-.117.117-.057-.272-.352-.234a.38.38 0 0 1-.234.41l.117.117a.9.9 0 0 1-.586.469.6.6 0 0 1 .118.293q-.221.323-.235.703a.8.8 0 0 0-.586.117l-.351.176q.234.117 0 .234.295.006.527.059-.003.482-.234.937a.52.52 0 0 0-.41-.117v-.351h.468q-.026-.565-.293-.118a1.3 1.3 0 0 0-.527-.468q.103-.693.469-1.29.236.248.293-.117.126.167.292.059a4 4 0 0 0-.468-.293q.22-.264.351-.586.122.093.176.234a.5.5 0 0 0 .117-.585q-.156.244-.175-.059.38-.304.117-.703a.57.57 0 0 1 .586-.293q-.04-.708.41-.235a.52.52 0 0 0 .176-.468.58.58 0 0 1-.352-.059q.41-.175.586-.586a9 9 0 0 0 1.055-.527l1.054-.469a7.2 7.2 0 0 1 2.579 0" clip-rule="evenodd"/><path fill="#6C2219" fill-rule="evenodd" d="M30.059 66.27q.028.355-.059.703a.27.27 0 0 0-.176-.117 1.3 1.3 0 0 1 .235-.587" clip-rule="evenodd" opacity=".894"/><path fill="#E85241" fill-rule="evenodd" d="M56.777 66.152a36 36 0 0 0-1.64 1.817q-.834.817-1.875.293l-.938-1.055q.294.045.528.235.246-.5.527-.118a.7.7 0 0 0-.234.586 1 1 0 0 1 .468.059.4.4 0 0 0-.117.176q.518.202 1.055.058a.5.5 0 0 1-.235-.176q.273-.534.586-1.054.336.15.703.117v-.352h.352q.032-.363.176-.703l.234.235q.11-.607.41-.118" clip-rule="evenodd"/><path fill="#743C35" fill-rule="evenodd" d="M43.067 66.621q.218.301.234.703-.313-.262-.235-.703" clip-rule="evenodd" opacity=".753"/><path fill="#894032" fill-rule="evenodd" d="M32.519 66.973q-.204.614-.469 1.171-.165-.725.469-1.171" clip-rule="evenodd" opacity=".925"/><path fill="#843C33" fill-rule="evenodd" d="M89.941 66.973q.414.147.703.468a.26.26 0 0 0-.175.118 2.2 2.2 0 0 1-.528-.586" clip-rule="evenodd" opacity=".827"/><path fill="#6D261D" fill-rule="evenodd" d="M64.98 66.856q.08.44-.234.703.017-.403.235-.703" clip-rule="evenodd" opacity=".847"/><path fill="#B53D30" fill-rule="evenodd" d="M77.755 66.504a4.14 4.14 0 0 1 1.875 1.289q-.743-.027-1.055-.703a7 7 0 0 1-.82-.293q-.194-.135 0-.293" clip-rule="evenodd"/><path fill="#91473A" fill-rule="evenodd" d="M67.793 66.152a29 29 0 0 1-1.055 3.399.8.8 0 0 0-.117-.469q.47-1.481 1.172-2.93" clip-rule="evenodd" opacity=".941"/><path fill="#C1746E" fill-rule="evenodd" d="M79.629 67.793a.9.9 0 0 1 .586.469q.011.076-.059.117a3.6 3.6 0 0 1-.527-.586" clip-rule="evenodd" opacity=".525"/><path fill="#984639" fill-rule="evenodd" d="M32.05 68.145a15 15 0 0 1-.35 1.289q.044-.6-.118-1.172a.57.57 0 0 1 .469-.117" clip-rule="evenodd"/><path fill="#EF937E" fill-rule="evenodd" d="M74.356 68.496q-.815.192-1.641.469.694-.585 1.64-.469" clip-rule="evenodd" opacity=".945"/><path fill="#EC9280" fill-rule="evenodd" d="M75.527 68.496q.889-.103 1.524.47z" clip-rule="evenodd" opacity=".957"/><path fill="#FFE4E3" fill-rule="evenodd" d="M87.832 68.848a9.5 9.5 0 0 0-2.93 0 .65.65 0 0 1 .352-.176 11.7 11.7 0 0 1 2.344 0 .39.39 0 0 1 .234.176" clip-rule="evenodd" opacity=".037"/><path fill="#E17966" fill-rule="evenodd" d="M72.715 68.965a7.5 7.5 0 0 1-1.055.703 6 6 0 0 1 .234-.703l.235.234a.67.67 0 0 1 .586-.234" clip-rule="evenodd" opacity=".906"/><path fill="#C1928C" fill-rule="evenodd" d="M87.95 68.965q.547-.141.937.351z" clip-rule="evenodd" opacity=".125"/><path fill="#917369" fill-rule="evenodd" d="M88.887 69.316q.269-.012.351.234-.269.013-.351-.234" clip-rule="evenodd" opacity=".114"/><path fill="#271314" fill-rule="evenodd" d="M64.16 69.55q-.105.463-.118.938-.249-.498.117-.937" clip-rule="evenodd" opacity=".052"/><path fill="#BA5546" fill-rule="evenodd" d="M71.543 69.785q-1.603 2-1.29 4.57-.423-1.23 0-2.52-.077-.309-.175.06-.073-.222-.293-.235a.8.8 0 0 1 .586-.117q.015-.382.235-.703a.6.6 0 0 0-.118-.293.9.9 0 0 0 .586-.47l-.117-.116a.38.38 0 0 0 .234-.41q.295-.039.352.234" clip-rule="evenodd"/><path fill="#8A3E35" fill-rule="evenodd" d="M43.652 68.496q.336.773.47 1.64-.016.323-.235.47a8 8 0 0 0-.235-2.11" clip-rule="evenodd" opacity=".937"/><path fill="#8F382E" fill-rule="evenodd" d="M41.426 70.02q.054.586-.469.82.087-.497.469-.82" clip-rule="evenodd" opacity=".969"/><path fill="#7F3D34" fill-rule="evenodd" d="M92.988 70.254q.275.353.351.82-.41-.294-.351-.82" clip-rule="evenodd" opacity=".89"/><path fill="#6F4542" fill-rule="evenodd" d="M93.457 71.191q.376 1.77.117 3.516.085-1.66-.234-3.281.007-.162.117-.235" clip-rule="evenodd" opacity=".647"/><path fill="#200403" fill-rule="evenodd" d="M40.84 71.074q-.15.42-.469.703.065-.486.469-.703" clip-rule="evenodd" opacity=".031"/><path fill="#EC7566" fill-rule="evenodd" d="M79.629 71.309q.534.307 1.172.351a.93.93 0 0 0 .468-.234q.107.021.118.117-.685.644-1.524.117a.9.9 0 0 1-.234-.351" clip-rule="evenodd" opacity=".929"/><path fill="#1E0505" fill-rule="evenodd" d="M40.254 72.012a.77.77 0 0 1-.352.586.77.77 0 0 1 .352-.586" clip-rule="evenodd" opacity=".082"/><path fill="#B05242" fill-rule="evenodd" d="M43.184 72.011q-.599 1.004-1.172 1.993a.8.8 0 0 0-.117-.47.36.36 0 0 1 .351-.116 1 1 0 0 1 .059-.47q.4-.39.527-.937.163-.186.352 0" clip-rule="evenodd" opacity=".925"/><path fill="#1A0303" fill-rule="evenodd" d="M39.785 72.832a1.45 1.45 0 0 1-.469.82q.101-.497.47-.82" clip-rule="evenodd" opacity=".035"/><path fill="#271516" fill-rule="evenodd" d="M39.316 73.77q-.192.445-.468.82.015-.56.468-.82" clip-rule="evenodd" opacity=".027"/><path fill="#833936" fill-rule="evenodd" d="M67.676 73.887q.273.729-.586.703.237-.194.527-.352a.58.58 0 0 0 .059-.351" clip-rule="evenodd" opacity=".714"/><path fill="#1F0505" fill-rule="evenodd" d="m38.73 74.824-.234.469h-.117q.009-.375.352-.469" clip-rule="evenodd" opacity=".086"/><path fill="#1E0504" fill-rule="evenodd" d="M90.996 74.707q-.004.6-.352 1.055.076-.578.352-1.055" clip-rule="evenodd" opacity=".078"/><path fill="#992F22" fill-rule="evenodd" d="M67.09 74.59a.53.53 0 0 1-.234.351q-.514.241-1.055.352a3.45 3.45 0 0 1 1.289-.703" clip-rule="evenodd" opacity=".863"/><path fill="#812A21" fill-rule="evenodd" d="M65.8 75.293q-.172.335-.585.351a.77.77 0 0 1 .586-.351" clip-rule="evenodd" opacity=".784"/><path fill="#1D0403" fill-rule="evenodd" d="M38.262 75.527a.77.77 0 0 1-.352.586.77.77 0 0 1 .352-.586" clip-rule="evenodd" opacity=".039"/><path fill="#383636" fill-rule="evenodd" d="M40.839 75.879h.117a.68.68 0 0 1-.234.469.8.8 0 0 1 .117-.47" clip-rule="evenodd" opacity=".031"/><path fill="#842C25" fill-rule="evenodd" d="M90.645 75.762q.082.508-.352.703.087-.408.351-.703" clip-rule="evenodd" opacity=".835"/><path fill="#894239" fill-rule="evenodd" d="M93.34 75.762a3.2 3.2 0 0 1-.469 1.289q.027-.726.293-1.407a.26.26 0 0 0 .176.118" clip-rule="evenodd" opacity=".945"/><path fill="#3D3736" fill-rule="evenodd" d="M40.606 76.465a1.5 1.5 0 0 1-.352.703.79.79 0 0 1 .352-.703" clip-rule="evenodd" opacity=".051"/><path fill="#1A0605" fill-rule="evenodd" d="M37.91 76.23a2.9 2.9 0 0 1-.586.938q.123-.6.586-.937" clip-rule="evenodd" opacity=".043"/><path fill="#792520" fill-rule="evenodd" d="M63.223 76.7q-.174.335-.586.35a.77.77 0 0 1 .586-.35" clip-rule="evenodd" opacity=".851"/><path fill="#230605" fill-rule="evenodd" d="M90.293 76.465a.77.77 0 0 1-.352.586.77.77 0 0 1 .352-.586" clip-rule="evenodd" opacity=".086"/><path fill="#180505" fill-rule="evenodd" d="M62.285 77.168a.77.77 0 0 1-.586.351.77.77 0 0 1 .586-.351" clip-rule="evenodd" opacity=".051"/><path fill="#3B3030" fill-rule="evenodd" d="M92.753 77.285a.68.68 0 0 1-.234.469q-.048-.33.234-.469M40.019 77.52a.68.68 0 0 1-.235.468q-.047-.33.235-.469" clip-rule="evenodd" opacity=".051"/><path fill="#220706" fill-rule="evenodd" d="M89.941 77.168q-.285.63-.82 1.055.287-.637.82-1.055" clip-rule="evenodd" opacity=".09"/><path fill="#633229" fill-rule="evenodd" d="M37.324 77.285q-.141.44-.468.703.065-.486.468-.703" clip-rule="evenodd" opacity=".859"/><path fill="#36302F" fill-rule="evenodd" d="M92.52 77.754q-.01.375-.352.469a.82.82 0 0 1 .351-.47" clip-rule="evenodd" opacity=".039"/><path fill="#121212" fill-rule="evenodd" d="m39.785 77.988 18.985.235q-9.61.03-19.22-.059a.5.5 0 0 1 .235-.176" clip-rule="evenodd" opacity=".055"/><path fill="#140C0C" fill-rule="evenodd" d="M58.77 78.223q.386-.066.585.234a.67.67 0 0 1-.351-.117q-.174.03-.234-.117" clip-rule="evenodd" opacity=".01"/><path fill="#5D2019" fill-rule="evenodd" d="M60.996 77.871a.94.94 0 0 1-.82.469q.322-.367.82-.469" clip-rule="evenodd" opacity=".894"/><path fill="#210804" fill-rule="evenodd" d="M36.856 78.106q-.15.418-.47.703.066-.487.47-.703" clip-rule="evenodd" opacity=".09"/><path fill="#200B09" fill-rule="evenodd" d="M89.121 78.34a.77.77 0 0 1-.352.351q0-.351.352-.351" clip-rule="evenodd" opacity=".059"/><path fill="#2B0904" fill-rule="evenodd" d="M92.169 78.34q.012.269-.235.351-.012-.268.235-.351" clip-rule="evenodd" opacity=".016"/><path fill="#150707" fill-rule="evenodd" d="M91.934 78.691a.89.89 0 0 1-.47.703q.15-.413.47-.703" clip-rule="evenodd" opacity=".01"/><path fill="#1C0101" fill-rule="evenodd" d="M36.387 78.926q-.272.424-.234.937-.197-.315-.059-.703.074-.22.293-.234" clip-rule="evenodd" opacity=".06"/><path fill="#220605" fill-rule="evenodd" d="M88.652 78.926q-.527.645-1.171 1.172a2.82 2.82 0 0 1 1.171-1.172" clip-rule="evenodd" opacity=".09"/><path fill="#1B0000" fill-rule="evenodd" d="M36.27 80.098q.292.175.468.468-.41-.058-.468-.468" clip-rule="evenodd" opacity=".01"/><path fill="#200605" fill-rule="evenodd" d="m87.48 80.098-.703.82a.67.67 0 0 1-.351.117 3 3 0 0 1 1.055-.937" clip-rule="evenodd" opacity=".09"/><path fill="#A7372B" fill-rule="evenodd" d="m36.386 78.926.059.937q.138.314.41.528l20.039.117q.227.227 0 .41.03-.174-.117-.234H42.363a65 65 0 0 0-5.508-.118h-.117a1.35 1.35 0 0 0-.47-.468q-.146-.06-.116-.235a1.5 1.5 0 0 1 .234-.937" clip-rule="evenodd" opacity=".925"/><path fill="#C8766A" fill-rule="evenodd" d="M36.856 80.566q2.784-.058 5.507.117-2.325.076-4.57.118a1.45 1.45 0 0 1-.937-.235" clip-rule="evenodd" opacity=".288"/><path fill="#EC3F31" fill-rule="evenodd" d="M72.598 66.504q-.495.288-1.055.527a1.08 1.08 0 0 1-.586.586.58.58 0 0 0 .352.059.52.52 0 0 1-.176.468q-.45-.473-.41.235a.57.57 0 0 0-.586.293q.263.399-.118.703.02.303.176.059a.5.5 0 0 1-.117.585.5.5 0 0 0-.176-.234q-.13.322-.351.586.248.13.468.293-.165.108-.292-.058-.057.363-.293.117-.365.596-.47 1.289.333.162.528.469.267-.45.293.117h-.469v.351q.233-.03.41.117.231-.454.235-.937a2.6 2.6 0 0 0-.527-.059q.234-.117 0-.234l.351-.176q.22.014.293.234.098-.368.176-.058-.425 1.288 0 2.52a16.9 16.9 0 0 0 4.102 6.328.9.9 0 0 0 .585.468l.938.82a.58.58 0 0 0 .058.352q.325.097.528.352-.14.322.176.586.086.287.058.586h.352a.83.83 0 0 1 .117-.586q.293.322.703.469.414 1.047-.703.937-.012.987-.469.176.3-.555.938-.586.193-.404-.293-.527a3.6 3.6 0 0 1-.762.585q-.42-.12 0-.351a3.4 3.4 0 0 1-.176-.469.58.58 0 0 0-.058.352h-.47q.058.559-.468.41.21-.115 0-.176-.139.076-.293.117a39 39 0 0 0-1.23-.996q.171-.312-.118-.586a1.14 1.14 0 0 0-.82-.058l-.468-.352a1.83 1.83 0 0 1-.938-.937 3 3 0 0 0-.703-.704q-.148-.06-.117-.234a.77.77 0 0 0-.352-.351q-.147-.06-.117-.235a.77.77 0 0 0-.352-.352v-.117a.35.35 0 0 0-.234-.234q.012-.268-.234-.352.012-.268-.235-.351a25 25 0 0 1-.82-1.465 1.8 1.8 0 0 0-.82.293 1.5 1.5 0 0 0-.703.351q0 .118-.118.118-.595-.069-.82.469h-.703v.351q-.06.147-.234.117a1.73 1.73 0 0 0-1.055.586 1.45 1.45 0 0 0-.82.469l-.47.234a1.45 1.45 0 0 0-.82.469.82.82 0 0 1-.468.234 1.45 1.45 0 0 0-.82.47q-.372.165-.704.41a.49.49 0 0 1-.527-.06l-.879 3.516a6.5 6.5 0 0 1 .234-2.168q-.03-.393-.293-.175a16 16 0 0 0-.175-1.7q.253-.357.703-.293a.5.5 0 0 0 .234.528q.423.143.82-.059a1.92 1.92 0 0 0-.234-1.289 4.6 4.6 0 0 1-.996-.117.63.63 0 0 1-.645.352v-.47q-.555-.004-.586-.585a6.7 6.7 0 0 0-1.757-.117.36.36 0 0 0 .117.351 1.3 1.3 0 0 0 .82.352.58.58 0 0 1-.058.351q-.158-.213-.293 0a.59.59 0 0 0 .468.293 6.6 6.6 0 0 1-1.758 0q.69-.243 0-.41a.6.6 0 0 0-.292.117.5.5 0 0 0-.176-.234.57.57 0 0 0-.117.469.58.58 0 0 1 .351.058 20 20 0 0 1-.937.176 15.6 15.6 0 0 0-2.461-.117q.018-.994-.762-.352l-.117-.234a.51.51 0 0 1-.41.117.57.57 0 0 1 .117-.469q.183.438.293 0 .117.235.234 0 .07-.24.176-.468l-.117-.118q-1.141.012-2.344-.058 5.3-.187 10.547-.293a.67.67 0 0 0 .352.117.65.65 0 0 1 .351.117.8.8 0 0 1 .469-.234.94.94 0 0 0 .82-.469 1.5 1.5 0 0 1 .703-.352.77.77 0 0 0 .586-.351.67.67 0 0 1 .352-.117q.412-.016.586-.352a8 8 0 0 1 1.992-1.055q.412-.015.586-.351a4.7 4.7 0 0 0 1.055-.352.53.53 0 0 0 .234-.351q.859.026.586-.703-.28-3.864 2.695-6.387.7-.555 1.523-.879.363-.002.704-.117" clip-rule="evenodd"/><path fill="#1C0000" fill-rule="evenodd" d="M70.371 79.98a.77.77 0 0 1 .352.352q-.352 0-.352-.351" clip-rule="evenodd" opacity=".01"/><path fill="#1E0D0C" fill-rule="evenodd" d="M62.637 79.863q-.323.367-.82.469.322-.367.82-.469" clip-rule="evenodd" opacity=".055"/><path fill="#1D0603" fill-rule="evenodd" d="M69.902 79.395a.77.77 0 0 1 .352.351q-.352 0-.352-.352" clip-rule="evenodd" opacity=".01"/><path fill="#200F0E" fill-rule="evenodd" d="M63.926 79.16q-.323.367-.82.469.322-.367.82-.469" clip-rule="evenodd" opacity=".051"/><path fill="#210704" fill-rule="evenodd" d="M69.668 79.043a.35.35 0 0 1 .234.234q-.234 0-.234-.234" clip-rule="evenodd" opacity=".01"/><path fill="#290302" fill-rule="evenodd" d="M69.434 78.691q.247.084.235.352-.247-.084-.235-.352" clip-rule="evenodd" opacity=".02"/><path fill="#7B372F" fill-rule="evenodd" d="M64.98 78.574q-.464.39-1.054.586.403-.472 1.055-.586" clip-rule="evenodd" opacity=".91"/><path fill="#190403" fill-rule="evenodd" d="M69.2 78.34q.248.083.234.351-.248-.082-.234-.351" clip-rule="evenodd" opacity=".01"/><path fill="#8F362E" fill-rule="evenodd" d="M65.918 78.106q-.345.174-.703.351v-.351z" clip-rule="evenodd" opacity=".914"/><path fill="#A86D63" fill-rule="evenodd" d="M66.738 77.637a4.2 4.2 0 0 1-.82.468q.225-.536.82-.469" clip-rule="evenodd" opacity=".945"/><path fill="#B4ACA7" fill-rule="evenodd" d="M67.559 77.168a.79.79 0 0 1-.703.351q.294-.264.703-.351" clip-rule="evenodd" opacity=".063"/><path fill="#190D0B" fill-rule="evenodd" d="M91.465 79.395a2.83 2.83 0 0 1-1.29 1.406v-.117q.709-.591 1.29-1.29" clip-rule="evenodd" opacity=".01"/><path fill="#1E0E0D" fill-rule="evenodd" d="M61.348 80.566q-.323.367-.82.47.322-.368.82-.47" clip-rule="evenodd" opacity=".055"/><path fill="#1F0301" fill-rule="evenodd" d="M70.84 80.566q.41.294.703.703a1.06 1.06 0 0 1-.703-.703" clip-rule="evenodd" opacity=".01"/><path fill="#A5534C" fill-rule="evenodd" d="M74.356 80.684a.9.9 0 0 1 .585.468.9.9 0 0 1-.585-.468" clip-rule="evenodd" opacity=".906"/><path fill="#1F0303" fill-rule="evenodd" d="M56.777 80.684q.147.06.117.234l-.234.469a1.4 1.4 0 0 1 .117-.703" clip-rule="evenodd" opacity=".053"/><path fill="#301616" fill-rule="evenodd" d="M86.191 81.27q-.234.352-.585.586a.75.75 0 0 1 .585-.587" clip-rule="evenodd" opacity=".086"/><path fill="#180808" fill-rule="evenodd" d="M89.824 81.27a1.83 1.83 0 0 1-.937.937q.41-.527.937-.937" clip-rule="evenodd" opacity=".01"/><path fill="#1C0000" fill-rule="evenodd" d="m72.48 82.207.47.352v.117q-.41-.06-.47-.469" clip-rule="evenodd" opacity=".01"/><path fill="#C2BBBA" fill-rule="evenodd" d="M67.441 82.441q.434-.199.938-.059.22.075.234.293a2 2 0 0 0-1.172-.234" clip-rule="evenodd" opacity=".073"/><path fill="#EE3F31" fill-rule="evenodd" d="M38.379 75.293h.117q.141.255.176.586.711.318.82-.469.339.144.703.234a.94.94 0 0 1 .645-.234v.469a.8.8 0 0 0-.117.469q-.117 0-.117.117a.79.79 0 0 0-.352.703l-.234.351q-.283.139-.235.47a.5.5 0 0 0-.234.175q9.609.088 19.219.059.06.147.234.117-5.247.105-10.547.293 1.203.071 2.344.058l.117.118q-.105.227-.176.468-.117.235-.234 0-.11.438-.293 0a.57.57 0 0 0-.117.47q.232.029.41-.118l.117.234q.78-.641.762.352a15.6 15.6 0 0 1 2.46.117q.472-.077.938-.176a.58.58 0 0 0-.351-.058.57.57 0 0 1 .117-.47q.121.093.176.235a.6.6 0 0 1 .293-.117q.689.167 0 .41a6.6 6.6 0 0 0 1.757 0 .59.59 0 0 1-.468-.293q.135-.213.293 0a.58.58 0 0 0 .058-.351 1.3 1.3 0 0 1-.82-.352.36.36 0 0 1-.117-.351q.886-.058 1.758.117.03.58.585.586v.469a.63.63 0 0 0 .645-.352q.501.114.996.117.348.624.234 1.29a1.02 1.02 0 0 1-.82.058.5.5 0 0 1-.234-.528q-.45-.064-.703.293.132.843.175 1.7.262-.219.293.175-.3 1.061-.234 2.168-.187 1.334-.586 2.579-.25.354-.234.82h.586q.465-.016.82.234.063.4.352.234l.585.293q-.2.13 0 .294.477.246.938.468a.34.34 0 0 1-.117.293l.351.117q-.334.146-.117.41.34.454.645 0 .162.097.293.235a.96.96 0 0 0-.293.469.5.5 0 0 0-.176-.235q-.185.156-.41.235a.92.92 0 0 0-.645-.235v-.703q-.733-.145-1.347 0a1.36 1.36 0 0 1-.41-.703q-.233.444-.41 0 .004.382-.294.762a1.47 1.47 0 0 1-.82 0q.422-.142-.059-.293a1.37 1.37 0 0 1 .059-.88 2 2 0 0 0-.176-.41 2.5 2.5 0 0 1-.879.47v-.352q-.554-.08-.879.352a7 7 0 0 1-.058-1.29q.653-3.384 1.523-6.68l.235-.468q.225-.183 0-.41l-20.04-.117a1.35 1.35 0 0 1-.41-.528l-.058-.937v-.117q.319-.285.468-.703v-.118q.329-.264.47-.703v-.117q.378-.403.585-.937v-.118a.77.77 0 0 0 .352-.586z" clip-rule="evenodd"/><path fill="#C13D38" fill-rule="evenodd" d="M87.13 83.73a9 9 0 0 1-1.055.938q-.198-.315-.059-.703a.5.5 0 0 0 .176.234.75.75 0 0 0 .293-.586.52.52 0 0 0 .176.235.8.8 0 0 1 .468-.117" clip-rule="evenodd" opacity=".78"/><path fill="#B1463A" fill-rule="evenodd" d="M85.137 85.371q-.477.477-1.055.82.12-.336.176-.702.099.09.234.117a.92.92 0 0 1 .645-.235" clip-rule="evenodd"/><path fill="#EE4334" fill-rule="evenodd" d="M90.177 80.684v.117a.56.56 0 0 1-.352.468 5.3 5.3 0 0 0-.937.938 16.6 16.6 0 0 1-1.758 1.524.8.8 0 0 0-.469.117.52.52 0 0 1-.176-.235.75.75 0 0 1-.293.586.52.52 0 0 1-.175-.234q-.139.389.058.703a4.2 4.2 0 0 1-.937.703.92.92 0 0 0-.645.235.46.46 0 0 1-.234-.118 3.8 3.8 0 0 1-.176.703l-1.172 1.055a.4.4 0 0 0 .117.176q1.881-.123 2.285 1.7.196 1.267-.234 2.46a4.4 4.4 0 0 1-.645.586q-.545.255-1.406.293a1.1 1.1 0 0 1-.234.293l-2.344.82a1.4 1.4 0 0 0-.117-.703q.332-.42.234-.879a.52.52 0 0 0-.468-.176.5.5 0 0 1 .234-.527 1.5 1.5 0 0 0-.586-.058q1.484-.593 3.047-1.055.095-.01.117-.117a4.3 4.3 0 0 0-1.406-.118q-1.768-.03-3.516-.234a26 26 0 0 0-.703-.293q-1.875-.087-3.75-.058a5.66 5.66 0 0 1-3.633-1.7L66.68 84.2q-.34-.711.06-1.406a1.5 1.5 0 0 1 .702-.352q.63-.06 1.172.235a151 151 0 0 0 3.516 3.574q.387.172.703.41a.84.84 0 0 0 .703.234q2.46.147 4.922.176l-2.461-1.757a69 69 0 0 1-3.047-2.637v-.117a1.14 1.14 0 0 1 .82.058q.29.274.118.586.566.437 1.23.996.153-.041.293-.117.21.061 0 .176.525.149.469-.41h.469a.58.58 0 0 1 .058-.352q.07.24.176.469-.42.23 0 .351.411-.236.762-.585.486.123.293.527a1.06 1.06 0 0 0-.938.586q.457.81.469-.176 1.117.109.703-.937a1.7 1.7 0 0 1-.703-.47.83.83 0 0 0-.117.587H76.7q.029-.3-.059-.586-.315-.265-.175-.586a1.03 1.03 0 0 0-.528-.352.58.58 0 0 1-.058-.351 73 73 0 0 0 4.98 3.633 51 51 0 0 1 4.043-3.165.35.35 0 0 0 .235-.234.56.56 0 0 1 .468-.351 2.1 2.1 0 0 0 .586-.587l.235-.234a.67.67 0 0 0 .351-.117q.202.39.352.82l.234-.469q.563.177.645-.468.035.308.175.586.603-.22.47.469h.35a1.65 1.65 0 0 0-.234-.88q.125-.461.352-.878l.469.82a.7.7 0 0 1 .586-.234" clip-rule="evenodd"/><path fill="#D3A8AD" fill-rule="evenodd" d="M72.832 86.66q.402.017.703.234a.84.84 0 0 1-.703-.234" clip-rule="evenodd" opacity=".106"/><path fill="#B8B0AC" fill-rule="evenodd" d="M85.137 82.207a.35.35 0 0 1-.235.234q0-.234.235-.234" clip-rule="evenodd" opacity=".094"/><path fill="#AF7373" fill-rule="evenodd" d="M28.886 87.363q.217.378.352.82-.41-.294-.352-.82" clip-rule="evenodd" opacity=".192"/><path fill="#B69699" fill-rule="evenodd" d="M57.833 87.48q.042.346-.117.645.274.037.468.176H57.6q-.016-.466.234-.82" clip-rule="evenodd" opacity=".082"/><path fill="#E83F31" fill-rule="evenodd" d="M35.215 60.176a1.83 1.83 0 0 0-.586.644q.117.06.235.117-.823.15-.47.88a.36.36 0 0 1-.35-.118q-.357-.678-.587.117.255.371.703.47.53.055.47-.47a.58.58 0 0 0 .35-.058q.29-.847 1.114-.528.319-.162-.059-.292.497.016 1.055-.06-.096.904.703.587-.53.277-.82.586a7.3 7.3 0 0 1-1.055.703q-.054-.218-.176 0a.28.28 0 0 0-.058.234l-.82.703a.94.94 0 0 1-.645-.234q.05.45-.059.937a22 22 0 0 0-1.64 2.579q-.636.446-.469 1.171a.57.57 0 0 0-.469.118q.162.573.117 1.172a762 762 0 0 1-2.52 15.117 15 15 0 0 0-.292 2.812q-.06.525.351.82.302.477.82.704.095.342.47.351.21.288.468.118.758.194 1.524.351.75.309 1.523.117 1.015.163 1.992.352a2.95 2.95 0 0 0 1.641.117l2.11.351q.776.26 1.64.235.507-.054.938.117.837.244 1.757.235h.235a10.7 10.7 0 0 0 3.398.468q.45-.052.82.117 1.31.288 2.696.352 1.348.103 2.695.234.01.096.117.117a.36.36 0 0 0 .117-.351q.39-2.09.938-4.102-.03.647.059 1.29.324-.432.878-.352v.352q.483-.145.88-.47.112.195.175.41-.175.432-.058.88.48.15.058.293.41.117.82 0 .3-.38.293-.762.18.444.41 0 .105.424.41.703.615-.145 1.348 0v.703a.92.92 0 0 1 .645.235q.225-.08.41-.235.122.093.176.235a.96.96 0 0 1 .293-.47 1.3 1.3 0 0 0-.293-.234q-.305.454-.645 0-.217-.264.117-.41l-.351-.117a.34.34 0 0 0 .117-.293.36.36 0 0 1 .352.117 36 36 0 0 1 2.578 2.227.9.9 0 0 0 .586.469q.117 0 .117.117.19.367.586.469.24.415.703.586.255.485.82.585.443.516 1.172.47h.117q.318.116.704.117.582.027 1.054-.235 1.485-.593 3.047-1.055a.7.7 0 0 0 .586-.234q.614.01 1.055-.351.604-.3 1.289-.47a4 4 0 0 0 1.289-.35.4.4 0 0 1 .175.116q.123-.21.294-.351.653-.336 1.406-.469.534-.04.937-.351.3-.03.586.058a.5.5 0 0 0-.234.527.52.52 0 0 1 .469.176q.097.46-.235.88.15.334.117.702-.716.2-1.406.469-.356-.029-.703.059l.117.117a9 9 0 0 0-2.343.82q-1.287.39-2.579.762a3.46 3.46 0 0 1-1.64.586 1.65 1.65 0 0 1-.645-.235q-.087.06-.176.117.205.191.47.293a.39.39 0 0 0-.235.176 9.2 9.2 0 0 1-3.516.586 6.6 6.6 0 0 1-1.64-.527q.058-.06.117-.117a25 25 0 0 0-1.055-.293q-.083-.247-.352-.235t-.351-.234a.56.56 0 0 0-.469-.352.56.56 0 0 0-.469-.351.35.35 0 0 1-.234-.234.56.56 0 0 0-.469-.352.35.35 0 0 1-.234-.235q-.305-.688-1.055-.82a84 84 0 0 1-2.93-2.402 5 5 0 0 0-.937-.41.4.4 0 0 0-.293-.118q-.242.033-.293.235a21.5 21.5 0 0 1-.937 3.867 2.5 2.5 0 0 1-1.641.352q-7.215-.906-14.414-1.875a.65.65 0 0 0-.352-.176 6 6 0 0 0-1.171-.059q-3.95-.398-7.852-1.054a10 10 0 0 1-1.524-.703q-.16.007-.234.117-3.16-1.927-2.637-5.625l2.813-16.641q.188-1.16.644-2.226.109.02.176.117.087-.347.059-.704a4.1 4.1 0 0 1 .586-1.171q.38-.405.761-.82a1 1 0 0 0 .059-.47q.247-.082.234-.351a.9.9 0 0 0 .47-.586q0-.117.116-.117.425-.248.586-.703a7.15 7.15 0 0 1 2.344-1.875" clip-rule="evenodd"/><path fill="#B08E82" fill-rule="evenodd" d="M30.059 88.887q.304.091.468.351-.375-.009-.468-.351" clip-rule="evenodd" opacity=".118"/><path fill="#CD9D98" fill-rule="evenodd" d="M30.527 89.238a.8.8 0 0 1 .47.118q-.258.17-.47-.118" clip-rule="evenodd" opacity=".114"/><path fill="#D75641" fill-rule="evenodd" d="M59.004 88.535q1.177.315 1.875 1.29-.462-.223-.938-.47-.2-.162 0-.293l-.586-.293q-.287.166-.351-.234" clip-rule="evenodd"/><path fill="#88362D" fill-rule="evenodd" d="M73.535 89.355q1.875-.03 3.75.059.372.148.703.293a43 43 0 0 1-4.453-.352" clip-rule="evenodd" opacity=".616"/><path fill="#F1B4B0" fill-rule="evenodd" d="M32.52 89.707q.762.042 1.523.117a2.4 2.4 0 0 1-1.523-.117" clip-rule="evenodd" opacity=".094"/><path fill="#9B847C" fill-rule="evenodd" d="M81.504 89.942q.713-.058 1.406.117-.021.107-.117.117z" clip-rule="evenodd" opacity=".106"/><path fill="#ECB6AA" fill-rule="evenodd" d="M36.035 90.176q.824.03 1.64.117-.827.176-1.64-.117" clip-rule="evenodd" opacity=".098"/><path fill="#E5A79E" fill-rule="evenodd" d="M39.785 90.645q.86.005 1.64.234a4.7 4.7 0 0 1-1.64-.235" clip-rule="evenodd" opacity=".106"/><path fill="#F2A59E" fill-rule="evenodd" d="M42.363 90.997a6 6 0 0 1 1.758.234 6 6 0 0 1-1.758-.234" clip-rule="evenodd" opacity=".106"/><path fill="#9A4C47" fill-rule="evenodd" d="M29.004 91.348q.074-.11.234-.117a10 10 0 0 0 1.524.703 4.7 4.7 0 0 1-1.758-.586" clip-rule="evenodd" opacity=".957"/><path fill="#C47A77" fill-rule="evenodd" d="M79.746 91.23a1.7 1.7 0 0 1-.937.352q.402-.31.937-.351" clip-rule="evenodd" opacity=".149"/><path fill="#E58472" fill-rule="evenodd" d="M44.356 91.23q1.736.14 3.398.47a10.7 10.7 0 0 1-3.398-.47" clip-rule="evenodd" opacity=".941"/><path fill="#F4AEAD" fill-rule="evenodd" d="M48.574 91.816q1.39.032 2.696.352a16 16 0 0 1-2.696-.352" clip-rule="evenodd" opacity=".114"/><path fill="#8F5E51" fill-rule="evenodd" d="M63.809 92.168a.88.88 0 0 1 .585.469.9.9 0 0 1-.585-.469" clip-rule="evenodd" opacity=".545"/><path fill="#1B0D00" fill-rule="evenodd" d="M54.2 92.168a.36.36 0 0 1-.118.351q-.106-.021-.117-.117z" clip-rule="evenodd" opacity=".059"/><path fill="#C7736B" fill-rule="evenodd" d="M77.402 92.05a1.3 1.3 0 0 0-.293.352.4.4 0 0 0-.175-.117q-.618.285-1.29.352a7.8 7.8 0 0 1 1.758-.586" clip-rule="evenodd" opacity=".149"/><path fill="#AF5244" fill-rule="evenodd" d="M84.434 92.168a4.3 4.3 0 0 1-1.641.703v-.117q.135-.119.234-.293.861-.038 1.407-.293" clip-rule="evenodd" opacity=".671"/><path fill="#997D7C" fill-rule="evenodd" d="M64.512 92.754a.88.88 0 0 1 .586.469.88.88 0 0 1-.586-.47" clip-rule="evenodd" opacity=".149"/><path fill="#5A3533" fill-rule="evenodd" d="M38.613 92.989q.589-.03 1.172.058a.65.65 0 0 1 .352.176 8 8 0 0 1-1.524-.234" clip-rule="evenodd" opacity=".024"/><path fill="#E64537" fill-rule="evenodd" d="M13.652 18.574a.68.68 0 0 1-.234.47 2.6 2.6 0 0 1-.469 0q.06.116.117.233a7.5 7.5 0 0 0-.703 3.165l-.234.468a7806 7806 0 0 0-.059 74.063q.06.351.117.703a1 1 0 0 0 .06-.469h.116q.153.39.117.82-.03.531.06 1.055.14.75.644 1.289.454.732.82 1.524-.013.269.234.351.247.084.235.352a.88.88 0 0 0 .468.586q.41.76 1.172 1.172a.35.35 0 0 1 .235.234q.013.22.234.293-.24.428.176.176.247.16.527.234.675.308 1.29.703a.27.27 0 0 1-.118.176q.46.144.938.176.334.052.585.234.332.457.938.352.013.335.352.41.515.167 1.054.176l-.117.703q.574-.012.527.586.201-.492.176-.996 5.885-.05 11.719-.059a.55.55 0 0 1-.234.469q.417.37-.235.41.433.213.938.234-.406.088-.82.059a.51.51 0 0 1-.118.41l.82.059q.49-.013.88-.235a.6.6 0 0 1 .058.352q3.405-.12 6.797.117-9.786-.03-19.57.059 37.06.029 74.062.175-37.325.03-74.648-.058a5.4 5.4 0 0 1-.938-.176q-.51-.314-1.055-.117-.117 0-.117-.117a1.86 1.86 0 0 0-1.172-.352 1.26 1.26 0 0 1-.703-.234 3.2 3.2 0 0 0-1.523-.703.77.77 0 0 0-.586-.352 1.7 1.7 0 0 1-.703-.469q-.084-.248-.352-.234a.56.56 0 0 0-.469-.352q-.117 0-.117-.117a1.8 1.8 0 0 0-.82-.703 1.34 1.34 0 0 1-.469-.469 1.3 1.3 0 0 0-.586-.703 11.06 11.06 0 0 1-2.578-4.805 2.03 2.03 0 0 0-.351-1.406 18 18 0 0 1-.293-2.93q-.119-35.214 0-70.43a15.5 15.5 0 0 1 .82-5.976q.234-.704.644-1.289.282-.138.235-.469.114-.053.234-.117.413.304.938.235a2.3 2.3 0 0 0 .117.937q.277.1.527.117a.29.29 0 0 0 0-.351l-.117.117q-.476-.496-.059-.996-.621-.888.586-.88.186.548.47 1.056a.8.8 0 0 1-.352.175l.117.118a.85.85 0 0 0-.235.761" clip-rule="evenodd"/><path fill="#EE3C2E" fill-rule="evenodd" d="M9.902 22.441q.259 4.657.293 9.375.143.46.176.938a6.5 6.5 0 0 0-.059 1.875q.38-.293.879-.352.145-.636.176-1.289a193 193 0 0 0-.176-9.023q-.283-.144-.235-.469.346-.042.645.117.186 1.722.176 3.457a14772 14772 0 0 0 0 43.653h-.352a1 1 0 0 1-.058.468.4.4 0 0 0-.176-.117 1.16 1.16 0 0 0-.293.586l-.117-.351q-.06.41-.117.82-.13-.201-.293 0a9.8 9.8 0 0 0 0 2.812q-.082.822-.176 1.641-.003 10.38-.235 20.742-.088-37.44-.058-74.883" clip-rule="evenodd"/><path fill="#DC7D71" fill-rule="evenodd" d="M74.356 93.106q-.441.36-1.055.351.477-.276 1.055-.351" clip-rule="evenodd" opacity=".835"/><path fill="#CF8677" fill-rule="evenodd" d="M65.098 93.223q.458.165.703.586a1.3 1.3 0 0 1-.703-.586" clip-rule="evenodd" opacity=".314"/><path fill="#CC928C" fill-rule="evenodd" d="M73.3 93.457a.7.7 0 0 1-.585.235.7.7 0 0 1 .586-.235" clip-rule="evenodd" opacity=".153"/><path fill="#7E6E63" fill-rule="evenodd" d="M82.793 92.754v.117a53 53 0 0 1-3.75 1.29v-.118q.69-.27 1.406-.469z" clip-rule="evenodd" opacity=".02"/><path fill="#AD443D" fill-rule="evenodd" d="M61.582 93.574q.75.132 1.055.82a5.4 5.4 0 0 1-1.055-.82" clip-rule="evenodd" opacity=".949"/><path fill="#B36F60" fill-rule="evenodd" d="M65.8 93.809q.46.226.821.585-.565-.1-.82-.585" clip-rule="evenodd" opacity=".753"/><path fill="#915A54" fill-rule="evenodd" d="M62.871 94.629q.335.042.469.352a.56.56 0 0 1-.469-.352" clip-rule="evenodd" opacity=".392"/><path fill="#D7816F" fill-rule="evenodd" d="M66.621 94.395q.614.203 1.172.468-.73.047-1.172-.469" clip-rule="evenodd" opacity=".953"/><path fill="#EFADA5" fill-rule="evenodd" d="M69.668 94.746a1.94 1.94 0 0 1-1.055.235q-.385-.001-.703-.118.885.016 1.758-.117" clip-rule="evenodd" opacity=".149"/><path fill="#716161" fill-rule="evenodd" d="M56.191 94.746a.81.81 0 0 1-.468.41 2.03 2.03 0 0 1-1.172-.058 2.5 2.5 0 0 0 1.64-.352" clip-rule="evenodd" opacity=".02"/><path fill="#937460" fill-rule="evenodd" d="M63.574 95.215q.335.042.469.351a.56.56 0 0 1-.469-.351" clip-rule="evenodd" opacity=".365"/><path fill="#926C6A" fill-rule="evenodd" d="M64.043 95.566q.335.042.469.352a.56.56 0 0 1-.469-.352" clip-rule="evenodd" opacity=".365"/><path fill="#AB6253" fill-rule="evenodd" d="M79.043 94.043v.117a425 425 0 0 1-7.5 2.579h-.234a.39.39 0 0 1 .234-.176 1.5 1.5 0 0 1-.469-.293l.176-.117q.296.183.644.234a3.46 3.46 0 0 0 1.641-.586 213 213 0 0 0 2.578-.762 9 9 0 0 1 2.344-.82l-.117-.117q.346-.087.703-.059" clip-rule="evenodd" opacity=".961"/><path fill="#95645C" fill-rule="evenodd" d="M64.863 96.152q.269-.013.352.234-.269.013-.352-.234" clip-rule="evenodd" opacity=".341"/><path fill="#9A5547" fill-rule="evenodd" d="M65.215 96.387q.525.132 1.054.293l-.117.117a6.6 6.6 0 0 0 1.641.527v.117a4.44 4.44 0 0 1-2.578-1.054" clip-rule="evenodd" opacity=".949"/><path fill="#937465" fill-rule="evenodd" d="M71.309 96.738h.234a7 7 0 0 1-3.75.703v-.117a9.2 9.2 0 0 0 3.516-.586" clip-rule="evenodd" opacity=".012"/><path fill="#682319" fill-rule="evenodd" d="M107.402 98.262q.09.507-.234.82.039-.45.234-.82" clip-rule="evenodd" opacity=".847"/><path fill="#7A2722" fill-rule="evenodd" d="M10.02 98.496q.43.617.351 1.406a4.7 4.7 0 0 1-.351-1.406" clip-rule="evenodd" opacity=".937"/><path fill="#782C26" fill-rule="evenodd" d="M109.745 99.434a1.26 1.26 0 0 1-.234.703 3 3 0 0 1 .059-.82.26.26 0 0 0 .175.117" clip-rule="evenodd" opacity=".941"/><path fill="#8A3A2F" fill-rule="evenodd" d="M12.48 98.027q.348 1.156.703 2.344-.504-.54-.644-1.289a4.8 4.8 0 0 1-.06-1.055" clip-rule="evenodd" opacity=".882"/><path fill="#8F4030" fill-rule="evenodd" d="M109.511 100.254a1.34 1.34 0 0 1-.234.586q-.029-.415.058-.82a.4.4 0 0 0 .176.234" clip-rule="evenodd" opacity=".941"/><path fill="#872B24" fill-rule="evenodd" d="M106.933 99.902q.074.402-.235.586a.7.7 0 0 1 .235-.586" clip-rule="evenodd" opacity=".922"/><path fill="#4F372E" fill-rule="evenodd" d="M14.005 101.895q.246.083.234.351-.247-.083-.235-.351" clip-rule="evenodd" opacity=".043"/><path fill="#9B7371" fill-rule="evenodd" d="M14.473 102.598q.366.19.468.586a.89.89 0 0 1-.468-.586" clip-rule="evenodd" opacity=".329"/><path fill="#AD4A3A" fill-rule="evenodd" d="M108.691 102.129a4.4 4.4 0 0 1-.586 1.055.52.52 0 0 0-.117-.411.63.63 0 0 0 .352-.644z" clip-rule="evenodd" opacity=".929"/><path fill="#8D5750" fill-rule="evenodd" d="M14.941 103.184q.644.527 1.172 1.171a2.82 2.82 0 0 1-1.172-1.171" clip-rule="evenodd" opacity=".353"/><path fill="#B66E61" fill-rule="evenodd" d="M104.004 104.238a1.3 1.3 0 0 1-.703.586q.248-.424.703-.586" clip-rule="evenodd" opacity=".38"/><path fill="#945B54" fill-rule="evenodd" d="M12.95 104.707q.414.24.585.703a1.3 1.3 0 0 1-.586-.703" clip-rule="evenodd" opacity=".788"/><path fill="#AF4D42" fill-rule="evenodd" d="M16.348 104.59q.533.267.937.703a1.8 1.8 0 0 1-.527-.234q-.416.253-.176-.176-.22-.074-.234-.293" clip-rule="evenodd"/><path fill="#80534B" fill-rule="evenodd" d="M14.004 105.879q.514.221.82.703a1.8 1.8 0 0 1-.82-.703" clip-rule="evenodd" opacity=".173"/><path fill="#8D4135" fill-rule="evenodd" d="M18.574 105.996q.443.135.82.352a4 4 0 0 1-.937-.176.27.27 0 0 0 .117-.176" clip-rule="evenodd" opacity=".451"/><path fill="#C75747" fill-rule="evenodd" d="M105.527 106.23a10 10 0 0 1-3.047 1.993q.28-.435.821-.528.294-.264.351-.644.988.025 1.231-.938.299.159.644.117" clip-rule="evenodd"/><path fill="#A75448" fill-rule="evenodd" d="M101.191 106.113q-.386.376-.937.528-.288.087-.586.058a14 14 0 0 1 1.523-.586" clip-rule="evenodd" opacity=".443"/><path fill="#875F56" fill-rule="evenodd" d="M14.941 106.699q.335.042.47.352a.55.55 0 0 1-.47-.352" clip-rule="evenodd" opacity=".153"/><path fill="#934C46" fill-rule="evenodd" d="M19.98 106.582q.906.211 1.758.469a1.8 1.8 0 0 1-.82-.117q-.606.105-.937-.352" clip-rule="evenodd" opacity=".478"/><path fill="#733734" fill-rule="evenodd" d="M99.668 106.699q-.63.392-1.406.352a7.3 7.3 0 0 1 1.406-.352" clip-rule="evenodd" opacity=".451"/><path fill="#EB382B" fill-rule="evenodd" d="M109.746 82.91q-.029 7.031.059 14.063.032.445.175.82v.351q.015.675-.234 1.29a.27.27 0 0 1-.176-.118q-.087.406-.058.821v.117a.4.4 0 0 1-.176-.234q-.087.406-.059.82a3.2 3.2 0 0 1-.586 1.289h-.351a.63.63 0 0 1-.352.644.52.52 0 0 1 .117.411 9.6 9.6 0 0 1-2.578 3.046 1.07 1.07 0 0 1-.644-.117q-.243.963-1.231.938a1.05 1.05 0 0 1-.351.644 1.16 1.16 0 0 0-.821.528q-.06.147-.234.117a4.2 4.2 0 0 0-1.758.703q-.454-.084-.703.234h-.117a2.2 2.2 0 0 0-.703.059.26.26 0 0 0-.117.176l-1.641.351a23414 23414 0 0 0-74.062-.175q9.784-.089 19.57-.059h.234q26.31.029 52.617-.059l-5.742-.117a1.47 1.47 0 0 1-.879-.293q-.175.47-.351 0l-.235.235a6 6 0 0 0-.234-.821q-.478.166-.996.117-.03.233.117.411a1.7 1.7 0 0 0-.762.058.96.96 0 0 1-.293-.703 2 2 0 0 0-.937.117l.469.235-.41.117a4 4 0 0 0-.997-.235.384.384 0 0 0 .235.411.4.4 0 0 0-.117.175 2.9 2.9 0 0 1-1.407.059 3 3 0 0 0 .176-.762l.117.703a10 10 0 0 0 .059-1.523q6.973.058 13.945-.117-37.678-.117-73.945-.235 36.563.03 73.125-.058.504-.033.937-.176.39-.153.82-.117.78.04 1.407-.352.299.029.586-.058.551-.152.937-.528l2.11-1.289a1.3 1.3 0 0 0 .703-.586 15.9 15.9 0 0 0 2.695-3.75q.309-.184.235-.586.038-.45.234-.82.324-.313.234-.82a1.13 1.13 0 0 1 .118-.703q.19-.45.351-.938l.234-.117h.352q.015-1.347 0-2.695l.117-.352a.67.67 0 0 0 .586.234v-1.875h.352v-1.875h-.352q.054-1.65-.117-3.28l.176-.118q.202.353.41.059a125 125 0 0 1 0-2.871q-.938-.06 0-.118a1.12 1.12 0 0 1 .117-.703" clip-rule="evenodd"/><path fill="#8E6969" fill-rule="evenodd" d="M15.41 107.05q.269-.012.352.235-.269.012-.352-.235" clip-rule="evenodd" opacity=".149"/><path fill="#AF7776" fill-rule="evenodd" d="M22.441 107.168h75q-.433.144-.937.176-36.562.088-73.125.058z" clip-rule="evenodd" opacity=".42"/><path fill="#F04233" fill-rule="evenodd" d="M20.918 106.934q.39.151.82.117a1.4 1.4 0 0 1 .703.117l.938.234q36.267.118 73.945.235-6.972.175-13.945.117-6.95.045-13.945.117-.096.645-.118-.117a381 381 0 0 0-13.359.117q.255.373.234.82h-.468v.469a1 1 0 0 1 .468.059 5.8 5.8 0 0 1-2.343-.176q-.027-.565-.293-.117-.51-1.144-.47.234l-.116-.703a.5.5 0 0 1-.176.234q-.274-.912-.352 0-1.235.01-.234.704l-9.258.234h-.234a65 65 0 0 0-6.797-.117.6.6 0 0 0-.059-.352q-.389.222-.879.235l-.82-.059a.51.51 0 0 0 .117-.41q.415.028.82-.059a2.3 2.3 0 0 1-.937-.234q.652-.04.235-.41a.55.55 0 0 0 .234-.469q-5.835.009-11.719.058.025.505-.176.997.047-.598-.527-.586l.117-.703a3.6 3.6 0 0 1-1.055-.176q-.337-.075-.351-.41" clip-rule="evenodd"/><path fill="#F23F31" fill-rule="evenodd" d="M83.379 107.754q.03.764-.059 1.523l-.117-.703a3 3 0 0 1-.176.762q.711.145 1.407-.059a.4.4 0 0 1 .117-.175.384.384 0 0 1-.235-.411q.51.05.996.235l.41-.117-.468-.235q.454-.172.937-.117 0 .41.293.703.368-.114.762-.058a.52.52 0 0 1-.117-.411q.517.05.996-.117.144.402.234.821l.235-.235q.175.47.351 0 .38.285.88.293l5.741.117q-26.308.088-52.617.059l9.258-.234q-1.002-.695.234-.704.079-.912.352 0a.5.5 0 0 0 .176-.234l.117.703q-.042-1.378.469-.234.266-.449.293.117a5.8 5.8 0 0 0 2.343.176 1 1 0 0 0-.468-.059v-.469h.468a1.3 1.3 0 0 0-.234-.82q6.68-.176 13.36-.117.021.762.117.117 6.993-.072 13.945-.117" clip-rule="evenodd"/><path fill="#AE8078" fill-rule="evenodd" d="M16.465 107.754q.382.043.586.351a.77.77 0 0 1-.586-.351" clip-rule="evenodd" opacity=".141"/><path fill="#C58075" fill-rule="evenodd" d="M17.05 108.105q.861.15 1.524.704a4.5 4.5 0 0 1-1.523-.704" clip-rule="evenodd" opacity=".114"/><path fill="#CD8475" fill-rule="evenodd" d="M102.246 108.34a5.8 5.8 0 0 1-1.758.703 4.2 4.2 0 0 1 1.758-.703" clip-rule="evenodd" opacity=".09"/><path fill="#D07F77" fill-rule="evenodd" d="M100.488 109.043a1.26 1.26 0 0 1-.703.234q.25-.318.703-.234" clip-rule="evenodd" opacity=".91"/><path fill="#D59F96" fill-rule="evenodd" d="M19.277 109.043a1.86 1.86 0 0 1 1.172.351 2.6 2.6 0 0 1-1.172-.351" clip-rule="evenodd" opacity=".098"/><path fill="#D78379" fill-rule="evenodd" d="M99.668 109.278q-.355.249-.82.234a.27.27 0 0 1 .117-.176q.346-.087.703-.058" clip-rule="evenodd" opacity=".878"/><path fill="#FFB5AE" fill-rule="evenodd" d="M20.566 109.511a1.16 1.16 0 0 1 1.055.118 12 12 0 0 1-1.055-.118" clip-rule="evenodd" opacity=".098"/></svg>