<svg xmlns="http://www.w3.org/2000/svg" width="120" height="120" fill="none"><path fill="#FEC9C8" fill-rule="evenodd" d="M22.793 10.137q36.885-.204 73.828-.058a8.6 8.6 0 0 1 2.578.41q-1.338-.214-2.695-.293-36.797-.088-73.594-.059z" clip-rule="evenodd" opacity=".094"/><path fill="#E93D2F" fill-rule="evenodd" d="M22.91 10.136q36.797-.03 73.594.059 1.357.078 2.695.293a.8.8 0 0 1 .586.117q.554.264 1.172.469.106-.023.117-.117.57.168 1.055.468.139.159.351.235.228-.043.352.117.513.435 1.172.703.174-.03.234.117-.077-.011-.117.059.393.307.82.527a.83.83 0 0 1 .352.235.75.75 0 0 0 .586.585q.528.761 1.172 1.407.255.65.82 1.054.499.645.82 1.407-.059.526.352.82.252.225.234.586-.078.44.235.703-.058.48.234.82.302.954.41 1.992.088 32.052.059 64.102h-.117a.65.65 0 0 0-.176.352l-.117-.235-.176-52.148a1.72 1.72 0 0 1-1.113-.352l-.118-5.156-.117-.117-.117 2.93q-.03 32.226-.176 64.453-.316 2.53-.351-.118.234-18.222.234-36.562l-.059-36.563a.26.26 0 0 1-.175.118 17 17 0 0 1-.235-1.641 3 3 0 0 0-.117-1.172 4 4 0 0 0-.234-.234 5.6 5.6 0 0 1-.586-1.407 6 6 0 0 0-.117-.82h-.352a23 23 0 0 1-1.113-1.523 33 33 0 0 0-1.699-1.64q-.084-.249-.352-.235a.82.82 0 0 1-.469-.352 1.07 1.07 0 0 0-.586-.527 1 1 0 0 0-.468-.059.7.7 0 0 1-.586-.234q-.828-.782-1.992-.703a2.9 2.9 0 0 1-.938-.117.65.65 0 0 0-.352-.176 7 7 0 0 0-1.289-.059q-36.299-.146-72.656-.176a8 8 0 0 0 1.64-.234q-1.568-.068-3.163-.176v-.351h.937a.67.67 0 0 1 .235-.586 3.3 3.3 0 0 0-1.055-.41q.383-.212.82-.176z" clip-rule="evenodd"/><path fill="#CAA49D" fill-rule="evenodd" d="M99.785 10.606q.677.069 1.289.351-.01.096-.117.117a10 10 0 0 1-1.172-.469" clip-rule="evenodd" opacity=".11"/><path fill="#FFDEAD" fill-rule="evenodd" d="M102.129 11.426q.295-.038.351.234a.8.8 0 0 1-.351-.235" clip-rule="evenodd" opacity=".133"/><path fill="#DD818A" fill-rule="evenodd" d="M102.832 11.777q.704.176 1.172.704a4.3 4.3 0 0 1-1.172-.704" clip-rule="evenodd" opacity=".137"/><path fill="#967979" fill-rule="evenodd" d="M23.145 12.715q-.966.165-1.993.235.195-.139.47-.176a10 10 0 0 1 1.523-.059" clip-rule="evenodd" opacity=".082"/><path fill="#5E3130" fill-rule="evenodd" d="M23.379 12.715q36.357-.175 72.773-.117.647-.03 1.29.058a.65.65 0 0 1 .351.176q-37.205-.174-74.414-.117" clip-rule="evenodd" opacity=".027"/><path fill="#8A6F6E" fill-rule="evenodd" d="M104.238 12.597q.456.162.703.586a5 5 0 0 1-.82-.527q.04-.07.117-.059" clip-rule="evenodd" opacity=".11"/><path fill="#A54743" fill-rule="evenodd" d="M98.73 12.95q1.165-.08 1.993.703z" clip-rule="evenodd" opacity=".973"/><path fill="#955446" fill-rule="evenodd" d="M20.332 13.184q-1.08.51-2.227.937.129-.213.352-.351.587-.105 1.055-.469.394-.171.82-.117" clip-rule="evenodd" opacity=".604"/><path fill="#A07D81" fill-rule="evenodd" d="M14.707 13.418a.77.77 0 0 1-.352.352q0-.352.352-.352" clip-rule="evenodd" opacity=".141"/><path fill="#77534B" fill-rule="evenodd" d="M105.293 13.418q.352.235.586.586a.75.75 0 0 1-.586-.586" clip-rule="evenodd" opacity=".149"/><path fill="#A65247" fill-rule="evenodd" d="M101.309 13.887a1 1 0 0 1 .468.058q.399.157.586.527a4.6 4.6 0 0 1-1.054-.585" clip-rule="evenodd" opacity=".424"/><path fill="#824E49" fill-rule="evenodd" d="M105.879 14.004q.783.548 1.172 1.406-.644-.645-1.172-1.406" clip-rule="evenodd" opacity=".165"/><path fill="#9F5F52" fill-rule="evenodd" d="M13.535 14.473a.9.9 0 0 1-.469.586.9.9 0 0 1 .47-.586" clip-rule="evenodd" opacity=".169"/><path fill="#A35A49" fill-rule="evenodd" d="M17.05 14.824a.82.82 0 0 1-.468.352v-.352z" clip-rule="evenodd" opacity=".443"/><path fill="#946D62" fill-rule="evenodd" d="M102.832 14.824q.268-.013.352.234-.269.013-.352-.234" clip-rule="evenodd" opacity=".271"/><path fill="#BC5442" fill-rule="evenodd" d="m15.996 15.645-1.172 1.289a.62.62 0 0 1 .293-.47q.087-.346.059-.702a.85.85 0 0 0 .527-.235q.159.043.293.118" clip-rule="evenodd"/><path fill="#994B3F" fill-rule="evenodd" d="M107.051 15.41q.537.43.82 1.055a2.3 2.3 0 0 1-.82-1.055" clip-rule="evenodd" opacity=".953"/><path fill="#AC4A3C" fill-rule="evenodd" d="M12.129 16.348q-.144.67-.703 1.054.221-.62.703-1.054" clip-rule="evenodd" opacity=".937"/><path fill="#91524E" fill-rule="evenodd" d="M11.426 17.402a.79.79 0 0 1-.352.703q.087-.407.352-.703" clip-rule="evenodd" opacity=".224"/><path fill="#94605E" fill-rule="evenodd" d="M108.691 17.871q.217.378.352.82-.41-.294-.352-.82" clip-rule="evenodd" opacity=".373"/><path fill="#AB362F" fill-rule="evenodd" d="M105.996 18.223h.352q.086.405.117.82a1.45 1.45 0 0 1-.469-.82" clip-rule="evenodd" opacity=".961"/><path fill="#A7473D" fill-rule="evenodd" d="m14.356 17.52-.997 1.757q-.391 1.014-.761 1.992.03-1.115.586-2.05a.4.4 0 0 1-.118-.176q.137-.213.293 0 .095-.533.235-1.055a.4.4 0 0 0 .176.117q.184-.412.585-.585" clip-rule="evenodd" opacity=".996"/><path fill="#723A38" fill-rule="evenodd" d="M109.277 19.277q.219.302.235.703-.313-.261-.235-.703" clip-rule="evenodd" opacity=".788"/><path fill="#61201A" fill-rule="evenodd" d="M10.371 19.863q.084.454-.234.703.016-.401.234-.703" clip-rule="evenodd" opacity=".757"/><path fill="#744647" fill-rule="evenodd" d="M109.513 19.98q.196.37.235.82a1.02 1.02 0 0 1-.235-.82" clip-rule="evenodd" opacity=".349"/><path fill="#89382E" fill-rule="evenodd" d="M107.051 20.45q.114.103.234.234.174.574.117 1.171a9 9 0 0 1-.351-1.406" clip-rule="evenodd" opacity=".914"/><path fill="#AB5A4F" fill-rule="evenodd" d="M63.926 22.09h-8.32a25.4 25.4 0 0 1 3.984-.235q2.203-.03 4.336.235" clip-rule="evenodd" opacity=".294"/><path fill="#BB5C52" fill-rule="evenodd" d="M62.52 22.09h1.406q1.487.004 2.93.351v.118q-2.16-.25-4.336-.47" clip-rule="evenodd" opacity=".314"/><path fill="#A0453A" fill-rule="evenodd" d="M53.73 22.324q-1.57.576-3.28.703 1.56-.607 3.28-.703" clip-rule="evenodd" opacity=".945"/><path fill="#925C54" fill-rule="evenodd" d="M66.856 22.441q1.757.258 3.398.82h-.235a14 14 0 0 1-3.163-.702z" clip-rule="evenodd" opacity=".894"/><path fill="#A24E45" fill-rule="evenodd" d="M70.02 23.262h.234q.466-.016.82.234-.617.098-1.055-.234" clip-rule="evenodd" opacity=".871"/><path fill="#A75750" fill-rule="evenodd" d="M49.512 23.262q-.045.242-.469.293-.523.122-1.055.175.723-.313 1.524-.468" clip-rule="evenodd" opacity=".357"/><path fill="#9E5A53" fill-rule="evenodd" d="M71.074 23.496q1.26.205 2.344.82a14 14 0 0 1-1.64-.527l-1.055-.117a.65.65 0 0 0 .351-.176" clip-rule="evenodd" opacity=".965"/><path fill="#AA7472" fill-rule="evenodd" d="M47.988 23.73a6 6 0 0 1-1.523.586 3.6 3.6 0 0 1 1.523-.585" clip-rule="evenodd" opacity=".18"/><path fill="#BF6559" fill-rule="evenodd" d="M46.465 24.316q-.625.255-1.172.704-.523.15-1.055.234a6.5 6.5 0 0 1 2.227-.938" clip-rule="evenodd" opacity=".955"/><path fill="#9D8385" fill-rule="evenodd" d="M75.293 25.02q.434.045.703.35a2.4 2.4 0 0 1-.586-.116.39.39 0 0 0-.234-.176q.04-.07.117-.059" clip-rule="evenodd" opacity=".114"/><path fill="#C8938F" fill-rule="evenodd" d="M44.238 25.254a.7.7 0 0 1-.586.234.7.7 0 0 1 .586-.234" clip-rule="evenodd" opacity=".365"/><path fill="#B34A3F" fill-rule="evenodd" d="M75.41 25.254q.285.094.586.117.525.145.938.469a.87.87 0 0 0-.528 0 4.3 4.3 0 0 0-.996-.586" clip-rule="evenodd" opacity=".89"/><path fill="#9E5C54" fill-rule="evenodd" d="M41.543 26.543a2.9 2.9 0 0 1-.937.586q.348-.469.937-.586" clip-rule="evenodd" opacity=".314"/><path fill="#AF7F7E" fill-rule="evenodd" d="M40.371 27.246q-.082.247-.352.234.084-.247.352-.234" clip-rule="evenodd" opacity=".224"/><path fill="#EB4739" fill-rule="evenodd" d="M55.604 22.09h6.914q2.175.219 4.336.469 1.51.528 3.164.703.437.332 1.055.234a.65.65 0 0 1-.352.176l1.055.117q.807.317 1.64.527a9.8 9.8 0 0 1 1.875.704q-.077-.012-.117.058a.39.39 0 0 1 .234.176q.53.22.997.586a.87.87 0 0 1 .527 0 3 3 0 0 1 1.406.703q.29.25.528.586.292-.148.058.176.64.174 1.29.293a23 23 0 0 1 3.163 2.226.9.9 0 0 0 .586.469 21 21 0 0 1 2.813 2.46q.665.733.351-.233a6.6 6.6 0 0 1-.234-3.165l.234-.234q.382-.27.88-.234.628.036 1.112.351.186.194.293.469.543 3.267.88 6.563 0 .56-.118 1.054a.83.83 0 0 0-.234.703h-.352a.7.7 0 0 1-.234.586h-.352a12.5 12.5 0 0 0-2.343-.117 7.8 7.8 0 0 1-2.93-.586 18 18 0 0 0-2.344-.937q-.881-.472-.586-1.407.217-.257.352-.586a.5.5 0 0 1 .351-.292 4.53 4.53 0 0 1 2.344.292q.249.318.703.235.37.195.82.234.194.193.47.059a.5.5 0 0 0-.235-.176h-.117a42 42 0 0 0-6.563-5.156q-.167-.637-.82-.586a.7.7 0 0 1-.586-.235q-.083-.246-.352-.234a1.04 1.04 0 0 0-.703-.351 2.76 2.76 0 0 0-1.523-.704.68.68 0 0 0-.469-.234.7.7 0 0 0-.586-.234q-.226.04-.352-.117-.338-.316-.82-.352a.5.5 0 0 0-.351-.293 20 20 0 0 0-.938-.176 1.25 1.25 0 0 0-.937-.351 2.4 2.4 0 0 1-.586-.118 25 25 0 0 0-2.344-.761 65 65 0 0 1-3.75-.528 2.2 2.2 0 0 0-.703-.175 47 47 0 0 0-5.742.058q-.968.066-1.875.235a5.9 5.9 0 0 0-1.992.351q0 .117-.118.117a2.07 2.07 0 0 0-1.64.235q0 .117-.117.117-.368-.173-.704.117a.54.54 0 0 1-.468.117 3.54 3.54 0 0 0-1.641.469q-.831.429-1.758.703-.606-.105-.937.352-.06.147-.235.117-.56.015-.82.469h-.117q-.834.008-1.407.585a80 80 0 0 0-4.453 2.813.68.68 0 0 1-.644-.234q-.879 1.04-1.348-.235a.79.79 0 0 0-.351.703h-.704a.57.57 0 0 1-.117.47q-.456-.64.117-1.114-.282-.116-.41.176a.58.58 0 0 1-.058-.352q.543-.375.937-.937a.35.35 0 0 1 .235-.235q.413-.147.703-.469a12 12 0 0 1 2.578-1.875q.268.013.352-.234.06-.147.234-.117.53-.205.937-.586a9 9 0 0 1 2.11-1.055.7.7 0 0 0 .586-.234 9 9 0 0 0 1.054-.235 4.6 4.6 0 0 1 1.172-.703 6 6 0 0 0 1.524-.585 8 8 0 0 0 1.054-.176q.425-.051.47-.293.42-.223.937-.235 1.71-.128 3.28-.703a7.8 7.8 0 0 1 1.876-.234" clip-rule="evenodd"/><path fill="#BEA7A0" fill-rule="evenodd" d="M72.715 27.129q.481.036.82.351a1.3 1.3 0 0 1-.82-.351" clip-rule="evenodd" opacity=".047"/><path fill="#D37364" fill-rule="evenodd" d="M47.05 27.246a1.7 1.7 0 0 1-.937.352q.332-.457.938-.352" clip-rule="evenodd" opacity=".867"/><path fill="#7A2622" fill-rule="evenodd" d="M59.473 27.012q.704-.276 1.289.234a8 8 0 0 1-1.29-.234" clip-rule="evenodd" opacity=".482"/><path fill="#CD7D6E" fill-rule="evenodd" d="M71.426 26.66q.469.076.937.176a.5.5 0 0 1 .352.293 3.3 3.3 0 0 1-1.29-.469" clip-rule="evenodd" opacity=".894"/><path fill="#B48387" fill-rule="evenodd" d="M70.488 26.308q.555-.015.938.352a2.5 2.5 0 0 1-.938-.352" clip-rule="evenodd" opacity=".118"/><path fill="#D5A09D" fill-rule="evenodd" d="M50.45 26.074a6.4 6.4 0 0 1-1.641.469 3.54 3.54 0 0 1 1.64-.469" clip-rule="evenodd" opacity=".125"/><path fill="#D4AEAE" fill-rule="evenodd" d="M51.621 25.84a2.3 2.3 0 0 1-.703.117q.334-.29.703-.117" clip-rule="evenodd" opacity=".141"/><path fill="#DB8B8C" fill-rule="evenodd" d="M53.379 25.489q-.818.134-1.64.234a2.07 2.07 0 0 1 1.64-.234" clip-rule="evenodd" opacity=".145"/><path fill="#C2948D" fill-rule="evenodd" d="M63.34 24.902h.469a65 65 0 0 0 3.75.528 25 25 0 0 1 2.343.761 19 19 0 0 1-2.46-.644 90 90 0 0 1-4.102-.645" clip-rule="evenodd" opacity=".157"/><path fill="#E7C1C0" fill-rule="evenodd" d="M55.488 25.02q-.957.267-1.992.351a5.9 5.9 0 0 1 1.992-.351" clip-rule="evenodd" opacity=".149"/><path fill="#CEA59E" fill-rule="evenodd" d="M57.363 24.785q1.79-.059 3.516.117a96 96 0 0 0-5.39.117q.906-.168 1.874-.234" clip-rule="evenodd" opacity=".153"/><path fill="#E56C5F" fill-rule="evenodd" d="M57.363 24.785a47 47 0 0 1 5.743-.058q.388.033.703.175h-2.93a26.5 26.5 0 0 0-3.516-.117" clip-rule="evenodd" opacity=".259"/><path fill="#B0473C" fill-rule="evenodd" d="M78.34 26.543q.989.435 1.875 1.055a15 15 0 0 1-1.29-.293q.235-.323-.058-.176a3.3 3.3 0 0 0-.527-.586" clip-rule="evenodd" opacity=".914"/><path fill="#270403" fill-rule="evenodd" d="M59.005 27.363a.8.8 0 0 1-.235.352q-.038-.295.235-.352" clip-rule="evenodd" opacity=".024"/><path fill="#E54637" fill-rule="evenodd" d="M59.473 27.012q.632.169 1.289.234.037.25.175.469.188 2.718-.175 5.39-.14.283-.469.235a5.8 5.8 0 0 1-1.29-.235 1.14 1.14 0 0 1-.292-.585 90 90 0 0 0-.176-1.524 49 49 0 0 1 .235-3.281.8.8 0 0 0 .234-.352.56.56 0 0 1 .469-.351" clip-rule="evenodd"/><path fill="#CDA199" fill-rule="evenodd" d="M73.887 27.598a.7.7 0 0 1 .586.234.7.7 0 0 1-.586-.234" clip-rule="evenodd" opacity=".114"/><path fill="#A68386" fill-rule="evenodd" d="M45.879 27.715q-.375.276-.82.469.26-.455.82-.47" clip-rule="evenodd" opacity=".098"/><path fill="#E0C6A9" fill-rule="evenodd" d="M74.473 27.832q.29.029.468.234-.33.048-.468-.234" clip-rule="evenodd" opacity=".114"/><path fill="#C27467" fill-rule="evenodd" d="M44.941 28.184a5.6 5.6 0 0 1-1.406.585q.572-.578 1.406-.585" clip-rule="evenodd" opacity=".914"/><path fill="#CF9893" fill-rule="evenodd" d="M74.941 28.066a2.76 2.76 0 0 1 1.524.704 14 14 0 0 1-1.524-.704" clip-rule="evenodd" opacity=".125"/><path fill="#C68D7D" fill-rule="evenodd" d="M76.465 28.77q.433.045.703.351a1.04 1.04 0 0 1-.703-.351" clip-rule="evenodd" opacity=".149"/><path fill="#7A261F" fill-rule="evenodd" d="M60.762 27.246a.82.82 0 0 1 .41.469 30.5 30.5 0 0 1 0 4.922q-.087.36-.41.468.363-2.672.175-5.39a1.2 1.2 0 0 1-.175-.469" clip-rule="evenodd" opacity=".937"/><path fill="#9A4E4A" fill-rule="evenodd" d="M89.121 29.238a2.24 2.24 0 0 0-1.113-.351 1.32 1.32 0 0 0-.88.234v-.117q.372-.38.938-.352.714-.024 1.055.586" clip-rule="evenodd" opacity=".918"/><path fill="#C6A294" fill-rule="evenodd" d="M77.168 29.12q.269-.012.351.235-.268.013-.351-.234" clip-rule="evenodd" opacity=".125"/><path fill="#270B0B" fill-rule="evenodd" d="M87.13 29.004v.117l-.235.235q-.038-.296.235-.352" clip-rule="evenodd" opacity=".024"/><path fill="#8F4A47" fill-rule="evenodd" d="M37.441 29.356q-.29.32-.703.468a.9.9 0 0 1 .703-.469" clip-rule="evenodd" opacity=".224"/><path fill="#C76252" fill-rule="evenodd" d="M78.105 29.59q.653-.051.82.586a5 5 0 0 0-.703-.352q-.14-.081-.117-.234" clip-rule="evenodd" opacity=".996"/><path fill="#8E4941" fill-rule="evenodd" d="M83.379 29.824a.9.9 0 0 1 .586.469.9.9 0 0 1-.586-.469" clip-rule="evenodd" opacity=".553"/><path fill="#A3564A" fill-rule="evenodd" d="M36.504 30.059a3.7 3.7 0 0 1-.938.937q-.55.61-1.289.938a13 13 0 0 1 2.227-1.875" clip-rule="evenodd" opacity=".455"/><path fill="#9C5953" fill-rule="evenodd" d="M44.59 32.402a4.4 4.4 0 0 0-1.64 0q.344-.267.82-.234.475-.033.82.234" clip-rule="evenodd" opacity=".647"/><path fill="#3B251C" fill-rule="evenodd" d="M87.129 32.52q.314.966-.352.234.176-.015.293.117a.58.58 0 0 0 .059-.352" clip-rule="evenodd" opacity=".061"/><path fill="#1D0605" fill-rule="evenodd" d="m75.527 32.168-.586.703q.052-.58.586-.703" clip-rule="evenodd" opacity=".035"/><path fill="#1F0202" fill-rule="evenodd" d="M42.831 32.52q-.285.482-.234 1.054a1.03 1.03 0 0 1-.059-.82q.075-.22.293-.234" clip-rule="evenodd" opacity=".029"/><path fill="#C5A39A" fill-rule="evenodd" d="M59.004 33.106q.63.189 1.289.234-.694.245-1.29-.235" clip-rule="evenodd" opacity=".071"/><path fill="#E94739" fill-rule="evenodd" d="M77.285 34.16h-.351q.066.43-.235.235-.15.18-.351.292l.234.118q-.3.393-.351.879v.117a.91.91 0 0 0-.704.176.52.52 0 0 1 .235.175.55.55 0 0 0-.235.47v.116q-.954.311-1.816-.351a1.8 1.8 0 0 1-.293-.82q.218-.258.351-.587v-.117q.347-.575.704-1.172.103-.487.468-.82l.586-.703a.7.7 0 0 1 .41-.117q2.235.073 1.348 2.11" clip-rule="evenodd"/><path fill="#EA4B3B" fill-rule="evenodd" d="M44.59 32.402a8.3 8.3 0 0 1 2.11 3.692q-.289 1.145-1.524 1.113-.495.074-.703-.352-.009-.7-.586-1.054a.4.4 0 0 1 .117-.176 2.4 2.4 0 0 1-.176-.645l-.117.47q-.073-.222-.293-.235a8 8 0 0 1-.82-1.64 1.7 1.7 0 0 1 .234-1.056q0-.117.117-.117a4.4 4.4 0 0 1 1.64 0" clip-rule="evenodd"/><path fill="#220B0A" fill-rule="evenodd" d="M74.473 33.691q-.356.597-.704 1.172.09-.765.704-1.172" clip-rule="evenodd" opacity=".039"/><path fill="#1A0505" fill-rule="evenodd" d="M73.77 34.98q-.135.33-.352.586-.041-.445.352-.586" clip-rule="evenodd" opacity=".039"/><path fill="#1B0504" fill-rule="evenodd" d="M81.153 34.98q-.135.33-.352.586-.042-.445.352-.586" clip-rule="evenodd" opacity=".039"/><path fill="#7E3530" fill-rule="evenodd" d="M83.848 34.98q.401.018.703.235-.454.083-.703-.235" clip-rule="evenodd" opacity=".753"/><path fill="#C55D4A" fill-rule="evenodd" d="M77.285 34.16a6.7 6.7 0 0 1-1.054 1.524q.051-.486.351-.88l-.234-.117a1.3 1.3 0 0 0 .351-.292q.302.194.235-.235z" clip-rule="evenodd" opacity=".902"/><path fill="#170106" fill-rule="evenodd" d="M84.55 35.215q.477.014.938.117v.117h-.117a2.1 2.1 0 0 1-.82-.234" clip-rule="evenodd" opacity=".039"/><path fill="#F7D3D2" fill-rule="evenodd" d="M85.606 35.332q.138.05.234.176-.276.135-.469-.059h.117q.118 0 .118-.117" clip-rule="evenodd" opacity=".043"/><path fill="#671E19" fill-rule="evenodd" d="M30.996 35.45q-.05.46-.469.585a1.6 1.6 0 0 1 .47-.586" clip-rule="evenodd" opacity=".78"/><path fill="#C75F53" fill-rule="evenodd" d="M76.23 35.801q-.29.46-.703.82a.55.55 0 0 1 .235-.468.52.52 0 0 0-.235-.176.91.91 0 0 1 .704-.176" clip-rule="evenodd"/><path fill="#CE5E4B" fill-rule="evenodd" d="M44.473 36.856a5.7 5.7 0 0 1-1.055-1.641q.22.014.293.234l.117-.468q.044.338.176.644a.4.4 0 0 0-.117.176q.576.354.586 1.054" clip-rule="evenodd"/><path fill="#210605" fill-rule="evenodd" d="M30.528 36.035a.8.8 0 0 1-.234.352q-.038-.295.234-.352" clip-rule="evenodd" opacity=".031"/><path fill="#731E19" fill-rule="evenodd" d="M30.293 36.387q.023.606-.586.703.292-.362.586-.703" clip-rule="evenodd" opacity=".996"/><path fill="#C8594B" fill-rule="evenodd" d="M73.417 35.566q.044.443.293.82.862.664 1.816.352a1.42 1.42 0 0 1-.762.469q-.962-.086-1.406-.937-.138-.39.059-.704" clip-rule="evenodd"/><path fill="#CF7469" fill-rule="evenodd" d="M81.387 36.973q1.215.392 2.344.937a4.8 4.8 0 0 1-2.344-.937" clip-rule="evenodd" opacity=".918"/><path fill="#2E2C2B" fill-rule="evenodd" d="M90.178 37.324q-.018.403-.235.703a.84.84 0 0 1 .234-.703" clip-rule="evenodd" opacity=".055"/><path fill="#793F39" fill-rule="evenodd" d="M89.941 38.027a.75.75 0 0 1-.585.586.7.7 0 0 0 .234-.586z" clip-rule="evenodd" opacity=".906"/><path fill="#1F0605" fill-rule="evenodd" d="M29.121 38.027a4.8 4.8 0 0 1-.82 1.172q.24-.722.82-1.172" clip-rule="evenodd" opacity=".09"/><path fill="#120B08" fill-rule="evenodd" d="M32.403 38.145q.012.268-.234.351-.013-.268.234-.352" clip-rule="evenodd" opacity=".01"/><path fill="#573535" fill-rule="evenodd" d="M86.66 38.496a12.5 12.5 0 0 1 2.344.118.4.4 0 0 1-.293.117 49 49 0 0 1-2.05-.235" clip-rule="evenodd" opacity=".055"/><path fill="#190A08" fill-rule="evenodd" d="M32.05 38.613q-.13.504-.585.703a1.95 1.95 0 0 1 .586-.703" clip-rule="evenodd" opacity=".01"/><path fill="#FC3F39" fill-rule="evenodd" d="M12.012 24.316v72.188q-.126-33.955-.235-67.969 0-2.171.235-4.219" clip-rule="evenodd"/><path fill="#160806" fill-rule="evenodd" d="M31.465 39.434a3.1 3.1 0 0 1-.82 1.172 3.1 3.1 0 0 1 .82-1.172" clip-rule="evenodd" opacity=".01"/><path fill="#1D0403" fill-rule="evenodd" d="m28.066 39.668-.585.938q.03-.653.585-.938" clip-rule="evenodd" opacity=".047"/><path fill="#EA483B" fill-rule="evenodd" d="M35.567 30.996a.58.58 0 0 0 .059.352q.127-.292.41-.176-.574.474-.117 1.113a.57.57 0 0 0 .117-.469h.703a.79.79 0 0 1 .352-.703q.469 1.275 1.347.235.254.291.645.234a33.2 33.2 0 0 0-6.68 6.563q-.247.083-.234.351 0 .117-.117.117a1.95 1.95 0 0 0-.586.703v.118a3.1 3.1 0 0 0-.82 1.172q-.249.082-.235.351-.48.43-.703 1.055a.7.7 0 0 1-.235.586q-.281.138-.234.468-.145.525-.469.938a.79.79 0 0 0-.351.703q-.076.467-.352.82-.425.208-.351.703.04.228-.118.352a1.25 1.25 0 0 0-.351.938 7.3 7.3 0 0 1-.469 1.523q-.555.575-.469 1.406a47 47 0 0 1-.586 2.461.39.39 0 0 0-.175.235 8.5 8.5 0 0 0-.059 1.406q-.926 6.437.352 12.773-.095.563.234.938.249.477.234 1.054-.078.441.235.703-.084.454.234.704-.078.44.235.703.507 1.014.82 2.11a.7.7 0 0 1-.235.585q.29.144.586.235.266.44.47.937.03.477.175.938.135-.195.293 0 .194.194.234.468-.083.495.352.703a36.1 36.1 0 0 0 10.781 11.485q.054.289.352.351.737.265 1.406.703.14.08.117.235.413.323.938.468h.117q.532.534 1.289.82.106-.021.117-.116.117 0 .117.117.32.342.82.351.468.077.82.352 1.064.51 2.227.82.998.157 1.875.586 1.292.36 2.637.703.135-.012.176-.117.618.195 1.172.234v.118h-1.055a7 7 0 0 0-.234 1.757q-.446.001-.88.118a.51.51 0 0 1-.468-.235.4.4 0 0 1-.176.117 2.2 2.2 0 0 0-1.406-.117q.42.09.703.352a22 22 0 0 0-1.406-.235 82 82 0 0 0-4.219-1.523v-.352a9 9 0 0 1-1.172-.117 8 8 0 0 1-1.64-.82q.117-.237 0-.41a3.1 3.1 0 0 1-1.114-.293 5 5 0 0 0-.058-.762.54.54 0 0 0-.469.117q.262.204-.059.293a2.3 2.3 0 0 0-.761-.351 9.8 9.8 0 0 1-1.758-.996 37.8 37.8 0 0 1-8.906-8.73q.012-.27-.235-.352a.56.56 0 0 0-.351-.47q-.06-.115-.117-.234.012-.268-.235-.351.013-.268-.234-.352-.148-.06-.117-.234.012-.269-.235-.351l-.117-.235q.013-.268-.234-.352a4.2 4.2 0 0 1-.586-1.054l-.352-.938q-.08-.14-.234-.117a31 31 0 0 1-2.578-6.21q.034-.826-.47-1.407a4.7 4.7 0 0 1-.233-1.29q.083-.453-.235-.702-1.587-7.65 0-15.352.292-.34.235-.82a7.6 7.6 0 0 1 .468-1.992q.313-.263.235-.703.053-.506.234-.938.314-.262.234-.703a.7.7 0 0 1 .235-.586.27.27 0 0 0 .175-.117q.32-.81.528-1.64.143-.637.469-1.173.564-.276.468-.937.544-.677.82-1.524a.82.82 0 0 0 .352-.468v-.117q.291-.463.586-.938a.68.68 0 0 1 .235-.469 4.8 4.8 0 0 0 .82-1.172q.292-.472.586-.937.607-.098.586-.703a.8.8 0 0 0 .234-.352q.418-.124.469-.586a23.3 23.3 0 0 1 3.281-3.515q.74-.328 1.29-.938" clip-rule="evenodd"/><path fill="#150505" fill-rule="evenodd" d="M30.645 40.606q.013.268-.234.351-.013-.268.234-.352" clip-rule="evenodd" opacity=".01"/><path fill="#210402" fill-rule="evenodd" d="M27.48 40.723a.82.82 0 0 1-.351.468q.009-.375.351-.468" clip-rule="evenodd" opacity=".051"/><path fill="#170B03" fill-rule="evenodd" d="M92.871 41.66a2.08 2.08 0 0 0-1.523-.117.26.26 0 0 1 .117-.176 2.4 2.4 0 0 1 1.172.059q.213.043.234.234" clip-rule="evenodd" opacity=".063"/><path fill="#2F1E1E" fill-rule="evenodd" d="M27.129 41.191a4.8 4.8 0 0 1-.82 1.524 1.03 1.03 0 0 1 .175-.586q.283-.51.645-.938" clip-rule="evenodd" opacity=".086"/><path fill="#190D0D" fill-rule="evenodd" d="M30.41 40.957q-.153.506-.469.938-.08.14-.234.117.223-.625.703-1.055" clip-rule="evenodd" opacity=".051"/><path fill="#62221F" fill-rule="evenodd" d="M91.231 41.543a4 4 0 0 1-.468.703q-.023-.546.468-.703" clip-rule="evenodd" opacity=".902"/><path fill="#1C100F" fill-rule="evenodd" d="M29.472 42.598a.68.68 0 0 1-.235.468q-.047-.33.235-.468" clip-rule="evenodd" opacity=".051"/><path fill="#A63C34" fill-rule="evenodd" d="M26.309 42.715q.095.66-.47.937.147-.525.47-.937" clip-rule="evenodd" opacity=".996"/><path fill="#BBAFAF" fill-rule="evenodd" d="M32.402 43.301a1.03 1.03 0 0 1 .82-.059q.36.089.47.41a1.83 1.83 0 0 0-1.29-.351" clip-rule="evenodd" opacity=".098"/><path fill="#CFB3B1" fill-rule="evenodd" d="M87.832 43.536q-.603-.352-1.289-.118.54-.361 1.172-.117.14.081.117.234" clip-rule="evenodd" opacity=".094"/><path fill="#7C1C18" fill-rule="evenodd" d="M12.365 22.324q-.175 37.088-.117 74.18h-.235V24.316a4.14 4.14 0 0 1 .352-1.992" clip-rule="evenodd" opacity=".937"/><path fill="#B62218" fill-rule="evenodd" d="M9.902 21.621v76.523a12.6 12.6 0 0 1-.235-1.875q.236-33.573 0-67.148-.03-3.165.06-6.328.03-.62.175-1.172" clip-rule="evenodd" opacity=".94"/><path fill="#EB4738" fill-rule="evenodd" d="M32.402 43.301q.715-.066 1.29.352a6.7 6.7 0 0 0 1.288.703q.35-.06.47.234.256.217.585.352.14.158.352.234.48.467.234 1.055a8 8 0 0 1-.352.82q0 .117-.117.117a2.86 2.86 0 0 1-1.523 0l-2.227-1.23a25 25 0 0 1-.586-.527q-.114-.349-.234-.704.136-.459.117-.937a2.2 2.2 0 0 1 .703-.469" clip-rule="evenodd"/><path fill="#BE6F66" fill-rule="evenodd" d="M94.158 43.77q.331.545.47 1.171-.549-.502-.47-1.172" clip-rule="evenodd" opacity=".894"/><path fill="#F0493B" fill-rule="evenodd" d="M87.832 43.535a.77.77 0 0 1 .352.352v1.289q-.88-.087-.235.293-.285.042-.351.293-.63.048-.938.586 0 .117-.117.117-.3-.029-.586.059l.117.117a4.8 4.8 0 0 0-1.113.527q-.47.09-.879.235a1.03 1.03 0 0 1-.586-.586 1.48 1.48 0 0 0-.234-.938q.301-.303.469-.703a13 13 0 0 1 2.812-1.758q.687-.234 1.289.117" clip-rule="evenodd"/><path fill="#BF908D" fill-rule="evenodd" d="M33.691 43.652q.588.197 1.172.47.141.079.117.233a6.7 6.7 0 0 1-1.289-.703" clip-rule="evenodd" opacity=".098"/><path fill="#180B08" fill-rule="evenodd" d="M28.77 44.004a1.5 1.5 0 0 1-.352.703.79.79 0 0 1 .352-.703" clip-rule="evenodd" opacity=".043"/><path fill="#B79390" fill-rule="evenodd" d="M35.45 44.59q.444-.042.585.352a2.2 2.2 0 0 1-.586-.352" clip-rule="evenodd" opacity=".102"/><path fill="#C8B5B5" fill-rule="evenodd" d="M36.035 44.941q.295-.038.352.234a.8.8 0 0 1-.352-.234" clip-rule="evenodd" opacity=".051"/><path fill="#91413E" fill-rule="evenodd" d="M31.697 43.77a2.9 2.9 0 0 1-.117.937q.12.354.235.703-.421-.321-.352-.879-.03-.447.234-.761" clip-rule="evenodd" opacity=".082"/><path fill="#AF3B2F" fill-rule="evenodd" d="M88.184 43.887q.902 1.312-.586 1.875.067-.252.351-.293-.645-.379.235-.293z" clip-rule="evenodd"/><path fill="#984846" fill-rule="evenodd" d="M83.73 45.176a2.2 2.2 0 0 1-.468.703.77.77 0 0 1 .469-.703" clip-rule="evenodd" opacity=".545"/><path fill="#6F3C34" fill-rule="evenodd" d="M28.065 45.527a1.5 1.5 0 0 1-.351.703q-.073-.495.351-.703" clip-rule="evenodd" opacity=".831"/><path fill="#8E433A" fill-rule="evenodd" d="M25.371 44.824q-.208.83-.527 1.64a.27.27 0 0 1-.176.118 5.8 5.8 0 0 1 .703-1.758" clip-rule="evenodd" opacity=".51"/><path fill="#984138" fill-rule="evenodd" d="M87.598 45.762q-.375.43-.938.586.309-.538.938-.586" clip-rule="evenodd" opacity=".718"/><path fill="#F49285" fill-rule="evenodd" d="M9.668 29.121a4810 4810 0 0 1 0 67.149q-.093-33.512 0-67.149" clip-rule="evenodd" opacity=".082"/><path fill="#73302B" fill-rule="evenodd" d="M83.263 45.879q.272.419.235.937-.446-.412-.235-.937" clip-rule="evenodd" opacity=".91"/><path fill="#B23A2C" fill-rule="evenodd" d="M91.934 45.645q.39.367.527.937.262-.219.527 0a.89.89 0 0 0-.351.82 12 12 0 0 1-.703-1.758" clip-rule="evenodd"/><path fill="#1D0D0A" fill-rule="evenodd" d="M27.598 46.582a2.5 2.5 0 0 1-.351.938q-.015-.554.351-.938" clip-rule="evenodd" opacity=".035"/><path fill="#180706" fill-rule="evenodd" d="M36.621 46.23q.029.3-.059.586-.073.222-.292.235a8 8 0 0 0 .351-.82" clip-rule="evenodd" opacity=".01"/><path fill="#A35148" fill-rule="evenodd" d="M86.543 46.465a9.6 9.6 0 0 1-1.758.996q-.36.086-.703-.059.41-.143.879-.234.524-.336 1.113-.527l-.117-.117q.288-.087.586-.06" clip-rule="evenodd" opacity=".71"/><path fill="#B36A63" fill-rule="evenodd" d="M34.629 47.168q.764.207 1.523 0-.76.703-1.523 0" clip-rule="evenodd" opacity=".294"/><path fill="#6B2D28" fill-rule="evenodd" d="M24.434 47.168q.078.441-.235.703.017-.402.235-.703" clip-rule="evenodd" opacity=".796"/><path fill="#A3352D" fill-rule="evenodd" d="M92.637 47.402q.315.068.351.41.15.487.118.997a15 15 0 0 1-.47-1.407" clip-rule="evenodd" opacity=".941"/><path fill="#682218" fill-rule="evenodd" d="M93.106 48.809q.312.261.234.703a1.26 1.26 0 0 1-.234-.703" clip-rule="evenodd" opacity=".588"/><path fill="#C28680" fill-rule="evenodd" d="M72.129 49.277a.7.7 0 0 1 .41-.117q.353-.034.527.234a3 3 0 0 0-.937-.117" clip-rule="evenodd" opacity=".086"/><path fill="#733532" fill-rule="evenodd" d="M23.965 48.809q.078.44-.235.703.018-.402.235-.703" clip-rule="evenodd" opacity=".569"/><path fill="#CF8C86" fill-rule="evenodd" d="M44.824 49.16a3.65 3.65 0 0 1 1.64.586q-.01.096-.116.117a14 14 0 0 1-1.524-.703" clip-rule="evenodd" opacity=".122"/><path fill="#F4D2C6" fill-rule="evenodd" d="M58.418 49.512q.524-.117 1.113-.117.629.002 1.114.234a11.3 11.3 0 0 0-2.227-.117" clip-rule="evenodd" opacity=".059"/><path fill="#62302A" fill-rule="evenodd" d="M26.777 49.043q-.204.73-.468 1.406-.087-.83.468-1.406" clip-rule="evenodd" opacity=".933"/><path fill="#FAD0C7" fill-rule="evenodd" d="M75.293 49.746a40 40 0 0 1 3.867 0q-1.905.186-3.867 0" clip-rule="evenodd" opacity=".09"/><path fill="#F8D7CC" fill-rule="evenodd" d="M79.629 49.746q1.935-.03 3.867.058.22.074.235.293l-.352-.176q-1.905-.03-3.75-.175" clip-rule="evenodd" opacity=".09"/><path fill="#7C361D" fill-rule="evenodd" d="M93.34 49.512q.312.261.234.703a1.26 1.26 0 0 1-.234-.703" clip-rule="evenodd" opacity=".608"/><path fill="#ED4739" fill-rule="evenodd" d="M58.417 49.512q1.128-.051 2.226.117.519.392.586 1.055-.294-.12-.234-.469h-.352a.52.52 0 0 0 .176.469q.044 3.967-.059 7.91.108 1.644.235 3.281a.85.85 0 0 0-.235.528h.586a.91.91 0 0 0 .176.703 6.6 6.6 0 0 0 1.113-.703q.33.234.47-.176a1 1 0 0 1-.47-.176h.352q.515.192.762.703.117.645 0 1.29a.81.81 0 0 1-.41.468q-1.083.085-2.11.234a14.7 14.7 0 0 1-.234 3.633l.117.234a5.5 5.5 0 0 0-.352.82.82.82 0 0 1-.468.352 4.6 4.6 0 0 0-1.172-.234q-.519-.23-.469-.82a38 38 0 0 0-.117-4.16q-3.518-.03-7.031-.176a15 15 0 0 1 1.875-.176 7.8 7.8 0 0 1-2.227-.293.4.4 0 0 0-.176.117 4.05 4.05 0 0 1-.058-2.11 91 91 0 0 1 2.109-3.866q.247-.084.234-.352.087-.408.352-.703.235-.318.586-.527a.34.34 0 0 1-.117-.293 14 14 0 0 1 1.172-2.11q.435-.208.351-.703a.68.68 0 0 1 .235-.469q.246-.083.234-.351a.68.68 0 0 1 .234-.469q.451-.268.469-.82a4.3 4.3 0 0 1 1.172-1.7 1 1 0 0 1 .469-.058m0 4.453a64 64 0 0 1 0 7.734q-2.16.172-4.336.118v-.118q.244-.245.351-.585.363-.483.586-1.055.148-.06.117-.235a3.5 3.5 0 0 0 .704-1.289q.246-.083.234-.351v-.117a.77.77 0 0 0 .352-.586 24 24 0 0 0 1.992-3.516" clip-rule="evenodd"/><path fill="#7D443E" fill-rule="evenodd" d="M71.543 49.629a.79.79 0 0 1-.352.703q.094-.402.352-.703" clip-rule="evenodd" opacity=".89"/><path fill="#9A544C" fill-rule="evenodd" d="M96.152 49.277q.41.813.47 1.758a4.5 4.5 0 0 1-.47-1.758" clip-rule="evenodd" opacity=".937"/><path fill="#784D40" fill-rule="evenodd" d="M39.55 50.45q-.068.387-.468.468a.7.7 0 0 1 .469-.469" clip-rule="evenodd" opacity=".902"/><path fill="#200101" fill-rule="evenodd" d="M61.23 50.684q.176 5.535.118 11.132h.468a.8.8 0 0 1-.586.118z" clip-rule="evenodd" opacity=".063"/><path fill="#7A2823" fill-rule="evenodd" d="M74.705 50.098a10.5 10.5 0 0 0-.117 1.758.92.92 0 0 1-.234-.704q.005-.602.351-1.054" clip-rule="evenodd" opacity=".937"/><path fill="#93433A" fill-rule="evenodd" d="M71.191 50.332a5.8 5.8 0 0 1-.41 1.523.26.26 0 0 0-.175-.117 5.7 5.7 0 0 1 .585-1.406" clip-rule="evenodd" opacity=".949"/><path fill="#6C3731" fill-rule="evenodd" d="M96.623 51.035q.195.37.234.82a1.02 1.02 0 0 1-.234-.82" clip-rule="evenodd" opacity=".89"/><path fill="#E94032" fill-rule="evenodd" d="M110.098 86.895a2422 2422 0 0 0 0 10.78 8 8 0 0 1-.586 2.579q-.313.262-.235.703.03.174-.117.234h-.351v.704h-.352a2.5 2.5 0 0 1-.117.82 4.7 4.7 0 0 1-.938 1.523.39.39 0 0 1-.175-.234.69.69 0 0 0-.176.586.54.54 0 0 1-.528-.235q-.115.283.176.411-.498.615-1.113 1.113a.58.58 0 0 0-.059.351 7.7 7.7 0 0 1-1.757 1.407.92.92 0 0 0-.645.234.84.84 0 0 0-.645-.059q.35.107.118.352-.168.109-.293-.059-.506.361-.996.704a5.7 5.7 0 0 1-1.758.586 4.5 4.5 0 0 0-1.524.234q-.37.17-.82.117a1.2 1.2 0 0 0-.351-.351.65.65 0 0 0-.118-.352q.678-.264 1.406-.234v-.352q-5.025.334-10.078.234v-.468h-2.343a.36.36 0 0 0-.117-.352 4.6 4.6 0 0 0-.82-.176l11.952-.117-12.539-.117q6.358-.03 12.657-.176.45.053.82-.117.555-.164 1.172-.234a3.45 3.45 0 0 0 1.875-.586l2.578-1.524a1.3 1.3 0 0 0 .703-.586 17 17 0 0 0 2.461-3.398q.456-.339.586-.938a4.3 4.3 0 0 0 .351-1.758 8 8 0 0 1 .235-1.64q.035 2.647.351.117.147-32.226.176-64.453l.117-2.93.117.117.118 5.157q.493.37 1.113.351l.176 52.149.117.234a.65.65 0 0 1 .176-.352" clip-rule="evenodd"/><path fill="#5B241E" fill-rule="evenodd" d="M23.263 51.504q.057.48-.235.82-.015-.465.235-.82" clip-rule="evenodd" opacity=".898"/><path fill="#934837" fill-rule="evenodd" d="M56.777 51.27q-.017.55-.468.82a2.8 2.8 0 0 1 .468-.82" clip-rule="evenodd" opacity=".882"/><path fill="#A56F66" fill-rule="evenodd" d="M74.59 51.856q.368.095.703.292 1.671.03 3.281.176h-.117q-1.611.195-3.281-.058a.67.67 0 0 1-.586-.41" clip-rule="evenodd" opacity=".486"/><path fill="#563D39" fill-rule="evenodd" d="M80.918 52.676a2.6 2.6 0 0 0-1.113-.352q-.691.233-1.348 0h.117a12.4 12.4 0 0 1 2.344-.117q.225.256 0 .469" clip-rule="evenodd" opacity=".055"/><path fill="#944D43" fill-rule="evenodd" d="M83.964 52.441a.7.7 0 0 1-.235.586q-.075-.4.235-.586" clip-rule="evenodd" opacity=".796"/><path fill="#463033" fill-rule="evenodd" d="M56.075 52.559q.012.268-.235.351-.012-.269.235-.351" clip-rule="evenodd" opacity=".047"/><path fill="#983B30" fill-rule="evenodd" d="M73.184 52.559q-.174.63-.47 1.172a1.43 1.43 0 0 0-.116-.762q.27-.245.586-.41" clip-rule="evenodd" opacity=".988"/><path fill="#824945" fill-rule="evenodd" d="M80.918 52.676q.078.44-.234.703.016-.402.234-.703" clip-rule="evenodd" opacity=".376"/><path fill="#EC483A" fill-rule="evenodd" d="M72.13 49.277q.482-.017.938.118.994.666.645 1.875-.252.668-.528 1.289-.314.165-.586.41.162.359.117.761-.537.378-.468 1.055-.22.014-.293.235-.122.523-.176 1.054.042.227-.117.352-.406.574-.82 1.172.185.398-.176.703-.087.405-.059.82.042.227-.117.352-.457.33-.352.937a.39.39 0 0 1-.175-.234l-.118.703-.117-.352a22.4 22.4 0 0 1-1.054 3.282l-.118-.235q-.088.465-.058.938v.117a5 5 0 0 1-.235-.117 2.5 2.5 0 0 0-.117 1.054q-.314.075-.351.41a9.5 9.5 0 0 0-.47 1.7q-.312.262-.234.703-.14.96-.937 1.465-2.197.27-1.816-1.934l1.113-2.46q.495-.53.469-1.29a.7.7 0 0 1 .234-.586q.356-.27.527-.703l.118.234a3.6 3.6 0 0 1 .058-1.406q.47-.477.469-1.172.285-1.035.703-1.992.41-.294.352-.82.379-.371.351-.938.314-.261.234-.703.305-.393.704-.761a1.8 1.8 0 0 1 0-.88 7.9 7.9 0 0 1 .937-2.695q.108.02.176.117a5.8 5.8 0 0 0 .41-1.523.79.79 0 0 0 .352-.703q.25-.25.585-.352" clip-rule="evenodd"/><path fill="#7E615E" fill-rule="evenodd" d="M25.722 52.91a14 14 0 0 1-.234 1.64q-.03-.705.058-1.405a.39.39 0 0 1 .176-.235" clip-rule="evenodd" opacity=".075"/><path fill="#864543" fill-rule="evenodd" d="M55.606 53.379q.083.495-.352.703.087-.408.352-.703" clip-rule="evenodd" opacity=".902"/><path fill="#341E1F" fill-rule="evenodd" d="M57.95 61.934q-2.025.057-3.985-.118h.117a41 41 0 0 0 4.336-.117 64 64 0 0 0 0-7.734l.176-.352q.087 4.16.058 8.32z" clip-rule="evenodd" opacity=".063"/><path fill="#EC4739" fill-rule="evenodd" d="M79.63 49.746q1.845.146 3.75.176l.352.176a.81.81 0 0 1 .41.468q.045.538.176 1.055-.067.48-.352.82-.308.186-.234.586a.26.26 0 0 1-.176-.117q.03.674-.644.645.225.549 0 1.113-.157-.177-.235 0a.45.45 0 0 1 .059.469.8.8 0 0 0-.527-.352.35.35 0 0 0-.235.235l.469.351q.167.272.117.586-.66-.038-.234.352-.496.615-.469 1.406-.23.22-.469.469.075.32 0 .703.03.174-.117.234a.39.39 0 0 0-.176.234l-.117-.117a9 9 0 0 0-.293 1.407.36.36 0 0 0-.351.117.8.8 0 0 1 .117.468.68.68 0 0 1-.235.47q-.471.537-.468 1.288.03.175-.118.235-.662.525-.585 1.406.03.174-.118.234-.63.393-.468 1.172a1.3 1.3 0 0 1-.235.586q-.444.482-.351 1.172.03.174-.118.234-.58.271-.761.703-.33.1-.645.235-.375-.22-.703 0-.9-.957-.41-2.227l.527-1.054q.318-.25.235-.704.358-.831.703-1.64.6-.42.469-1.172.382-.232.234-.586.036-.482.352-.82.483-.244.234-.703.499-.464.469-1.172.542-.131.234-.586.436-.5.586-1.172.579.03.117-.234.142-.277.117-.586l.586-1.407q.358-.3.352-.82h.351a2.3 2.3 0 0 0-.117-.703q.313-.263.235-.703.225-.213 0-.469a12.4 12.4 0 0 0-2.344.117 45 45 0 0 0-3.281-.176 2.8 2.8 0 0 0-.704-.293q-.014-.885.118-1.757.246-.244.586-.352 1.962.186 3.867 0 .234-.234.468 0" clip-rule="evenodd"/><path fill="#A64B43" fill-rule="evenodd" d="M72.715 53.73a2.24 2.24 0 0 1-.469 1.055q-.07-.677.469-1.054" clip-rule="evenodd" opacity=".973"/><path fill="#F03E2C" fill-rule="evenodd" d="M61.231 50.684v11.25q.698.093 1.406.117.194.138.47.176-.14.41-.47.175a6.6 6.6 0 0 1-1.113.703.91.91 0 0 1-.176-.703h-.586a.85.85 0 0 1 .235-.527 264 264 0 0 1-.235-3.281q.102-3.944.059-7.91a.52.52 0 0 1-.176-.47h.352q-.06.35.234.47" clip-rule="evenodd"/><path fill="#A74238" fill-rule="evenodd" d="M80.684 53.379q.114.34.117.703h-.352q.006.52-.351.82a4.3 4.3 0 0 1 .586-1.523" clip-rule="evenodd" opacity=".937"/><path fill="#C34139" fill-rule="evenodd" d="M83.73 53.027a33 33 0 0 1-1.171 2.93.83.83 0 0 0-.118-.586l-.468-.352a.35.35 0 0 1 .234-.234.8.8 0 0 1 .527.352.45.45 0 0 0-.058-.469q.077-.177.234 0 .227-.564 0-1.113.674.03.645-.645a.27.27 0 0 0 .175.117" clip-rule="evenodd"/><path fill="#80453F" fill-rule="evenodd" d="M72.246 54.785a5.3 5.3 0 0 1-.469 1.29 8 8 0 0 1 .176-1.056q.074-.22.293-.234" clip-rule="evenodd" opacity=".918"/><path fill="#A33F39" fill-rule="evenodd" d="M69.668 54.434a1.8 1.8 0 0 0 0 .879q-.399.368-.703.761a7.7 7.7 0 0 1 .703-1.64" clip-rule="evenodd" opacity=".643"/><path fill="#794944" fill-rule="evenodd" d="M46.113 55.254q.113.891-.468 1.523.264-.769.468-1.523" clip-rule="evenodd" opacity=".698"/><path fill="#EA473A" fill-rule="evenodd" d="M92.871 41.66a4.9 4.9 0 0 1 1.29 2.11q-.08.67.468 1.172a20.3 20.3 0 0 1 1.523 4.336q.06.944.47 1.758-.06.48.234.82a37.45 37.45 0 0 1-.118 16.054q-.128.23-.293.47a12 12 0 0 0-.293 1.991q-.292.342-.234.82a.54.54 0 0 1-.117.47q-.154-.024-.235.117a4 4 0 0 0-.175.703l-.118-.235a11.4 11.4 0 0 1-.527 2.344 6 6 0 0 1-.82 1.758.36.36 0 0 0-.352.117 1.8 1.8 0 0 0-.117.82q.013.27-.234.352h-.352q-.075.618-.352 1.172v.117a.82.82 0 0 0-.351.469v.117a1.5 1.5 0 0 0-.586.938.82.82 0 0 0-.351.468.35.35 0 0 0-.235.235v.117q-.596.545-.937 1.289a1.84 1.84 0 0 1-.703.82.8.8 0 0 0-.235.352q-.293.41-.703.703-.528-.06-.469.469-.573-.012-.527.586a.9.9 0 0 1-.645.41.33.33 0 0 1 .117.293l-.234.117a.58.58 0 0 0-.351.059 1.55 1.55 0 0 1-.352.586q-.167.108-.293-.06a.31.31 0 0 0 .059.352q-.875.815-1.758 1.641a.46.46 0 0 1-.41-.234 1 1 0 0 0-.059.468h-.352v.352a19 19 0 0 1-1.992 1.523q-.295-.038-.351.235a2.1 2.1 0 0 0-.82.176q-.236.117 0 .234a.81.81 0 0 0-.47.41 2.4 2.4 0 0 1-.82 0l-.234.117q.154.132.352.176-.406.087-.82.059v.468a1 1 0 0 0-.47.059q.195.135 0 .293a3.4 3.4 0 0 0-.82.234.6.6 0 0 1-.293-.117 5 5 0 0 0-.175.586q-.536.002-1.055.117v.352q-.762.06-1.29.586a.67.67 0 0 1-.35.117q-1.238.306-2.462.703a.53.53 0 0 0-.234.352.8.8 0 0 1-.469.117h-1.523v.351q-.228-.04-.352.118-.504.026-.703.234a8.4 8.4 0 0 1-2.578.469q-1.348.048-2.696.117-1.23-.03-2.46.059a.27.27 0 0 0-.118.175 17.7 17.7 0 0 1-3.632-.234q-1.876-.294-3.75-.703a.54.54 0 0 0-.352.117q-.174.03-.234-.117a7 7 0 0 0-.82-.352 1.47 1.47 0 0 0-.704-.351 2.2 2.2 0 0 1 1.407.117.4.4 0 0 0 .175-.117.51.51 0 0 0 .469.234q.432-.115.879-.117.004-.898.234-1.758h1.055l1.406.117a5.8 5.8 0 0 1 1.64.117q1.142.118 2.345.118a25 25 0 0 0 3.75-.235q.962-.196 1.992-.234-.011.076.058.117.532-.121.997-.352 0-.117.117-.117.43.201.82-.117a.8.8 0 0 1 .586-.117q.402-.045.762.117.4-.375.878-.586.48.058.82-.234a1.26 1.26 0 0 0 1.055-.352q.483-.036.82-.351.421-.267.938-.352.459-.021.704-.351a33.35 33.35 0 0 0 11.835-8.79h.352a.93.93 0 0 1 .351-.703q-.038-.295.235-.351.248-.084.234-.352a.9.9 0 0 0 .469-.586l.117-.234q.732-.615 1.055-1.523a.77.77 0 0 0 .352-.586 2.7 2.7 0 0 1 .351-.47.82.82 0 0 0 .352-.468v-.117a.82.82 0 0 0 .351-.469v-.117q.367-.323.469-.82.311-.339.469-.82a.7.7 0 0 0 .234-.587q-.03-.174.117-.234a.7.7 0 0 0 .235-.586 2.4 2.4 0 0 0 .468-.703.57.57 0 0 1 .47-.117 1.55 1.55 0 0 0-.235-.586q.168-.395.234-.82a.54.54 0 0 1 .117-.47.84.84 0 0 0 .235-.702.84.84 0 0 0 .234-.704q.073-.996.469-1.874.114-.105.234-.235.174-.693.117-1.406.321-2.336.528-4.688.152-3-.235-5.976a130 130 0 0 0-.996-5.39q.078-.443-.234-.704.078-.441-.234-.703a2.8 2.8 0 0 0-.118-.996q-.036-.343-.351-.41a.89.89 0 0 1 .351-.82q-.264-.22-.527 0a1.85 1.85 0 0 0-.527-.938 39 39 0 0 1-1.23-2.578 1.03 1.03 0 0 1 .058-.82q.265-.321.469-.704h.117a2.08 2.08 0 0 1 1.523.117" clip-rule="evenodd"/><path fill="#693228" fill-rule="evenodd" d="M68.965 56.074q.078.441-.234.703.016-.401.234-.703" clip-rule="evenodd" opacity=".604"/><path fill="#98513F" fill-rule="evenodd" d="M82.56 55.957q-.285.921-.703 1.758a2.05 2.05 0 0 1 .469-1.406q-.426-.39.234-.352" clip-rule="evenodd" opacity=".902"/><path fill="#9C615B" fill-rule="evenodd" d="M54.082 56.191q-.014.176.117.293-.352.21-.586.528.102-.498.469-.82" clip-rule="evenodd" opacity=".192"/><path fill="#935452" fill-rule="evenodd" d="M68.73 56.777q.028.566-.351.938.11-.51.352-.938" clip-rule="evenodd" opacity=".369"/><path fill="#AC706F" fill-rule="evenodd" d="M45.293 57.363a3.2 3.2 0 0 1-.586.82q.09-.556.586-.82" clip-rule="evenodd" opacity=".157"/><path fill="#974744" fill-rule="evenodd" d="M79.512 56.309q.024.309-.118.586.464.264-.117.234-.15.672-.586 1.172.379-1.019.82-1.992" clip-rule="evenodd" opacity=".412"/><path fill="#75362A" fill-rule="evenodd" d="M56.427 57.48a.77.77 0 0 1-.352.586q-.045-.437.352-.586" clip-rule="evenodd" opacity=".914"/><path fill="#423636" fill-rule="evenodd" d="M53.262 57.715q.013.269-.234.351-.013-.268.234-.351" clip-rule="evenodd" opacity=".043"/><path fill="#A2635C" fill-rule="evenodd" d="M68.379 57.715q.059.526-.352.82.135-.442.352-.82" clip-rule="evenodd" opacity=".373"/><path fill="#83453F" fill-rule="evenodd" d="M81.856 57.715a6.5 6.5 0 0 1-.47 1.172q.075-.383 0-.703.238-.248.47-.47" clip-rule="evenodd" opacity=".941"/><path fill="#913F33" fill-rule="evenodd" d="M71.66 56.426q-.45 1.391-1.055 2.695-.03-.415.058-.82.362-.305.176-.703.415-.599.82-1.172" clip-rule="evenodd" opacity=".882"/><path fill="#998989" fill-rule="evenodd" d="M32.402 58.653a53 53 0 0 0-4.453-.118q2.03-.345 4.102-.175a.5.5 0 0 1 .351.293" clip-rule="evenodd" opacity=".184"/><path fill="#483F3E" fill-rule="evenodd" d="M56.075 58.184q.012.268-.235.351-.012-.269.235-.351" clip-rule="evenodd" opacity=".024"/><path fill="#B85447" fill-rule="evenodd" d="M55.84 58.535a3.5 3.5 0 0 1-.703 1.29.76.76 0 0 0-.117-.528.58.58 0 0 1 .351-.059 1.07 1.07 0 0 0-.117-.586q.283.02.586-.117" clip-rule="evenodd"/><path fill="#997C78" fill-rule="evenodd" d="m92.637 59.121-.586-.41a79 79 0 0 1-4.336-.175 35 35 0 0 1 3.75-.118l.703.176q.375.155.469.527" clip-rule="evenodd" opacity=".175"/><path fill="#763627" fill-rule="evenodd" d="M78.691 58.3q.309.456-.234.587a1.3 1.3 0 0 1 .234-.586" clip-rule="evenodd" opacity=".957"/><path fill="#937578" fill-rule="evenodd" d="M27.832 58.535q-.285.402-.703.703.175-.527.703-.703" clip-rule="evenodd" opacity=".227"/><path fill="#C79588" fill-rule="evenodd" d="M44.592 58.3q-.98 1.244-2.169 2.345-.07-.04-.058-.118a30 30 0 0 1 2.227-2.226" clip-rule="evenodd" opacity=".204"/><path fill="#EC4638" fill-rule="evenodd" d="M87.714 58.535q2.137.147 4.336.176.298.207.586.41.117 0 .117.117-.09.55 0 1.172a.88.88 0 0 0-.468.586q-2.228.03-4.453-.059a5 5 0 0 0-.586-.175.58.58 0 0 1-.293-.469q-.311-1.214.761-1.758" clip-rule="evenodd"/><path fill="#7D3934" fill-rule="evenodd" d="M70.489 59.473a1.7 1.7 0 0 1-.352.937q-.105-.606.352-.937" clip-rule="evenodd" opacity=".882"/><path fill="#85362D" fill-rule="evenodd" d="M78.457 58.887q.03.709-.469 1.172.135-.64.469-1.172" clip-rule="evenodd" opacity=".957"/><path fill="#8F4641" fill-rule="evenodd" d="M92.752 59.238q.142.264.234.586-.093.322-.234.586a3.8 3.8 0 0 1 0-1.172" clip-rule="evenodd" opacity=".555"/><path fill="#A94A3D" fill-rule="evenodd" d="M55.019 60.059q-.225.573-.586 1.054-.03-.356.058-.703l.118.117.058-.293a1.5 1.5 0 0 1-.058-.527.63.63 0 0 0 .41.352" clip-rule="evenodd"/><path fill="#E64538" fill-rule="evenodd" d="M27.83 58.535h.118a53 53 0 0 1 4.453.117.67.67 0 0 1 .41.586q.143.678-.058 1.29-.173.112-.352.234l-.234-.235q.077.255-.235.41a39 39 0 0 0-3.047.176q-2.073.211-1.757-1.875a3 3 0 0 0 .703-.703" clip-rule="evenodd"/><path fill="#C7523E" fill-rule="evenodd" d="m46.934 59.707-1.875 1.992q.145-.756.82-1.172a.57.57 0 0 0 .117-.468.47.47 0 0 0 .469-.293q-.384-.107-.059-.41.192.283.528.351" clip-rule="evenodd"/><path fill="#91473C" fill-rule="evenodd" d="M81.27 59.121a6 6 0 0 1-.586 1.523q.09-.71.293-1.406l.117.117a.39.39 0 0 1 .175-.234" clip-rule="evenodd" opacity=".91"/><path fill="#712F25" fill-rule="evenodd" d="M77.988 60.059q.249.459-.234.703.017-.402.234-.703" clip-rule="evenodd" opacity=".949"/><path fill="#8D5048" fill-rule="evenodd" d="M32.754 60.527q-.192.57-.82.645-1.537.14-3.047-.059a39 39 0 0 1 3.047-.175q.31-.156.234-.41l.234.234q.18-.122.352-.235" clip-rule="evenodd"/><path fill="#886D68" fill-rule="evenodd" d="M92.754 60.41a.88.88 0 0 1-.469.586.88.88 0 0 1 .469-.586" clip-rule="evenodd" opacity=".01"/><path fill="#7D3630" fill-rule="evenodd" d="M80.684 60.644a1.3 1.3 0 0 1-.235.586.8.8 0 0 0-.117-.468.36.36 0 0 1 .352-.118" clip-rule="evenodd" opacity=".953"/><path fill="#974D42" fill-rule="evenodd" d="M67.324 60.527q.002.695-.468 1.172.133-.64.468-1.172" clip-rule="evenodd" opacity=".914"/><path fill="#9D625D" fill-rule="evenodd" d="M87.246 60.762q.295.069.586.175 2.226.09 4.453.06a.65.65 0 0 1-.351.175 36 36 0 0 1-4.102 0 .67.67 0 0 1-.586-.41" clip-rule="evenodd" opacity=".227"/><path fill="#694D4E" fill-rule="evenodd" d="M54.433 61.113a1.4 1.4 0 0 1-.351.586q-.04-.427.351-.586" clip-rule="evenodd" opacity=".01"/><path fill="#B8A7A3" fill-rule="evenodd" d="M44.941 61.816q-.234.352-.586.586-.076.012-.117-.058.285-.374.703-.528" clip-rule="evenodd" opacity=".01"/><path fill="#F8E4DF" fill-rule="evenodd" d="M53.965 61.816q1.96.175 3.984.118a18 18 0 0 1-4.101 0q.021-.107.117-.118" clip-rule="evenodd" opacity=".22"/><path fill="#AE746B" fill-rule="evenodd" d="M61.816 61.816q.63.009 1.172.235h-.351a14 14 0 0 1-1.407-.117.8.8 0 0 0 .586-.118" clip-rule="evenodd" opacity=".471"/><path fill="#974C47" fill-rule="evenodd" d="M77.402 61.582q.15.353-.234.586a1.3 1.3 0 0 1 .234-.586" clip-rule="evenodd" opacity=".427"/><path fill="#EB493B" fill-rule="evenodd" d="M44.825 49.16q.724.391 1.523.703.107-.021.118-.117 3.625 2.964 2.05 7.5a10 10 0 0 1-1.582 2.461.8.8 0 0 1-.527-.351q-.326.303.059.41a.47.47 0 0 1-.47.293.57.57 0 0 1-.116.469q-.675.415-.82 1.171 0 .118-.118.117a1.53 1.53 0 0 0-.703.528q.04.07.117.059a41 41 0 0 0-2.93 3.046 5 5 0 0 1-.234-.117 5.1 5.1 0 0 0-.703 1.23q3.984.09 7.969.06.288.219.41.585.435 1.395-.879 1.934-4.746.117-9.492 0a.63.63 0 0 1-.352-.41 7.6 7.6 0 0 1-.234-2.344 7.2 7.2 0 0 1 1.992-3.164q.589-.414.938-1.055.747-.807 1.523-1.64-.012.076.059.117A20 20 0 0 0 44.59 58.3q0-.117.117-.117.348-.352.586-.82.107-.341.351-.586.581-.633.47-1.524-.002-.709-.118-1.406.083-.454-.234-.703a4.3 4.3 0 0 0-1.055-1.29q-.139-.28-.469-.234v-.351a3.5 3.5 0 0 1-1.64 0v.351q-.435.048-.82.235-.39-.24-.587.234-.357-.198-.117.176l-.469.117q.285.041.352.293a.34.34 0 0 1-.293-.117 9.3 9.3 0 0 0-.293 2.578.56.56 0 0 1-.352.469q-.611.09-1.172.234-1.365-.285-1.171-1.7.062-1.91 1.406-3.222.399-.08.469-.469 2.294-2.052 5.273-1.289" clip-rule="evenodd"/><path fill="#F2DCDB" fill-rule="evenodd" d="M40.02 55.606a.26.26 0 0 1-.118.175q-.524.088-1.054.059.559-.145 1.172-.235" clip-rule="evenodd" opacity=".02"/><path fill="#92463C" fill-rule="evenodd" d="M40.956 52.676a10 10 0 0 0-.586 2.46 9.3 9.3 0 0 1 .293-2.577.34.34 0 0 0 .293.117" clip-rule="evenodd" opacity=".925"/><path fill="#8C4E4A" fill-rule="evenodd" d="M45.762 53.145q.318.249.234.703a2.3 2.3 0 0 1-.234-.703" clip-rule="evenodd" opacity=".463"/><path fill="#B84136" fill-rule="evenodd" d="M41.777 51.855v.118q-.405.346-.82.703-.067-.252-.352-.293l.47-.117q-.24-.375.116-.176.199-.475.586-.235" clip-rule="evenodd"/><path fill="#B56A63" fill-rule="evenodd" d="M44.707 51.856a4.05 4.05 0 0 0-2.93.117v-.117a2.5 2.5 0 0 1 .82-.235v-.352q.825.198 1.641 0v.352q.33-.048.469.234" clip-rule="evenodd" opacity=".992"/><path fill="#84493C" fill-rule="evenodd" d="M80.215 61.7a3.2 3.2 0 0 1-.469 1.288q-.003-.75.469-1.289" clip-rule="evenodd" opacity=".902"/><path fill="#AE7876" fill-rule="evenodd" d="M40.84 62.168a3.05 3.05 0 0 1-.938 1.055q.344-.637.938-1.055" clip-rule="evenodd" opacity=".22"/><path fill="#B74736" fill-rule="evenodd" d="M66.856 61.7q-.167.698-.06 1.405l-.116-.234a1.6 1.6 0 0 1-.528.703 9 9 0 0 1 .704-1.875" clip-rule="evenodd"/><path fill="#993A30" fill-rule="evenodd" d="M77.168 62.168q.132.751-.469 1.172.202-.605.469-1.172" clip-rule="evenodd" opacity=".933"/><path fill="#A84A3E" fill-rule="evenodd" d="M70.136 60.41a33 33 0 0 1-1.64 4.102q-.03-.473.058-.938l.117.235q.657-1.612 1.055-3.282l.117.352q.06-.352.117-.703a.39.39 0 0 0 .176.234" clip-rule="evenodd" opacity=".996"/><path fill="#A84B41" fill-rule="evenodd" d="M79.63 63.223q-.202.752-.587 1.406-.077-.882.586-1.406" clip-rule="evenodd" opacity=".969"/><path fill="#B95A4F" fill-rule="evenodd" d="M50.917 61.934a4.05 4.05 0 0 0 .058 2.109.4.4 0 0 1 .176-.117q1.076.305 2.226.293-.942.03-1.875.175 3.514.147 7.032.176.173 2.066.117 4.16a34 34 0 0 1-.117-3.984q-3.458.03-6.914-.058-1.406-.635-.996-2.169.065-.35.292-.585" clip-rule="evenodd"/><path fill="#E5CBC4" fill-rule="evenodd" d="M63.34 64.512a.65.65 0 0 1-.352.175 11.5 11.5 0 0 1-1.64.06h-.117q1.026-.15 2.109-.235" clip-rule="evenodd" opacity=".157"/><path fill="#843D35" fill-rule="evenodd" d="M68.498 64.629a2.5 2.5 0 0 1-.352.937q-.056-.54.118-1.054.12.063.234.117" clip-rule="evenodd"/><path fill="#8A383A" fill-rule="evenodd" d="M65.918 64.16q.026.76-.469 1.29a3.2 3.2 0 0 1 .469-1.29" clip-rule="evenodd" opacity=".965"/><path fill="#864036" fill-rule="evenodd" d="M78.924 64.863q-.066.668-.469 1.172-.162-.779.469-1.172" clip-rule="evenodd" opacity=".996"/><path fill="#5D261E" fill-rule="evenodd" d="M75.996 64.98q.084.454-.234.704.066-.387.234-.703" clip-rule="evenodd" opacity=".91"/><path fill="#733834" fill-rule="evenodd" d="M41.426 65.45q-.285.538-.703.995 3.867.017 7.734.176-3.985.03-7.969-.058.264-.66.703-1.231.12.064.235.117" clip-rule="evenodd" opacity=".945"/><path fill="#8B4A45" fill-rule="evenodd" d="M68.145 65.566a8.6 8.6 0 0 1-.82 2.11q.153-.867.468-1.7.037-.335.351-.41" clip-rule="evenodd" opacity=".843"/><path fill="#743530" fill-rule="evenodd" d="M78.223 66.621a3.3 3.3 0 0 1-.352 1.172q-.092-.69.352-1.172" clip-rule="evenodd" opacity=".941"/><path fill="#67241F" fill-rule="evenodd" d="M94.277 66.27q.058.713-.117 1.406-.12.13-.234.234.135-.85.351-1.64" clip-rule="evenodd" opacity=".937"/><path fill="#71251F" fill-rule="evenodd" d="M23.027 67.676q.318.249.235.703a2.3 2.3 0 0 1-.235-.703" clip-rule="evenodd" opacity=".855"/><path fill="#865B57" fill-rule="evenodd" d="M67.324 67.676q-.016.402-.234.703-.078-.441.234-.703" clip-rule="evenodd" opacity=".145"/><path fill="#934840" fill-rule="evenodd" d="M37.91 66.387a7.6 7.6 0 0 0 .235 2.344.5.5 0 0 1-.293-.352l-.176-.703q.02-.645.234-1.29" clip-rule="evenodd" opacity=".937"/><path fill="#82392F" fill-rule="evenodd" d="M25.841 67.324q.223.423.235.938-.329-.375-.235-.938" clip-rule="evenodd" opacity=".937"/><path fill="#64332E" fill-rule="evenodd" d="M61.23 64.746h.118q.03 1.875-.059 3.75-.13.418-.293.82-.08.14-.234.118.14-.418.351-.82l-.117-.235q.342-1.784.234-3.633" clip-rule="evenodd" opacity=".945"/><path fill="#D56B57" fill-rule="evenodd" d="M77.754 68.027q-.585 1.524-2.11.938.327-.22.704 0 .315-.135.644-.234.183-.433.762-.704" clip-rule="evenodd"/><path fill="#79413B" fill-rule="evenodd" d="M96.738 67.91a8.1 8.1 0 0 1-.586 2.461q.062-1.007.293-1.992.165-.24.293-.469" clip-rule="evenodd" opacity=".937"/><path fill="#F3D4CD" fill-rule="evenodd" d="M59.121 69.55q.622.045 1.172.235-.644.06-1.172-.234" clip-rule="evenodd" opacity=".078"/><path fill="#6B2229" fill-rule="evenodd" d="M26.309 69.316q.218.302.234.703-.314-.262-.234-.703" clip-rule="evenodd" opacity=".925"/><path fill="#1E0702" fill-rule="evenodd" d="M93.457 69.785a.84.84 0 0 1-.234.703q.016-.402.234-.703" clip-rule="evenodd" opacity=".078"/><path fill="#9A3A30" fill-rule="evenodd" d="M23.496 69.668q.502.58.469 1.406a5 5 0 0 1-.469-1.406" clip-rule="evenodd" opacity=".898"/><path fill="#712A25" fill-rule="evenodd" d="M26.545 70.02q.218.3.234.703-.318-.249-.234-.704" clip-rule="evenodd" opacity=".945"/><path fill="#774F50" fill-rule="evenodd" d="M96.154 70.371q-.039.45-.234.82-.058-.48.234-.82" clip-rule="evenodd" opacity=".075"/><path fill="#180404" fill-rule="evenodd" d="M93.223 70.488a.84.84 0 0 1-.235.703q.017-.401.235-.703" clip-rule="evenodd" opacity=".035"/><path fill="#ED4A3B" fill-rule="evenodd" d="M22.793 10.137h.117v.351a1.42 1.42 0 0 0-.82.176q.562.114 1.055.41a.67.67 0 0 0-.235.586h-.937v.352q1.596.107 3.164.175a8 8 0 0 1-1.64.235q36.357.03 72.656.176-36.417-.06-72.774.117h-.234q-.764-.03-1.523.058a1 1 0 0 0-.47.176q-.353.25-.82.235a1.54 1.54 0 0 0-.82.117 2.4 2.4 0 0 1-1.055.469q-.223.139-.351.351a7.5 7.5 0 0 1-1.055.703h-.469v.352q-.253.275-.586.469a1.3 1.3 0 0 0-.293-.118.85.85 0 0 1-.527.235q.03.356-.058.703a.62.62 0 0 0-.293.469q-.195.331-.47.585a1.1 1.1 0 0 0-.585.587.4.4 0 0 1-.176-.118q-.14.522-.234 1.055-.157-.213-.293 0a.4.4 0 0 0 .117.176 4.2 4.2 0 0 0-.586 2.05q.014.578-.234 1.055a4.14 4.14 0 0 0-.352 1.992 37 37 0 0 0-.234 4.22q.109 34.013.234 67.968h.234q.159.749.352 1.523-.245.696.234 1.29a23.3 23.3 0 0 0 1.758 3.398.88.88 0 0 0 .469.586 24 24 0 0 0 2.11 1.875q.083.248.35.234h.118v.352q.709.246 1.406.468.228-.04.352.118-.077-.012-.117.058.869.481 1.875.528h.234q.34.292.82.234.415.28.938.352 3.603.146 7.265.175.32.432.235.996h-1.172v.469h.469v.352a76 76 0 0 0-7.266.176q37.266.088 74.531.058a5954 5954 0 0 1-74.648 0 8.4 8.4 0 0 0-2.11-.351h-.117a2.1 2.1 0 0 0-.82-.235 2.03 2.03 0 0 0-1.055-.351.62.62 0 0 0-.351-.411 4 4 0 0 1-.703-.175q-.107.021-.117.117-.118 0-.118-.117v-.352q-1.617-.264 0-.703-.27-.342-.703-.176a.52.52 0 0 0-.117.41.58.58 0 0 1-.351-.058q.211-.158 0-.293l-.235.234a.8.8 0 0 0-.469-.234.91.91 0 0 1-.586-.469 14 14 0 0 0-1.523-1.523 8.2 8.2 0 0 1-1.64-2.344 2.7 2.7 0 0 1-.118-.762l.235-.234a1.8 1.8 0 0 1-.586-.176q.2-.333-.235-.352a.68.68 0 0 1-.234-.468 3.3 3.3 0 0 0-.469-1.641 1.47 1.47 0 0 1-.234-.937V95.8q.187-11.924.234-23.907-.003-20.65 0-41.25-.116-3.771-.234-7.5v-1.523q-.014-.576.234-1.055.318-.249.234-.703.215-.936.704-1.758a.79.79 0 0 0 .351-.703q.56-.384.703-1.054.335-.744.938-1.29a.9.9 0 0 0 .469-.585q.305-.483.82-.703a.77.77 0 0 0 .351-.352q3.455-3.01 8.086-3.281" clip-rule="evenodd"/><path fill="#8B5953" fill-rule="evenodd" d="M26.777 70.723q.218.3.235.703-.313-.263-.235-.703" clip-rule="evenodd" opacity=".502"/><path fill="#1E0400" fill-rule="evenodd" d="M92.871 71.66a3.5 3.5 0 0 1-.234.82h-.118q.037-.48.352-.82" clip-rule="evenodd" opacity=".082"/><path fill="#904A40" fill-rule="evenodd" d="M95.8 71.66a22 22 0 0 1-1.054 2.93q.384-1.126.527-2.344l.118.235a4 4 0 0 1 .175-.703q.08-.14.235-.118" clip-rule="evenodd"/><path fill="#88423D" fill-rule="evenodd" d="M83.848 72.48q.87-.28 1.64.235a12 12 0 0 0-1.64-.234" clip-rule="evenodd" opacity=".945"/><path fill="#B2382F" fill-rule="evenodd" d="M92.52 72.48h.117q.175.266.234.586a.57.57 0 0 0-.469.118 2.4 2.4 0 0 1-.468.703 5.7 5.7 0 0 1 .585-1.406" clip-rule="evenodd"/><path fill="#180505" fill-rule="evenodd" d="M83.496 72.715a9 9 0 0 0-.234 1.289.4.4 0 0 1-.118-.293q.09-.44.176-.879a.27.27 0 0 1 .176-.117" clip-rule="evenodd" opacity=".059"/><path fill="#8E4541" fill-rule="evenodd" d="M36.035 72.48q.723.375.703 1.23a1.3 1.3 0 0 1-.234.646.8.8 0 0 0-.117-.47.5.5 0 0 1 .234-.175 3.4 3.4 0 0 0-.586-1.23" clip-rule="evenodd" opacity=".937"/><path fill="#EC4A3C" fill-rule="evenodd" d="M83.848 72.48q.83.062 1.64.234.157.48.528.82a.4.4 0 0 1 .175-.116q.411.196.762.468a.27.27 0 0 1 .176-.117q.225.252.586.235.165.259.469.351a.84.84 0 0 1 .234.703 2.5 2.5 0 0 0-.117.82q-.136.57-.703.762-.39.139-.704-.058-.319-.342-.703-.235-.653-.48-1.289-.937a1.04 1.04 0 0 1-.468-.528 1 1 0 0 0-.47-.058q-.605-.195-.702-.82.072-.655.234-1.29.084-.246.352-.234" clip-rule="evenodd"/><path fill="#AA4139" fill-rule="evenodd" d="M85.488 72.715a9 9 0 0 1 1.64 1.054.27.27 0 0 0-.175.118 4 4 0 0 0-.762-.469.4.4 0 0 0-.175.117 1.9 1.9 0 0 1-.528-.82" clip-rule="evenodd"/><path fill="#1C0805" fill-rule="evenodd" d="M87.129 73.77a.7.7 0 0 1 .586.234.7.7 0 0 1-.586-.234" clip-rule="evenodd" opacity=".035"/><path fill="#F9453D" fill-rule="evenodd" d="M9.902 23.145q.12 3.727.235 7.5-.003 20.598 0 41.25-.047 11.982-.235 23.906z" clip-rule="evenodd"/><path fill="#EB4D3E" fill-rule="evenodd" d="M36.033 72.48q.41.535.586 1.231a.5.5 0 0 0-.234.176.8.8 0 0 1 .117.469 27.5 27.5 0 0 1-3.516 2.285q-.33.137-.586-.059a.68.68 0 0 0-.468-.234q-.391-.158-.352-.586a4 4 0 0 1 .117-1.29 17.4 17.4 0 0 1 3.164-2.05 2.04 2.04 0 0 1 1.172.059" clip-rule="evenodd"/><path fill="#A03C35" fill-rule="evenodd" d="M27.832 73.535q.315.34.352.82a3.7 3.7 0 0 1-.586-.234.7.7 0 0 0 .234-.586" clip-rule="evenodd"/><path fill="#1C1312" fill-rule="evenodd" d="M87.715 74.004q.375.009.469.352a.82.82 0 0 1-.47-.352" clip-rule="evenodd" opacity=".035"/><path fill="#190303" fill-rule="evenodd" d="M91.935 73.887a.7.7 0 0 1-.235.586.7.7 0 0 1 .235-.586" clip-rule="evenodd" opacity=".035"/><path fill="#D9735F" fill-rule="evenodd" d="M83.965 74.824a1 1 0 0 1 .469.059q.15.354.468.527a.58.58 0 0 1-.351-.059 4 4 0 0 1-.586-.527" clip-rule="evenodd" opacity=".996"/><path fill="#1A0202" fill-rule="evenodd" d="M91.583 74.707a.7.7 0 0 1-.234.586.7.7 0 0 1 .234-.586" clip-rule="evenodd" opacity=".039"/><path fill="#5B2B23" fill-rule="evenodd" d="M31.7 74.473a4 4 0 0 0-.118 1.289q-.443-.694.117-1.29" clip-rule="evenodd" opacity=".78"/><path fill="#85565C" fill-rule="evenodd" d="M88.419 75.059q.105.041.117.175a2.5 2.5 0 0 1-.235.645 2.5 2.5 0 0 1 .118-.82" clip-rule="evenodd" opacity=".075"/><path fill="#5D2926" fill-rule="evenodd" d="M91.348 75.293a2.2 2.2 0 0 1-.47.82q.043-.548.47-.82" clip-rule="evenodd" opacity=".878"/><path fill="#954137" fill-rule="evenodd" d="M28.652 75.293q.324.413.47.938-.159-.195-.294 0a4 4 0 0 1-.176-.938" clip-rule="evenodd"/><path fill="#C7ADB8" fill-rule="evenodd" d="M86.191 76.348q.384-.107.703.234a1.33 1.33 0 0 1-.703-.234" clip-rule="evenodd" opacity=".098"/><path fill="#180303" fill-rule="evenodd" d="M90.879 76.113a1.45 1.45 0 0 1-.469.82q.102-.497.469-.82" clip-rule="evenodd" opacity=".043"/><path fill="#CCC1C1" fill-rule="evenodd" d="M31.934 76.348a.68.68 0 0 1 .468.234q-.33.048-.468-.234" clip-rule="evenodd" opacity=".073"/><path fill="#874739" fill-rule="evenodd" d="M93.925 76.348q-.145.523-.469.937a1.8 1.8 0 0 1 .117-.82.36.36 0 0 1 .352-.118" clip-rule="evenodd" opacity=".941"/><path fill="#8C3E2E" fill-rule="evenodd" d="M29.357 76.7q.265.294.352.702-.435-.208-.352-.703" clip-rule="evenodd" opacity=".937"/><path fill="#210C0B" fill-rule="evenodd" d="M90.41 77.05a.82.82 0 0 1-.351.47q.009-.375.351-.47" clip-rule="evenodd" opacity=".047"/><path fill="#160303" fill-rule="evenodd" d="M90.059 77.637a.82.82 0 0 1-.352.469q.01-.375.352-.47" clip-rule="evenodd" opacity=".047"/><path fill="#72342D" fill-rule="evenodd" d="M93.223 77.637q-.18.715-.704 1.172.277-.555.352-1.172z" clip-rule="evenodd" opacity=".961"/><path fill="#664B41" fill-rule="evenodd" d="M26.543 77.286q.154-.024.234.117.179.472.352.937a3.1 3.1 0 0 1-.586-1.055" clip-rule="evenodd" opacity=".055"/><path fill="#1D0604" fill-rule="evenodd" d="M89.356 78.574a.77.77 0 0 1-.352.586.77.77 0 0 1 .352-.586" clip-rule="evenodd" opacity=".039"/><path fill="#160807" fill-rule="evenodd" d="M92.52 78.926q-.01.375-.352.468a.82.82 0 0 1 .351-.468" clip-rule="evenodd" opacity=".01"/><path fill="#1E0200" fill-rule="evenodd" d="M27.716 79.395q.246.083.234.351-.247-.082-.235-.352" clip-rule="evenodd" opacity=".039"/><path fill="#140A0A" fill-rule="evenodd" d="M92.168 79.512a2.9 2.9 0 0 1-.586.937q.118-.588.586-.937" clip-rule="evenodd" opacity=".01"/><path fill="#1D0B0A" fill-rule="evenodd" d="M28.067 79.98q.247.084.234.352-.246-.083-.234-.351" clip-rule="evenodd" opacity=".01"/><path fill="#200906" fill-rule="evenodd" d="M89.004 79.16a3.5 3.5 0 0 1-1.055 1.524q.46-.812 1.055-1.524" clip-rule="evenodd" opacity=".047"/><path fill="#1B1210" fill-rule="evenodd" d="M91.582 80.45q-.009.374-.351.468a.82.82 0 0 1 .351-.469" clip-rule="evenodd" opacity=".01"/><path fill="#290301" fill-rule="evenodd" d="M28.419 80.566q.246.084.234.352-.247-.084-.234-.352" clip-rule="evenodd" opacity=".02"/><path fill="#1E0E0C" fill-rule="evenodd" d="M28.653 80.918q.247.083.234.351-.247-.083-.234-.351" clip-rule="evenodd" opacity=".01"/><path fill="#1E0705" fill-rule="evenodd" d="M91.23 80.918q0 .234-.234.234a.35.35 0 0 1 .235-.234" clip-rule="evenodd" opacity=".01"/><path fill="#210908" fill-rule="evenodd" d="M87.832 80.918a.9.9 0 0 1-.469.586.9.9 0 0 1 .469-.586" clip-rule="evenodd" opacity=".09"/><path fill="#1D0604" fill-rule="evenodd" d="M29.004 81.504q.31.134.351.469a.56.56 0 0 1-.351-.47" clip-rule="evenodd" opacity=".01"/><path fill="#1F0706" fill-rule="evenodd" d="M87.364 81.504q.012.268-.235.352-.012-.27.235-.352" clip-rule="evenodd" opacity=".09"/><path fill="#180A09" fill-rule="evenodd" d="M90.996 81.27q-.215.487-.527.937a.63.63 0 0 1-.41.352q.342-.746.937-1.29" clip-rule="evenodd" opacity=".01"/><path fill="#1F0D04" fill-rule="evenodd" d="M29.356 81.973q.247.083.234.351-.246-.083-.234-.351" clip-rule="evenodd" opacity=".01"/><path fill="#DF8E8A" fill-rule="evenodd" d="M73.887 82.793a1.66 1.66 0 0 1 1.054-.059q.285.042.352.293a3.4 3.4 0 0 0-1.406-.234" clip-rule="evenodd" opacity=".067"/><path fill="#AA5F58" fill-rule="evenodd" d="M86.895 82.207a.93.93 0 0 0-.352.703h-.352q.196-.51.703-.703" clip-rule="evenodd" opacity=".949"/><path fill="#F28B81" fill-rule="evenodd" d="M44.707 82.676q.589-.03 1.172.059.32.034.469.293a57 57 0 0 1-1.641-.352" clip-rule="evenodd" opacity=".945"/><path fill="#8A4E4B" fill-rule="evenodd" d="M46.348 83.027q.772.702.234 1.641-.08.14-.234.117.454-.873 0-1.758" clip-rule="evenodd" opacity=".627"/><path fill="#1C0D0B" fill-rule="evenodd" d="M89.356 83.379q.038.295-.235.352a.8.8 0 0 1 .235-.352" clip-rule="evenodd" opacity=".01"/><path fill="#ED4A3C" fill-rule="evenodd" d="M44.707 82.676q.8.184 1.64.351.456.885 0 1.758-.097.492-.468.82a.82.82 0 0 0-.352.47.77.77 0 0 1-.351.585.8.8 0 0 0-.235.352.27.27 0 0 1-.175-.118q-.255.397-.41.82-.228-.04-.352.118a2.86 2.86 0 0 1-1.29-.703q.018-.839.235-1.64.795-1.455 1.758-2.813" clip-rule="evenodd"/><path fill="#C55D45" fill-rule="evenodd" d="M88.418 84.434a5.5 5.5 0 0 1-1.524 1.757.34.34 0 0 0-.117-.293.9.9 0 0 0 .645-.41q-.046-.597.527-.586-.059-.526.469-.468" clip-rule="evenodd"/><path fill="#EC4A3C" fill-rule="evenodd" d="M73.886 82.793q.734-.03 1.406.234.227.14.41.352a19.5 19.5 0 0 1 1.7 3.047q.038.513-.235.937a.56.56 0 0 1-.469.352q-.98.093-1.64-.586a51 51 0 0 1-1.817-2.813 2.07 2.07 0 0 1 .059-1.113q.223-.312.586-.41" clip-rule="evenodd"/><path fill="#363332" fill-rule="evenodd" d="M45.879 85.606q-.01.375-.352.468a.82.82 0 0 1 .352-.468" clip-rule="evenodd" opacity=".035"/><path fill="#DF8A81" fill-rule="evenodd" d="M60.762 86.426a3.06 3.06 0 0 0-1.407-.059q-.254.195-.468.41.102-.541.644-.703.685.058 1.23.352" clip-rule="evenodd" opacity=".095"/><path fill="#1B1616" fill-rule="evenodd" d="M45.176 86.66q.038.295-.235.352a.8.8 0 0 1 .235-.352" clip-rule="evenodd" opacity=".01"/><path fill="#CC6F57" fill-rule="evenodd" d="M86.66 86.309a1.83 1.83 0 0 1-.938.937.31.31 0 0 1-.059-.351q.126.166.293.059.24-.255.352-.586a.58.58 0 0 1 .351-.06" clip-rule="evenodd" opacity=".988"/><path fill="#9C4037" fill-rule="evenodd" d="M42.95 85.488a6.8 6.8 0 0 0-.234 1.64q.531.509 1.29.704h.117q-.85.116-1.465-.586-.417-.987.293-1.758" clip-rule="evenodd" opacity=".976"/><path fill="#794643" fill-rule="evenodd" d="M75.059 87.129q.66.68 1.64.586-.628.225-1.289-.059a.8.8 0 0 1-.351-.527" clip-rule="evenodd" opacity=".925"/><path fill="#140A0A" fill-rule="evenodd" d="M77.402 86.426q.198.315.059.703-.074.22-.293.234.273-.424.234-.937" clip-rule="evenodd" opacity=".01"/><path fill="#AC4B38" fill-rule="evenodd" d="M44.941 87.012q-.123.71-.82.82h-.117q.124-.159.352-.117.155-.424.41-.82a.27.27 0 0 0 .175.117" clip-rule="evenodd" opacity=".973"/><path fill="#77251F" fill-rule="evenodd" d="M58.887 86.777q.077 1.429-.235 2.813a3.2 3.2 0 0 1-.117-.762q.073-1.069.352-2.05" clip-rule="evenodd" opacity=".937"/><path fill="#C38F8B" fill-rule="evenodd" d="M110.1 86.895h.117q.059 5.42-.117 10.78a2422 2422 0 0 1 0-10.78" clip-rule="evenodd" opacity=".933"/><path fill="#82342C" fill-rule="evenodd" d="M60.879 86.543q.275.405.293.938a36 36 0 0 1 0 4.101 1.5 1.5 0 0 1-.176.586 74 74 0 0 0-.117-5.625" clip-rule="evenodd" opacity=".937"/><path fill="#EA473B" fill-rule="evenodd" d="M60.761 86.426q.117 0 .117.117.165 2.808.118 5.625-.274.46-.82.469a17 17 0 0 1-.938-.293 3 3 0 0 0-.235-.41q-.106.021-.117.117a.65.65 0 0 1-.176-.352 19 19 0 0 1-.058-2.109q.31-1.383.234-2.812.215-.217.469-.41.719-.135 1.406.058" clip-rule="evenodd"/><path fill="#7D1D17" fill-rule="evenodd" d="M107.637 96.504V23.496a.26.26 0 0 0 .175-.117l.059 36.562q0 18.34-.234 36.563" clip-rule="evenodd" opacity=".937"/><path fill="#A37976" fill-rule="evenodd" d="M40.488 88.887q.298.062.352.351-.297-.062-.352-.351" clip-rule="evenodd" opacity=".118"/><path fill="#A1403A" fill-rule="evenodd" d="M83.965 88.887q-.36.36-.82.586v-.352h.351a1 1 0 0 1 .059-.469.46.46 0 0 0 .41.235" clip-rule="evenodd" opacity=".592"/><path fill="#C19B91" fill-rule="evenodd" d="M42.363 90.176q.573.051.938.468a2.65 2.65 0 0 1-.938-.468" clip-rule="evenodd" opacity=".122"/><path fill="#ED907C" fill-rule="evenodd" d="m43.418 90.645 1.406.703q-.01.095-.117.117a3.6 3.6 0 0 1-1.289-.82" clip-rule="evenodd" opacity=".133"/><path fill="#9A7272" fill-rule="evenodd" d="M81.152 90.996a.8.8 0 0 1-.351.234q.056-.272.351-.234" clip-rule="evenodd" opacity=".051"/><path fill="#B05D4C" fill-rule="evenodd" d="M80.8 91.23a7 7 0 0 1-1.288.82.82.82 0 0 1 .469-.41q-.236-.117 0-.234.393-.172.82-.175" clip-rule="evenodd" opacity=".702"/><path fill="#D2A4A0" fill-rule="evenodd" d="M44.941 91.465q.468.076.82.351a1.1 1.1 0 0 1-.82-.351" clip-rule="evenodd" opacity=".102"/><path fill="#A55D56" fill-rule="evenodd" d="M60.176 92.637q-.414.029-.82-.059a.65.65 0 0 1-.47-.527q.012-.096.118-.117.134.198.234.41.484.165.938.293" clip-rule="evenodd" opacity=".973"/><path fill="#D38886" fill-rule="evenodd" d="M74.356 91.7q-.246.33-.704.35.27-.305.704-.35" clip-rule="evenodd" opacity=".141"/><path fill="#BE5345" fill-rule="evenodd" d="M79.512 92.05q-.909.72-1.993 1.173.195-.158 0-.293a1 1 0 0 1 .47-.059v-.469q.413.03.82-.058a.8.8 0 0 1-.352-.176l.234-.117q.435.07.82 0" clip-rule="evenodd"/><path fill="#C18A83" fill-rule="evenodd" d="M46.582 92.168a7.6 7.6 0 0 1 2.227.82 12.6 12.6 0 0 1-2.227-.82" clip-rule="evenodd" opacity=".122"/><path fill="#C49A94" fill-rule="evenodd" d="M72.715 92.402q-.34.315-.82.352.338-.315.82-.352" clip-rule="evenodd" opacity=".149"/><path fill="#CD4F3D" fill-rule="evenodd" d="M42.715 93.457a8 8 0 0 1-1.172-.527 5.6 5.6 0 0 1-1.29-.88q.415.105.763.352.32-.09.058-.293a.54.54 0 0 1 .469-.117q.056.36.059.762.524.249 1.113.293.117.173 0 .41" clip-rule="evenodd"/><path fill="#F29999" fill-rule="evenodd" d="M71.895 92.754a1.26 1.26 0 0 1-1.055.352 6.4 6.4 0 0 1 1.054-.352" clip-rule="evenodd" opacity=".133"/><path fill="#F69D93" fill-rule="evenodd" d="M70.84 93.106q-.34.291-.82.234.369-.196.82-.234" clip-rule="evenodd" opacity=".322"/><path fill="#AB665B" fill-rule="evenodd" d="M77.52 93.223q-.615.395-1.29.703.07-.295.176-.586a.6.6 0 0 0 .293.117q.398-.17.82-.234" clip-rule="evenodd" opacity=".988"/><path fill="#E4AAA3" fill-rule="evenodd" d="M50.684 93.574q1.43.182 2.812.586-.04.106-.176.117-1.344-.343-2.636-.703" clip-rule="evenodd" opacity=".133"/><path fill="#E2716B" fill-rule="evenodd" d="M70.02 93.34q-.48.211-.88.586a1.43 1.43 0 0 0-.761-.117 21 21 0 0 1 1.64-.47" clip-rule="evenodd"/><path fill="#EFD0C2" fill-rule="evenodd" d="M67.793 93.926q-.39.318-.82.117a6 6 0 0 1 .82-.117" clip-rule="evenodd" opacity=".131"/><path fill="#B05B4F" fill-rule="evenodd" d="M76.23 93.926q-.494.276-1.054.468v-.351a5 5 0 0 1 1.055-.117" clip-rule="evenodd" opacity=".953"/><path fill="#E28E8C" fill-rule="evenodd" d="M66.857 94.16a4.5 4.5 0 0 1-.996.352q-.07-.04-.059-.118a3.2 3.2 0 0 1 1.055-.234" clip-rule="evenodd" opacity=".137"/><path fill="#F1CBC5" fill-rule="evenodd" d="M54.668 94.511v-.117q.75-.027 1.406.235z" clip-rule="evenodd" opacity=".067"/><path fill="#B09A96" fill-rule="evenodd" d="M75.176 94.395a10 10 0 0 1-1.29.586 1.98 1.98 0 0 1 1.29-.587" clip-rule="evenodd" opacity=".024"/><path fill="#FADFDD" fill-rule="evenodd" d="M63.809 94.629q-1.839.258-3.75.234-1.204 0-2.344-.117a119 119 0 0 0 6.094-.117" clip-rule="evenodd" opacity=".137"/><path fill="#9C5851" fill-rule="evenodd" d="M44.356 94.277a9 9 0 0 0 1.171.117v.352a82 82 0 0 1 4.22 1.523 19.8 19.8 0 0 1-5.392-1.992" clip-rule="evenodd" opacity=".463"/><path fill="#A6675B" fill-rule="evenodd" d="M73.535 95.098q-1.316.568-2.695 1.054a.53.53 0 0 1 .234-.351 36 36 0 0 1 2.461-.703" clip-rule="evenodd" opacity=".925"/><path fill="#996762" fill-rule="evenodd" d="M49.746 96.27q.707.094 1.406.234.42.15.82.352a6.7 6.7 0 0 1-2.226-.587" clip-rule="evenodd" opacity=".345"/><path fill="#A65249" fill-rule="evenodd" d="M70.371 96.27a6.6 6.6 0 0 1-1.875.586v-.118q.124-.159.352-.117v-.352z" clip-rule="evenodd"/><path fill="#A67068" fill-rule="evenodd" d="M52.207 96.973a.54.54 0 0 1 .352-.117q1.874.409 3.75.703a15.8 15.8 0 0 1-4.102-.586" clip-rule="evenodd" opacity=".365"/><path fill="#F1DED7" fill-rule="evenodd" d="M68.496 96.738v.118a2.3 2.3 0 0 1-.703.117q.198-.208.703-.235" clip-rule="evenodd" opacity=".024"/><path fill="#AD423A" fill-rule="evenodd" d="M62.52 97.559q0 .117.117.117-1.315.175-2.696.117a.27.27 0 0 1 .118-.175q1.23-.088 2.46-.059" clip-rule="evenodd" opacity=".349"/><path fill="#D9B1A9" fill-rule="evenodd" d="M65.215 97.441q-1.254.232-2.578.235-.117 0-.117-.117a186 186 0 0 1 2.695-.118" clip-rule="evenodd" opacity=".031"/><path fill="#80534E" fill-rule="evenodd" d="M12.599 98.027q.09.65.234 1.29-.48-.594-.234-1.29" clip-rule="evenodd" opacity=".208"/><path fill="#802D28" fill-rule="evenodd" d="M10.137 99.082q.441.725.468 1.641a4.3 4.3 0 0 1-.468-1.641" clip-rule="evenodd" opacity=".886"/><path fill="#86342C" fill-rule="evenodd" d="M107.402 98.145a4.3 4.3 0 0 1-.351 1.757q-.13.6-.586.938.606-1.32.937-2.696" clip-rule="evenodd" opacity=".953"/><path fill="#87544F" fill-rule="evenodd" d="M109.512 100.254a1.25 1.25 0 0 1-.235.703q-.078-.44.235-.703" clip-rule="evenodd" opacity=".306"/><path fill="#B53F36" fill-rule="evenodd" d="M10.84 101.191q.435.02.234.352.277.14.586.176l-.234.234a2.7 2.7 0 0 0 .117.762 4.5 4.5 0 0 1-.703-1.524" clip-rule="evenodd"/><path fill="#984D40" fill-rule="evenodd" d="M109.16 101.191a2.9 2.9 0 0 1-.82 1.524 2.5 2.5 0 0 0 .117-.82h.352v-.704z" clip-rule="evenodd" opacity=".984"/><path fill="#835553" fill-rule="evenodd" d="M14.59 102.715q.366.19.469.586a.88.88 0 0 1-.47-.586" clip-rule="evenodd" opacity=".345"/><path fill="#9C5F58" fill-rule="evenodd" d="M104.004 104.238a1.3 1.3 0 0 1-.703.586q.248-.424.703-.586" clip-rule="evenodd" opacity=".208"/><path fill="#875B56" fill-rule="evenodd" d="M13.184 105.059q.811.694 1.523 1.523a4.7 4.7 0 0 1-1.523-1.523" clip-rule="evenodd" opacity=".624"/><path fill="#B94B39" fill-rule="evenodd" d="M107.401 104.238a5.7 5.7 0 0 1-1.875 1.992.58.58 0 0 1 .058-.351q.615-.498 1.114-1.113-.292-.127-.176-.411.195.271.527.235a.7.7 0 0 1 .176-.586.4.4 0 0 0 .176.234" clip-rule="evenodd" opacity=".947"/><path fill="#804C48" fill-rule="evenodd" d="M17.168 105.175q.268-.012.352.235-.27.012-.352-.235" clip-rule="evenodd" opacity=".016"/><path fill="#99473C" fill-rule="evenodd" d="M17.637 105.41q.75.346 1.406.82a57 57 0 0 1-1.406-.468z" clip-rule="evenodd" opacity=".424"/><path fill="#9D4F4C" fill-rule="evenodd" d="M19.395 106.347q.906.264 1.757.586a4.2 4.2 0 0 1-1.875-.527q.04-.07.117-.059" clip-rule="evenodd" opacity=".431"/><path fill="#965E5D" fill-rule="evenodd" d="M100.723 106.348a3.45 3.45 0 0 1-1.875.586q.9-.358 1.875-.586" clip-rule="evenodd" opacity=".424"/><path fill="#DA5445" fill-rule="evenodd" d="M17.168 108.222a6.3 6.3 0 0 1-1.875-1.172q.27.036.469.235l.234-.235q.213.137 0 .293a.57.57 0 0 0 .352.059.51.51 0 0 1 .117-.41q.432-.166.703.176-1.619.439 0 .703z" clip-rule="evenodd"/><path fill="#6A4F4C" fill-rule="evenodd" d="M21.387 106.934a8 8 0 0 1 1.054.175q21.094.089 42.188.059v.117H23.262a2.8 2.8 0 0 1-1.055-.117q-.48.058-.82-.234" clip-rule="evenodd" opacity=".076"/><path fill="#F5BAA6" fill-rule="evenodd" d="M73.887 107.168q-4.599.175-9.258.117v-.117q4.685-.018 9.258 0" clip-rule="evenodd" opacity=".067"/><path fill="#4E3B3B" fill-rule="evenodd" d="M75.059 107.168v.117a2.46 2.46 0 0 1-1.055-.117q.5-.105 1.055 0" clip-rule="evenodd" opacity=".024"/><path fill="#785853" fill-rule="evenodd" d="M97.676 107.168q-.37.17-.82.118H75.059v-.118q11.227-.078 22.617 0" clip-rule="evenodd" opacity=".153"/><path fill="#D01C14" fill-rule="evenodd" d="M22.207 107.168q.508.159 1.055.117 19.19.147 38.437.176-19.277.088-38.554.059a2.2 2.2 0 0 1-.938-.352" clip-rule="evenodd" opacity=".969"/><path fill="#EF4A3C" fill-rule="evenodd" d="M73.887 107.168h.117q.49.171 1.055.117h21.797q-6.3.147-12.657.176l12.54.117-11.954.117q.42.051.82.176a.36.36 0 0 1 .118.352h2.343v.468q5.052.1 10.078-.234v.352a3.4 3.4 0 0 0-1.406.234.65.65 0 0 1 .118.352 9819 9819 0 0 1-66.915.117v-.352h-.468v-.469h1.172a1.28 1.28 0 0 0-.235-.996 223 223 0 0 1-7.265-.175q19.277.029 38.554-.059-19.248-.03-38.437-.176h41.367q4.659.059 9.258-.117" clip-rule="evenodd"/><path fill="#D27463" fill-rule="evenodd" d="M17.285 108.34q.01-.096.117-.117.342.12.703.175.274.127.352.411a3.8 3.8 0 0 1-1.172-.469" clip-rule="evenodd" opacity=".996"/><path fill="#E37666" fill-rule="evenodd" d="M103.77 107.637a7.2 7.2 0 0 1-2.461 1.172q.49-.343.996-.703.126.167.293.058.231-.244-.118-.351a.84.84 0 0 1 .645.058.92.92 0 0 1 .645-.234" clip-rule="evenodd" opacity=".89"/><path fill="#CC9991" fill-rule="evenodd" d="M18.457 108.809q.59.033 1.055.351-.6-.004-1.055-.351" clip-rule="evenodd" opacity=".086"/><path fill="#D4C3BC" fill-rule="evenodd" d="M19.512 109.16q.45.039.82.235a1.02 1.02 0 0 1-.82-.235" clip-rule="evenodd" opacity=".063"/><path fill="#E7A8A7" fill-rule="evenodd" d="M20.45 109.395a8.4 8.4 0 0 1 2.109.351 7.5 7.5 0 0 1-2.11-.351" clip-rule="evenodd" opacity=".098"/><path fill="#D19892" fill-rule="evenodd" d="M99.55 109.395a4.5 4.5 0 0 1-1.523.234q.72-.245 1.524-.234" clip-rule="evenodd" opacity=".094"/><path fill="#F03329" fill-rule="evenodd" d="M96.856 109.395q.21.135.351.351-37.265.03-74.531-.058a76 76 0 0 1 7.265-.176q33.458.056 66.915-.117" clip-rule="evenodd"/></svg>